<svg width="70" height="90" viewBox="0 0 70 90" fill="none" xmlns="http://www.w3.org/2000/svg">
<path fill-rule="evenodd" clip-rule="evenodd" d="M0 28.2138V40.0616C0 52.5465 3.15355 63.8815 11.5594 73.3532C18.0284 80.6419 26.4065 85.5536 34.9541 90.0003C43.5026 85.5544 51.8807 80.6419 58.3489 73.3532C66.7547 63.8815 69.9083 52.5465 69.9083 40.0616V28.2138C65.0957 26.546 61.098 23.3373 58.2851 19.0635C55.5856 14.9609 54.1993 10.1138 54.4536 5.21722C54.3495 5.18197 54.2455 5.14756 54.1406 5.11315C47.8578 3.02492 41.4559 1.2615 34.9533 0C28.4515 1.26066 22.0496 3.02408 15.7669 5.11315C15.6628 5.14756 15.5579 5.18281 15.4539 5.21722C15.7073 10.1138 14.3219 14.9601 11.6223 19.0635C8.81029 23.3381 4.81171 26.546 0 28.2138Z" fill="#9E9E9E"/>
</svg>
