<svg width="34" height="41" viewBox="0 0 34 41" fill="none" xmlns="http://www.w3.org/2000/svg">
<path d="M25.8237 14.9313H25.7737C25.7497 14.9403 25.7257 14.9493 25.7007 14.9583C19.816 17.1013 14.3161 19.1053 9.2032 20.9723C8.91226 21.0793 8.99026 21.4942 9.3052 21.4942H14.701C14.71 21.4942 14.718 21.5003 14.72 21.5093C15.058 22.7722 15.3939 24.0292 15.7298 25.2812C15.7868 25.4952 16.0448 25.5562 16.1977 25.3902C16.9976 24.5262 17.7874 23.6722 18.5682 22.8272C18.5762 22.8182 18.5862 22.8142 18.5982 22.8142C20.2559 22.8132 21.9065 22.8132 23.5492 22.8142C23.7051 22.8142 23.8041 22.7452 23.8451 22.6082C24.308 21.0833 25.0479 18.6233 26.0637 15.2283V15.1663C26.0337 15.0363 25.9537 14.9583 25.8237 14.9313ZM16.2597 22.5113C16.1577 23.0132 16.0588 23.5092 15.9618 23.9972C15.9548 24.0302 15.9478 24.0312 15.9388 23.9972L15.2319 21.3583C15.2299 21.3503 15.2329 21.3433 15.2399 21.3393C15.9428 20.9453 16.6576 20.5432 17.3865 20.1332C17.7114 19.9502 17.4585 19.4772 17.1035 19.6772C16.3777 20.0882 15.6359 20.5072 14.877 20.9352C14.849 20.9512 14.818 20.9593 14.785 20.9593C13.5113 20.9593 12.2066 20.9583 10.8719 20.9593C10.8619 20.9593 10.8519 20.9563 10.8429 20.9523C10.8309 20.9463 10.8308 20.9402 10.8438 20.9352C10.8578 20.9302 10.8728 20.9243 10.8878 20.9183C14.3651 19.6583 18.2423 18.2453 22.5194 16.6783C22.5234 16.6773 22.5274 16.6793 22.5284 16.6833V16.6853L22.5274 16.6843L22.5254 16.6833C22.5254 16.6833 22.5234 16.6833 22.5214 16.6843C22.5194 16.6863 22.5174 16.6883 22.5164 16.6903C22.5144 16.6933 22.5114 16.6963 22.5074 16.6983C21.0407 17.5063 19.569 18.3173 18.0933 19.1303C17.8874 19.2443 17.8944 19.5213 18.1073 19.6172C18.2033 19.6602 18.2983 19.6293 18.3873 19.5803C20.0049 18.6873 21.5776 17.8213 23.1043 16.9813C23.1063 16.9803 23.1083 16.9823 23.1083 16.9823L23.1093 16.9853L23.1083 16.9883C20.8618 18.7683 18.6152 20.5483 16.3707 22.3272C16.3117 22.3732 16.2747 22.4343 16.2597 22.5113ZM17.8414 22.8322L16.4627 24.3212C16.4547 24.3292 16.4407 24.3222 16.4427 24.3112L16.7426 22.8232C16.7436 22.8182 16.7476 22.8142 16.7536 22.8142L17.8324 22.8133C17.8424 22.8133 17.8474 22.8252 17.8414 22.8322ZM25.2768 15.9673C25.1478 16.4233 24.9959 16.9403 24.8209 17.5183C24.342 19.0973 23.8661 20.6762 23.3952 22.2552C23.3902 22.2702 23.3802 22.2772 23.3652 22.2772C19.3421 22.2772 17.3285 22.2772 17.3285 22.2772C17.3105 22.2802 17.3075 22.2722 17.3185 22.2542C17.3265 22.2412 19.9769 20.1433 25.2688 15.9603C25.2768 15.9533 25.2798 15.9563 25.2768 15.9673Z" fill="#CCCCCC"/>
<path d="M21.6104 24.6324C21.2065 25.2954 20.8235 25.9194 20.4626 26.5054C20.4526 26.5214 20.4446 26.5204 20.4396 26.5024C20.4007 26.3624 20.3556 26.2184 20.2817 26.0914C20.0177 25.6424 19.5238 25.3784 18.9999 25.4364C18.666 25.4734 18.3881 25.6134 18.1671 25.8564C17.6152 26.4614 17.7332 27.4294 18.4361 27.8644C18.761 28.0664 19.1169 28.1164 19.5018 28.0174C19.6578 27.9784 19.8058 27.9184 19.9467 27.8394C19.9557 27.8344 19.9667 27.8414 19.9647 27.8514C19.8988 28.3054 19.7418 28.7394 19.4948 29.1534C19.4089 29.2974 19.3239 29.4344 19.2399 29.5644C19.1989 29.6284 19.1699 29.6894 19.1529 29.7474C19.1099 29.8964 19.2329 30.0623 19.3869 30.0683C19.4938 30.0723 19.5748 30.0334 19.6298 29.9504C19.8448 29.6264 20.0837 29.2414 20.2247 28.9024C20.4286 28.4104 20.5326 27.9054 20.5346 27.3864C20.5346 27.3734 20.5386 27.3614 20.5466 27.3504C20.6246 27.2414 20.7056 27.1344 20.7766 27.0184C21.2165 26.3004 21.6504 25.5924 22.0783 24.8945C22.2752 24.5735 21.8213 24.2864 21.6104 24.6324ZM19.9787 27.1714C19.7128 27.4054 19.2959 27.6044 18.9379 27.5094C18.2451 27.3244 18.1381 26.3814 18.778 26.0514C18.9859 25.9444 19.1999 25.9324 19.4198 26.0174C19.6788 26.1174 19.8418 26.3074 19.9087 26.5874C19.9507 26.7614 19.9787 26.9454 19.9927 27.1394C19.9927 27.1514 19.9877 27.1624 19.9787 27.1714Z" fill="#CCCCCC"/>
<path d="M13.8517 25.4817C13.0768 26.2567 12.311 27.0227 11.5542 27.7807C11.5422 27.7927 11.5362 27.7897 11.5382 27.7727C11.5502 27.5457 11.5622 27.3257 11.5122 27.0957C11.4352 26.7387 11.2672 26.4367 11.0063 26.1897C10.8393 26.0307 10.6314 25.9097 10.3814 25.8257C9.45163 25.5127 8.43483 26.0837 8.21187 27.0467C8.1089 27.4887 8.17789 27.9117 8.41584 28.3147C8.6018 28.6287 8.87775 28.8587 9.24367 29.0027C9.42563 29.0747 9.6036 29.1147 9.77856 29.1207C10.0985 29.1337 10.4244 29.0827 10.7313 28.9767C10.7473 28.9707 10.7533 28.9767 10.7473 28.9927C10.5104 29.6597 10.1395 30.2507 9.63558 30.7657C9.47362 30.9307 9.30064 31.1026 9.11668 31.2826C9.0217 31.3756 8.95273 31.4856 9.00272 31.6206C9.07271 31.8096 9.30264 31.8506 9.44361 31.7126C9.80953 31.3556 10.1925 30.9916 10.4924 30.5926C10.9373 30.0007 11.2322 29.3556 11.4092 28.6457C11.4122 28.6327 11.4192 28.6217 11.4302 28.6137C11.5512 28.5217 11.6591 28.4287 11.7531 28.3347C12.544 27.5447 13.3708 26.7187 14.2336 25.8557C14.5076 25.5827 14.1286 25.2037 13.8517 25.4817ZM11.0053 27.6897C10.9923 27.8967 10.9683 28.0947 10.9353 28.2827C10.9333 28.2927 10.9273 28.3007 10.9183 28.3067C10.5084 28.5397 9.92852 28.6747 9.48861 28.5287C8.75877 28.2857 8.45583 27.3867 8.91973 26.7557C9.0817 26.5347 9.29264 26.3887 9.55058 26.3177C10.1555 26.1517 10.8003 26.5087 10.9663 27.1177C11.0073 27.2647 11.0203 27.4547 11.0053 27.6897Z" fill="#CCCCCC"/>
<path d="M14.6366 30.4755C14.5526 30.5935 14.3886 30.6216 14.2706 30.5376L14.2626 30.5315C14.1447 30.4475 14.1167 30.2836 14.2006 30.1656L15.2384 28.7056C15.3224 28.5876 15.4864 28.5595 15.6044 28.6435L15.6124 28.6496C15.7303 28.7336 15.7583 28.8975 15.6743 29.0155L14.6366 30.4755Z" fill="#CCCCCC"/>
<path d="M8.09525 33.1917H8.04527C7.9113 33.1647 7.83132 33.0837 7.80533 32.9487V32.8977C7.82033 32.8287 7.8453 32.7767 7.88029 32.7397C8.06226 32.5458 8.24321 32.3547 8.42217 32.1647C8.48116 32.1027 8.52717 32.0637 8.56216 32.0457C8.77911 31.9367 9.01605 32.1587 8.92207 32.3827C8.90707 32.4197 8.87108 32.4677 8.81509 32.5267C8.63313 32.7207 8.44919 32.9147 8.26623 33.1087C8.22924 33.1477 8.17223 33.1757 8.09525 33.1917Z" fill="#CCCCCC"/>
<path d="M16.9344 40.9996C7.59639 40.9996 0 33.4017 0 24.0618C0 14.7219 7.59639 7.12405 16.9344 7.12405C26.2725 7.12405 33.8689 14.7219 33.8689 24.0618C33.8679 33.4017 26.2715 40.9996 16.9344 40.9996ZM16.9344 9.703C9.01809 9.703 2.57844 16.1439 2.57844 24.0618C2.57844 31.9797 9.01809 38.4206 16.9344 38.4206C24.8508 38.4206 31.2904 31.9797 31.2904 24.0618C31.2904 16.1449 24.8498 9.703 16.9344 9.703Z" fill="#CCCCCC"/>
<path d="M17.5532 0.61901C17.5532 0.961006 17.2762 1.23796 16.9343 1.23796C16.5924 1.23796 16.3154 0.961006 16.3154 0.61901C16.3154 0.277015 16.5924 0 16.9343 0C17.2762 0 17.5532 0.277015 17.5532 0.61901Z" fill="#CCCCCC"/>
<path d="M25.7237 3.20783L23.8841 8.72674C21.7656 7.76576 19.409 7.23976 16.9375 7.23976C14.4581 7.23976 12.1016 7.77376 9.97402 8.72674L8.14341 3.20783C8.13541 3.19183 8.1434 3.17482 8.1514 3.15882C8.1764 3.14282 8.1924 3.12581 8.2174 3.11781C8.23339 3.10981 8.2504 3.1178 8.2664 3.1258L12.6515 6.9858C12.7504 7.0678 12.8974 7.05178 12.9634 6.94478L16.5357 1.58987C16.5357 1.58187 16.5516 1.58182 16.5606 1.58182C16.8066 1.68082 17.0535 1.68087 17.2995 1.58987C17.3155 1.58187 17.3325 1.58987 17.3405 1.59787L20.9037 6.95278C20.9777 7.05178 21.1177 7.0758 21.2157 6.9858L25.6007 3.1258C25.6167 3.1178 25.6337 3.11781 25.6497 3.11781C25.6747 3.12581 25.6907 3.13382 25.7157 3.15882C25.7327 3.17582 25.7327 3.19183 25.7237 3.20783Z" fill="#CCCCCC"/>
<path d="M8.23256 2.27712C8.23256 2.61911 7.95563 2.89613 7.6137 2.89613C7.27177 2.89613 6.99484 2.61911 6.99484 2.27712C6.99484 1.93512 7.27177 1.65817 7.6137 1.65817C7.95563 1.65817 8.23256 1.93412 8.23256 2.27712Z" fill="#CCCCCC"/>
<path d="M26.8747 2.27712C26.8747 2.61911 26.5978 2.89613 26.2558 2.89613C25.9139 2.89613 25.637 2.61911 25.637 2.27712C25.637 1.93512 25.9139 1.65817 26.2558 1.65817C26.5978 1.65817 26.8747 1.93412 26.8747 2.27712Z" fill="#CCCCCC"/>
<path d="M12.7893 3.10583C12.7893 3.33383 12.6043 3.51879 12.3764 3.51879C12.1484 3.51879 11.9635 3.33383 11.9635 3.10583C11.9635 2.87783 12.1484 2.69281 12.3764 2.69281C12.6043 2.69281 12.7893 2.87783 12.7893 3.10583Z" fill="#CCCCCC"/>
<path d="M21.9033 3.10583C21.9033 3.33383 21.7184 3.51879 21.4904 3.51879C21.2625 3.51879 21.0775 3.33383 21.0775 3.10583C21.0775 2.87783 21.2625 2.69281 21.4904 2.69281C21.7184 2.69281 21.9033 2.87783 21.9033 3.10583Z" fill="#CCCCCC"/>
<path d="M11.9572 3.81507C12.1982 3.97306 12.5571 3.97106 12.801 3.81507C12.825 3.80007 12.8441 3.80409 12.8601 3.82709L13.6869 5.06706C13.6989 5.08506 13.6989 5.10204 13.6869 5.12004L12.7641 6.50302C12.7581 6.51202 12.7441 6.51405 12.7361 6.50705L11.0964 5.06407C11.0884 5.05707 11.0874 5.04607 11.0924 5.03807L11.8982 3.82709C11.9132 3.80409 11.9332 3.79907 11.9572 3.81507Z" fill="#CCCCCC"/>
<path d="M21.0703 3.81627C21.3193 3.97827 21.6672 3.96727 21.9152 3.81627C21.9382 3.80227 21.9581 3.80627 21.9741 3.82927L22.7729 5.03031C22.7819 5.04431 22.78 5.06429 22.767 5.07529L21.1433 6.50429C21.1313 6.51529 21.1123 6.51228 21.1033 6.49928L20.1825 5.11826C20.1725 5.10326 20.1725 5.08925 20.1825 5.07425L21.0123 3.82927C21.0263 3.80427 21.0463 3.80027 21.0703 3.81627Z" fill="#CCCCCC"/>
</svg>
