<svg width="24" height="24" viewBox="0 0 24 24" fill="none" xmlns="http://www.w3.org/2000/svg">
<path d="M12 16.5C14.4853 16.5 16.5 14.4853 16.5 12C16.5 9.51472 14.4853 7.5 12 7.5C9.51472 7.5 7.5 9.51472 7.5 12C7.5 14.4853 9.51472 16.5 12 16.5Z" stroke="#14B050" stroke-width="1.5" stroke-linecap="round" stroke-linejoin="round"/>
<path d="M17.2219 6.10352C17.4594 6.32227 17.6844 6.54727 17.8969 6.77852L20.4563 7.14414C20.8733 7.86836 21.1947 8.64357 21.4125 9.45039L19.8563 11.5223C19.8563 11.5223 19.8844 12.1598 19.8563 12.4785L21.4125 14.5504C21.1957 15.3576 20.8742 16.1329 20.4563 16.8566L17.8969 17.2223C17.8969 17.2223 17.4563 17.6816 17.2219 17.8973L16.8563 20.4566C16.132 20.8737 15.3568 21.1951 14.55 21.4129L12.4781 19.8566C12.16 19.8848 11.84 19.8848 11.5219 19.8566L9.45 21.4129C8.64284 21.1961 7.8675 20.8746 7.14375 20.4566L6.77813 17.8973C6.54688 17.6785 6.32188 17.4535 6.10313 17.2223L3.54375 16.8566C3.12673 16.1324 2.80531 15.3572 2.5875 14.5504L4.14375 12.4785C4.14375 12.4785 4.11563 11.841 4.14375 11.5223L2.5875 9.45039C2.8043 8.64322 3.12578 7.86789 3.54375 7.14414L6.10313 6.77852C6.32188 6.54727 6.54688 6.32227 6.77813 6.10352L7.14375 3.54414C7.86798 3.12712 8.64318 2.8057 9.45 2.58789L11.5219 4.14414C11.84 4.11601 12.16 4.11601 12.4781 4.14414L14.55 2.58789C15.3572 2.80469 16.1325 3.12617 16.8563 3.54414L17.2219 6.10352Z" stroke="#14B050" stroke-width="1.5" stroke-linecap="round" stroke-linejoin="round"/>
</svg>
