<svg width="35" height="43" viewBox="0 0 35 43" fill="none" xmlns="http://www.w3.org/2000/svg">
<path d="M23.7517 26.4911C23.7517 26.1274 23.7372 25.8701 23.7083 25.7224C23.6194 25.2781 23.3859 24.9196 23.0078 24.6448C22.8166 24.5064 22.6048 24.4123 22.3713 24.3637C22.2174 24.3307 22.02 24.3152 21.7803 24.3152C18.9484 24.3162 16.1123 24.3172 13.2752 24.3162C13.2535 24.3162 13.2359 24.2987 13.2359 24.277C13.24 23.4308 13.24 22.5629 13.2349 21.6734C13.2328 21.3428 13.2442 21.0886 13.269 20.9109C13.489 19.3302 14.9686 18.1968 16.5762 18.4313C17.3056 18.5377 17.9772 18.9189 18.4359 19.4975C18.8502 20.0213 19.0641 20.6206 19.0755 21.2963C19.0817 21.632 19.0806 21.973 19.0734 22.3181C19.0662 22.6332 19.1375 22.8997 19.4391 23.0216C19.5187 23.0547 19.6117 23.0702 19.7171 23.0702C20.4465 23.0702 21.1966 23.0702 21.9653 23.0713C22.207 23.0713 22.4292 22.9483 22.5284 22.72C22.5635 22.6373 22.5821 22.5113 22.5831 22.3408C22.5893 21.6351 22.5769 21.099 22.547 20.7301C22.4891 20.0255 22.3031 19.3291 21.9901 18.641C21.8744 18.3879 21.7504 18.1544 21.6171 17.9436C20.8825 16.7803 19.8927 15.9341 18.6477 15.4031C18.1063 15.1727 17.5339 15.0198 16.9285 14.9433C16.725 14.9185 16.4811 14.9123 16.2569 14.8937H16.0627C15.8364 14.9113 15.5916 14.9185 15.386 14.9433C14.5635 15.0466 13.798 15.2925 13.0892 15.682C11.9196 16.3257 11.0269 17.2504 10.4122 18.4581C9.96276 19.3405 9.73958 20.3478 9.73648 21.3366C9.73338 22.3129 9.73235 23.3337 9.73442 24.4009C9.73442 24.4154 9.72822 24.4257 9.71479 24.4319C9.6187 24.4732 9.52366 24.5115 9.4348 24.5662C8.90581 24.8906 8.61547 25.369 8.56691 26.0034V33.1209C8.58654 33.248 8.59171 33.3813 8.62271 33.497C8.78802 34.1324 9.27362 34.6148 9.91006 34.7739C10.0185 34.8008 10.1467 34.8059 10.2665 34.8256H22.0438C22.1006 34.8163 22.1575 34.8091 22.2132 34.8029C22.5831 34.7677 22.9468 34.5849 23.2051 34.3328C23.5678 33.9794 23.7496 33.5414 23.7486 33.0196C23.7475 30.8448 23.7486 28.6679 23.7517 26.4911ZM17.8501 28.8415C17.7075 29.3922 17.3015 29.8292 16.7694 30.0337C16.7518 30.041 16.7436 30.0534 16.7436 30.072C16.7405 30.6299 16.7405 31.1826 16.7456 31.7312C16.7477 31.9203 16.7291 32.0567 16.6919 32.1404C16.4811 32.6115 15.8096 32.6022 15.6194 32.1249C15.5874 32.0443 15.5719 31.9389 15.573 31.8077C15.5761 31.1744 15.5761 30.5948 15.573 30.0679C15.573 30.0544 15.5647 30.0431 15.5523 30.0379C14.7764 29.7362 14.3073 28.981 14.4313 28.142C14.5222 27.5293 14.9417 27.0014 15.5223 26.7772C16.1515 26.5344 16.8572 26.6687 17.3511 27.1295C17.8201 27.5676 18.0082 28.2257 17.8501 28.8415Z" fill="#CCCCCC"/>
<path d="M28.4995 20.133V20.2518C28.4644 20.4688 28.3621 20.6196 28.1947 20.7033C27.4663 21.067 26.7431 21.4286 26.024 21.7902C25.8504 21.877 25.7254 21.9255 25.6479 21.9359C25.1148 22.0051 24.78 21.3438 25.1592 20.9584C25.2202 20.8964 25.3204 20.8303 25.4609 20.7611C26.2017 20.3964 26.927 20.0348 27.6358 19.6763C28.0201 19.481 28.4292 19.7115 28.4995 20.133Z" fill="#CCCCCC"/>
<path d="M28.4987 23.6468V23.7439C28.4429 24.0642 28.2207 24.276 27.9035 24.276C27.0615 24.277 26.2815 24.277 25.5644 24.276C25.3309 24.276 25.1181 24.1148 25.0365 23.9009C24.9238 23.6055 25.0654 23.2831 25.3526 23.1581C25.4384 23.1209 25.5706 23.1033 25.7494 23.1054C26.391 23.1136 27.0584 23.1137 27.7527 23.1044C27.9252 23.1023 28.0627 23.1229 28.1618 23.1674C28.3468 23.25 28.4594 23.4102 28.4987 23.6468Z" fill="#CCCCCC"/>
<path d="M28.4987 27.1345V27.2585C28.4243 27.6779 28.0213 27.9011 27.6329 27.7079C26.859 27.3225 26.0944 26.9392 25.3371 26.5611C24.7565 26.2708 24.9652 25.4329 25.613 25.4473C25.6905 25.4494 25.8361 25.5042 26.051 25.6116C26.7567 25.966 27.4624 26.3193 28.168 26.6716C28.352 26.7626 28.4615 26.9165 28.4987 27.1345Z" fill="#CCCCCC"/>
<path d="M17.5001 42.3603C7.85015 42.3603 0 34.5103 0 24.8605C0 15.2107 7.85015 7.36069 17.5001 7.36069C27.1501 7.36069 35.0002 15.2107 35.0002 24.8605C35.0002 34.5103 27.1501 42.3603 17.5001 42.3603ZM17.5001 10.0252C9.31935 10.0252 2.66458 16.6799 2.66458 24.8605C2.66458 33.0411 9.31935 39.6958 17.5001 39.6958C25.6809 39.6958 32.3356 33.0411 32.3356 24.8605C32.3356 16.6809 25.6809 10.0252 17.5001 10.0252Z" fill="#CCCCCC"/>
<path d="M18.1398 0.63955C18.1398 0.992894 17.8536 1.27904 17.5002 1.27904C17.1469 1.27904 16.8607 0.992894 16.8607 0.63955C16.8607 0.286207 17.1469 0 17.5002 0C17.8536 0 18.1398 0.286207 18.1398 0.63955Z" fill="#CCCCCC"/>
<path d="M26.5842 3.31405L24.6831 9.01609C22.4938 8.02321 20.0586 7.47977 17.5045 7.47977C14.9422 7.47977 12.507 8.03148 10.3084 9.01609L8.41662 3.31405C8.40835 3.29752 8.41663 3.27994 8.4249 3.26341C8.45073 3.24688 8.46725 3.2293 8.49308 3.22104C8.50961 3.21277 8.52717 3.22103 8.5437 3.2293L13.0753 7.21737C13.1775 7.30209 13.3294 7.28555 13.3976 7.175L17.0892 1.6424C17.0892 1.63414 17.1057 1.63408 17.115 1.63408C17.3692 1.73636 17.6244 1.73642 17.8785 1.6424C17.8951 1.63414 17.9126 1.6424 17.9209 1.65066L21.6032 7.18326C21.6796 7.28554 21.8243 7.31036 21.9255 7.21737L26.4571 3.2293C26.4736 3.22103 26.4912 3.22104 26.5077 3.22104C26.5336 3.2293 26.5501 3.23758 26.5759 3.26341C26.5924 3.28098 26.5924 3.29752 26.5842 3.31405Z" fill="#CCCCCC"/>
<path d="M8.50859 2.35287C8.50859 2.70621 8.22239 2.99242 7.86904 2.99242C7.51569 2.99242 7.2295 2.70621 7.2295 2.35287C7.2295 1.99953 7.51569 1.71338 7.86904 1.71338C8.22239 1.71338 8.50859 1.99849 8.50859 2.35287Z" fill="#CCCCCC"/>
<path d="M27.7719 2.35287C27.7719 2.70622 27.4857 2.99242 27.1324 2.99242C26.779 2.99242 26.4928 2.70622 26.4928 2.35287C26.4928 1.99953 26.779 1.71339 27.1324 1.71339C27.4857 1.71235 27.7719 1.9985 27.7719 2.35287Z" fill="#CCCCCC"/>
<path d="M13.2172 3.20926C13.2172 3.44482 13.026 3.63592 12.7905 3.63592C12.5549 3.63592 12.3638 3.44482 12.3638 3.20926C12.3638 2.9737 12.5549 2.78253 12.7905 2.78253C13.026 2.78253 13.2172 2.9737 13.2172 3.20926Z" fill="#CCCCCC"/>
<path d="M22.6349 3.20926C22.6349 3.44482 22.4438 3.63592 22.2082 3.63592C21.9726 3.63592 21.7815 3.44482 21.7815 3.20926C21.7815 2.9737 21.9726 2.78253 22.2082 2.78253C22.4438 2.78253 22.6349 2.9737 22.6349 3.20926Z" fill="#CCCCCC"/>
<path d="M12.356 3.94158C12.605 4.10483 12.9759 4.10276 13.228 3.94158C13.2528 3.92609 13.2734 3.93024 13.2889 3.95401L14.1434 5.23513C14.1558 5.25372 14.1558 5.27126 14.1434 5.28986L13.1898 6.71873C13.1836 6.72803 13.1691 6.73012 13.1608 6.72289L11.4664 5.23204C11.4581 5.2248 11.4571 5.21344 11.4623 5.20517L12.295 3.95401C12.3115 3.93024 12.3312 3.92505 12.356 3.94158Z" fill="#CCCCCC"/>
<path d="M21.7737 3.9428C22.0309 4.11017 22.3905 4.09881 22.6467 3.9428C22.6705 3.92834 22.6911 3.93247 22.7077 3.95623L23.5332 5.19712C23.5425 5.21158 23.5404 5.23223 23.527 5.24359L21.8491 6.72001C21.8367 6.73137 21.817 6.72827 21.8077 6.71484L20.8562 5.28799C20.8459 5.27249 20.8459 5.25802 20.8562 5.24252L21.7137 3.95623C21.7292 3.9304 21.7489 3.92627 21.7737 3.9428Z" fill="#CCCCCC"/>
</svg>
