<svg width="18" height="14" viewBox="0 0 18 14" fill="none" xmlns="http://www.w3.org/2000/svg">
<mask id="mask0_110_3948" style="mask-type:luminance" maskUnits="userSpaceOnUse" x="0" y="0" width="18" height="14">
<path d="M0 0H18V13.5H0V0Z" fill="white"/>
</mask>
<g mask="url(#mask0_110_3948)">
<path fill-rule="evenodd" clip-rule="evenodd" d="M0 0H18V13.5H0V0Z" fill="#F7FCFF"/>
<path fill-rule="evenodd" clip-rule="evenodd" d="M0 8.25021V9.37521H18V8.25021H0Z" fill="#E31D1C"/>
<path fill-rule="evenodd" clip-rule="evenodd" d="M0 10.3125V11.4375H18V10.3125H0Z" fill="#E31D1C"/>
<path fill-rule="evenodd" clip-rule="evenodd" d="M0 4.1251V5.2501H18V4.1251H0Z" fill="#E31D1C"/>
<path fill-rule="evenodd" clip-rule="evenodd" d="M0 12.3748V13.4998H18V12.3748H0Z" fill="#E31D1C"/>
<path fill-rule="evenodd" clip-rule="evenodd" d="M0 6.18741V7.31241H18V6.18741H0Z" fill="#E31D1C"/>
<path fill-rule="evenodd" clip-rule="evenodd" d="M0 0V1.125H18V0H0Z" fill="#E31D1C"/>
<path fill-rule="evenodd" clip-rule="evenodd" d="M0 2.0623V3.1873H18V2.0623H0Z" fill="#E31D1C"/>
<path d="M0 0H11.25V7.3125H0V0Z" fill="#2E42A5"/>
<path fill-rule="evenodd" clip-rule="evenodd" d="M0.968614 1.65314L0.560305 1.93938L0.698153 1.42998L0.335501 1.10715H0.809174L0.968041 0.691425L1.15432 1.10715H1.55812L1.24085 1.42998L1.36367 1.93938L0.968614 1.65314ZM3.21861 1.65314L2.81031 1.93938L2.94815 1.42998L2.5855 1.10715H3.05917L3.21804 0.691425L3.40432 1.10715H3.80812L3.49085 1.42998L3.61368 1.93938L3.21861 1.65314ZM5.06031 1.93938L5.46861 1.65314L5.86367 1.93938L5.74083 1.42998L6.05813 1.10715H5.65431L5.46804 0.691425L5.30917 1.10715H4.8355L5.19815 1.42998L5.06031 1.93938ZM7.71863 1.65314L7.31031 1.93938L7.44818 1.42998L7.08548 1.10715H7.55916L7.71807 0.691425L7.90431 1.10715H8.30813L7.99083 1.42998L8.11367 1.93938L7.71863 1.65314ZM0.560305 4.18938L0.968614 3.90314L1.36367 4.18938L1.24085 3.67998L1.55812 3.35715H1.15432L0.968041 2.94143L0.809174 3.35715H0.335501L0.698153 3.67998L0.560305 4.18938ZM3.21861 3.90314L2.81031 4.18938L2.94815 3.67998L2.5855 3.35715H3.05917L3.21804 2.94143L3.40432 3.35715H3.80812L3.49085 3.67998L3.61368 4.18938L3.21861 3.90314ZM5.06031 4.18938L5.46861 3.90314L5.86367 4.18938L5.74083 3.67998L6.05813 3.35715H5.65431L5.46804 2.94143L5.30917 3.35715H4.8355L5.19815 3.67998L5.06031 4.18938ZM7.71863 3.90314L7.31031 4.18938L7.44818 3.67998L7.08548 3.35715H7.55916L7.71807 2.94143L7.90431 3.35715H8.30813L7.99083 3.67998L8.11367 4.18938L7.71863 3.90314ZM0.560305 6.43939L0.968614 6.15313L1.36367 6.43939L1.24085 5.92999L1.55812 5.60715H1.15432L0.968041 5.19143L0.809174 5.60715H0.335501L0.698153 5.92999L0.560305 6.43939ZM3.21861 6.15313L2.81031 6.43939L2.94815 5.92999L2.5855 5.60715H3.05917L3.21804 5.19143L3.40432 5.60715H3.80812L3.49085 5.92999L3.61368 6.43939L3.21861 6.15313ZM5.06031 6.43939L5.46861 6.15313L5.86367 6.43939L5.74083 5.92999L6.05813 5.60715H5.65431L5.46804 5.19143L5.30917 5.60715H4.8355L5.19815 5.92999L5.06031 6.43939ZM7.71863 6.15313L7.31031 6.43939L7.44818 5.92999L7.08548 5.60715H7.55916L7.71807 5.19143L7.90431 5.60715H8.30813L7.99083 5.92999L8.11367 6.43939L7.71863 6.15313ZM9.56031 1.93938L9.96863 1.65314L10.3637 1.93938L10.2408 1.42998L10.5581 1.10715H10.1543L9.96807 0.691425L9.80916 1.10715H9.33548L9.69818 1.42998L9.56031 1.93938ZM9.96863 3.90314L9.56031 4.18938L9.69818 3.67998L9.33548 3.35715H9.80916L9.96807 2.94143L10.1543 3.35715H10.5581L10.2408 3.67998L10.3637 4.18938L9.96863 3.90314ZM9.56031 6.43939L9.96863 6.15313L10.3637 6.43939L10.2408 5.92999L10.5581 5.60715H10.1543L9.96807 5.19143L9.80916 5.60715H9.33548L9.69818 5.92999L9.56031 6.43939ZM2.09361 2.77814L1.68531 3.06438L1.82315 2.55498L1.4605 2.23215H1.93417L2.09304 1.81643L2.27932 2.23215H2.68312L2.36585 2.55498L2.48868 3.06438L2.09361 2.77814ZM3.93531 3.06438L4.34361 2.77814L4.73868 3.06438L4.61585 2.55498L4.93312 2.23215H4.52932L4.34304 1.81643L4.18417 2.23215H3.7105L4.07315 2.55498L3.93531 3.06438ZM6.59363 2.77814L6.18531 3.06438L6.32318 2.55498L5.96048 2.23215H6.43416L6.59307 1.81643L6.77931 2.23215H7.18313L6.86583 2.55498L6.98867 3.06438L6.59363 2.77814ZM1.68531 5.31438L2.09361 5.02814L2.48868 5.31438L2.36585 4.80498L2.68312 4.48215H2.27932L2.09304 4.06643L1.93417 4.48215H1.4605L1.82315 4.80498L1.68531 5.31438ZM4.34361 5.02814L3.93531 5.31438L4.07315 4.80498L3.7105 4.48215H4.18417L4.34304 4.06643L4.52932 4.48215H4.93312L4.61585 4.80498L4.73868 5.31438L4.34361 5.02814ZM6.18531 5.31438L6.59363 5.02814L6.98867 5.31438L6.86583 4.80498L7.18313 4.48215H6.77931L6.59307 4.06643L6.43416 4.48215H5.96048L6.32318 4.80498L6.18531 5.31438ZM8.84363 2.77814L8.43531 3.06438L8.57318 2.55498L8.21048 2.23215H8.68416L8.84307 1.81643L9.02931 2.23215H9.43313L9.11583 2.55498L9.23868 3.06438L8.84363 2.77814ZM8.43531 5.31438L8.84363 5.02814L9.23868 5.31438L9.11583 4.80498L9.43313 4.48215H9.02931L8.84307 4.06643L8.68416 4.48215H8.21048L8.57318 4.80498L8.43531 5.31438Z" fill="#F7FCFF"/>
</g>
</svg>
