<svg width="24" height="24" viewBox="0 0 24 24" fill="none" xmlns="http://www.w3.org/2000/svg">
<g clip-path="url(#clip0_110_245)">
<path d="M24 12.2755C24 11.4598 23.9325 10.6397 23.7886 9.83716H12.2407V14.4581H18.8536C18.5792 15.9485 17.6975 17.2669 16.4064 18.1047V21.103H20.3516C22.6684 19.013 24 15.9264 24 12.2755Z" fill="#4285F4"/>
<path d="M12.2407 24.0001C15.5426 24.0001 18.3273 22.9374 20.3561 21.1032L16.4109 18.1048C15.3132 18.8368 13.8962 19.2512 12.2452 19.2512C9.05117 19.2512 6.34302 17.1392 5.37132 14.2996H1.30009V17.3905C3.37845 21.4427 7.61162 24.0001 12.2407 24.0001Z" fill="#34A853"/>
<path d="M5.36683 14.2995C4.85399 12.8091 4.85399 11.1953 5.36683 9.70496V6.61401H1.3001C-0.436357 10.0048 -0.436357 13.9996 1.3001 17.3904L5.36683 14.2995Z" fill="#FBBC04"/>
<path d="M12.2407 4.74893C13.9861 4.72247 15.6731 5.36623 16.9372 6.54794L20.4326 3.12188C18.2193 1.08477 15.2817 -0.0351984 12.2407 7.62441e-05C7.61162 7.62441e-05 3.37845 2.55749 1.30009 6.61408L5.36682 9.70502C6.33402 6.861 9.04667 4.74893 12.2407 4.74893Z" fill="#EA4335"/>
</g>
<defs>
<clipPath id="clip0_110_245">
<rect width="24" height="24" fill="white"/>
</clipPath>
</defs>
</svg>
