<svg width="12" height="12" viewBox="0 0 12 12" fill="none" xmlns="http://www.w3.org/2000/svg">
<path d="M4.34531 10.1254H2.25C2.15054 10.1254 2.05516 10.0859 1.98484 10.0155C1.91451 9.9452 1.875 9.84982 1.875 9.75036V7.65505C1.87483 7.60635 1.88426 7.5581 1.90276 7.51306C1.92126 7.46802 1.94847 7.42706 1.98281 7.39255L7.60781 1.76755C7.64271 1.73212 7.6843 1.70398 7.73017 1.68477C7.77604 1.66557 7.82527 1.65568 7.875 1.65568C7.92473 1.65568 7.97396 1.66557 8.01983 1.68477C8.0657 1.70398 8.10729 1.73212 8.14219 1.76755L10.2328 3.85817C10.2682 3.89307 10.2964 3.93466 10.3156 3.98053C10.3348 4.0264 10.3447 4.07563 10.3447 4.12536C10.3447 4.17509 10.3348 4.22432 10.3156 4.27019C10.2964 4.31606 10.2682 4.35765 10.2328 4.39255L4.60781 10.0175C4.5733 10.0519 4.53234 10.0791 4.4873 10.0976C4.44226 10.1161 4.39401 10.1255 4.34531 10.1254V10.1254Z" stroke="black" stroke-width="0.689655" stroke-linecap="round" stroke-linejoin="round"/>
<path d="M6.37501 3.00018L9.00001 5.62518" stroke="black" stroke-width="0.689655" stroke-linecap="round" stroke-linejoin="round"/>
</svg>
