<svg width="153" height="174" viewBox="0 0 153 174" fill="none" xmlns="http://www.w3.org/2000/svg">
<path d="M124.407 173.213C114.988 173.418 105.943 162.062 105.943 162.062V158.576C105.375 158.519 104.841 158.437 104.344 158.329C98.8207 157.15 97.3948 153.103 97.3948 153.103V149.22C89.3468 142.355 76.5527 138.418 76.5527 138.418C63.5978 139.164 46.1917 156.324 46.1917 156.324L45.0897 160.816C39.5028 168.532 29.566 173.212 29.566 173.212L30.3722 161.42L30.7266 156.268L37.5497 56.631L117.945 57.4489C116.967 85.1286 121.937 145.252 123.756 165.999C124.161 170.555 124.407 173.213 124.407 173.213Z" fill="url(#paint0_linear_531_17288)"/>
<path d="M124.407 173.213C114.988 173.418 105.943 162.062 105.943 162.062V158.575C105.375 158.519 104.841 158.437 104.344 158.329C98.8207 157.149 97.3948 153.102 97.3948 153.102V149.22C89.3468 142.355 76.5527 138.417 76.5527 138.417C63.5978 139.164 46.1917 156.324 46.1917 156.324L45.0897 160.815C39.5028 168.531 29.566 173.212 29.566 173.212L30.3722 161.419C30.3722 161.419 38.8357 160.389 45.0889 150.31C45.0889 150.31 60.5475 134.867 75.7763 131.515C75.7763 131.515 90.1619 137.835 97.6794 142.83V146.264C97.6794 146.264 99.6582 153.805 106.661 152.927V155.537C106.661 155.537 112.445 165.754 123.757 166C124.161 170.554 124.407 173.213 124.407 173.213Z" fill="url(#paint1_linear_531_17288)"/>
<path opacity="0.5" d="M124.407 173.213C124.407 173.213 116.363 114.143 114.017 112.967C111.668 111.791 105.944 158.576 105.944 158.576C105.376 158.52 104.842 158.438 104.345 158.329C104.345 158.329 102.53 123.474 100.378 123.605C98.2235 123.736 97.3949 149.221 97.3949 149.221C89.3469 142.355 76.5527 138.418 76.5527 138.418C63.5978 139.164 46.1917 156.325 46.1917 156.325C43.9508 126.233 39.1195 126.599 38.3728 127.167C37.6261 127.734 30.7644 156.325 30.7644 156.325C30.7644 156.325 30.7532 156.306 30.7267 156.268L37.5497 56.632L117.945 57.4499C116.755 91.2075 124.407 173.213 124.407 173.213Z" fill="#8E3D9C"/>
<path d="M48.4794 62.7827L40.6452 66.9244L34.9072 95.3706C32.9468 95.5128 27.6573 92.5554 23.0534 89.6365C18.9647 87.0462 12.4109 79.4531 12.3844 78.7388C12.3844 78.7364 12.3844 78.7364 12.3844 78.7364C13.9935 77.1319 15.4282 76.3044 15.4282 76.3044C15.4282 76.3044 7.24516 65.6357 6.70343 64.2932C6.32406 63.3499 3.52378 58.1293 3.187 56.8478C3.1854 56.8478 3.1854 56.8462 3.1854 56.8462C3.04313 56.3031 12.5877 56.1914 12.5877 56.1914C12.5877 56.1914 12.5861 56.1914 12.5861 56.189C12.4824 56.1119 10.1797 53.5706 9.1388 52.0329C6.96545 48.8264 -0.276375 33.1153 0.00815447 33.1153C19.459 33.1153 40.06 49.7447 41.0117 51.2865C41.2391 51.6536 41.4787 52.0714 41.7302 52.5278C43.4655 55.6836 45.7868 60.6408 48.4794 62.7827Z" fill="url(#paint2_linear_531_17288)"/>
<path opacity="0.4" d="M48.4784 62.7824L40.6442 66.9241L34.9062 95.3702C31.2049 95.6402 17.5402 87.3239 12.3834 78.7385C12.4404 79.1281 17.5386 82.0004 21.8186 81.0941C24.3673 80.555 37.8576 70.6696 36.6158 69.7714C35.8506 69.2178 24.2387 71.175 15.4272 76.3049C15.4272 76.3049 7.24416 65.6362 6.70243 64.2936C6.32306 63.3504 3.52198 58.1297 3.18521 56.8475C3.61361 57.4677 5.36017 60.0676 10.1513 63.254C12.6325 64.9042 21.4344 67.6295 26.306 68.5221C29.4567 69.0997 40.5919 64.1345 39.6483 62.3766C39.1813 61.5065 34.2792 56.8467 12.5867 56.1903C12.5867 56.1903 12.5851 56.1903 12.5851 56.1878C12.4814 56.1107 10.1787 53.5695 9.13781 52.0317C6.96446 48.8252 -0.258883 33.2154 0.00715978 33.1134C0.00715978 33.1134 4.00343 42.1126 14.7617 48.5834C16.3161 49.5178 41.0541 52.721 41.0115 51.2853C42.8022 54.1905 45.3968 60.3303 48.4784 62.7824Z" fill="#D42F55"/>
<path opacity="0.5" d="M11.4853 47.2785C12.9682 48.9055 18.3638 56.0021 18.0801 56.0463C15.996 56.3741 13.1764 55.7057 12.6524 55.3273C9.4293 52.9989 5.09223 44.8706 3.46142 40.9692C2.51379 38.7043 10.1125 45.7721 11.4853 47.2785Z" fill="#D42F55"/>
<path opacity="0.5" d="M11.9932 65.6952C12.5984 66.3933 16.6164 75.6986 15.4276 75.2222C14.2389 74.7458 7.1594 66.129 5.38391 60.8553C4.93863 59.5337 10.9451 64.486 11.9932 65.6952Z" fill="#D42F55"/>
<path opacity="0.5" d="M14.0228 80.699C14.0774 81.1826 21.4519 90.2766 33.8956 94.8819C35.3721 95.4282 34.2959 89.7721 33.0669 88.158C30.3824 84.6317 13.8556 79.2263 14.0228 80.699Z" fill="#D42F55"/>
<path d="M14.7612 48.5854C20.1206 50.1256 38.7718 51.9349 40.2619 51.5934C41.5198 51.305 5.58957 40.9946 7.88751 43.4105C9.37204 44.9708 13.7533 48.2953 14.7612 48.5854Z" fill="white"/>
<path opacity="0.2" d="M41.1132 53.3998C36.502 51.2868 13.9535 48.8066 14.0202 49.2935C14.1721 50.4095 18.4819 55.6864 19.0951 55.9499C20.0781 56.3709 26.734 55.177 46.0161 62.1741C46.7193 62.4295 43.2061 54.3591 41.1132 53.3998Z" fill="#DA0553"/>
<path opacity="0.3" d="M48.4788 62.7824L40.6446 66.9241L34.9066 95.3702C32.9462 95.5125 27.6567 92.555 23.0528 89.6362C23.0528 89.6362 22.0015 83.0778 21.819 81.0941C21.6366 79.1129 23.859 72.4878 23.859 72.4878C23.859 72.4878 20.0725 67.9139 20.1938 66.9474C20.6166 63.6027 29.8437 57.5891 29.8437 57.5891C29.8437 57.5891 45.7862 60.6405 48.4788 62.7824Z" fill="#DA0553"/>
<path d="M104.52 62.7827L112.354 66.9244L118.092 95.3706C120.052 95.5128 125.342 92.5554 129.946 89.6365C134.035 87.0462 140.588 79.4531 140.615 78.7388C140.615 78.7364 140.615 78.7364 140.615 78.7364C139.006 77.1319 137.571 76.3044 137.571 76.3044C137.571 76.3044 145.754 65.6357 146.296 64.2932C146.675 63.3499 149.475 58.1293 149.812 56.8478C149.815 56.8478 149.815 56.8462 149.815 56.8462C149.957 56.3031 140.412 56.1914 140.412 56.1914C140.412 56.1914 140.414 56.1914 140.414 56.189C140.518 56.1119 142.82 53.5706 143.861 52.0329C146.035 48.8264 153.276 33.1153 152.992 33.1153C133.541 33.1153 112.94 49.7447 111.988 51.2865C111.761 51.6536 111.521 52.0714 111.27 52.5278C109.534 55.6836 107.213 60.6408 104.52 62.7827Z" fill="url(#paint3_linear_531_17288)"/>
<path opacity="0.4" d="M104.521 62.7824L112.355 66.9241L118.093 95.3702C121.794 95.6402 135.459 87.3239 140.616 78.7385C140.559 79.1281 135.461 82.0004 131.181 81.0941C128.632 80.555 115.142 70.6696 116.383 69.7714C117.149 69.2178 128.76 71.175 137.572 76.3049C137.572 76.3049 145.755 65.6362 146.297 64.2936C146.676 63.3504 149.477 58.1297 149.814 56.8475C149.386 57.4677 147.639 60.0676 142.848 63.254C140.367 64.9042 131.565 67.6295 126.693 68.5221C123.542 69.0997 112.407 64.1345 113.351 62.3766C113.818 61.5065 118.72 56.8467 140.412 56.1903C140.412 56.1903 140.415 56.1903 140.415 56.1878C140.519 56.1107 142.821 53.5695 143.862 52.0317C146.036 48.8252 153.259 33.2154 152.993 33.1134C152.993 33.1134 148.997 42.1126 138.239 48.5834C136.685 49.5178 111.947 52.721 111.989 51.2853C110.197 54.1905 107.602 60.3303 104.521 62.7824Z" fill="#D42F55"/>
<path opacity="0.5" d="M141.513 47.2785C140.03 48.9055 134.635 56.0021 134.918 56.0463C137.003 56.3741 139.822 55.7057 140.346 55.3273C143.569 52.9989 147.906 44.8706 149.537 40.9692C150.485 38.7043 142.886 45.7721 141.513 47.2785Z" fill="#D42F55"/>
<path opacity="0.5" d="M141.006 65.6952C140.401 66.3933 136.383 75.6986 137.572 75.2222C138.76 74.7458 145.84 66.129 147.615 60.8553C148.061 59.5337 142.054 64.486 141.006 65.6952Z" fill="#D42F55"/>
<path opacity="0.5" d="M138.977 80.6994C138.922 81.183 131.508 87.9037 130.701 88.6284C129.529 89.6793 119.129 96.882 119.472 94.8831C120.093 91.2701 121.033 86.9332 122.554 85.5392C123.685 84.502 139.048 80.0727 138.977 80.6994Z" fill="#D42F55"/>
<path opacity="0.2" d="M138.238 48.5854C132.879 50.1256 114.228 51.9349 112.738 51.5934C111.48 51.305 147.41 40.9946 145.112 43.4105C143.627 44.9708 139.246 48.2953 138.238 48.5854Z" fill="#DA0553"/>
<path opacity="0.2" d="M111.886 53.3998C116.498 51.2868 139.046 48.8066 138.979 49.2935C138.827 50.4095 134.518 55.6864 133.904 55.9499C132.921 56.3709 126.266 55.177 106.983 62.1741C106.28 62.4295 109.793 54.3591 111.886 53.3998Z" fill="#DA0553"/>
<path opacity="0.3" d="M104.52 62.7824L112.354 66.9241L118.092 95.3702C120.052 95.5125 125.342 92.555 129.946 89.6362C129.946 89.6362 130.997 83.0778 131.18 81.0941C131.362 79.1129 129.14 72.4878 129.14 72.4878C129.14 72.4878 132.926 67.9139 132.805 66.9474C132.382 63.6027 123.155 57.5891 123.155 57.5891C123.155 57.5891 107.213 60.6405 104.52 62.7824Z" fill="#DA0553"/>
<path d="M123.771 72.4802C119.96 86.8013 117.201 102.797 110.615 115.863C106.658 123.714 98.164 130.1 91.5434 135.842C86.6823 140.058 81.7111 144.159 76.6057 148.075C65.0646 139.291 51.281 129.569 43.229 117.342H43.2266C42.8938 116.825 42.6012 116.331 42.3706 115.863C35.8513 102.612 33.0237 86.7908 29.2155 72.4802C28.8788 67.8612 29.6648 63.1186 30.6486 58.6154C61.2942 57.5966 91.9494 57.5974 122.595 58.6242C123.449 63.1499 124.114 67.8709 123.771 72.4802Z" fill="url(#paint4_linear_531_17288)"/>
<path opacity="0.7" d="M123.77 72.48C119.96 86.8011 117.094 102.48 110.614 115.863C110.445 105.952 113.862 95.1519 115.983 85.5598C117.98 76.5325 120.177 67.5469 122.594 58.6232C123.449 63.1497 124.113 67.8707 123.77 72.48Z" fill="#D42F55"/>
<path opacity="0.3" d="M76.6064 148.076C76.1305 147.866 75.7327 135.979 78.6158 132.495C82.3532 127.981 89.6232 124.525 95.153 121.299C97.5988 119.872 109.846 113.439 110.44 115.24C110.968 116.846 105.954 122.59 103.916 124.701C100.275 128.472 95.8016 132.064 91.8865 135.546C86.4395 140.391 76.6064 148.076 76.6064 148.076Z" fill="#B30053"/>
<path opacity="0.7" d="M43.229 117.343H43.2266C42.8938 116.827 42.6012 116.333 42.3706 115.864C35.8513 102.613 33.0237 86.7922 29.2155 72.4815C28.8788 67.8626 29.6648 63.12 30.6486 58.6168C32.2754 58.5605 33.0888 58.534 34.7164 58.4826C37.0272 77.9778 38.269 98.3005 43.229 117.343Z" fill="#D42F55"/>
<path d="M113.399 61.436C110.268 58.6585 107.049 56.1213 103.614 53.7287C103.612 53.7271 103.61 53.7255 103.608 53.7238C95.9199 48.7932 87.7778 44.8122 79 42.2316H78.9976C78.2316 42.0067 77.546 41.8187 76.9481 41.6644C76.8187 41.6299 76.7535 41.613 76.6249 41.5792C76.4963 41.613 76.432 41.6307 76.3042 41.6644C62.7312 45.1947 50.2988 52.1459 39.8427 61.4295C39.6764 61.583 39.5928 61.6601 39.4264 61.8144C39.4553 62.0434 39.4698 62.1582 39.4995 62.3872C39.5711 62.9464 39.649 63.5466 39.7334 64.1813C40.4407 69.504 41.2356 74.8629 42.1479 80.1398C43.8109 89.7648 45.2102 101.189 50.2224 109.894C50.2313 109.909 50.2361 109.916 50.2457 109.932C50.2562 109.946 50.261 109.953 50.2706 109.967C54.0571 114.783 59.9117 118.332 64.8331 121.761C66.6246 123.01 68.4202 124.205 70.084 125.303C72.0668 126.611 74.0674 127.901 76.0816 129.163C76.2922 129.295 76.3975 129.361 76.6073 129.494C76.8186 129.361 76.9239 129.295 77.1353 129.163C77.2165 129.113 77.2977 129.06 77.3813 129.007C81.0528 126.655 84.7959 124.246 88.3863 121.76C93.3165 118.346 99.1654 114.794 102.952 109.965C102.962 109.95 102.967 109.944 102.977 109.929C102.986 109.914 102.99 109.907 103 109.892C108.012 101.178 109.412 89.7753 111.083 80.1422C111.894 75.4654 112.619 70.7284 113.262 66.0067C113.443 64.6746 113.605 63.4606 113.741 62.3936C113.77 62.1647 113.786 62.0498 113.816 61.8208C113.649 61.6673 113.565 61.5902 113.399 61.436ZM106.557 79.5661C105.063 88.6055 103.799 99.0356 99.4266 107.328C95.6932 111.481 90.6609 114.67 86.1334 117.784C83.0196 119.925 79.8215 122.021 76.6065 124.053C73.393 122.022 70.1965 119.926 67.0836 117.785C62.5568 114.673 57.5551 111.459 53.7927 107.329C49.4146 99.0187 48.168 88.6288 46.6738 79.5637C45.813 74.3422 45.0631 69.0525 44.4241 63.7731C53.8554 55.8272 64.7045 49.7975 76.6209 46.4962C88.5358 49.7975 99.3824 55.8312 108.812 63.778C108.164 69.0565 107.42 74.3462 106.557 79.5661Z" fill="url(#paint5_linear_531_17288)"/>
<path d="M108.814 63.7798C108.164 69.0575 107.42 74.3472 106.558 79.5671C105.064 88.6065 103.8 99.0366 99.4276 107.329C95.9699 112.445 91.0581 116.408 86.1102 119.867C83.0383 122.015 79.8144 124.107 76.6074 126.138C73.4013 124.107 70.1798 122.015 67.1087 119.868C62.1576 116.407 57.2571 112.446 53.7945 107.33C49.8513 99.8336 48.6368 90.6102 47.1595 82.4257C47.1571 82.4233 47.1571 82.4233 47.1571 82.4233C46.9987 81.5034 46.8348 80.5481 46.6756 79.5647C45.8261 74.328 45.0649 69.0535 44.4259 63.7741C46.2649 62.1384 48.2333 60.5516 50.2347 59.1528C57.1871 54.2921 64.8517 50.2838 72.9745 47.6092C74.361 47.1528 75.5939 46.7816 76.6227 46.4972C80.6021 47.614 84.4746 49.0602 88.2225 50.6967C95.691 53.9603 102.539 58.4787 108.814 63.7798Z" fill="url(#paint6_linear_531_17288)"/>
<path opacity="0.5" d="M112.562 62.3034C111.059 62.8899 110.309 63.1848 108.814 63.7777C99.3856 55.831 88.5389 49.7981 76.6233 46.496C76.6241 45.0201 76.6241 44.2826 76.6241 42.8059C77.5717 42.5745 78.0467 42.4596 78.9976 42.2306H79C87.7778 44.8112 95.9198 48.7922 103.608 53.7228C103.61 53.7252 103.612 53.726 103.614 53.7277C106.615 56.5678 109.6 59.4248 112.562 62.3034Z" fill="url(#paint7_linear_531_17288)"/>
<path d="M113.262 66.0061C112.621 70.7311 111.894 75.4657 111.083 80.1416C109.412 89.7747 108.012 101.178 103 109.891C102.99 109.906 102.986 109.913 102.977 109.929C102.967 109.943 102.961 109.95 102.952 109.964C99.1661 114.793 93.3172 118.345 88.3862 121.759C84.7966 124.244 81.1002 126.665 77.3812 129.006C77.0717 128.657 76.9174 128.484 76.6072 128.135C76.6072 127.337 76.6072 126.936 76.6072 126.137C79.8142 124.106 83.038 122.014 86.11 119.866C91.0579 116.407 95.9704 112.443 99.4282 107.327C103.801 99.035 105.064 88.6049 106.558 79.5655C107.422 74.3457 108.166 69.0559 108.814 63.7782C110.309 63.1845 111.058 62.8896 112.562 62.3039C112.843 63.7854 112.983 64.5262 113.262 66.0061Z" fill="url(#paint8_linear_531_17288)"/>
<path d="M122.57 58.5961C121.822 57.7967 121.009 57.0134 120.208 56.2517C120.1 56.1481 119.986 56.0436 119.868 55.9351C116.213 52.5559 112.154 49.5857 108.035 46.7945C108.035 46.7945 106.666 46.4804 104.617 45.174C102.632 43.9086 101.967 43.1791 101.928 43.1357L101.925 43.1333C94.5083 39.2062 86.7778 35.8149 78.733 33.5966C78.6711 33.5798 78.6068 33.5613 78.5417 33.5436C77.627 33.2994 77.0041 33.1339 76.755 33.0744C76.73 33.0696 76.7051 33.0624 76.6794 33.0575C76.6617 33.0527 76.6464 33.0479 76.6288 33.0431C76.6288 33.0431 76.6215 33.0455 76.6087 33.0479C76.5958 33.0503 76.5733 33.0551 76.5484 33.0624C60.0336 37.1261 43.4795 45.6585 31.502 57.7405C31.2166 58.0281 30.9313 58.3205 30.65 58.6154C30.6596 58.6893 30.6645 58.7263 30.6741 58.8002C30.7312 59.2629 30.9048 60.5782 31.1821 62.5168C31.1845 62.5337 31.1853 62.5417 31.1885 62.5586C32.4094 71.0717 33.8305 79.5688 35.6011 87.9863C37.4361 96.7067 39.2052 106.582 43.8894 114.1C47.8214 120.41 56.0084 125.132 62.0712 129.359C66.8318 132.678 71.6752 135.89 76.6071 138.951C81.5397 135.888 86.3831 132.676 91.1462 129.356C97.1984 125.136 105.409 120.389 109.331 114.096C114.022 106.572 115.798 96.7155 117.631 87.9871C119.399 79.5704 120.83 71.0782 122.056 62.5658C122.059 62.549 122.06 62.5409 122.063 62.5241C122.341 60.5854 122.514 59.2702 122.572 58.8082C122.582 58.7343 122.587 58.6973 122.596 58.6234C122.596 58.6234 122.587 58.6146 122.57 58.5961ZM109.955 79.9978C108.334 89.4638 107.006 100.726 102.085 109.294C98.2924 113.949 92.6653 117.421 87.8243 120.767C84.1648 123.296 80.3984 125.756 76.6079 128.136C72.8141 125.765 69.0534 123.297 65.3955 120.769C60.5907 117.449 54.9041 113.941 51.1377 109.297C46.2179 100.737 44.8933 89.455 43.2794 79.9962C42.2803 74.1448 41.4203 68.2172 40.6801 62.2991C50.985 53.1625 63.2559 46.2924 76.6255 42.8079C89.9952 46.3173 102.251 53.1569 112.563 62.3047C111.82 68.2212 110.956 74.1481 109.955 79.9978Z" fill="url(#paint9_linear_531_17288)"/>
<path d="M121.744 58.6641C120.745 55.2664 109.716 48.6012 103.654 44.911C95.5782 39.9941 80.6895 33.0436 76.9311 33.5731C76.8524 33.5859 76.5622 33.5859 76.4826 33.5731C72.7251 33.0436 57.6298 39.2051 49.5537 44.1221C43.4917 47.8122 32.6684 55.2664 31.6677 58.6641C30.8407 61.4841 32.6121 70.534 33.4754 70.5388C34.2799 70.5412 38.2673 69.1826 40.4335 68.0755C40.9398 67.8184 40.0235 62.891 40.6778 62.298C52.9085 51.1938 65.4222 46.1001 75.2384 42.8068C76.4851 42.3883 76.899 42.5232 77.3177 42.6831C85.029 45.6213 100.504 51.1946 112.735 62.298C113.389 62.891 112.473 67.8184 112.98 68.0755C115.144 69.1826 119.133 70.5412 119.938 70.5388C120.802 70.534 122.574 61.4841 121.744 58.6641Z" fill="white"/>
<path opacity="0.7" d="M44.4259 63.779C45.0754 69.0567 45.8196 74.3464 46.6821 79.5663C48.1762 88.6057 49.4397 99.0358 53.8122 107.328C57.2699 112.444 62.1817 116.408 67.1304 119.867C70.2023 122.015 73.4254 124.107 76.6332 126.138C76.5657 112.876 76.507 99.6086 76.6251 86.3481C76.7433 73.077 77.0069 59.7682 76.6171 46.4972C64.7014 49.7993 53.8548 55.8322 44.4259 63.779Z" fill="#FFF5F2"/>
<path opacity="0.3" d="M108.814 63.7796C108.164 69.0574 107.42 74.3471 106.558 79.567C105.064 88.6064 103.8 99.0365 99.4276 107.329C95.9699 112.445 91.0581 116.407 86.1102 119.867C83.0383 122.015 79.8144 124.107 76.6074 126.138C73.4013 124.107 70.1798 122.015 67.1087 119.868C62.1576 116.407 57.2571 112.446 53.7945 107.33C49.8513 99.8335 48.6368 90.6101 47.1595 82.4256C47.1571 82.4232 47.1571 82.4232 47.1571 82.4232C46.9987 81.5033 46.8348 80.548 46.6756 79.5646C45.8261 74.3278 45.0649 69.0533 44.4259 63.774C46.2649 62.1382 48.2285 60.5796 50.2347 59.1527C50.274 59.1326 50.2933 59.123 50.3327 59.1037C48.4013 60.5924 46.6395 62.4267 45.978 64.3927C44.4942 68.7995 48.4294 86.0193 49.5957 91.2537C51.1606 98.278 69.9733 88.2223 75.7772 87.913C81.4549 87.6101 98.7316 100.953 101.618 95.6564C108.949 82.2038 103.693 60.3112 88.1968 50.6974C88.1968 50.6974 88.2064 50.6974 88.2233 50.6974C95.7304 54.0622 102.539 58.4786 108.814 63.7796Z" fill="#B30053"/>
<path opacity="0.8" d="M40.8931 63.8521C42.3117 64.9721 44.764 66.4649 44.764 66.4649C48.5344 58.7439 58.1907 55.1405 65.8015 53.4493C74.5351 51.5082 84.5997 56.3015 92.155 60.5364C97.2773 63.407 104.313 67.1052 107.701 72.1354C109.262 70.9873 110.047 70.4153 111.627 69.2769C111.993 66.4874 112.18 65.0934 112.562 62.3055C94.5927 46.519 76.6248 42.8087 76.6248 42.8087C76.6248 42.8087 55.7955 48.1363 40.6793 62.2999C40.7653 62.9201 40.8079 63.2311 40.8931 63.8521Z" fill="#D42F55"/>
<path opacity="0.2" d="M119.414 71.2725C117.962 70.531 112.808 69.4198 111.999 71.4911C111.508 72.7508 110.255 80.0283 109.415 84.6641C107.781 93.6849 106.403 95.2267 105.297 100.109C104.881 101.944 112.682 101.834 113.816 101.049C114.689 100.444 115.074 98.7184 116.472 91.9961C117.648 86.3376 119.05 80.6397 119.861 74.9032C120.094 73.2618 120.349 71.7506 119.414 71.2725Z" fill="#DA0553"/>
<path opacity="0.2" d="M40.6789 69.4428C40.0423 68.9543 34.1331 70.3949 33.47 71.5366C32.7578 72.7626 34.4602 81.6822 35.399 86.1774C37.2565 95.0754 38.692 100.267 39.4258 101.475C41.0446 104.137 49.0138 104.401 48.2936 101.982C47.0108 97.6689 45.7264 95.9246 44.4259 87.912C43.5635 82.5958 41.8194 70.3186 40.6789 69.4428Z" fill="#DA0553"/>
<path opacity="0.3" d="M77.7312 146.186C77.1661 146.29 77.093 139.711 77.3647 139.346C80.0974 135.682 91.3854 130.903 88.1993 137.944C87.2565 140.028 79.7414 145.813 77.7312 146.186Z" fill="#B30053"/>
<path d="M103.329 120.225C104.268 119.219 102.441 111.125 101.59 111.653C100.288 112.461 77.0774 128.107 76.6209 128.709C75.605 130.05 76.4995 137.871 76.936 137.944C77.9487 138.112 100.292 123.474 103.329 120.225Z" fill="white"/>
<path d="M65.0887 46.4967C66.4849 45.8845 65.4255 36.6796 63.908 37.2139C51.5101 41.5789 38.8261 51.3575 38.8566 51.7768C38.8992 52.3553 46.4087 56.1178 49.5369 54.6869C51.8316 53.6368 59.0204 49.1585 65.0887 46.4967Z" fill="white"/>
<path opacity="0.8" d="M122.595 58.6244C122.585 58.6983 122.58 58.7353 122.571 58.8092C122.364 60.2955 122.262 61.0387 122.061 62.525C122.059 62.5419 122.057 62.5499 122.055 62.5668C123.542 55.7047 112.885 51.5197 107.315 47.4262C105.693 46.2347 103.947 45.0665 102.203 43.9956C94.882 39.502 86.4442 35.6431 77.8175 34.6855C71.3867 33.9712 58.5306 39.3702 50.6418 43.6172C44.2728 47.0462 32.4207 55.4091 30.8405 60.0063C30.8381 59.9894 31.1845 62.5347 31.1821 62.5178C30.9811 61.0307 30.8799 60.2875 30.6741 58.8011C30.6645 58.7272 30.6596 58.6903 30.65 58.6164C30.9313 58.3207 31.2167 58.0242 31.502 57.7414C43.5663 45.7848 59.7982 37.0331 76.5484 33.0633C76.5733 33.0561 76.5958 33.0513 76.6087 33.0489C76.6215 33.0465 76.6288 33.0441 76.6288 33.0441C76.6464 33.0489 76.6617 33.0537 76.6794 33.0585C76.7043 33.0633 76.73 33.0706 76.755 33.0754C77.3562 33.2272 77.955 33.3887 78.5417 33.5446C78.6068 33.5615 78.6703 33.5799 78.733 33.5976C86.7754 35.8111 94.5083 39.2071 101.925 43.1343L101.928 43.1367C101.967 43.1801 102.632 43.9104 104.617 45.175C106.666 46.4806 108.035 46.7955 108.035 46.7955C112.176 49.5979 116.186 52.5465 119.868 55.9361C119.986 56.0454 120.1 56.1506 120.208 56.2527C121.614 57.5807 122.423 58.434 122.57 58.5971C122.586 58.6147 122.595 58.6244 122.595 58.6244Z" fill="#D42F55"/>
<path d="M59.6662 116.674C59.6662 116.674 74.063 129.008 76.4848 129.008C78.773 129.008 91.8871 118.003 91.8871 118.003C91.8791 117.993 78.3133 126.683 76.672 126.901C73.236 127.359 59.6662 116.674 59.6662 116.674Z" fill="white"/>
<path d="M109.631 81.926C109.794 81.9622 102.085 109.294 102.085 109.294C101.973 109.243 105.885 102.745 107.989 94.7769C108.961 91.098 109.631 81.926 109.631 81.926Z" fill="white"/>
<path d="M43.54 81.5501C43.3776 81.5862 50.5407 108.212 50.5407 108.212C50.6524 108.16 46.3925 100.309 44.9272 94.7777C43.9531 91.098 43.54 81.5501 43.54 81.5501Z" fill="white"/>
<path opacity="0.2" d="M68.5327 128.977C73.0145 129.195 70.162 126.134 68.3832 124.975C66.7066 123.883 61.7362 122.215 61.4163 122.797C60.9067 123.724 65.5492 128.833 68.5327 128.977Z" fill="#EE9C50"/>
<path opacity="0.2" d="M69.5499 130.774C66.7456 129.64 65.7643 129.248 67.1025 131.469C68.4408 133.69 71.3568 131.504 69.5499 130.774Z" fill="#EE9C50"/>
<path d="M54.1195 123.591C53.462 124.748 56.9752 130.556 59.8792 127.487C60.3831 126.955 54.613 122.723 54.1195 123.591Z" fill="#ED4800"/>
<path opacity="0.8" d="M54.209 123.997C54.0386 124.872 55.3166 127.217 56.1396 127.349C56.9635 127.481 58.6497 126.02 56.9739 124.957C55.1044 123.771 54.3368 123.338 54.209 123.997Z" fill="#D42F55"/>
<path d="M56.5456 127.959C58.8556 129.278 60.5515 128.635 60.2855 127.729C60.0194 126.823 59.3113 126.564 59.3113 126.564C59.3113 126.564 60.005 127.103 59.632 127.644C59.2599 128.184 56.5456 127.959 56.5456 127.959Z" fill="white"/>
<path d="M108.034 46.7947C107.785 47.0381 107.544 47.2591 107.314 47.4262C104.73 49.303 101.638 47.19 101.618 44.1876C101.613 43.5223 101.926 43.1359 101.926 43.1359C101.966 43.1793 102.63 43.9096 104.616 45.1742C106.665 46.4797 108.034 46.7947 108.034 46.7947Z" fill="#ED4800"/>
<path opacity="0.8" d="M101.801 43.347C101.532 44.1657 101.808 46.637 102.797 47.0002C103.786 47.3633 104.38 45.6383 104.111 45.2214C103.843 44.8044 101.942 42.9195 101.801 43.347Z" fill="#D42F55"/>
<path d="M102.734 47.1955C102.734 47.1955 104.666 49.0554 107.67 47.132C107.67 47.132 107.329 48.959 105.201 48.967C104.053 48.971 102.734 47.1955 102.734 47.1955Z" fill="white"/>
<path opacity="0.2" d="M76.8226 34.3075C76.395 36.8841 76.2367 41.3785 77.1915 42.2333C78.1464 43.0882 90.8128 47.5416 91.1945 47.5416C91.5763 47.5416 92.7257 39.3338 90.8128 38.1889C88.8998 37.044 77.0862 32.7159 76.8226 34.3075Z" fill="#DA0553"/>
<path d="M118.93 118.392C116.727 120.683 116.263 121.091 115.611 121.545C112.055 124.017 104.035 124.7 104.035 124.7L105.208 119.002L118.93 118.392Z" fill="url(#paint10_linear_531_17288)"/>
<path d="M112.35 108.062C118.568 110.632 119.667 117.824 118.93 118.392C113.333 122.702 105.208 119.002 105.208 119.002C105.208 119.002 102.483 110.965 103.592 109.293C104.575 107.812 112.35 108.062 112.35 108.062Z" fill="url(#paint11_linear_531_17288)"/>
<path opacity="0.2" d="M117.982 118.581C118.935 117.84 104.327 109.322 103.593 109.769C102.86 110.218 104.036 118.015 105.886 119.086C106.476 119.427 113.644 121.96 117.982 118.581Z" fill="#DA0553"/>
<path d="M118.693 117.887C119.193 117.527 119.03 112.484 113.817 108.944C111.621 107.453 103.86 108.737 104.035 108.922C104.211 109.106 118.195 118.245 118.693 117.887Z" fill="white"/>
<path d="M34.0123 118.392C36.2154 120.683 36.68 121.091 37.3318 121.545C40.8876 124.017 48.9075 124.7 48.9075 124.7L47.734 119.002L34.0123 118.392Z" fill="url(#paint12_linear_531_17288)"/>
<path d="M40.5903 108.062C34.3733 110.632 33.2738 117.824 34.0108 118.392C39.6073 122.702 47.7325 119.002 47.7325 119.002C47.7325 119.002 50.458 110.965 49.3489 109.293C48.3667 107.812 40.5903 108.062 40.5903 108.062Z" fill="url(#paint13_linear_531_17288)"/>
<path opacity="0.2" d="M34.9602 118.581C34.0078 117.84 48.616 109.322 49.3499 109.769C50.0837 110.218 48.907 118.015 47.0567 119.086C46.4668 119.427 39.2989 121.96 34.9602 118.581Z" fill="#DA0553"/>
<path d="M34.2495 117.887C33.7488 117.527 33.9119 112.484 39.1251 108.944C41.3209 107.453 49.082 108.737 48.9068 108.922C48.7316 109.106 34.7462 118.245 34.2495 117.887Z" fill="white"/>
<path d="M132.773 65.4611C131.679 68.4443 131.417 69.0043 131.002 69.6816C128.741 73.3741 122.413 77.2233 122.413 77.2233L120.455 71.5343L132.773 65.4611Z" fill="url(#paint14_linear_531_17288)"/>
<path d="M122.594 58.6483C129.32 58.502 133.22 64.645 132.773 65.4613C129.383 71.6582 120.455 71.5352 120.455 71.5352C120.455 71.5352 114.727 65.2725 115.07 63.2961C115.374 61.5438 122.594 58.6483 122.594 58.6483Z" fill="url(#paint15_linear_531_17288)"/>
<path opacity="0.2" d="M131.981 66.014C132.555 64.9519 115.753 63.0245 115.262 63.7299C114.77 64.4345 118.984 71.1021 121.11 71.3383C121.786 71.4139 129.367 70.8515 131.981 66.014Z" fill="#DA0553"/>
<path d="M132.352 65.0943C132.666 64.5633 130.487 60.0118 124.29 58.8662C121.68 58.3833 115.091 62.6784 115.325 62.7772C115.56 62.8753 132.041 65.6214 132.352 65.0943Z" fill="white"/>
<path d="M20.3096 65.4611C21.4052 68.4443 21.6664 69.0043 22.0811 69.6816C24.3421 73.3741 30.0479 76.6738 30.0479 76.6738L32.628 71.5343L20.3096 65.4611Z" fill="url(#paint16_linear_531_17288)"/>
<path d="M30.4887 58.6483C23.7629 58.502 19.8623 64.645 20.3091 65.4613C23.6994 71.6582 32.6275 71.5352 32.6275 71.5352C32.6275 71.5352 38.3558 65.2725 38.0126 63.2961C37.7088 61.5438 30.4887 58.6483 30.4887 58.6483Z" fill="url(#paint17_linear_531_17288)"/>
<path opacity="0.2" d="M21.1018 66.014C20.528 64.9519 37.3304 63.0245 37.8215 63.7299C38.3126 64.4345 34.0994 71.1021 31.9734 71.3383C31.2967 71.4139 23.7148 70.8515 21.1018 66.014Z" fill="#DA0553"/>
<path d="M20.73 65.0943C20.4165 64.5633 22.5947 60.0118 28.7916 58.8662C31.4022 58.3833 37.9914 62.6784 37.7567 62.7772C37.5228 62.8753 21.041 65.6214 20.73 65.0943Z" fill="white"/>
<path d="M62.5832 107.233C62.1138 107.233 61.7296 107.115 61.4435 106.883C59.75 105.522 60.8833 99.9322 62.4185 93.312C62.7367 91.9389 63.0655 90.5225 63.0888 90.1224C62.8123 89.699 61.2699 88.4215 59.9027 87.2887C55.1879 83.3833 51.6152 80.2346 52.0404 78.2076C52.3956 76.5099 56.1878 75.8591 64.0228 75.1192C65.7629 74.9553 67.7265 74.7697 68.1878 74.609C68.4346 74.2531 69.0486 72.7201 69.5936 71.3599C72.0024 65.3487 74.1838 60.3723 76.4793 60.3723C76.7269 60.3723 76.9809 60.4414 77.2341 60.5763L77.3 60.6109C79.327 61.7646 81.8581 67.5083 84.0708 72.8005C84.4108 73.6127 84.7604 74.4491 84.9107 74.7512C85.4058 74.9079 87.2095 75.0437 88.8129 75.1642C94.7808 75.6133 99.8067 76.1395 100.852 78.038C100.934 78.1762 100.984 78.3482 100.991 78.5321C101.089 79.9414 98.6557 82.0704 94.6353 85.4071C92.7208 86.9955 90.0998 89.1711 89.9655 89.8067C89.9366 90.2413 90.3401 92.0506 90.7291 93.8013C92.1196 100.042 93.1476 105.331 91.6422 106.839C91.3858 107.096 91.0201 107.227 90.5547 107.227C88.5236 107.227 84.1455 104.664 79.4548 101.811C78.1857 101.039 76.8764 100.242 76.4416 100.054C76.03 100.238 74.83 100.999 73.6662 101.736C69.1274 104.611 64.8683 107.195 62.6363 107.231L62.5832 107.233Z" fill="url(#paint18_linear_531_17288)"/>
<path d="M99.6957 78.2754V78.281C99.8484 80.4471 89.1103 87.4208 88.9929 89.1265C88.8788 90.7944 92.7521 103.307 90.7901 105.268C89.1947 106.865 77.328 98.5475 76.4511 98.4977H76.4423C75.6916 98.4977 66.2756 105.424 63.03 105.477H63.0268C62.6981 105.483 62.4345 105.418 62.2496 105.269C60.159 103.592 64.2051 90.4578 64.0613 89.3651C63.9174 88.2684 52.7452 80.8094 53.3231 78.0601C53.8013 75.7791 67.9434 75.5831 68.7914 74.9267C69.6385 74.2671 73.5649 61.2443 76.4801 61.2443C76.6384 61.2443 76.8056 61.2974 76.9784 61.397L76.9872 61.4002C79.5681 62.8657 83.7404 74.3121 84.2331 75.0151C84.7612 75.7687 98.1854 75.4369 99.6338 78.0609C99.6716 78.1236 99.6925 78.1967 99.6957 78.2754Z" fill="url(#paint19_linear_531_17288)"/>
<path opacity="0.2" d="M76.4624 84.8158L64.0613 89.3648C63.9174 88.2682 52.7452 80.8091 53.3231 78.0598L76.4624 84.8158Z" fill="#DA0553"/>
<path opacity="0.2" d="M84.2329 75.0141L76.4622 84.8159L76.4798 61.2434L76.9782 61.396L76.987 61.3992C79.5679 62.8647 83.7402 74.3103 84.2329 75.0141Z" fill="#DA0553"/>
<path opacity="0.2" d="M99.6957 78.2758V78.2814C99.8484 80.4474 89.1102 87.4212 88.9929 89.1269L76.4631 84.8149L99.6346 78.0588L99.6957 78.2758Z" fill="#DA0553"/>
<path opacity="0.2" d="M90.79 105.269C89.1945 106.866 77.3279 98.5479 76.451 98.4981V98.5093C76.4454 98.5005 76.4421 98.4981 76.4421 98.4981L76.4622 84.8157L90.79 105.269Z" fill="#DA0553"/>
<path opacity="0.2" d="M76.4623 84.8157L76.4503 98.4981V98.5093C76.4446 98.5005 76.4414 98.4981 76.4414 98.4981C75.6907 98.4981 66.2747 105.424 63.0292 105.477H63.026L62.2487 105.269L76.4623 84.8157Z" fill="#DA0553"/>
<path d="M76.4627 84.8154L53.3234 78.0594C53.8016 75.7785 67.9437 75.5824 68.7917 74.926L76.4627 84.8154Z" fill="white"/>
<path opacity="0.5" d="M53.3231 78.0586C49.4362 79.1995 60.1687 99.9801 62.0752 98.967C63.9817 97.9539 74.9144 87.1028 76.4624 84.8146C76.4624 84.8146 55.8975 77.3026 53.3231 78.0586Z" fill="#D42F55"/>
<path opacity="0.5" d="M99.6395 78.0586C103.526 79.1995 92.7939 99.9801 90.8874 98.967C88.9809 97.9539 78.0483 87.1028 76.5002 84.8146C76.5002 84.8146 97.0651 77.3026 99.6395 78.0586Z" fill="#D42F55"/>
<path opacity="0.3" d="M76.4797 61.2431C76.0078 61.3508 76.4499 98.4981 76.4499 98.4981C77.801 99.0034 89.3711 106.532 90.7889 105.269C93.0474 103.257 88.716 90.8077 88.9917 89.1269C89.2674 87.4461 100.381 80.0297 99.639 78.0589C98.6231 75.3618 84.858 75.6212 84.2327 75.0131C83.0953 73.9075 78.9986 60.6662 76.4797 61.2431Z" fill="#DA0553"/>
<path opacity="0.5" d="M76.462 84.8154C72.907 89.8312 62.2492 104.069 62.2492 105.269C62.2492 106.971 90.244 107.153 90.7897 105.269C91.3355 103.385 77.1283 83.8746 76.462 84.8154Z" fill="#D42F55"/>
<path opacity="0.5" d="M83.7279 82.2806C86.148 85.0902 83.1612 90.1438 82.3157 91.557C81.4701 92.9702 77.7689 95.6296 76.5005 95.6995C75.2322 95.7694 72.0501 94.0517 70.9675 91.4429C69.8856 88.8342 69.0578 84.5246 70.9675 83.2118C72.8772 81.899 82.3575 80.689 83.7279 82.2806Z" fill="#7E527C"/>
<path d="M82.3339 81.3638C85.1591 86.116 81.8879 91.1624 77.4511 91.9489C73.0152 92.7355 67.8712 88.6219 69.5655 82.8758C71.2606 77.1297 79.8528 77.1908 82.3339 81.3638Z" fill="url(#paint20_linear_531_17288)"/>
<path d="M77.4521 91.9499C80.7997 91.3561 83.4843 88.3361 83.3862 84.8476C82.9096 88.835 80.0048 92.313 74.2057 90.9424C73.4976 90.7753 69.5672 88.9563 69.2417 84.8323C69.0721 89.5235 73.537 92.6448 77.4521 91.9499Z" fill="url(#paint21_linear_531_17288)"/>
<path opacity="0.5" d="M69.8064 82.2033C70.0531 82.7939 73.1355 79.7914 72.7304 79.1624H72.728C71.4637 79.785 70.406 80.7885 69.8064 82.2033Z" fill="url(#paint22_linear_531_17288)"/>
<path d="M70.8072 82.6522C68.8733 86.6452 74.9682 94.8828 80.5004 88.6265C86.6291 81.6953 74.9883 74.0194 70.8072 82.6522Z" fill="url(#paint23_linear_531_17288)"/>
<path d="M72.4013 82.6233C71.2078 85.0199 72.0991 87.4543 74.2765 88.9446C76.7818 90.66 79.8505 88.6313 80.9115 86.5311C82.4274 83.5303 79.5403 80.4195 77.7479 79.9101C75.9563 79.4007 73.2533 80.9128 72.4013 82.6233Z" fill="url(#paint24_linear_531_17288)"/>
<path opacity="0.4" d="M71.9791 84.7298C71.8923 85.1066 71.9791 87.2116 73.5794 88.3058C75.1797 89.4001 76.3098 89.5865 76.4311 89.4057C76.5533 89.225 76.5485 87.7724 76.4737 87.6977C76.399 87.6229 75.15 87.0139 74.5479 86.1848C73.9459 85.3557 73.7402 85.0656 73.5682 85.0495C73.397 85.0327 72.0378 84.4727 71.9791 84.7298Z" fill="#B82774"/>
<path d="M73.8994 84.9531C73.6744 85.9244 76.4553 87.7329 76.7085 87.6968C77.9045 87.5257 79.3537 84.8816 79.3794 84.0227C79.3971 83.4418 77.1578 81.569 76.4425 81.7932C75.7271 82.0182 74.0746 84.197 73.8994 84.9531Z" fill="white"/>
<path opacity="0.8" d="M76.7097 87.6974C76.3786 87.8364 76.4983 89.3412 76.6116 89.3549C77.8711 89.5051 79.1676 88.8021 80.4295 87.1591C81.4527 85.827 81.3683 84.0306 80.9294 83.4802C80.7687 83.2786 79.387 83.7855 79.3806 84.0234C79.3412 85.4591 77.7988 87.2411 76.7097 87.6974Z" fill="#B82774"/>
<path opacity="0.75" d="M71.887 84.3986C71.8726 84.6243 73.5307 85.1675 73.6537 85.0285C73.8554 84.8019 76.3559 81.8573 76.3664 81.6758C76.3832 81.3825 76.4556 79.954 76.032 79.9339C75.8906 79.9267 74.0829 80.4642 72.9938 81.7665C71.9055 83.0689 71.9055 84.1134 71.887 84.3986Z" fill="white"/>
<path d="M72.4021 82.6236C72.4021 82.6236 73.1785 81.3068 74.5409 80.554C74.5409 80.554 75.2779 80.7781 74.7008 81.7069C74.1237 82.6365 72.4021 82.6236 72.4021 82.6236Z" fill="white"/>
<path d="M75.8689 87.2532C75.8182 87.3343 76.3511 88.3756 76.4974 88.3466C76.6437 88.3177 77.2047 87.5006 77.1356 87.5062C77.0665 87.5103 75.9806 87.0748 75.8689 87.2532Z" fill="white"/>
<path d="M79.1494 83.5477C78.934 83.8104 79.1237 84.7215 79.2459 84.7521C79.368 84.7826 79.9202 83.7478 79.8527 83.6835C79.7852 83.6184 79.3479 83.3059 79.1494 83.5477Z" fill="white"/>
<path d="M74.6208 90.588C74.6208 90.588 77.6381 91.5127 80.5011 88.6252C83.1278 85.9755 82.0491 83.0253 81.9326 82.7337C81.9326 82.7337 83.8825 86.2181 80.469 89.4053C77.5345 92.1466 74.6208 90.588 74.6208 90.588Z" fill="#FFD2FF"/>
<path opacity="0.5" d="M73.5769 90.0446C71.9453 87.9742 69.8756 83.7232 72.7081 80.7939C75.5405 77.8646 79.8213 80.6268 81.0639 81.1932C81.0639 81.1932 78.4011 76.5317 72.9291 79.1051C70.8377 80.0885 70.2936 81.5652 70.4696 84.9035C70.6303 87.9629 73.5769 90.0446 73.5769 90.0446Z" fill="#D42F55"/>
<path opacity="0.5" d="M76.463 94.86C82.0122 94.86 86.5107 90.3633 86.5107 84.8164C86.5107 79.2694 82.0122 74.7727 76.463 74.7727C70.9138 74.7727 66.4153 79.2694 66.4153 84.8164C66.4153 90.3633 70.9138 94.86 76.463 94.86Z" fill="url(#paint25_radial_531_17288)"/>
<path d="M73.2846 37.3945C72.2212 39.5895 75.5712 44.1168 78.6118 40.6781C81.9804 36.8691 75.5825 32.6503 73.2846 37.3945Z" fill="url(#paint26_linear_531_17288)"/>
<path d="M74.1623 37.3783C73.5064 38.6951 73.9959 40.0336 75.1927 40.8523C76.5695 41.7948 78.2566 40.6804 78.8393 39.5259C79.672 37.8764 78.0854 36.1667 77.1008 35.8871C76.1162 35.6075 74.6301 36.4383 74.1623 37.3783Z" fill="url(#paint27_linear_531_17288)"/>
<path opacity="0.4" d="M73.929 38.535C73.8808 38.7423 73.929 39.8992 74.8083 40.5002C75.6876 41.1011 76.3089 41.204 76.3756 41.1043C76.4423 41.0055 76.4399 40.2069 76.3989 40.1651C76.3579 40.1242 75.6715 39.7891 75.3404 39.3336C75.01 38.878 74.8959 38.7182 74.8019 38.7093C74.7086 38.7013 73.9619 38.3944 73.929 38.535Z" fill="#B82774"/>
<path d="M74.9854 38.6587C74.8616 39.1922 76.3904 40.1868 76.5294 40.1667C77.1869 40.0727 77.9834 38.6193 77.9971 38.1477C78.0067 37.8287 76.7762 36.7988 76.3831 36.9225C75.9901 37.0454 75.081 38.2433 74.9854 38.6587Z" fill="white"/>
<path opacity="0.8" d="M76.5295 40.1667C76.3478 40.2431 76.4129 41.0706 76.4756 41.0778C77.1677 41.1606 77.8798 40.7741 78.5742 39.8711C79.1369 39.1392 79.0903 38.1518 78.8491 37.8489C78.7607 37.738 78.0012 38.0168 77.9979 38.1469C77.9762 38.9367 77.1283 39.9161 76.5295 40.1667Z" fill="#B82774"/>
<path opacity="0.75" d="M73.8782 38.3531C73.8702 38.4768 74.7816 38.7757 74.8492 38.6993C74.9601 38.5748 76.3345 36.9567 76.3401 36.8563C76.3498 36.6948 76.3892 35.9098 76.1569 35.8986C76.0789 35.8946 75.0855 36.1902 74.4867 36.9061C73.8887 37.6227 73.8887 38.1964 73.8782 38.3531Z" fill="white"/>
<path d="M74.1623 37.3782C74.1623 37.3782 74.5891 36.6551 75.3374 36.2413C75.3374 36.2413 75.7425 36.3643 75.4259 36.8752C75.1084 37.3854 74.1623 37.3782 74.1623 37.3782Z" fill="white"/>
<path d="M76.0681 39.9221C76.0399 39.9671 76.3333 40.5392 76.4137 40.5231C76.4941 40.507 76.8019 40.0579 76.7641 40.0611C76.7263 40.0636 76.1291 39.8241 76.0681 39.9221Z" fill="white"/>
<path d="M77.8709 37.887C77.7528 38.0316 77.8564 38.5321 77.924 38.549C77.9907 38.5659 78.2945 37.997 78.2575 37.9617C78.2197 37.9255 77.9794 37.7536 77.8709 37.887Z" fill="white"/>
<path d="M75.3821 41.7554C75.3821 41.7554 77.0402 42.264 78.6132 40.6764C80.0567 39.2198 79.4644 37.5985 79.4001 37.4386C79.4001 37.4386 80.4714 39.354 78.5955 41.1054C76.984 42.6119 75.3821 41.7554 75.3821 41.7554Z" fill="#FFF7C4"/>
<path opacity="0.5" d="M74.8076 41.457C73.9106 40.3194 73.1567 38.3164 74.7135 36.7064C76.2704 35.0963 78.2388 36.2805 78.922 36.5923C78.922 36.5923 76.5702 33.3786 73.8527 35.2915C72.5241 36.2267 72.3891 37.7862 72.791 38.87C73.3769 40.4487 74.8076 41.457 74.8076 41.457Z" fill="#E54136"/>
<path d="M73.2846 132.185C72.2212 134.38 75.5712 138.907 78.6118 135.468C81.9804 131.659 75.5825 127.441 73.2846 132.185Z" fill="url(#paint28_linear_531_17288)"/>
<path d="M74.1618 132.171C73.5059 133.487 73.9954 134.826 75.1922 135.645C76.569 136.587 78.2561 135.473 78.8388 134.318C79.6715 132.669 78.0849 130.959 77.1003 130.679C76.1157 130.4 74.6296 131.23 74.1618 132.171Z" fill="url(#paint29_linear_531_17288)"/>
<path opacity="0.4" d="M73.9285 133.328C73.8803 133.535 73.9285 134.692 74.8078 135.293C75.6871 135.894 76.3084 135.997 76.3751 135.897C76.4418 135.798 76.4394 134.999 76.3984 134.958C76.3574 134.917 75.671 134.582 75.3399 134.126C75.0095 133.671 74.8954 133.511 74.8014 133.502C74.7081 133.494 73.9615 133.186 73.9285 133.328Z" fill="#B82774"/>
<path d="M74.9849 133.451C74.8611 133.984 76.3899 134.979 76.5289 134.959C77.1864 134.865 77.9829 133.412 77.9966 132.94C78.0062 132.621 76.7757 131.591 76.3826 131.715C75.9896 131.838 75.0805 133.035 74.9849 133.451Z" fill="white"/>
<path opacity="0.8" d="M76.529 134.959C76.3474 135.035 76.4125 135.863 76.4751 135.87C77.1672 135.953 77.8793 135.566 78.5737 134.663C79.1364 133.931 79.0898 132.944 78.8486 132.641C78.7602 132.53 78.0007 132.809 77.9975 132.939C77.9758 133.729 77.1278 134.708 76.529 134.959Z" fill="#B82774"/>
<path opacity="0.75" d="M73.8777 133.145C73.8697 133.269 74.7812 133.568 74.8487 133.492C74.9596 133.367 76.334 131.749 76.3396 131.649C76.3493 131.487 76.3887 130.702 76.1564 130.691C76.0784 130.687 75.085 130.983 74.4862 131.698C73.8882 132.414 73.8882 132.988 73.8777 133.145Z" fill="white"/>
<path d="M74.1623 132.171C74.1623 132.171 74.5891 131.448 75.3374 131.035C75.3374 131.035 75.7425 131.158 75.4259 131.669C75.1084 132.179 74.1623 132.171 74.1623 132.171Z" fill="white"/>
<path d="M76.0676 134.714C76.0394 134.759 76.3328 135.331 76.4132 135.315C76.4936 135.299 76.8014 134.85 76.7636 134.853C76.7258 134.856 76.1287 134.617 76.0676 134.714Z" fill="white"/>
<path d="M77.8704 132.679C77.7523 132.823 77.856 133.324 77.9235 133.341C77.9902 133.358 78.294 132.789 78.257 132.754C78.2193 132.718 77.9789 132.546 77.8704 132.679Z" fill="white"/>
<path d="M75.3816 136.548C75.3816 136.548 77.0397 137.056 78.6127 135.469C80.0562 134.012 79.4639 132.391 79.3996 132.231C79.3996 132.231 80.471 134.146 78.595 135.898C76.9835 137.403 75.3816 136.548 75.3816 136.548Z" fill="#FFF7C4"/>
<path opacity="0.5" d="M74.8071 136.249C73.9101 135.112 73.1562 133.109 74.7131 131.499C76.2699 129.889 78.2383 131.073 78.9215 131.385C78.9215 131.385 76.5697 128.171 73.8522 130.084C72.5236 131.019 72.3886 132.578 72.7905 133.662C73.3764 135.241 74.8071 136.249 74.8071 136.249Z" fill="#E54136"/>
<path d="M37.4305 55.1963C36.3671 57.3913 39.7171 61.9186 42.7577 58.48C46.1263 54.6709 39.7284 50.4521 37.4305 55.1963Z" fill="url(#paint30_linear_531_17288)"/>
<path d="M38.3082 55.1821C37.6523 56.4989 38.1418 57.8374 39.3386 58.6561C40.7154 59.5986 42.4025 58.4842 42.9852 57.3297C43.8179 55.6802 42.2313 53.9705 41.2467 53.6909C40.2621 53.4114 38.776 54.2413 38.3082 55.1821Z" fill="url(#paint31_linear_531_17288)"/>
<path opacity="0.4" d="M38.0749 56.339C38.0266 56.5463 38.0749 57.7033 38.9542 58.3042C39.8335 58.9052 40.4548 59.008 40.5215 58.9084C40.5882 58.8088 40.5858 58.0102 40.5448 57.9692C40.5038 57.9282 39.8174 57.5932 39.4863 57.1376C39.1559 56.6821 39.0418 56.5222 38.9478 56.5134C38.8545 56.5054 38.1078 56.1976 38.0749 56.339Z" fill="#B82774"/>
<path d="M39.1303 56.4623C39.0065 56.9958 40.5353 57.9904 40.6743 57.9703C41.3318 57.8763 42.1283 56.4229 42.142 55.9505C42.1516 55.6315 40.9211 54.6016 40.528 54.7253C40.135 54.849 39.2267 56.0461 39.1303 56.4623Z" fill="white"/>
<path opacity="0.8" d="M40.6744 57.9705C40.4927 58.0469 40.5579 58.8736 40.6205 58.8816C41.3126 58.9644 42.0247 58.5779 42.7191 57.6749C43.2818 56.9429 43.2352 55.9555 42.994 55.6526C42.9056 55.5418 42.1461 55.8205 42.1429 55.9507C42.1212 56.7397 41.2732 57.7191 40.6744 57.9705Z" fill="#B82774"/>
<path opacity="0.75" d="M38.0241 56.157C38.0161 56.2807 38.9275 56.5796 38.995 56.5033C39.1059 56.3788 40.4804 54.7606 40.486 54.661C40.4956 54.4995 40.535 53.7146 40.3027 53.7033C40.2248 53.6993 39.2313 53.995 38.6325 54.7108C38.0345 55.4259 38.0345 56.0003 38.0241 56.157Z" fill="white"/>
<path d="M38.3082 55.1819C38.3082 55.1819 38.735 54.4589 39.4833 54.0451C39.4833 54.0451 39.8884 54.168 39.5717 54.679C39.2542 55.1892 38.3082 55.1819 38.3082 55.1819Z" fill="white"/>
<path d="M40.2139 57.7256C40.1858 57.7706 40.4792 58.3426 40.5595 58.3265C40.6399 58.3105 40.9478 57.8614 40.91 57.8646C40.8714 57.8678 40.275 57.6284 40.2139 57.7256Z" fill="white"/>
<path d="M42.0168 55.6894C41.8986 55.834 42.0023 56.3346 42.0698 56.3514C42.1365 56.3683 42.4404 55.7995 42.4034 55.7641C42.3656 55.728 42.1253 55.5569 42.0168 55.6894Z" fill="white"/>
<path d="M39.528 59.5592C39.528 59.5592 41.1861 60.0678 42.7591 58.4802C44.2026 57.0236 43.6102 55.4022 43.5459 55.2424C43.5459 55.2424 44.6173 57.1577 42.7414 58.9092C41.129 60.4148 39.528 59.5592 39.528 59.5592Z" fill="#FFF7C4"/>
<path opacity="0.5" d="M38.9535 59.2608C38.0565 58.1231 37.3026 56.1202 38.8594 54.5101C40.4163 52.9001 42.3847 54.0843 43.0679 54.396C43.0679 54.396 40.7161 51.1823 37.9986 53.0953C36.67 54.0305 36.535 55.5899 36.9368 56.6738C37.5228 58.2517 38.9535 59.2608 38.9535 59.2608Z" fill="#E54136"/>
<path d="M37.3474 55.1734C36.2841 57.3684 39.6341 61.8957 42.6747 58.457C46.0433 54.6472 39.6462 50.4284 37.3474 55.1734Z" fill="url(#paint32_linear_531_17288)"/>
<path d="M38.2252 55.1577C37.5693 56.4745 38.0588 57.813 39.2556 58.6317C40.6324 59.5741 42.3195 58.4597 42.9022 57.3052C43.7349 55.6558 42.1483 53.9461 41.1637 53.6665C40.1791 53.3869 38.6937 54.2176 38.2252 55.1577Z" fill="url(#paint33_linear_531_17288)"/>
<path opacity="0.4" d="M37.9924 56.3143C37.9441 56.5216 37.9923 57.6786 38.8717 58.2795C39.751 58.8813 40.3723 58.9833 40.439 58.8837C40.5057 58.7841 40.5033 57.9863 40.4623 57.9445C40.4213 57.9035 39.7349 57.5685 39.4037 57.1129C39.0734 56.6574 38.9593 56.4975 38.8652 56.4887C38.7712 56.4806 38.0245 56.1737 37.9924 56.3143Z" fill="#B82774"/>
<path d="M39.0483 56.4379C38.9245 56.9714 40.4532 57.966 40.5923 57.9459C41.2497 57.8519 42.0463 56.3985 42.0599 55.9261C42.0696 55.6071 40.839 54.5771 40.446 54.7009C40.053 54.8246 39.1447 56.0225 39.0483 56.4379Z" fill="white"/>
<path opacity="0.8" d="M40.5924 57.9461C40.4107 58.0224 40.4758 58.8492 40.5385 58.8572C41.2305 58.9399 41.9427 58.5535 42.6363 57.6504C43.1989 56.9185 43.1523 55.9311 42.9112 55.6282C42.8228 55.5173 42.0632 55.7961 42.06 55.9263C42.0391 56.716 41.1912 57.6954 40.5924 57.9461Z" fill="#B82774"/>
<path opacity="0.75" d="M37.9421 56.1326C37.934 56.2563 38.8455 56.5552 38.913 56.4789C39.0239 56.3543 40.3983 54.7362 40.404 54.6366C40.4136 54.4751 40.453 53.6902 40.2207 53.6789C40.1428 53.6749 39.1493 53.9706 38.5505 54.6864C37.9517 55.4023 37.9517 55.9759 37.9421 56.1326Z" fill="white"/>
<path d="M38.2252 55.1575C38.2252 55.1575 38.652 54.4344 39.4003 54.0207C39.4003 54.0207 39.8054 54.1436 39.4879 54.6546C39.172 55.1648 38.2252 55.1575 38.2252 55.1575Z" fill="white"/>
<path d="M40.1309 57.7015C40.1028 57.7465 40.3962 58.3185 40.4765 58.3025C40.5569 58.2864 40.8648 57.8373 40.827 57.8405C40.7892 57.8429 40.192 57.6035 40.1309 57.7015Z" fill="white"/>
<path d="M41.9338 55.6663C41.8156 55.8109 41.9193 56.3115 41.9868 56.3283C42.0543 56.3452 42.3574 55.7764 42.3204 55.7411C42.2826 55.7049 42.0423 55.533 41.9338 55.6663Z" fill="white"/>
<path d="M39.445 59.5348C39.445 59.5348 41.1031 60.0433 42.676 58.4558C44.1196 56.9991 43.5272 55.3778 43.4629 55.2179C43.4629 55.2179 44.5343 57.1333 42.6584 58.8848C41.0468 60.3912 39.445 59.5348 39.445 59.5348Z" fill="#FFF7C4"/>
<path opacity="0.5" d="M38.8705 59.2364C37.9735 58.0987 37.2195 56.0958 38.7764 54.4857C40.3333 52.8756 42.3017 54.0599 42.9849 54.3716C42.9849 54.3716 40.6331 51.1579 37.9156 53.0709C36.587 54.0061 36.452 55.5655 36.8538 56.6493C37.4398 58.2281 38.8705 59.2364 38.8705 59.2364Z" fill="#E54136"/>
<path d="M109.699 55.1734C108.635 57.3684 111.985 61.8957 115.026 58.457C118.395 54.6472 111.997 50.4284 109.699 55.1734Z" fill="url(#paint34_linear_531_17288)"/>
<path d="M110.576 55.1577C109.921 56.4745 110.41 57.813 111.607 58.6317C112.984 59.5741 114.67 58.4597 115.254 57.3052C116.086 55.6558 114.5 53.9461 113.515 53.6665C112.53 53.3869 111.044 54.2176 110.576 55.1577Z" fill="url(#paint35_linear_531_17288)"/>
<path opacity="0.4" d="M110.343 56.3143C110.295 56.5216 110.343 57.6786 111.222 58.2795C112.102 58.8813 112.723 58.9833 112.79 58.8837C112.857 58.7841 112.854 57.9863 112.813 57.9445C112.772 57.9035 112.086 57.5685 111.755 57.1129C111.424 56.6574 111.31 56.4975 111.216 56.4887C111.123 56.4806 110.376 56.1737 110.343 56.3143Z" fill="#B82774"/>
<path d="M111.4 56.4379C111.276 56.9714 112.804 57.966 112.944 57.9459C113.601 57.8519 114.397 56.3985 114.411 55.9261C114.421 55.6071 113.19 54.5771 112.797 54.7009C112.403 54.8246 111.495 56.0225 111.4 56.4379Z" fill="white"/>
<path opacity="0.8" d="M112.943 57.9461C112.761 58.0224 112.826 58.8492 112.889 58.8572C113.581 58.9399 114.293 58.5535 114.987 57.6504C115.55 56.9185 115.503 55.9311 115.262 55.6282C115.173 55.5173 114.414 55.7961 114.411 55.9263C114.389 56.716 113.541 57.6954 112.943 57.9461Z" fill="#B82774"/>
<path opacity="0.75" d="M110.292 56.1326C110.284 56.2563 111.196 56.5552 111.263 56.4789C111.374 56.3543 112.749 54.7362 112.754 54.6366C112.764 54.4751 112.803 53.6902 112.571 53.6789C112.493 53.6749 111.5 53.9706 110.901 54.6864C110.303 55.4023 110.303 55.9759 110.292 56.1326Z" fill="white"/>
<path d="M110.577 55.1575C110.577 55.1575 111.003 54.4344 111.752 54.0207C111.752 54.0207 112.157 54.1436 111.84 54.6546C111.523 55.1648 110.577 55.1575 110.577 55.1575Z" fill="white"/>
<path d="M112.482 57.7015C112.454 57.7465 112.747 58.3185 112.828 58.3025C112.908 58.2864 113.216 57.8373 113.178 57.8405C113.14 57.8429 112.543 57.6035 112.482 57.7015Z" fill="white"/>
<path d="M114.285 55.6663C114.167 55.8109 114.272 56.3115 114.338 56.3283C114.406 56.3452 114.709 55.7764 114.672 55.7411C114.634 55.7049 114.394 55.533 114.285 55.6663Z" fill="white"/>
<path d="M111.796 59.5348C111.796 59.5348 113.454 60.0433 115.028 58.4558C116.472 56.9991 115.879 55.3778 115.815 55.2179C115.815 55.2179 116.886 57.1333 115.01 58.8848C113.397 60.3912 111.796 59.5348 111.796 59.5348Z" fill="#FFF7C4"/>
<path opacity="0.5" d="M111.222 59.2364C110.325 58.0987 109.572 56.0958 111.128 54.4857C112.685 52.8756 114.653 54.0599 115.336 54.3716C115.336 54.3716 112.984 51.1579 110.267 53.0709C108.938 54.0061 108.803 55.5655 109.205 56.6493C109.791 58.2281 111.222 59.2364 111.222 59.2364Z" fill="#E54136"/>
<path opacity="0.3" d="M59.7438 38.799C63.9869 46.2009 79.2686 50.5386 86.586 50.6977C93.9789 50.8584 92.4735 38.799 92.4735 38.799H59.7438Z" fill="#DA0553"/>
<path d="M62.1377 16.5879C62.1377 16.5879 61.145 19.0159 61.5389 19.9157C61.9327 20.8156 62.546 21.5845 61.7077 23.2427C61.7077 23.2427 63.0636 23.4195 62.546 19.1774C62.3483 17.5593 62.1377 16.5879 62.1377 16.5879Z" fill="url(#paint36_linear_531_17288)"/>
<path d="M76.9774 25.1117C76.7081 25.1848 76.4389 25.2555 76.1696 25.331C71.8736 26.4928 67.604 27.7429 63.3626 29.0887C61.5694 27.702 59.6878 26.4856 57.7508 25.3688C55.1161 23.8503 52.3777 22.511 49.5983 21.1717C55.4416 21.2352 61.2857 23.3185 61.7085 23.2429C62.7389 23.0565 62.8522 20.3876 62.03 17.0212C61.5244 14.9548 69.6954 19.515 74.4568 23.0252C75.0998 23.5 75.6809 23.9556 76.1696 24.3718C76.4791 24.6369 76.7507 24.8827 76.9774 25.1117Z" fill="url(#paint37_linear_531_17288)"/>
<path d="M90.1997 16.5879C90.1997 16.5879 91.1924 18.5105 90.7985 19.4104C90.4047 20.3102 89.7914 21.5853 90.6297 23.2435C90.6297 23.2435 89.2738 23.4203 89.7914 19.1782C89.9891 17.5593 90.1997 16.5879 90.1997 16.5879Z" fill="url(#paint38_linear_531_17288)"/>
<path d="M102.621 21.1716C100.364 22.4113 98.1544 23.5096 96.0092 24.6649C93.5779 25.9713 91.2269 27.3508 88.9748 29.0894C84.7333 27.7429 80.4654 26.4935 76.1693 25.3318C75.9001 25.2562 75.6308 25.1856 75.3616 25.1124C75.5882 24.8835 75.8599 24.6352 76.1693 24.3733C76.6797 23.9362 77.2938 23.459 77.9722 22.9609C82.7457 19.4603 90.8105 14.9676 90.3066 17.0227C89.4843 20.3883 89.5977 23.0573 90.6305 23.2445C91.0517 23.3192 96.7768 21.2359 102.621 21.1716Z" fill="url(#paint39_linear_531_17288)"/>
<path opacity="0.8" d="M96.0084 24.6656C93.577 25.9719 91.2261 27.3514 88.9739 29.0901C84.7325 27.7435 80.4646 26.4942 76.1685 25.3324C71.8725 26.4942 67.6029 27.7443 63.3615 29.0901C61.5683 27.7033 59.6867 26.4869 57.7497 25.3702C58.3782 25.0159 58.7962 24.7845 58.7962 24.7845C64.0423 23.6958 69.4556 23.1953 74.4557 23.0274C75.6541 22.9872 76.8284 22.9663 77.9722 22.9615C87.8543 22.9141 95.3726 24.0317 95.3726 24.0317L96.0084 24.6656Z" fill="#D42F55"/>
<path d="M94.4399 31.3192C93.6209 32.4231 93.0615 33.2242 93.0615 33.2242C93.0615 33.2242 92.7472 38.35 92.4739 38.7975C92.2014 39.2443 90.4661 40.3112 89.7195 40.684C74.6274 48.2258 62.4987 40.684 62.4987 40.684C62.4987 40.684 60.0167 39.2451 59.7442 38.7975C59.4718 38.35 59.1567 33.2242 59.1567 33.2242C59.1551 33.2217 59.1543 33.2209 59.1527 33.2193C59.0868 33.1245 58.1986 31.8262 56.9665 30.2716L56.9657 30.2692C54.5873 27.1768 49.5968 21.1727 49.5968 21.1727C49.7287 20.7525 61.7335 27.0819 62.776 26.7445C64.07 26.3259 65.2049 18.0836 66.7393 14.199C68.5582 9.59213 71.4204 2.6023 76.0203 0.0345468C76.0219 0.0208885 76.0227 0.0144617 76.0235 0C76.0484 0 76.0797 0.00321499 76.1079 0.00883898C76.1392 0.00321499 76.1673 0 76.1955 0C76.1955 0.0136583 76.1955 0.0208885 76.1955 0.0345468C85.1147 5.37654 86.7118 24.9151 89.459 26.3452C90.9918 27.143 102.622 21.1735 102.622 21.1735C102.736 21.4065 97.0079 27.8573 94.4399 31.3192Z" fill="url(#paint40_linear_531_17288)"/>
<path opacity="0.5" d="M94.4401 31.3193C93.6034 32.4256 93.0617 33.2242 93.0617 33.2242C81.3301 39.4805 71.1939 38.1452 59.1577 33.2242C59.1561 33.2218 59.1553 33.221 59.1537 33.2194C59.0878 33.1246 58.1996 31.8262 56.9675 30.2716C61.1767 34.022 69.6483 37.1321 76.6217 37.1321C82.4698 37.1321 88.7359 34.0863 94.4401 31.3193Z" fill="#D42F55"/>
<path opacity="0.5" d="M62.4987 40.6847C62.4947 40.6911 67.5439 44.0366 75.7036 44.0358C83.9598 44.035 89.7195 40.6855 89.7195 40.6855C89.7171 40.6815 83.119 43.1713 75.3612 43.1713C68.0382 43.1705 62.4987 40.6847 62.4987 40.6847Z" fill="#D42F55"/>
<path d="M90.7545 23.2161C90.74 23.1879 97.0406 21.0589 102.622 21.1729C103.225 21.185 91.7672 27.8767 89.442 26.7439C87.8602 25.9734 86.5862 19.4102 86.5862 19.4102C86.5943 19.4086 89.1309 25.1563 90.7151 25.3982C92.4552 25.6633 98.6956 22.4753 98.6956 22.4753C98.3604 22.2206 90.7545 23.2161 90.7545 23.2161Z" fill="url(#paint41_linear_531_17288)"/>
<path d="M61.1629 23.1604C61.1758 23.1347 53.1688 20.7638 49.5037 21.0498C49.0126 21.0884 60.5448 27.9119 62.7753 26.7445C64.3988 25.8945 65.3698 18.879 65.3698 18.879C65.3617 18.8766 63.1016 25.0959 61.5029 25.3996C59.7403 25.7346 53.5835 22.2574 53.5835 22.2574C53.6446 22.0838 61.1629 23.1604 61.1629 23.1604Z" fill="url(#paint42_linear_531_17288)"/>
<path d="M82.9479 8.81521C82.9479 8.81521 79.2008 0 76.0244 0C73.0569 0 68.9602 8.99197 68.9602 8.99197C68.9602 8.99197 73.3262 3.16872 76.1096 2.97268C78.6197 2.79673 82.9479 8.81521 82.9479 8.81521Z" fill="url(#paint43_linear_531_17288)"/>
<path opacity="0.2" d="M76.2505 34.1254C74.4501 34.3913 65.145 27.3083 65.3725 23.7121C65.702 18.4891 70.3598 7.04663 75.8333 5.62456C80.5465 4.40014 85.5017 17.1136 86.0804 22.6854C86.6712 28.3728 78.7694 33.7534 76.2505 34.1254Z" fill="#D42F55"/>
<path d="M63.0929 40.242C61.5401 37.6952 62.2088 35.4199 62.6404 35.1684C63.2874 34.7908 71.3443 37.3063 72.0725 37.9868C72.6889 38.5629 75.9128 42.6322 73.9034 42.6138C71.6609 42.5921 63.7102 41.2552 63.0929 40.242Z" fill="white"/>
<path opacity="0.2" d="M56.7127 25.7752C54.8223 25.0369 51.4891 22.8555 51.4891 22.8555C51.3565 23.0138 56.2795 29.7972 59.0227 31.6089C59.9486 32.2203 57.7126 26.1657 56.7127 25.7752Z" fill="#DA0553"/>
<path opacity="0.4" d="M82.5432 37.7766C81.0305 39.3754 81.7547 42.6847 82.0553 42.6124C84.4087 42.0508 88.0457 41.1518 89.7191 39.5256C90.8797 38.3968 90.592 35.0369 90.2038 35.1494C87.8399 35.8331 84.0285 36.2075 82.5432 37.7766Z" fill="#DA0553"/>
<path opacity="0.4" d="M83.5791 35.3224C84.0051 35.8897 90.1836 33.2833 91.9253 31.7416C92.664 31.0876 93.9797 27.4866 93.3054 27.4633C92.631 27.44 87.0345 27.1379 86.1737 28.2226C84.6449 30.15 83.2809 34.9247 83.5791 35.3224Z" fill="#DA0553"/>
<path d="M92.6478 31.8835C92.7981 31.9847 100.634 23.8348 100.635 23.5383C100.638 22.9743 95.3878 25.6505 94.8388 26.5745C93.3197 29.1318 92.6478 31.8835 92.6478 31.8835Z" fill="white"/>
<path d="M92.6583 33.9875C91.8514 34.3362 91.6126 34.055 91.443 34.668C91.2743 35.281 90.3724 40.2936 91.9253 38.7968C92.2789 38.4554 93.1478 33.7762 92.6583 33.9875Z" fill="white"/>
<path opacity="0.2" d="M59.3001 34.0226C59.1619 34.0933 59.4311 37.9907 60.0854 38.7805C60.7405 39.5702 62.6904 40.5938 62.536 40.1238C61.9244 38.2639 59.3001 34.0226 59.3001 34.0226Z" fill="#DA0553"/>
<path d="M59.8636 28.2623C59.2014 29.0352 59.3155 30.9892 61.1794 31.934C63.0433 32.8788 71.4224 35.8202 71.1861 34.5805C70.9498 33.3408 66.9045 27.7634 65.9288 27.422C64.9522 27.0813 60.5372 27.4758 59.8636 28.2623Z" fill="white"/>
<path d="M62.546 36.294C64.5698 41.5958 71.4154 39.1582 71.1912 38.4785C70.9677 37.7996 61.6442 33.9319 62.546 36.294Z" fill="white"/>
<path d="M74.7897 1.92664C71.082 2.70676 70.2879 6.84121 70.7075 6.89343C71.127 6.94566 76.7043 1.52412 74.7897 1.92664Z" fill="white"/>
<path d="M53.2296 22.688C50.7878 22.5699 57.2139 25.6213 57.6905 25.5627C59.0231 25.3996 55.489 22.7973 53.2296 22.688Z" fill="white"/>
<path d="M100.057 22.7978C99.0842 22.4346 97.4228 22.9898 96.3651 23.9386C95.7711 24.4713 94.94 25.482 95.198 25.3671C95.4569 25.2522 100.602 23.001 100.057 22.7978Z" fill="white"/>
<path d="M70.9077 23.2355C67.3391 27.1643 72.0861 36.9059 79.147 33.423C87.4948 29.3054 80.1035 13.1131 70.9077 23.2355Z" fill="url(#paint44_linear_531_17288)"/>
<path d="M72.9323 24.0703C70.701 26.3737 71.0643 29.4484 73.0255 31.7269C75.0124 34.036 78.5634 33.2358 80.3413 31.7478C83.0194 29.5071 81.8097 25.0296 80.2062 23.5264C78.4677 21.8978 74.6113 22.3365 72.9323 24.0703Z" fill="url(#paint45_linear_531_17288)"/>
<path opacity="0.4" d="M71.7259 26.4024C71.5056 26.7969 70.9936 29.1461 72.4709 30.8703C73.822 32.4474 74.8943 32.9737 75.0727 32.8532C75.2511 32.7326 75.735 31.4134 75.6859 31.3178C75.6369 31.2214 74.5575 30.1842 74.1926 29.114C73.8084 27.9892 73.6742 27.5835 73.4853 27.4903C73.2932 27.3971 71.877 26.1309 71.7259 26.4024Z" fill="#B82774"/>
<path d="M73.8912 27.532C73.3142 28.4856 75.6539 31.345 75.9207 31.3989C77.1553 31.6479 79.5834 29.6691 79.9749 28.8295C80.2457 28.247 78.8014 25.2093 77.9325 25.1233C77.05 25.0373 74.3534 26.7687 73.8912 27.532Z" fill="white"/>
<path opacity="0.8" d="M75.9204 31.3994C75.541 31.4147 75.1576 32.8174 75.2645 32.8649C76.4243 33.3815 77.8775 33.1734 79.6514 32.1458C81.1191 31.2958 81.8344 29.5941 81.6825 28.8919C81.6254 28.6284 80.0846 28.5938 79.9745 28.8308C79.3315 30.2208 77.1557 31.3504 75.9204 31.3994Z" fill="#B82774"/>
<path opacity="0.75" d="M71.7177 25.9698C71.6301 26.2285 73.4016 27.6048 73.5889 27.5059C73.8943 27.3445 77.811 25.1559 77.901 24.9478C78.0473 24.608 78.7739 22.8903 78.3069 22.6308C78.1494 22.5432 75.8008 22.221 73.9674 23.3032C72.167 24.3653 71.8294 25.6396 71.7177 25.9698Z" fill="white"/>
<path d="M72.9328 24.0706C72.9328 24.0706 74.3667 22.8116 76.307 22.5987C76.307 22.5987 77.069 23.2913 76.0169 24.1421C74.9848 24.9752 72.9328 24.0706 72.9328 24.0706Z" fill="white"/>
<path d="M75.2245 30.6826C75.1442 30.7429 75.3322 31.9038 75.4882 31.9255C75.6433 31.9472 76.4816 31.3872 76.4117 31.3679C76.3418 31.3486 75.4006 30.5516 75.2245 30.6826Z" fill="white"/>
<path d="M79.9588 28.2555C79.634 28.4379 79.4307 29.4261 79.5352 29.5025C79.6397 29.578 80.6138 28.7665 80.5784 28.6749C80.5423 28.5825 80.2577 28.0868 79.9588 28.2555Z" fill="white"/>
<path d="M72.8996 33.3273C72.8996 33.3273 75.5496 34.9735 79.1472 33.4229C82.5126 31.9719 82.9209 28.8747 82.9554 28.5421C82.9554 28.5421 83.039 32.4154 78.8273 34.0568C75.2571 35.4476 72.8996 33.3273 72.8996 33.3273Z" fill="#FFF7C4"/>
<path opacity="0.5" d="M71.9695 32.5076C70.7438 29.9238 70.1056 25.2358 74.6066 23.0617C79.2379 20.8241 81.9859 25.3989 82.9062 26.5879C82.9062 26.5879 81.543 16.668 73.6236 18.499C69.6868 19.4093 68.5367 23.2553 68.9836 26.1211C69.555 29.7832 71.9695 32.5076 71.9695 32.5076Z" fill="#E54136"/>
<defs>
<linearGradient id="paint0_linear_531_17288" x1="29.5659" y1="114.924" x2="124.407" y2="114.924" gradientUnits="userSpaceOnUse">
<stop stop-color="#F23113"/>
<stop offset="1" stop-color="#AD0C1F"/>
</linearGradient>
<linearGradient id="paint1_linear_531_17288" x1="29.5659" y1="152.365" x2="124.407" y2="152.365" gradientUnits="userSpaceOnUse">
<stop stop-color="#FFA933"/>
<stop offset="0.7937" stop-color="#FFBD2B"/>
<stop offset="0.9009" stop-color="#E5942F"/>
<stop offset="1" stop-color="#CA6B34"/>
</linearGradient>
<linearGradient id="paint2_linear_531_17288" x1="24.2388" y1="33.1156" x2="24.2388" y2="95.3755" gradientUnits="userSpaceOnUse">
<stop stop-color="#FFEA34"/>
<stop offset="0.7611" stop-color="#FF8100"/>
<stop offset="1" stop-color="#FFA400"/>
</linearGradient>
<linearGradient id="paint3_linear_531_17288" x1="128.761" y1="33.1156" x2="128.761" y2="95.3755" gradientUnits="userSpaceOnUse">
<stop stop-color="#FFEA34"/>
<stop offset="0.7611" stop-color="#FF8100"/>
<stop offset="1" stop-color="#FFA400"/>
</linearGradient>
<linearGradient id="paint4_linear_531_17288" x1="76.4997" y1="148.076" x2="76.4997" y2="57.853" gradientUnits="userSpaceOnUse">
<stop stop-color="#FF5900"/>
<stop offset="0.635" stop-color="#FE6800"/>
<stop offset="0.908" stop-color="#FA9300"/>
<stop offset="1" stop-color="#F63F00"/>
</linearGradient>
<linearGradient id="paint5_linear_531_17288" x1="76.6204" y1="129.494" x2="76.6204" y2="41.5796" gradientUnits="userSpaceOnUse">
<stop stop-color="#FFBA00"/>
<stop offset="0.2095" stop-color="#FE6800"/>
<stop offset="1" stop-color="#D41B00"/>
</linearGradient>
<linearGradient id="paint6_linear_531_17288" x1="44.4261" y1="86.3182" x2="108.814" y2="86.3182" gradientUnits="userSpaceOnUse">
<stop stop-color="#F23113"/>
<stop offset="1" stop-color="#AD0C1F"/>
</linearGradient>
<linearGradient id="paint7_linear_531_17288" x1="94.5928" y1="63.7784" x2="94.5928" y2="42.2316" gradientUnits="userSpaceOnUse">
<stop stop-color="#662D87"/>
<stop offset="1" stop-color="#D01C5C"/>
</linearGradient>
<linearGradient id="paint8_linear_531_17288" x1="76.6071" y1="95.6548" x2="113.261" y2="95.6548" gradientUnits="userSpaceOnUse">
<stop stop-color="#FFAB00"/>
<stop offset="1" stop-color="#FFBA00"/>
</linearGradient>
<linearGradient id="paint9_linear_531_17288" x1="76.6227" y1="138.951" x2="76.6227" y2="33.0438" gradientUnits="userSpaceOnUse">
<stop stop-color="#FFEA34"/>
<stop offset="0.6341" stop-color="#FF8100"/>
<stop offset="0.6955" stop-color="#FFA400"/>
<stop offset="1" stop-color="#FFBA00"/>
</linearGradient>
<linearGradient id="paint10_linear_531_17288" x1="111.482" y1="118.392" x2="111.482" y2="124.7" gradientUnits="userSpaceOnUse">
<stop stop-color="#FF5900"/>
<stop offset="1" stop-color="#F63F00"/>
</linearGradient>
<linearGradient id="paint11_linear_531_17288" x1="111.228" y1="108.047" x2="111.228" y2="120.48" gradientUnits="userSpaceOnUse">
<stop stop-color="#FFEA34"/>
<stop offset="0.7611" stop-color="#FF8100"/>
<stop offset="1" stop-color="#FFA400"/>
</linearGradient>
<linearGradient id="paint12_linear_531_17288" x1="41.4597" y1="118.392" x2="41.4597" y2="124.7" gradientUnits="userSpaceOnUse">
<stop stop-color="#FF5900"/>
<stop offset="1" stop-color="#F63F00"/>
</linearGradient>
<linearGradient id="paint13_linear_531_17288" x1="41.7127" y1="108.046" x2="41.7126" y2="120.48" gradientUnits="userSpaceOnUse">
<stop stop-color="#FFEA34"/>
<stop offset="0.7611" stop-color="#FF8100"/>
<stop offset="1" stop-color="#FFA400"/>
</linearGradient>
<linearGradient id="paint14_linear_531_17288" x1="122.916" y1="77.4344" x2="128.663" y2="63.7365" gradientUnits="userSpaceOnUse">
<stop stop-color="#DA2700"/>
<stop offset="1" stop-color="#D41B00"/>
</linearGradient>
<linearGradient id="paint15_linear_531_17288" x1="123.931" y1="58.6453" x2="123.932" y2="71.5348" gradientUnits="userSpaceOnUse">
<stop stop-color="#FFEA34"/>
<stop offset="0.7611" stop-color="#FF8100"/>
<stop offset="1" stop-color="#FFA400"/>
</linearGradient>
<linearGradient id="paint16_linear_531_17288" x1="29.877" y1="76.7455" x2="24.4194" y2="63.7366" gradientUnits="userSpaceOnUse">
<stop stop-color="#DA2700"/>
<stop offset="1" stop-color="#D41B00"/>
</linearGradient>
<linearGradient id="paint17_linear_531_17288" x1="29.1515" y1="58.6453" x2="29.1513" y2="71.5348" gradientUnits="userSpaceOnUse">
<stop stop-color="#FFEA34"/>
<stop offset="0.7611" stop-color="#FF8100"/>
<stop offset="1" stop-color="#FFA400"/>
</linearGradient>
<linearGradient id="paint18_linear_531_17288" x1="76.5002" y1="107.233" x2="76.5002" y2="60.3733" gradientUnits="userSpaceOnUse">
<stop stop-color="#832645"/>
<stop offset="1" stop-color="#B41E2D"/>
</linearGradient>
<linearGradient id="paint19_linear_531_17288" x1="76.4994" y1="61.2428" x2="76.4994" y2="105.477" gradientUnits="userSpaceOnUse">
<stop stop-color="#FFAB00"/>
<stop offset="0.486" stop-color="#FFBA00"/>
<stop offset="1" stop-color="#EF6C00"/>
</linearGradient>
<linearGradient id="paint20_linear_531_17288" x1="76.3112" y1="92.0808" x2="76.3112" y2="79.2031" gradientUnits="userSpaceOnUse">
<stop stop-color="#FFEA34"/>
<stop offset="0.6341" stop-color="#FF8100"/>
<stop offset="0.6955" stop-color="#FFA400"/>
<stop offset="1" stop-color="#FFBA00"/>
</linearGradient>
<linearGradient id="paint21_linear_531_17288" x1="83.3881" y1="88.4395" x2="69.236" y2="88.4395" gradientUnits="userSpaceOnUse">
<stop stop-color="#FF5900"/>
<stop offset="1" stop-color="#F63F00"/>
</linearGradient>
<linearGradient id="paint22_linear_531_17288" x1="72.767" y1="80.7212" x2="69.8067" y2="80.7212" gradientUnits="userSpaceOnUse">
<stop stop-color="#EBBD38"/>
<stop offset="1" stop-color="#FFF29E"/>
</linearGradient>
<linearGradient id="paint23_linear_531_17288" x1="82.2473" y1="84.8558" x2="70.4406" y2="84.8558" gradientUnits="userSpaceOnUse">
<stop stop-color="#832645"/>
<stop offset="1" stop-color="#B41E2D"/>
</linearGradient>
<linearGradient id="paint24_linear_531_17288" x1="79.8309" y1="87.9862" x2="73.2966" y2="81.4492" gradientUnits="userSpaceOnUse">
<stop stop-color="#EB175A"/>
<stop offset="1" stop-color="#FF1F19"/>
</linearGradient>
<radialGradient id="paint25_radial_531_17288" cx="0" cy="0" r="1" gradientUnits="userSpaceOnUse" gradientTransform="translate(76.4631 84.8162) scale(10.0474 10.0433)">
<stop offset="0.0952" stop-color="#B41E2D"/>
<stop offset="0.3436" stop-color="#7B141F"/>
<stop offset="0.6559" stop-color="#39090E"/>
<stop offset="0.8833" stop-color="#100304"/>
<stop offset="1"/>
</radialGradient>
<linearGradient id="paint26_linear_531_17288" x1="74.6131" y1="36.6626" x2="78.6541" y2="41.0208" gradientUnits="userSpaceOnUse">
<stop stop-color="#832645"/>
<stop offset="1" stop-color="#B41E2D"/>
</linearGradient>
<linearGradient id="paint27_linear_531_17288" x1="78.2455" y1="40.3261" x2="74.6542" y2="36.7334" gradientUnits="userSpaceOnUse">
<stop stop-color="#EB175A"/>
<stop offset="1" stop-color="#FF1F19"/>
</linearGradient>
<linearGradient id="paint28_linear_531_17288" x1="74.6131" y1="131.453" x2="78.6542" y2="135.811" gradientUnits="userSpaceOnUse">
<stop stop-color="#832645"/>
<stop offset="1" stop-color="#B41E2D"/>
</linearGradient>
<linearGradient id="paint29_linear_531_17288" x1="78.245" y1="135.118" x2="74.6538" y2="131.525" gradientUnits="userSpaceOnUse">
<stop stop-color="#EB175A"/>
<stop offset="1" stop-color="#FF1F19"/>
</linearGradient>
<linearGradient id="paint30_linear_531_17288" x1="38.7588" y1="54.4645" x2="42.7999" y2="58.8228" gradientUnits="userSpaceOnUse">
<stop stop-color="#832645"/>
<stop offset="1" stop-color="#B41E2D"/>
</linearGradient>
<linearGradient id="paint31_linear_531_17288" x1="42.3911" y1="58.1293" x2="38.7999" y2="54.5366" gradientUnits="userSpaceOnUse">
<stop stop-color="#EB175A"/>
<stop offset="1" stop-color="#FF1F19"/>
</linearGradient>
<linearGradient id="paint32_linear_531_17288" x1="38.6761" y1="54.4414" x2="42.7173" y2="58.7994" gradientUnits="userSpaceOnUse">
<stop stop-color="#832645"/>
<stop offset="1" stop-color="#B41E2D"/>
</linearGradient>
<linearGradient id="paint33_linear_531_17288" x1="42.3085" y1="58.1053" x2="38.7172" y2="54.5126" gradientUnits="userSpaceOnUse">
<stop stop-color="#EB175A"/>
<stop offset="1" stop-color="#FF1F19"/>
</linearGradient>
<linearGradient id="paint34_linear_531_17288" x1="111.027" y1="54.4413" x2="115.068" y2="58.7994" gradientUnits="userSpaceOnUse">
<stop stop-color="#832645"/>
<stop offset="1" stop-color="#B41E2D"/>
</linearGradient>
<linearGradient id="paint35_linear_531_17288" x1="114.66" y1="58.1052" x2="111.068" y2="54.5124" gradientUnits="userSpaceOnUse">
<stop stop-color="#EB175A"/>
<stop offset="1" stop-color="#FF1F19"/>
</linearGradient>
<linearGradient id="paint36_linear_531_17288" x1="61.4465" y1="19.9161" x2="62.6636" y2="19.9161" gradientUnits="userSpaceOnUse">
<stop stop-color="#DA2700"/>
<stop offset="1" stop-color="#D41B00"/>
</linearGradient>
<linearGradient id="paint37_linear_531_17288" x1="63.2879" y1="29.0894" x2="63.2879" y2="16.5046" gradientUnits="userSpaceOnUse">
<stop offset="0.0503" stop-color="#FF3F00"/>
<stop offset="1" stop-color="#FF7C04"/>
</linearGradient>
<linearGradient id="paint38_linear_531_17288" x1="89.6741" y1="19.9161" x2="90.891" y2="19.9161" gradientUnits="userSpaceOnUse">
<stop stop-color="#DA2700"/>
<stop offset="1" stop-color="#D41B00"/>
</linearGradient>
<linearGradient id="paint39_linear_531_17288" x1="88.9908" y1="29.0893" x2="88.9908" y2="16.5041" gradientUnits="userSpaceOnUse">
<stop offset="0.0503" stop-color="#FF3F00"/>
<stop offset="1" stop-color="#FF7C04"/>
</linearGradient>
<linearGradient id="paint40_linear_531_17288" x1="49.5974" y1="22.018" x2="102.624" y2="22.018" gradientUnits="userSpaceOnUse">
<stop stop-color="#FFEA34"/>
<stop offset="0.7134" stop-color="#FF8100"/>
<stop offset="0.7987" stop-color="#FFA400"/>
<stop offset="1" stop-color="#FFBA00"/>
</linearGradient>
<linearGradient id="paint41_linear_531_17288" x1="86.5861" y1="23.1421" x2="102.645" y2="23.1421" gradientUnits="userSpaceOnUse">
<stop stop-color="#FFDE00"/>
<stop offset="1" stop-color="#FFE834"/>
</linearGradient>
<linearGradient id="paint42_linear_531_17288" x1="65.369" y1="22.8791" x2="49.4882" y2="22.8791" gradientUnits="userSpaceOnUse">
<stop stop-color="#FFDE00"/>
<stop offset="1" stop-color="#FFE834"/>
</linearGradient>
<linearGradient id="paint43_linear_531_17288" x1="68.9603" y1="4.49566" x2="82.948" y2="4.49566" gradientUnits="userSpaceOnUse">
<stop stop-color="#FFDE00"/>
<stop offset="1" stop-color="#FFE834"/>
</linearGradient>
<linearGradient id="paint44_linear_531_17288" x1="74.353" y1="22.1137" x2="79.0405" y2="34.086" gradientUnits="userSpaceOnUse">
<stop stop-color="#832645"/>
<stop offset="1" stop-color="#B41E2D"/>
</linearGradient>
<linearGradient id="paint45_linear_531_17288" x1="78.8183" y1="32.6594" x2="74.6081" y2="22.9911" gradientUnits="userSpaceOnUse">
<stop stop-color="#EB175A"/>
<stop offset="1" stop-color="#FF1F19"/>
</linearGradient>
</defs>
</svg>
