<svg width="38" height="46" viewBox="0 0 38 46" fill="none" xmlns="http://www.w3.org/2000/svg">
<path d="M18.4838 14.3962C18.2965 14.4265 18.1182 14.5162 17.9522 14.6654C16.6062 15.8659 15.2962 17.1203 14.0232 18.4285C14.0142 18.4375 14.0131 18.4521 14.0209 18.4622C14.4415 19.0086 14.63 19.6268 14.5851 20.3145C14.5829 20.3414 14.5918 20.3448 14.6098 20.3258C15.8144 19.0434 17.0695 17.8069 18.3762 16.6176C18.5859 16.4269 18.8024 16.2306 19.0222 16.0309C19.1927 15.8761 19.3026 15.7515 19.3531 15.6584C19.4406 15.4979 19.4697 15.3274 19.4406 15.1479C19.3755 14.7305 19.1209 14.4814 18.679 14.3973M16.069 39.5986C16.9472 39.4898 17.4968 38.6843 17.2456 37.8417C17.0179 37.0788 16.89 36.2967 16.8609 35.4979C16.7431 32.2498 18.0004 29.1184 20.2358 26.759C22.3052 24.5745 25.0621 23.2024 27.9817 22.4058C28.252 22.3317 28.5189 22.2656 28.7814 22.2073C29.0057 22.1568 29.1885 22.0883 29.3265 22.0008C30.2956 21.3893 30.1172 19.9162 29.0248 19.5684C28.796 19.4955 28.5739 19.482 28.3585 19.5291C26.3127 19.9757 24.2949 20.7004 22.4353 21.7158C20.8852 22.5629 19.4978 23.6198 18.2741 24.8865C18.2696 24.891 18.2618 24.891 18.2573 24.8865C17.0874 23.5727 15.9366 22.3037 14.704 21.0752C14.6412 21.0124 14.5761 20.9529 14.5077 20.8945C14.4931 20.8822 14.483 20.8844 14.4763 20.9035C14.1903 21.745 13.6407 22.3194 12.8264 22.6268C11.919 22.9702 10.9073 22.7536 10.1682 22.1321C10.1401 22.1085 10.1121 22.1085 10.084 22.1321C9.81822 22.3531 9.59053 22.5865 9.40435 22.8299C9.02973 23.3191 8.71456 23.8229 8.46108 24.3412C8.24573 24.781 8.06738 25.2792 8.03821 25.7751C7.99671 26.455 8.31975 27.0507 8.97701 27.2818C9.72513 27.5443 10.683 27.2022 11.3806 26.8925C12.0076 26.6131 12.7154 26.2384 13.5039 25.7649C14.3428 25.2612 13.9054 24.0012 12.943 24.1516C12.8264 24.1695 12.6918 24.2257 12.537 24.3199C12.1882 24.5331 11.8293 24.7361 11.4591 24.9302C10.9376 25.2051 10.4059 25.4597 9.84177 25.6022C9.82944 25.6056 9.81823 25.5933 9.8216 25.5809C9.92927 25.2657 10.0717 24.9628 10.2512 24.6711C10.2545 24.6655 10.2624 24.6643 10.2669 24.6688L10.6864 25.0245C10.6965 25.0323 10.7099 25.0345 10.7222 25.0289C11.3021 24.7585 11.8719 24.4489 12.4148 24.1179C12.7557 23.9092 13.0967 23.8352 13.4511 23.9642C14.3361 24.2873 14.4561 25.4676 13.6474 25.9557C13.2795 26.1778 12.9217 26.382 12.5752 26.5683C12.5561 26.5784 12.555 26.5907 12.5718 26.6041C13.5543 27.4277 14.5223 28.2176 15.4745 28.9749C15.4858 28.9838 15.4891 28.9995 15.4835 29.0119C14.4034 31.3691 13.9503 33.972 14.2307 36.5559C14.2924 37.1269 14.4169 37.7586 14.603 38.4509C14.7758 39.0893 15.1571 39.4999 15.8368 39.5975" fill="#CCCCCC"/>
<path d="M18.4835 14.3962H18.6797C19.1217 14.4792 19.3763 14.7294 19.4413 15.1468C19.4694 15.3274 19.4413 15.4969 19.3538 15.6573C19.3034 15.7504 19.1934 15.8738 19.023 16.0297C18.802 16.2306 18.5866 16.4258 18.3769 16.6165C17.0702 17.8058 15.8151 19.0422 14.6105 20.3246C14.5915 20.3448 14.5836 20.3403 14.5859 20.3134C14.6296 19.6256 14.4423 19.0074 14.0217 18.461C14.0138 18.4509 14.0149 18.4364 14.0239 18.4274C15.297 17.1203 16.607 15.866 17.9529 14.6643C18.1178 14.5163 18.2962 14.4265 18.4835 14.3962Z" fill="#CCCCCC"/>
<path d="M14.3527 20.1124C14.3527 21.4565 13.2636 22.5458 11.9199 22.5458C10.5762 22.5458 9.48711 21.4565 9.48711 20.1124C9.48711 18.7683 10.5762 17.6788 11.9199 17.6788C13.2636 17.6788 14.3527 18.7683 14.3527 20.1124Z" fill="#CCCCCC"/>
<path d="M16.069 39.5991H15.8368C15.1571 39.5026 14.7747 39.0908 14.603 38.4524C14.4169 37.7613 14.2935 37.1296 14.2307 36.5574C13.9503 33.9736 14.4034 31.3706 15.4835 29.0134C15.4891 29.0011 15.4858 28.9854 15.4745 28.9764C14.5223 28.2191 13.5543 27.4292 12.5718 26.6057C12.5561 26.5923 12.5561 26.5811 12.5752 26.5698C12.9217 26.3836 13.2784 26.1794 13.6474 25.9572C14.4572 25.4692 14.3372 24.2889 13.4511 23.9657C13.0967 23.8367 12.7557 23.9108 12.4148 24.1195C11.8719 24.4504 11.3021 24.7601 10.7222 25.0305C10.7099 25.0361 10.6965 25.035 10.6864 25.026L10.2669 24.6703C10.2624 24.6658 10.2545 24.667 10.2512 24.6726C10.0717 24.9632 9.92927 25.2672 9.8216 25.5825C9.81711 25.5948 9.82944 25.6072 9.84177 25.6038C10.4048 25.4613 10.9365 25.2066 11.4591 24.9318C11.8282 24.7377 12.1882 24.5346 12.537 24.3214C12.6918 24.2272 12.8264 24.171 12.943 24.1531C13.9043 24.0027 14.3428 25.2628 13.5039 25.7665C12.7165 26.2389 12.0087 26.6146 11.3806 26.894C10.683 27.2037 9.72513 27.547 8.97701 27.2834C8.31975 27.0523 7.99671 26.4565 8.03821 25.7766C8.0685 25.2807 8.24685 24.7825 8.46108 24.3427C8.71569 23.8244 9.02973 23.3195 9.40435 22.8314C9.59166 22.5869 9.81822 22.3546 10.084 22.1336C10.1121 22.11 10.1401 22.11 10.1682 22.1336C10.9073 22.7551 11.919 22.9717 12.8264 22.6284C13.6407 22.321 14.1903 21.7465 14.4763 20.9051C14.483 20.8871 14.4931 20.8838 14.5077 20.8961C14.5761 20.9533 14.6412 21.0139 14.704 21.0767C15.9366 22.3041 17.0863 23.5742 18.2573 24.888C18.2618 24.8936 18.2696 24.8936 18.2741 24.888C19.4989 23.6213 20.8852 22.5644 22.4353 21.7174C24.2938 20.7009 26.3127 19.9772 28.3585 19.5306C28.5728 19.4835 28.7949 19.497 29.0248 19.5699C30.1172 19.9189 30.2956 21.3908 29.3265 22.0023C29.1885 22.0898 29.0057 22.1583 28.7814 22.2088C28.5189 22.2671 28.252 22.3333 27.9817 22.4074C25.0621 23.2028 22.3052 24.5761 20.2358 26.7605C18.0004 29.12 16.7431 32.2514 16.8609 35.4994C16.89 36.2983 17.0179 37.0791 17.2456 37.8432C17.4968 38.6847 16.9472 39.4902 16.069 39.5991Z" fill="#CCCCCC"/>
<path d="M18.9979 46.0002C8.52204 46.0002 0 37.4756 0 26.9965C0 16.5175 8.52204 7.99291 18.9979 7.99291C29.4738 7.99291 37.9959 16.5175 37.9959 26.9965C37.9959 37.4756 29.4738 46.0002 18.9979 46.0002ZM18.9979 10.8864C10.117 10.8864 2.89264 18.1129 2.89264 26.9965C2.89264 35.8802 10.117 43.1067 18.9979 43.1067C27.8789 43.1067 35.1032 35.8802 35.1032 26.9965C35.1032 18.114 27.8789 10.8864 18.9979 10.8864Z" fill="#CCCCCC"/>
<path d="M19.6917 0.69451C19.6917 1.07822 19.381 1.38895 18.9975 1.38895C18.6139 1.38895 18.3032 1.07822 18.3032 0.69451C18.3032 0.310802 18.6139 0 18.9975 0C19.381 0 19.6917 0.310802 19.6917 0.69451Z" fill="#CCCCCC"/>
<path d="M28.8594 3.59888L26.7956 9.79093C24.4189 8.71273 21.7753 8.12258 19.0026 8.12258C16.221 8.12258 13.5774 8.7217 11.1906 9.79093L9.13691 3.59888C9.12793 3.58093 9.13692 3.56185 9.14589 3.5439C9.17393 3.52594 9.19187 3.50685 9.21991 3.49788C9.23786 3.4889 9.25692 3.49787 9.27487 3.50685L14.1943 7.83764C14.3053 7.92964 14.4702 7.91167 14.5442 7.79162L18.5517 1.78358C18.5517 1.77461 18.5697 1.77455 18.5798 1.77455C18.8557 1.88562 19.1328 1.88568 19.4087 1.78358C19.4266 1.77461 19.4457 1.78358 19.4547 1.79256L23.4521 7.8006C23.5351 7.91167 23.6921 7.93862 23.802 7.83764L28.7214 3.50685C28.7394 3.49787 28.7585 3.49788 28.7764 3.49788C28.8045 3.50685 28.8224 3.51585 28.8504 3.5439C28.8684 3.56297 28.8684 3.58093 28.8594 3.59888Z" fill="#CCCCCC"/>
<path d="M9.23633 2.55449C9.23633 2.93819 8.92564 3.249 8.54205 3.249C8.15846 3.249 7.84777 2.93819 7.84777 2.55449C7.84777 2.17078 8.15846 1.86004 8.54205 1.86004C8.92564 1.85892 9.23633 2.16966 9.23633 2.55449Z" fill="#CCCCCC"/>
<path d="M30.1491 2.55448C30.1491 2.93819 29.8384 3.24899 29.4548 3.24899C29.0713 3.24899 28.7606 2.93819 28.7606 2.55448C28.7606 2.17078 29.0713 1.86004 29.4548 1.86004C29.8384 1.86004 30.1491 2.16965 30.1491 2.55448Z" fill="#CCCCCC"/>
<path d="M14.3474 3.4846C14.3474 3.7404 14.1399 3.94792 13.8842 3.94792C13.6284 3.94792 13.4209 3.7404 13.4209 3.4846C13.4209 3.22879 13.6284 3.0212 13.8842 3.0212C14.141 3.0212 14.3474 3.22879 14.3474 3.4846Z" fill="#CCCCCC"/>
<path d="M24.5722 3.4846C24.5722 3.7404 24.3646 3.94792 24.1089 3.94792C23.8532 3.94792 23.6457 3.7404 23.6457 3.4846C23.6457 3.22879 23.8532 3.0212 24.1089 3.0212C24.3646 3.0212 24.5722 3.22879 24.5722 3.4846Z" fill="#CCCCCC"/>
<path d="M13.4133 4.28029C13.6837 4.45756 14.0863 4.45531 14.36 4.28029C14.3869 4.26346 14.4093 4.26797 14.4262 4.29378L15.3537 5.68499C15.3672 5.70518 15.3672 5.72423 15.3537 5.74443L14.3185 7.29609C14.3118 7.30618 14.2961 7.30846 14.2871 7.30061L12.4476 5.68163C12.4387 5.67378 12.4375 5.66144 12.4431 5.65246L13.3472 4.29378C13.3651 4.26797 13.3864 4.26234 13.4133 4.28029Z" fill="#CCCCCC"/>
<path d="M23.6371 4.28154C23.9164 4.4633 24.3067 4.45095 24.5848 4.28154C24.6106 4.26583 24.6331 4.27032 24.651 4.29612L25.5472 5.64365C25.5573 5.65935 25.555 5.68177 25.5404 5.69412L23.7189 7.29741C23.7055 7.30975 23.6842 7.30638 23.6741 7.29179L22.6411 5.74232C22.6299 5.7255 22.6299 5.70978 22.6411 5.69295L23.572 4.29612C23.5888 4.26808 23.6102 4.26359 23.6371 4.28154Z" fill="#CCCCCC"/>
</svg>
