<svg width="173" height="117" viewBox="0 0 173 117" fill="none" xmlns="http://www.w3.org/2000/svg">
<path d="M97.1718 80.4025C96.1413 80.4025 95.1107 80.4025 94.0801 80.3934C93.0586 80.3934 92.0461 80.3844 91.0336 80.3844C85.9169 80.3844 80.8002 80.3934 75.6836 80.3934C75.5841 79.1278 75.3762 77.4283 74.9423 75.4395C74.7524 74.5716 74.5626 73.8574 74.427 73.3693C73.8123 71.2087 73.071 69.3374 72.3387 67.7825C70.8381 67.3305 68.7769 66.4627 66.8695 64.7179C61.4726 59.764 62.1867 52.1793 62.3042 51.1307C64.962 51.1397 67.6288 51.1397 70.2866 51.1488C70.7748 50.4256 71.2539 49.7024 71.7421 48.9882C72.2574 49.7114 72.7636 50.4346 73.2789 51.1488C74.7163 51.1759 76.1627 51.203 77.6001 51.2301C77.591 52.4234 77.7447 54.7377 79.0103 57.2508C80.1222 59.4566 81.6138 60.8488 82.5179 61.572C89.8584 61.5629 97.1989 61.5449 104.549 61.5268C105.308 61.2194 106.112 60.8578 106.944 60.4329C108.382 59.6916 109.629 58.9052 110.678 58.1458C110.687 58.7063 110.623 59.2216 110.515 59.6826C109.385 64.7541 102.587 66.8875 101.43 67.2401C100.426 69.0662 99.3414 71.3985 98.4826 74.201C97.7956 76.5062 97.3978 78.6035 97.1718 80.4025Z" fill="url(#paint0_linear_106_41)"/>
<path d="M91.0246 80.3482C85.9079 80.3573 80.7912 80.3663 75.6836 80.3753V80.3482H91.0246Z" fill="url(#paint1_linear_106_41)"/>
<path d="M79.4261 49.3046C87.1554 49.2955 94.8847 49.2955 102.614 49.2955C103.31 48.491 104.006 47.6774 104.702 46.8728C108.065 48.5633 111.428 50.2538 114.791 51.9443C114.239 53.0743 112.874 55.497 110.072 57.3683C107.559 59.0498 105.118 59.4747 103.88 59.6103C97.1899 59.6736 90.5002 59.7278 83.8196 59.7911C83.2501 59.5108 80.6737 58.1819 79.5165 55.0722C78.486 52.3511 79.1911 49.9826 79.4261 49.3046Z" fill="url(#paint2_linear_106_41)"/>
<path d="M72.0314 18.9842C72.0585 28.4763 72.0766 37.9593 72.0946 47.4514C72.9083 48.0752 73.7219 48.6989 74.5355 49.3227C75.557 49.3227 76.5785 49.3227 77.6001 49.3227C78.0069 48.717 78.4046 48.1023 78.8114 47.4966C80.0318 47.4966 81.2432 47.5056 82.4636 47.5056C82.4546 37.9774 82.4546 28.4582 82.4365 18.939C82.0297 18.2971 81.6229 17.6553 81.2161 17.0135C78.5854 17.0225 75.9638 17.0225 73.3331 17.0315C72.9083 17.6734 72.4743 18.3243 72.0314 18.9842Z" fill="url(#paint3_linear_106_41)"/>
<path d="M86.1339 13.9579C88.5747 13.9579 91.0155 13.9489 93.4473 13.9489C94.053 14.5545 94.6677 15.1693 95.2734 15.7749C95.2644 26.3428 95.2644 36.9107 95.2644 47.4785C91.6031 47.4695 87.9419 47.4695 84.2807 47.4604C84.2897 36.9016 84.2987 26.3428 84.3078 15.7749C84.9135 15.1783 85.5192 14.5636 86.1339 13.9579Z" fill="url(#paint4_linear_106_41)"/>
<path d="M99.5494 15.784C101.375 15.7749 103.211 15.7749 105.037 15.7659C105.877 16.5253 106.718 17.2846 107.559 18.044C107.396 26.388 107.242 34.7229 107.089 43.0579C105.371 44.5495 103.672 46.0502 101.954 47.5418C100.336 47.5147 98.7177 47.4966 97.0995 47.4695C97.0995 37.7152 97.0905 27.961 97.0905 18.1977C97.9131 17.4112 98.7267 16.5976 99.5494 15.784Z" fill="url(#paint5_linear_106_41)"/>
<path d="M62.3585 20.6476C64.3925 20.6476 66.4175 20.6476 68.4425 20.6476C69.247 21.4612 70.0606 22.2748 70.8652 23.0884C70.8652 30.8176 70.8652 38.5288 70.8652 46.2581C70.0697 47.0717 69.2651 47.8763 68.4605 48.6899C66.4265 48.6989 64.4015 48.6989 62.3675 48.6989C61.5449 47.8672 60.7313 47.0446 59.9086 46.2129C59.9086 38.339 59.9086 30.4651 59.9086 22.5912C60.7222 21.9493 61.5358 21.3075 62.3585 20.6476Z" fill="url(#paint6_linear_106_41)"/>
<path d="M35.5185 91.9738C41.0962 90.9884 46.8728 90.0573 52.8302 89.2165C58.9865 88.3487 64.962 87.6164 70.7658 87.0198C81.2071 87.0198 91.6393 87.0198 102.072 87.0198C107.758 87.6526 113.598 88.412 119.618 89.2979C125.72 90.2019 131.624 91.1963 137.319 92.245C133.621 90.4822 128.649 88.3758 122.602 86.5407C112.974 83.6117 105.371 82.2918 100.571 82.2918C91.4404 82.2918 82.319 82.2918 73.1976 82.2918C66.978 82.9427 59.7549 84.136 51.872 86.3056C45.7428 87.9961 40.2645 89.9759 35.5185 91.9738Z" fill="url(#paint7_linear_106_41)"/>
<path d="M107.378 26.614C107.776 26.4875 109.141 26.0987 110.633 26.7315C111.509 27.1022 112.07 27.6807 112.35 28.0152C112.35 31.4505 112.35 34.8857 112.35 38.33C122.394 40.6171 129.951 42.172 132.591 42.5246C132.862 42.5607 133.404 42.624 133.911 42.3257C135.764 41.2318 134.878 36.54 134.381 34.4156C134.381 29.9679 134.381 25.5292 134.381 21.0815C133.531 20.4577 132.69 19.8249 131.841 19.1921C128.487 20.4758 124.446 21.7595 119.808 22.7358C115.198 23.7031 111.012 24.1461 107.45 24.3178C107.423 25.0862 107.396 25.8546 107.378 26.614Z" fill="url(#paint8_linear_106_41)"/>
<path d="M107.487 21.886C112.929 21.4521 119.718 20.3944 127.221 17.9445C132.094 16.3535 136.315 14.4912 139.868 12.6561C138.566 16.1094 136.713 22.3561 137.174 30.3023C137.626 38.1762 140.139 44.1337 141.812 47.4152C131.786 45.3993 121.77 43.3924 111.744 41.3764C111.735 41.9821 111.735 42.5878 111.735 43.1935C123.75 45.8603 135.755 48.5271 147.769 51.1849C145.545 47.3881 141.767 39.7492 141.098 29.3531C140.474 19.4994 142.951 11.7973 144.578 7.75638C139.434 10.9204 132.519 14.4822 123.903 17.1581C117.81 19.0565 112.224 20.087 107.505 20.6295C107.505 21.0453 107.496 21.4702 107.487 21.886Z" fill="url(#paint9_linear_106_41)"/>
<path d="M141.034 24.3811C142.128 24.3721 143.231 24.363 144.334 24.354C143.24 25.8094 142.146 27.2649 141.043 28.7294C141.089 29.4164 141.143 30.1215 141.215 30.8538C141.351 32.2098 141.522 33.4844 141.73 34.7049C144.253 30.1848 146.766 25.6648 149.288 21.1538C146.585 21.3527 143.882 21.5335 141.17 21.7323C141.125 22.6183 141.07 23.4952 141.034 24.3811Z" fill="url(#paint10_linear_106_41)"/>
<path d="M133.73 13.4878C133.685 12.0775 133.63 10.6673 133.585 9.25702C128.875 12.0775 124.166 14.9071 119.456 17.7276C123.388 16.1365 127.32 14.5364 131.253 12.9454C131.416 13.4064 131.569 13.8675 131.723 14.3195C132.392 14.0392 133.052 13.768 133.73 13.4878Z" fill="url(#paint11_linear_106_41)"/>
<path d="M135.538 12.629C135.529 10.3419 135.529 8.05471 135.529 5.77661C132.157 8.42535 127.953 11.3272 122.891 14.0483C117.223 17.0948 111.943 19.1378 107.514 20.521C107.523 20.1413 107.523 19.7616 107.541 19.3729C112.187 17.4654 117.494 14.9071 123.117 11.4719C129.382 7.63887 134.516 3.61603 138.603 0C137.563 4.21268 136.559 8.41631 135.538 12.629Z" fill="url(#paint12_linear_106_41)"/>
<path d="M59.3029 25.5111C59.2939 26.1168 59.2939 26.7315 59.2849 27.3372C49.7566 25.9631 40.2284 24.58 30.7092 23.2059C32.3183 26.1801 34.3162 30.7273 35.2111 36.5852C36.4858 44.875 34.9219 51.6279 33.7738 55.3072C37.5616 53.3094 42.0997 51.2482 47.3429 49.4673C51.6731 47.9938 55.705 46.9632 59.321 46.24C59.312 46.6649 59.2939 47.0898 59.2849 47.5237C55.262 48.6357 50.8686 50.073 46.222 51.9534C39.6679 54.6021 34.0178 57.5492 29.2899 60.3877C30.7363 56.1299 33.0415 47.361 31.0437 36.5852C29.6334 29.0187 26.6321 23.3506 24.4354 19.9063C36.0519 21.7776 47.6774 23.6489 59.3029 25.5111Z" fill="url(#paint13_linear_106_41)"/>
<path d="M37.9593 21.2623C38.3661 21.2623 38.7729 21.2623 39.1888 21.2623C39.1888 20.6475 39.1797 20.0328 39.1797 19.4271C39.3696 19.2915 39.8035 19.0294 40.4182 18.9842C40.9064 18.948 41.2861 19.0655 41.494 19.1469C45.5891 20.9187 49.6933 22.6906 53.7885 24.4534C53.7794 24.0828 53.7795 23.7031 53.7704 23.3324C48.5 21.0182 43.2297 18.6949 37.9503 16.3806C37.9593 18.0078 37.9593 19.635 37.9593 21.2623Z" fill="url(#paint14_linear_106_41)"/>
<path d="M29.4888 7.92816C30.0131 9.52826 30.7544 12.1137 31.0527 14.889C31.2154 16.3806 31.2516 17.9988 31.2606 18.2067C31.2877 19.3096 31.2696 20.2588 31.2335 21.0092C32.6709 21.2442 34.0902 21.4702 35.5275 21.7052C35.5275 18.8305 35.5275 15.9467 35.5275 13.0629C43.6546 16.6157 51.7816 20.1684 59.9086 23.7212C59.9086 23.3505 59.9086 22.9799 59.9086 22.6092C60.2341 22.3561 60.5505 22.094 60.8759 21.8499C50.4075 17.2033 39.9481 12.5657 29.4888 7.92816Z" fill="url(#paint15_linear_106_41)"/>
<path d="M30.6369 34.6777C29.9046 36.9197 28.874 39.5232 27.4186 42.2895C26.2072 44.5947 24.9235 46.5654 23.7212 48.2288C26.4061 47.8763 29.091 47.5237 31.7669 47.1711C31.794 46.457 31.8121 45.7428 31.8301 45.0286C30.8719 45.0286 29.9136 45.0286 28.9554 45.0286C29.8052 43.3743 30.6549 41.7019 31.5047 40.0475C31.4866 39.6769 31.4595 39.2882 31.4324 38.8995C31.2877 37.3355 30.9894 35.9162 30.6369 34.6777Z" fill="url(#paint16_linear_106_41)"/>
<path d="M123.903 33.7195C125.596 33.7195 126.968 32.3474 126.968 30.6549C126.968 28.9624 125.596 27.5903 123.903 27.5903C122.211 27.5903 120.839 28.9624 120.839 30.6549C120.839 32.3474 122.211 33.7195 123.903 33.7195Z" fill="url(#paint17_linear_106_41)"/>
<path d="M106.275 80.4206C105.199 80.4206 104.115 80.4115 103.03 80.4115H102.722C101.222 80.4115 99.7211 80.4115 98.2205 80.4025C98.2295 80.3754 98.2295 80.3573 98.2295 80.3392C98.573 78.2871 99.0431 76.0723 99.7121 73.7219C100.083 72.4201 100.48 71.1816 100.896 70.0245C101.484 71.3353 102.126 72.6732 102.813 74.0564C102.957 74.3366 103.093 74.6168 103.238 74.9061C103.355 75.1412 103.482 75.3852 103.599 75.6112C104.467 77.2656 105.335 78.8476 106.212 80.3392C106.248 80.3663 106.266 80.4025 106.275 80.4206Z" fill="url(#paint18_linear_106_41)"/>
<path d="M34.063 25.4569C42.4974 26.7948 50.9409 28.1327 59.3753 29.4707C59.3572 32.9963 59.3391 36.5219 59.312 40.0476C58.9594 40.0385 58.6068 40.0204 58.2543 40.0114C58.191 36.8112 58.1277 33.611 58.0554 30.4108C54.3671 30.0764 50.4708 29.5972 46.3937 28.9373C43.4828 28.4672 40.6804 27.9339 38.0135 27.3643C38.0407 27.4457 38.1763 28.0062 37.8327 28.5215C37.435 29.1272 36.7389 29.1633 36.6756 29.1633C37.2994 31.3601 37.887 33.9365 38.2486 36.8383C38.7639 40.9245 38.7096 44.5405 38.4655 47.4785C38.5831 47.4514 39.2611 47.2796 39.921 47.6774C40.4905 48.0209 40.6804 48.5543 40.7256 48.6989C42.9856 47.6774 45.553 46.6559 48.4006 45.7519C52.4144 44.4682 56.1208 43.6817 59.3572 43.1935C59.3662 43.5913 59.3843 43.98 59.3933 44.3778C56.1479 45.11 52.7127 46.005 49.1238 47.0898C44.6761 48.4368 40.5809 49.9103 36.8474 51.42C37.2723 47.0084 37.3536 41.3945 36.3321 35.0213C35.7716 31.4233 34.949 28.2231 34.063 25.4569Z" fill="url(#paint19_linear_106_41)"/>
<path d="M105.615 76.7503C106.04 76.7593 106.465 76.7593 106.881 76.7593C107.152 75.2677 107.541 73.5863 108.119 71.7692C108.77 69.7352 109.53 67.9543 110.262 66.4627C108.906 67.9452 107.044 70.4313 106.112 73.9298C105.841 74.9332 105.688 75.8915 105.615 76.7503Z" fill="url(#paint20_linear_106_41)"/>
<path d="M107.785 66.0558C106.655 67.674 105.245 70.0877 104.241 73.2608C103.988 74.0744 103.78 74.8699 103.617 75.6202C103.229 77.4373 103.075 79.0555 103.03 80.3482V80.4296C102.93 80.4296 102.831 80.4205 102.722 80.4205C102.478 80.4115 102.234 80.4115 101.99 80.4115V80.3482C101.927 78.8204 102.035 76.687 102.75 74.2823C102.777 74.21 102.795 74.1377 102.822 74.0654C104.087 69.9792 106.456 67.3305 107.785 66.0558Z" fill="url(#paint21_linear_106_41)"/>
<path d="M65.2242 65.5406C66.6073 67.4571 68.352 70.368 69.473 74.2371C70.142 76.5514 70.4313 78.6487 70.5307 80.3753C70.8471 80.3844 71.1726 80.4024 71.489 80.4115C71.5522 78.8295 71.4347 76.5785 70.6482 74.0473C69.2832 69.6357 66.6344 66.8423 65.2242 65.5406Z" fill="url(#paint22_linear_106_41)"/>
<path d="M66.2367 76.696C66.5531 76.7141 66.8604 76.7322 67.1859 76.7593C67.213 75.6022 67.1136 73.8846 66.4627 71.941C65.5316 69.1837 63.9586 67.3576 63.0184 66.4355C64.058 67.9633 65.3688 70.3589 65.9474 73.5139C66.1644 74.6711 66.2367 75.7378 66.2367 76.696Z" fill="url(#paint23_linear_106_41)"/>
<path d="M108.671 29.7961C109.087 29.8052 109.502 29.8052 109.918 29.8052C109.909 33.6653 109.909 37.5254 109.909 41.3855C109.503 41.3765 109.105 41.3765 108.698 41.3674C108.68 37.5163 108.68 33.6562 108.671 29.7961Z" fill="url(#paint24_linear_106_41)"/>
<path d="M50.3533 34.9761C50.29 35.2834 50.2086 35.5908 50.1453 35.8981C49.9013 35.7625 49.4493 35.5727 48.9249 35.6631C48.7441 35.6902 48.3916 35.7625 48.2921 36.0157C48.2469 36.1151 48.2469 36.2688 48.3102 36.3954C48.4549 36.6575 48.7893 36.5942 49.5397 36.8835C49.7385 36.9649 49.838 37.001 49.9645 37.0824C50.064 37.1366 50.4798 37.3807 50.6516 37.896C50.7962 38.339 50.6787 38.7187 50.6335 38.8452C50.3261 39.7221 49.3589 39.9572 49.2865 39.9752C49.3046 40.2103 49.3317 40.4543 49.3498 40.6894C49.0967 40.7255 48.8436 40.7617 48.5904 40.7979C48.5814 40.5267 48.5724 40.2464 48.5633 39.9662C48.3916 39.9933 48.1385 40.0114 47.8401 39.9571C47.5418 39.9029 47.3068 39.7944 47.1531 39.7221C47.2435 39.4057 47.3339 39.0893 47.4333 38.7729C47.6412 38.8362 47.9034 38.9175 48.2198 38.9718C48.8978 39.0983 49.0696 39.017 49.1509 38.9808C49.3498 38.8814 49.5397 38.6463 49.5125 38.4384C49.4764 38.1853 49.1419 37.9864 48.943 37.9593C47.6232 37.7785 46.8909 36.6756 47.0808 35.8891C47.2073 35.3648 47.7588 34.9489 48.4096 34.7953C48.3825 34.5602 48.3645 34.3161 48.3464 34.0811C48.6266 34.054 48.8978 34.0178 49.1781 33.9907C49.1961 34.2438 49.2052 34.506 49.2233 34.7681C49.5939 34.8495 49.9736 34.9128 50.3533 34.9761Z" fill="url(#paint25_linear_106_41)"/>
<path d="M138.331 28.0604H121.987V40.2193H138.331V28.0604Z" fill="url(#paint26_linear_106_41)"/>
<path d="M122.457 32.481C122.746 32.6528 123.162 32.8064 123.596 32.8064C124.247 32.8064 124.627 32.4629 124.627 31.9657C124.627 31.5047 124.364 31.2425 123.695 30.9894C122.891 30.7001 122.394 30.2843 122.394 29.5882C122.394 28.8198 123.026 28.2502 123.985 28.2502C124.491 28.2502 124.853 28.3678 125.079 28.4943L124.907 29.0096C124.744 28.9192 124.419 28.7746 123.967 28.7746C123.298 28.7746 123.036 29.1814 123.036 29.5159C123.036 29.9769 123.334 30.2029 124.012 30.4651C124.844 30.7905 125.268 31.1883 125.268 31.9115C125.268 32.6708 124.708 33.3308 123.542 33.3308C123.063 33.3308 122.547 33.1952 122.285 33.0144L122.457 32.481Z" fill="url(#paint27_linear_106_41)"/>
<path d="M91.0246 80.3482C85.9079 80.3573 80.7912 80.3663 75.6836 80.3753V80.3482H91.0246Z" fill="url(#paint28_linear_106_41)"/>
<path d="M15.5941 116.59L18.4418 106.727L11.2639 116.59H9.41073L7.94623 106.736L5.09861 116.599H0L5.12573 99.0612H11.508L12.864 107.866L19.3458 99.0612H25.7642L20.6385 116.599H15.5941V116.59Z" fill="url(#paint29_linear_106_41)"/>
<path d="M41.4669 110.768C40.9335 111.916 40.2826 112.92 39.4961 113.778C38.7096 114.637 37.8327 115.324 36.8655 115.831C35.8982 116.337 34.8766 116.59 33.8189 116.59H31.1792C30.212 116.59 29.3079 116.49 28.4853 116.292C27.6536 116.093 26.9394 115.758 26.3338 115.279C25.7281 114.809 25.249 114.158 24.9145 113.345C24.5709 112.531 24.3992 111.5 24.3992 110.271C24.3992 110.009 24.4082 109.729 24.4353 109.439C24.4534 109.15 24.4896 108.852 24.5348 108.544C24.6704 107.306 24.9958 106.122 25.5111 104.973C26.0264 103.825 26.6592 102.822 27.4095 101.945C28.1599 101.077 28.9915 100.372 29.9046 99.8477C30.8176 99.3143 31.7397 99.0522 32.6709 99.0522H36.1784C38.2938 99.0522 39.9029 99.5132 41.0058 100.426C42.1087 101.339 42.6601 102.858 42.6601 104.973C42.6601 105.308 42.6511 105.642 42.624 105.995C42.6059 106.348 42.5697 106.709 42.5245 107.089C42.3528 108.4 42.0002 109.62 41.4669 110.768ZM29.4526 108.318V108.517C29.4526 108.915 29.5159 109.331 29.6334 109.756C29.7509 110.19 29.9227 110.578 30.1487 110.931C30.3656 111.283 30.6188 111.573 30.89 111.79C31.1612 112.007 31.4685 112.124 31.803 112.124H33.5206C33.7014 112.124 33.9545 112.034 34.28 111.844C34.6145 111.654 34.949 111.41 35.3015 111.103C35.6541 110.795 35.9886 110.443 36.314 110.063C36.6304 109.674 36.8745 109.295 37.0282 108.924C37.1819 108.635 37.2813 108.391 37.3265 108.192L37.4259 107.857C37.4711 107.64 37.4892 107.541 37.4892 107.559C37.4892 107.378 37.4983 107.197 37.5073 107.016C37.5163 106.827 37.5254 106.637 37.5254 106.438C37.5254 106.085 37.4983 105.733 37.444 105.38C37.3898 105.028 37.2813 104.711 37.1276 104.44C36.9739 104.169 36.757 103.943 36.4858 103.78C36.2055 103.617 35.853 103.536 35.41 103.536H33.2585C32.9963 103.536 32.698 103.626 32.3635 103.816C32.029 104.006 31.7036 104.25 31.3872 104.558C31.0708 104.865 30.7724 105.218 30.4922 105.597C30.212 105.986 30.004 106.366 29.8504 106.736C29.76 106.998 29.6876 107.252 29.6153 107.478C29.552 107.713 29.5068 107.911 29.4797 108.092C29.4707 108.11 29.4526 108.192 29.4526 108.318Z" fill="url(#paint30_linear_106_41)"/>
<path d="M46.3666 99.0522H52.7489L54.2676 108.915L57.1423 99.0522H62.1686L57.07 116.59H50.6516L49.16 106.727L46.3123 116.59H41.2137L46.3666 99.0522Z" fill="url(#paint31_linear_106_41)"/>
<path d="M69.3645 103.527H62.25V103.491C62.2681 103.4 62.3946 103.156 62.6297 102.759C62.8647 102.361 63.1449 101.918 63.4704 101.439C63.8049 100.951 64.1394 100.481 64.4829 100.029C64.8264 99.5765 65.1157 99.2511 65.3598 99.0522H78.6306L67.674 112.124H74.8247C74.6891 112.431 74.4812 112.838 74.1919 113.336C73.9026 113.833 73.5953 114.321 73.2698 114.809C72.9354 115.297 72.619 115.713 72.3116 116.066C72.0042 116.418 71.7782 116.599 71.6517 116.599H58.417L69.3645 103.527Z" fill="url(#paint32_linear_106_41)"/>
<path d="M94.1796 110.768C93.6462 111.916 92.9953 112.92 92.2088 113.778C91.4223 114.637 90.5454 115.324 89.5782 115.831C88.6109 116.337 87.5893 116.59 86.5317 116.59H83.8829C82.9156 116.59 82.0116 116.49 81.189 116.292C80.3573 116.093 79.6431 115.758 79.0374 115.279C78.4317 114.809 77.9526 114.158 77.6181 113.345C77.2746 112.531 77.1028 111.5 77.1028 110.271C77.1028 110.009 77.1119 109.729 77.139 109.439C77.1571 109.15 77.1932 108.852 77.2384 108.544C77.374 107.306 77.6995 106.122 78.2148 104.973C78.7301 103.825 79.3629 102.822 80.1132 101.945C80.8635 101.077 81.6952 100.372 82.6083 99.8477C83.5213 99.3143 84.4434 99.0522 85.3745 99.0522H88.8821C90.9975 99.0522 92.6066 99.5132 93.7095 100.426C94.8124 101.339 95.3638 102.858 95.3638 104.973C95.3638 105.308 95.3548 105.642 95.3276 105.995C95.3096 106.348 95.2734 106.709 95.2282 107.089C95.0655 108.4 94.7129 109.62 94.1796 110.768ZM82.1743 108.318V108.517C82.1743 108.915 82.2376 109.331 82.3551 109.756C82.4726 110.19 82.6444 110.578 82.8704 110.931C83.0874 111.283 83.3405 111.573 83.6117 111.79C83.8829 112.007 84.1903 112.124 84.5247 112.124H86.2424C86.4141 112.124 86.6763 112.034 87.0017 111.844C87.3362 111.654 87.6707 111.41 88.0233 111.103C88.3758 110.795 88.7103 110.443 89.0357 110.063C89.3522 109.674 89.5962 109.295 89.7499 108.924C89.9036 108.635 90.003 108.391 90.0482 108.192L90.1477 107.857C90.1929 107.64 90.211 107.541 90.211 107.559C90.211 107.378 90.22 107.197 90.229 107.016C90.2381 106.827 90.2471 106.637 90.2471 106.438C90.2471 106.085 90.22 105.733 90.1658 105.38C90.1115 105.028 90.003 104.711 89.8494 104.44C89.6957 104.169 89.4787 103.943 89.2075 103.78C88.9273 103.617 88.5747 103.536 88.1317 103.536H85.9802C85.718 103.536 85.4197 103.626 85.0852 103.816C84.7508 104.006 84.4253 104.25 84.1089 104.558C83.7925 104.865 83.4942 105.218 83.2139 105.597C82.9337 105.986 82.7258 106.366 82.5721 106.736C82.4817 106.998 82.4094 107.252 82.3371 107.478C82.2738 107.713 82.2286 107.911 82.2015 108.092C82.1834 108.11 82.1743 108.192 82.1743 108.318Z" fill="url(#paint33_linear_106_41)"/>
<path d="M102.026 116.59L107.152 99.0522H112.215L108.372 112.124H116.78C116.798 112.124 116.698 112.314 116.463 112.685C116.228 113.064 115.948 113.498 115.623 113.995C115.288 114.493 114.945 114.99 114.583 115.487C114.221 115.984 113.914 116.355 113.67 116.599H102.026V116.59Z" fill="url(#paint34_linear_106_41)"/>
<path d="M116.716 116.563C116.735 116.472 116.87 116.228 117.114 115.831C117.358 115.433 117.648 114.99 117.973 114.511C118.308 114.023 118.642 113.552 118.986 113.1C119.329 112.648 119.618 112.323 119.862 112.124H123.035L125.549 103.518H120.549V103.482C120.568 103.391 120.694 103.147 120.929 102.75C121.164 102.352 121.444 101.909 121.77 101.43C122.104 100.942 122.439 100.471 122.782 100.019C123.126 99.5675 123.415 99.242 123.659 99.0431H136.93C136.794 99.3505 136.587 99.7573 136.297 100.254C136.008 100.752 135.701 101.24 135.375 101.728C135.041 102.216 134.724 102.632 134.417 102.985C134.11 103.337 133.884 103.518 133.757 103.518H130.611L128.098 112.124H133.124C132.989 112.431 132.781 112.838 132.491 113.335C132.202 113.833 131.895 114.321 131.569 114.809C131.235 115.297 130.918 115.713 130.611 116.066C130.304 116.418 130.078 116.599 129.951 116.599H116.716V116.563Z" fill="url(#paint35_linear_106_41)"/>
<path d="M151.231 99.0522H156.692L147.29 114.538C147.2 114.673 147.073 114.845 146.91 115.071C146.748 115.288 146.567 115.514 146.377 115.749C146.187 115.984 145.997 116.183 145.816 116.346C145.627 116.509 145.473 116.59 145.337 116.59H140.971C140.772 116.59 140.609 116.472 140.474 116.228C140.338 115.984 140.221 115.686 140.112 115.333C140.004 114.981 139.913 114.61 139.85 114.221C139.787 113.833 139.714 113.507 139.651 113.245L138.033 99.0522H142.634L143.891 110.868L151.231 99.0522Z" fill="url(#paint36_linear_106_41)"/>
<path d="M173 99.0522C172.864 99.3595 172.656 99.7663 172.367 100.264C172.078 100.761 171.771 101.249 171.445 101.737C171.111 102.225 170.794 102.641 170.487 102.994C170.179 103.346 169.953 103.527 169.827 103.527H161.655L160.163 108.725L162.676 105.679H168.796L164.99 110.144H159.729L159.133 112.133H169.294C169.275 112.178 169.23 112.269 169.158 112.413C169.095 112.558 169.022 112.703 168.941 112.856C168.86 113.01 168.796 113.155 168.724 113.29C168.661 113.426 168.616 113.498 168.588 113.525C168.435 113.788 168.218 114.095 167.947 114.447C167.666 114.8 167.404 115.134 167.133 115.46C166.871 115.776 166.636 116.048 166.437 116.274C166.238 116.49 166.13 116.608 166.102 116.608H152.768L157.894 99.0703H173V99.0522Z" fill="url(#paint37_linear_106_41)"/>
<defs>
<linearGradient id="paint0_linear_106_41" x1="-26.0292" y1="107.012" x2="189.179" y2="23.0897" gradientUnits="userSpaceOnUse">
<stop stop-color="#51B32C"/>
<stop offset="0.4358" stop-color="#A0CB12"/>
<stop offset="1" stop-color="#BED208"/>
</linearGradient>
<linearGradient id="paint1_linear_106_41" x1="-20.6175" y1="120.88" x2="194.576" y2="36.9422" gradientUnits="userSpaceOnUse">
<stop stop-color="#51B32C"/>
<stop offset="0.4358" stop-color="#A0CB12"/>
<stop offset="1" stop-color="#BED208"/>
</linearGradient>
<linearGradient id="paint2_linear_106_41" x1="-28.1974" y1="101.452" x2="187.01" y2="17.5296" gradientUnits="userSpaceOnUse">
<stop stop-color="#51B32C"/>
<stop offset="0.4358" stop-color="#A0CB12"/>
<stop offset="1" stop-color="#BED208"/>
</linearGradient>
<linearGradient id="paint3_linear_106_41" x1="-37.6134" y1="77.3064" x2="177.594" y2="-6.61632" gradientUnits="userSpaceOnUse">
<stop stop-color="#51B32C"/>
<stop offset="0.4358" stop-color="#A0CB12"/>
<stop offset="1" stop-color="#BED208"/>
</linearGradient>
<linearGradient id="paint4_linear_106_41" x1="-36.4455" y1="80.3012" x2="178.762" y2="-3.6215" gradientUnits="userSpaceOnUse">
<stop stop-color="#51B32C"/>
<stop offset="0.4358" stop-color="#A0CB12"/>
<stop offset="1" stop-color="#BED208"/>
</linearGradient>
<linearGradient id="paint5_linear_106_41" x1="-34.7981" y1="84.5259" x2="180.41" y2="0.603168" gradientUnits="userSpaceOnUse">
<stop stop-color="#51B32C"/>
<stop offset="0.4358" stop-color="#A0CB12"/>
<stop offset="1" stop-color="#BED208"/>
</linearGradient>
<linearGradient id="paint6_linear_106_41" x1="-38.4461" y1="75.1708" x2="176.762" y2="-8.75188" gradientUnits="userSpaceOnUse">
<stop stop-color="#51B32C"/>
<stop offset="0.4358" stop-color="#A0CB12"/>
<stop offset="1" stop-color="#BED208"/>
</linearGradient>
<linearGradient id="paint7_linear_106_41" x1="-16.2387" y1="132.119" x2="198.969" y2="48.196" gradientUnits="userSpaceOnUse">
<stop stop-color="#51B32C"/>
<stop offset="0.4358" stop-color="#A0CB12"/>
<stop offset="1" stop-color="#BED208"/>
</linearGradient>
<linearGradient id="paint8_linear_106_41" x1="-31.6039" y1="92.7167" x2="183.604" y2="8.79404" gradientUnits="userSpaceOnUse">
<stop stop-color="#51B32C"/>
<stop offset="0.4358" stop-color="#A0CB12"/>
<stop offset="1" stop-color="#BED208"/>
</linearGradient>
<linearGradient id="paint9_linear_106_41" x1="-29.8159" y1="97.3018" x2="185.392" y2="13.3791" gradientUnits="userSpaceOnUse">
<stop stop-color="#51B32C"/>
<stop offset="0.4358" stop-color="#A0CB12"/>
<stop offset="1" stop-color="#BED208"/>
</linearGradient>
<linearGradient id="paint10_linear_106_41" x1="-30.5954" y1="95.3032" x2="184.612" y2="11.3804" gradientUnits="userSpaceOnUse">
<stop stop-color="#51B32C"/>
<stop offset="0.4358" stop-color="#A0CB12"/>
<stop offset="1" stop-color="#BED208"/>
</linearGradient>
<linearGradient id="paint11_linear_106_41" x1="-37.3166" y1="78.0673" x2="177.891" y2="-5.85545" gradientUnits="userSpaceOnUse">
<stop stop-color="#51B32C"/>
<stop offset="0.4358" stop-color="#A0CB12"/>
<stop offset="1" stop-color="#BED208"/>
</linearGradient>
<linearGradient id="paint12_linear_106_41" x1="-38.5848" y1="74.8153" x2="176.623" y2="-9.10744" gradientUnits="userSpaceOnUse">
<stop stop-color="#51B32C"/>
<stop offset="0.4358" stop-color="#A0CB12"/>
<stop offset="1" stop-color="#BED208"/>
</linearGradient>
<linearGradient id="paint13_linear_106_41" x1="-41.6763" y1="66.8875" x2="173.531" y2="-17.0352" gradientUnits="userSpaceOnUse">
<stop stop-color="#51B32C"/>
<stop offset="0.4358" stop-color="#A0CB12"/>
<stop offset="1" stop-color="#BED208"/>
</linearGradient>
<linearGradient id="paint14_linear_106_41" x1="-45.8492" y1="56.1866" x2="169.358" y2="-27.7361" gradientUnits="userSpaceOnUse">
<stop stop-color="#51B32C"/>
<stop offset="0.4358" stop-color="#A0CB12"/>
<stop offset="1" stop-color="#BED208"/>
</linearGradient>
<linearGradient id="paint15_linear_106_41" x1="-47.5579" y1="51.805" x2="167.65" y2="-32.1177" gradientUnits="userSpaceOnUse">
<stop stop-color="#51B32C"/>
<stop offset="0.4358" stop-color="#A0CB12"/>
<stop offset="1" stop-color="#BED208"/>
</linearGradient>
<linearGradient id="paint16_linear_106_41" x1="-40.8448" y1="69.0198" x2="174.363" y2="-14.9029" gradientUnits="userSpaceOnUse">
<stop stop-color="#51B32C"/>
<stop offset="0.4358" stop-color="#A0CB12"/>
<stop offset="1" stop-color="#BED208"/>
</linearGradient>
<linearGradient id="paint17_linear_106_41" x1="-32.0838" y1="91.4856" x2="183.124" y2="7.56293" gradientUnits="userSpaceOnUse">
<stop stop-color="#51B32C"/>
<stop offset="0.4358" stop-color="#A0CB12"/>
<stop offset="1" stop-color="#BED208"/>
</linearGradient>
<linearGradient id="paint18_linear_106_41" x1="-19.6792" y1="123.296" x2="195.528" y2="39.3731" gradientUnits="userSpaceOnUse">
<stop stop-color="#51B32C"/>
<stop offset="0.4358" stop-color="#A0CB12"/>
<stop offset="1" stop-color="#BED208"/>
</linearGradient>
<linearGradient id="paint19_linear_106_41" x1="-40.8289" y1="69.0607" x2="174.379" y2="-14.862" gradientUnits="userSpaceOnUse">
<stop stop-color="#51B32C"/>
<stop offset="0.4358" stop-color="#A0CB12"/>
<stop offset="1" stop-color="#BED208"/>
</linearGradient>
<linearGradient id="paint20_linear_106_41" x1="-20.2436" y1="121.849" x2="194.964" y2="37.9259" gradientUnits="userSpaceOnUse">
<stop stop-color="#51B32C"/>
<stop offset="0.4358" stop-color="#A0CB12"/>
<stop offset="1" stop-color="#BED208"/>
</linearGradient>
<linearGradient id="paint21_linear_106_41" x1="-20.1118" y1="122.187" x2="195.096" y2="38.2639" gradientUnits="userSpaceOnUse">
<stop stop-color="#51B32C"/>
<stop offset="0.4358" stop-color="#A0CB12"/>
<stop offset="1" stop-color="#BED208"/>
</linearGradient>
<linearGradient id="paint22_linear_106_41" x1="-25.0927" y1="109.414" x2="190.115" y2="25.4911" gradientUnits="userSpaceOnUse">
<stop stop-color="#51B32C"/>
<stop offset="0.4358" stop-color="#A0CB12"/>
<stop offset="1" stop-color="#BED208"/>
</linearGradient>
<linearGradient id="paint23_linear_106_41" x1="-25.9901" y1="107.113" x2="189.218" y2="23.19" gradientUnits="userSpaceOnUse">
<stop stop-color="#51B32C"/>
<stop offset="0.4358" stop-color="#A0CB12"/>
<stop offset="1" stop-color="#BED208"/>
</linearGradient>
<linearGradient id="paint24_linear_106_41" x1="-32.343" y1="90.8228" x2="182.865" y2="6.89961" gradientUnits="userSpaceOnUse">
<stop stop-color="#51B32C"/>
<stop offset="0.4358" stop-color="#A0CB12"/>
<stop offset="1" stop-color="#BED208"/>
</linearGradient>
<linearGradient id="paint25_linear_106_41" x1="-39.7112" y1="71.9268" x2="175.497" y2="-11.9958" gradientUnits="userSpaceOnUse">
<stop stop-color="#51B32C"/>
<stop offset="0.4358" stop-color="#A0CB12"/>
<stop offset="1" stop-color="#BED208"/>
</linearGradient>
<linearGradient id="paint26_linear_106_41" x1="-30.0798" y1="96.6252" x2="185.128" y2="12.7024" gradientUnits="userSpaceOnUse">
<stop stop-color="#51B32C"/>
<stop offset="0.4358" stop-color="#A0CB12"/>
<stop offset="1" stop-color="#BED208"/>
</linearGradient>
<linearGradient id="paint27_linear_106_41" x1="-32.0536" y1="91.5638" x2="183.154" y2="7.64114" gradientUnits="userSpaceOnUse">
<stop stop-color="#51B32C"/>
<stop offset="0.4358" stop-color="#A0CB12"/>
<stop offset="1" stop-color="#BED208"/>
</linearGradient>
<linearGradient id="paint28_linear_106_41" x1="-20.6175" y1="120.88" x2="194.576" y2="36.9422" gradientUnits="userSpaceOnUse">
<stop stop-color="#51B32C"/>
<stop offset="0.4358" stop-color="#A0CB12"/>
<stop offset="1" stop-color="#BED208"/>
</linearGradient>
<linearGradient id="paint29_linear_106_41" x1="-21.8247" y1="111.615" x2="179.861" y2="89.5997" gradientUnits="userSpaceOnUse">
<stop stop-color="#51B32C"/>
<stop offset="0.4358" stop-color="#A0CB12"/>
<stop offset="1" stop-color="#BED208"/>
</linearGradient>
<linearGradient id="paint30_linear_106_41" x1="-21.5845" y1="113.815" x2="180.101" y2="91.7998" gradientUnits="userSpaceOnUse">
<stop stop-color="#51B32C"/>
<stop offset="0.4358" stop-color="#A0CB12"/>
<stop offset="1" stop-color="#BED208"/>
</linearGradient>
<linearGradient id="paint31_linear_106_41" x1="-21.3674" y1="115.804" x2="180.319" y2="93.7885" gradientUnits="userSpaceOnUse">
<stop stop-color="#51B32C"/>
<stop offset="0.4358" stop-color="#A0CB12"/>
<stop offset="1" stop-color="#BED208"/>
</linearGradient>
<linearGradient id="paint32_linear_106_41" x1="-21.1698" y1="117.614" x2="180.516" y2="95.5986" gradientUnits="userSpaceOnUse">
<stop stop-color="#51B32C"/>
<stop offset="0.4358" stop-color="#A0CB12"/>
<stop offset="1" stop-color="#BED208"/>
</linearGradient>
<linearGradient id="paint33_linear_106_41" x1="-20.9638" y1="119.501" x2="180.722" y2="97.486" gradientUnits="userSpaceOnUse">
<stop stop-color="#51B32C"/>
<stop offset="0.4358" stop-color="#A0CB12"/>
<stop offset="1" stop-color="#BED208"/>
</linearGradient>
<linearGradient id="paint34_linear_106_41" x1="-20.6765" y1="122.134" x2="181.01" y2="100.119" gradientUnits="userSpaceOnUse">
<stop stop-color="#51B32C"/>
<stop offset="0.4358" stop-color="#A0CB12"/>
<stop offset="1" stop-color="#BED208"/>
</linearGradient>
<linearGradient id="paint35_linear_106_41" x1="-20.4834" y1="123.903" x2="181.203" y2="101.888" gradientUnits="userSpaceOnUse">
<stop stop-color="#51B32C"/>
<stop offset="0.4358" stop-color="#A0CB12"/>
<stop offset="1" stop-color="#BED208"/>
</linearGradient>
<linearGradient id="paint36_linear_106_41" x1="-20.3081" y1="125.508" x2="181.378" y2="103.493" gradientUnits="userSpaceOnUse">
<stop stop-color="#51B32C"/>
<stop offset="0.4358" stop-color="#A0CB12"/>
<stop offset="1" stop-color="#BED208"/>
</linearGradient>
<linearGradient id="paint37_linear_106_41" x1="-20.0689" y1="127.7" x2="181.617" y2="105.685" gradientUnits="userSpaceOnUse">
<stop stop-color="#51B32C"/>
<stop offset="0.4358" stop-color="#A0CB12"/>
<stop offset="1" stop-color="#BED208"/>
</linearGradient>
</defs>
</svg>
