<svg width="34" height="41" viewBox="0 0 34 41" fill="none" xmlns="http://www.w3.org/2000/svg">
<path d="M24.3912 30.9068C19.2793 25.7969 14.2994 20.8169 9.45138 15.966C9.09646 15.61 8.52658 15.605 8.17865 15.987C7.9477 16.242 7.88971 16.61 8.02768 16.921C8.07567 17.03 8.16766 17.15 8.30263 17.283C8.70254 17.677 9.10246 18.075 9.49937 18.479C9.51437 18.494 9.51237 18.508 9.49537 18.52C7.86572 19.646 6.50401 21.035 5.41224 22.6869C5.31626 22.8319 5.25127 23.0429 5.21628 23.3219V23.5829C5.24727 23.8549 5.32926 24.0909 5.46223 24.2929C7.29784 27.0609 10.0563 29.2118 13.2526 30.2008C15.805 30.9908 18.5375 30.9108 21.0639 30.0588C21.0709 30.0558 21.0789 30.0578 21.0849 30.0628C21.7838 30.7588 22.4706 31.4458 23.1445 32.1228C23.2335 32.2118 23.3225 32.2798 23.4114 32.3268C23.8313 32.5458 24.3262 32.3758 24.5592 31.9768C24.7672 31.6238 24.6822 31.1998 24.3912 30.9068ZM18.9494 27.9568C17.8226 28.4418 16.6779 28.5138 15.5171 28.1728C14.4003 27.8448 13.4305 27.1039 12.8027 26.1379C11.8869 24.7259 11.7559 22.9769 12.4338 21.434C12.4378 21.425 12.4488 21.4229 12.4558 21.4299L13.7935 22.7699C13.8045 22.7799 13.8095 22.7959 13.8065 22.8109C13.5535 24.1449 14.1094 25.4509 15.2512 26.1598C15.952 26.5958 16.7278 26.7369 17.5787 26.5809C17.5937 26.5789 17.6067 26.5829 17.6177 26.5929L18.9544 27.9309C18.9624 27.9389 18.9604 27.9518 18.9494 27.9568Z" fill="#CCCCCC"/>
<path d="M28.6523 23.3315V23.5785C28.6194 23.8605 28.5354 24.1035 28.3974 24.3075C27.3106 25.9254 25.9659 27.2874 24.3623 28.3934C24.3523 28.3994 24.3403 28.3984 24.3313 28.3904L21.4409 25.4995C21.4339 25.4925 21.4319 25.4825 21.4359 25.4725C22.6606 22.6645 21.1449 19.4705 18.1976 18.6866C17.0978 18.3936 16.005 18.4805 14.9192 18.9455C14.9052 18.9515 14.8922 18.9496 14.8813 18.9386L12.8097 16.8666C12.8037 16.8606 12.8057 16.8506 12.8147 16.8466C14.3384 16.3196 15.924 16.0946 17.5717 16.1716C21.9798 16.3776 25.9559 18.9635 28.3834 22.5775C28.5334 22.8025 28.6234 23.0545 28.6523 23.3315Z" fill="#CCCCCC"/>
<path d="M16.293 20.3235C18.5735 19.8795 20.4861 21.8375 20.0622 24.0925C20.0602 24.1025 20.0492 24.1055 20.0422 24.0985L16.286 20.3435C16.28 20.3365 16.284 20.3255 16.293 20.3235Z" fill="#CCCCCC"/>
<path d="M16.9344 40.9996C7.5964 40.9996 0 33.4017 0 24.0618C0 14.7219 7.5964 7.12405 16.9344 7.12405C26.2725 7.12405 33.8689 14.7219 33.8689 24.0618C33.8689 33.4017 26.2725 40.9996 16.9344 40.9996ZM16.9344 9.703C9.0181 9.703 2.57846 16.1439 2.57846 24.0618C2.57846 31.9797 9.0181 38.4206 16.9344 38.4206C24.8508 38.4206 31.2904 31.9797 31.2904 24.0618C31.2904 16.1449 24.8508 9.703 16.9344 9.703Z" fill="#CCCCCC"/>
<path d="M17.5532 0.61901C17.5532 0.961006 17.2762 1.23796 16.9343 1.23796C16.5924 1.23796 16.3154 0.961006 16.3154 0.61901C16.3154 0.277015 16.5924 0 16.9343 0C17.2762 0 17.5532 0.277015 17.5532 0.61901Z" fill="#CCCCCC"/>
<path d="M25.7247 3.20783L23.8851 8.72674C21.7665 7.76576 19.41 7.23976 16.9385 7.23976C14.4591 7.23976 12.1026 7.77376 9.975 8.72674L8.14439 3.20783C8.13639 3.19183 8.14439 3.17482 8.15238 3.15882C8.17738 3.14282 8.19338 3.12581 8.21837 3.11781C8.23437 3.10981 8.25137 3.1178 8.26736 3.1258L12.6524 6.9858C12.7514 7.0678 12.8984 7.05178 12.9644 6.94478L16.5366 1.58987C16.5366 1.58187 16.5526 1.58182 16.5616 1.58182C16.8076 1.68082 17.0545 1.68087 17.3005 1.58987C17.3164 1.58187 17.3334 1.58987 17.3414 1.59787L20.9047 6.95278C20.9787 7.05178 21.1186 7.0758 21.2166 6.9858L25.6017 3.1258C25.6177 3.1178 25.6347 3.11781 25.6507 3.11781C25.6757 3.12581 25.6917 3.13382 25.7167 3.15882C25.7327 3.17582 25.7327 3.19183 25.7247 3.20783Z" fill="#CCCCCC"/>
<path d="M8.23356 2.27712C8.23356 2.61911 7.95662 2.89613 7.61469 2.89613C7.27277 2.89613 6.99582 2.61911 6.99582 2.27712C6.99582 1.93512 7.27277 1.65817 7.61469 1.65817C7.95662 1.65717 8.23356 1.93412 8.23356 2.27712Z" fill="#CCCCCC"/>
<path d="M26.8747 2.27712C26.8747 2.61911 26.5978 2.89613 26.2559 2.89613C25.9139 2.89613 25.637 2.61911 25.637 2.27712C25.637 1.93512 25.9139 1.65817 26.2559 1.65817C26.5978 1.65717 26.8747 1.93412 26.8747 2.27712Z" fill="#CCCCCC"/>
<path d="M12.7903 3.10583C12.7903 3.33383 12.6053 3.51879 12.3774 3.51879C12.1494 3.51879 11.9645 3.33383 11.9645 3.10583C11.9645 2.87783 12.1494 2.69281 12.3774 2.69281C12.6053 2.69281 12.7903 2.87783 12.7903 3.10583Z" fill="#CCCCCC"/>
<path d="M21.9033 3.10583C21.9033 3.33383 21.7184 3.51879 21.4904 3.51879C21.2625 3.51879 21.0775 3.33383 21.0775 3.10583C21.0775 2.87783 21.2625 2.69281 21.4904 2.69281C21.7184 2.69281 21.9033 2.87783 21.9033 3.10583Z" fill="#CCCCCC"/>
<path d="M11.9572 3.81507C12.1982 3.97306 12.5571 3.97106 12.8011 3.81507C12.8251 3.80007 12.845 3.80409 12.86 3.82709L13.6869 5.06706C13.6989 5.08506 13.6989 5.10204 13.6869 5.12004L12.7641 6.50302C12.7581 6.51202 12.7441 6.51405 12.7361 6.50705L11.0964 5.06407C11.0884 5.05707 11.0874 5.04607 11.0924 5.03807L11.8983 3.82709C11.9142 3.80409 11.9332 3.79907 11.9572 3.81507Z" fill="#CCCCCC"/>
<path d="M21.0703 3.81627C21.3193 3.97827 21.6672 3.96727 21.9152 3.81627C21.9382 3.80227 21.9581 3.80627 21.9741 3.82927L22.773 5.03031C22.782 5.04431 22.78 5.06429 22.767 5.07529L21.1433 6.50429C21.1313 6.51529 21.1123 6.51228 21.1033 6.49928L20.1825 5.11826C20.1725 5.10326 20.1725 5.08925 20.1825 5.07425L21.0123 3.82927C21.0273 3.80427 21.0463 3.80027 21.0703 3.81627Z" fill="#CCCCCC"/>
</svg>
