<svg width="21" height="21" viewBox="0 0 21 21" fill="none" xmlns="http://www.w3.org/2000/svg">
<path d="M10.4999 10.4998C12.9162 10.4998 14.8749 8.54103 14.8749 6.12478C14.8749 3.70852 12.9162 1.74975 10.4999 1.74975C8.08364 1.74975 6.12488 3.70852 6.12488 6.12478C6.12488 8.54103 8.08364 10.4998 10.4999 10.4998Z" stroke="#222121" stroke-width="1.20259" stroke-linecap="round" stroke-linejoin="round"/>
<path d="M2.98373 19.2499C2.98373 15.8636 6.35249 13.1249 10.5 13.1249C11.34 13.1249 12.1538 13.2386 12.915 13.4486" stroke="#222121" stroke-width="1.20259" stroke-linecap="round" stroke-linejoin="round"/>
<path d="M19.2503 15.7498C19.2503 16.0298 19.2153 16.301 19.1453 16.5635C19.0665 16.9135 18.9265 17.2548 18.7428 17.5523C18.139 18.5673 17.0278 19.2498 15.7503 19.2498C14.849 19.2498 14.0353 18.9085 13.4227 18.3485C13.1602 18.121 12.9327 17.8498 12.7577 17.5523C12.434 17.0273 12.2502 16.406 12.2502 15.7498C12.2502 14.8048 12.6265 13.9385 13.239 13.3085C13.8778 12.6523 14.7703 12.2498 15.7503 12.2498C16.7828 12.2498 17.719 12.696 18.349 13.4135C18.909 14.0348 19.2503 14.8573 19.2503 15.7498Z" stroke="#222121" stroke-width="1.20259" stroke-miterlimit="10" stroke-linecap="round" stroke-linejoin="round"/>
<path d="M17.0537 15.7325H14.4462" stroke="#222121" stroke-width="1.20259" stroke-miterlimit="10" stroke-linecap="round" stroke-linejoin="round"/>
<path d="M15.75 14.455V17.0713" stroke="#222121" stroke-width="1.20259" stroke-miterlimit="10" stroke-linecap="round" stroke-linejoin="round"/>
</svg>
