<svg width="27" height="27" viewBox="0 0 27 27" fill="none" xmlns="http://www.w3.org/2000/svg">
<path d="M22.7812 8.4375H4.21875C3.75276 8.4375 3.375 8.81526 3.375 9.28125V12.6562C3.375 13.1222 3.75276 13.5 4.21875 13.5H22.7812C23.2472 13.5 23.625 13.1222 23.625 12.6562V9.28125C23.625 8.81526 23.2472 8.4375 22.7812 8.4375Z" stroke="white" stroke-width="1.5" stroke-linecap="round" stroke-linejoin="round"/>
<path d="M21.9375 13.5V21.0938C21.9375 21.3175 21.8486 21.5321 21.6904 21.6904C21.5321 21.8486 21.3175 21.9375 21.0938 21.9375H5.90625C5.68247 21.9375 5.46786 21.8486 5.30963 21.6904C5.15139 21.5321 5.0625 21.3175 5.0625 21.0938V13.5" stroke="white" stroke-width="1.5" stroke-linecap="round" stroke-linejoin="round"/>
<path d="M13.5 8.4375V21.9375" stroke="white" stroke-width="1.5" stroke-linecap="round" stroke-linejoin="round"/>
<path d="M18.2777 7.2456C17.0754 8.4374 13.5 8.4374 13.5 8.4374C13.5 8.4374 13.5 4.86201 14.6918 3.65966C15.1673 3.18414 15.8123 2.91699 16.4848 2.91699C17.1573 2.91699 17.8022 3.18414 18.2777 3.65966C18.7533 4.13519 19.0204 4.78014 19.0204 5.45263C19.0204 6.12513 18.7533 6.77008 18.2777 7.2456V7.2456Z" stroke="white" stroke-width="1.5" stroke-linecap="round" stroke-linejoin="round"/>
<path d="M8.72227 7.2456C9.92461 8.4374 13.5 8.4374 13.5 8.4374C13.5 8.4374 13.5 4.86201 12.3082 3.65966C11.8327 3.18414 11.1877 2.91699 10.5152 2.91699C9.84274 2.91699 9.19779 3.18414 8.72227 3.65966C8.24674 4.13519 7.97959 4.78014 7.97959 5.45263C7.97959 6.12513 8.24674 6.77008 8.72227 7.2456V7.2456Z" stroke="white" stroke-width="1.5" stroke-linecap="round" stroke-linejoin="round"/>
</svg>
