<svg width="17" height="17" viewBox="0 0 17 17" fill="none" xmlns="http://www.w3.org/2000/svg">
<path d="M8.07542 9.76325C9.16899 9.76325 10.0555 8.87674 10.0555 7.78317C10.0555 6.6896 9.16899 5.80309 8.07542 5.80309C6.98185 5.80309 6.09534 6.6896 6.09534 7.78317C6.09534 8.87674 6.98185 9.76325 8.07542 9.76325Z" stroke="white" stroke-width="1.5" stroke-linecap="round" stroke-linejoin="round"/>
<path d="M11.7326 14.3227C11.7326 12.6808 10.0978 11.3419 8.07541 11.3419C6.05305 11.3419 4.41825 12.6738 4.41825 14.3227" stroke="white" stroke-width="1.5" stroke-linecap="round" stroke-linejoin="round"/>
<path d="M14.7978 8.89646C14.7978 12.5959 11.803 15.5907 8.10359 15.5907C4.40414 15.5907 1.40936 12.5959 1.40936 8.89646C1.40936 5.19701 4.40414 2.20222 8.10359 2.20222C9.02669 2.20222 9.90751 2.38543 10.7108 2.72366C10.6192 3.00552 10.5699 3.30149 10.5699 3.61153C10.5699 4.14003 10.7179 4.64033 10.9786 5.06312C11.1195 5.30271 11.3027 5.52113 11.5141 5.70434C12.0074 6.15532 12.6627 6.43016 13.3885 6.43016C13.6986 6.43016 13.9945 6.38082 14.2693 6.28217C14.6076 7.08547 14.7978 7.97336 14.7978 8.89646Z" stroke="white" stroke-width="1.5" stroke-linecap="round" stroke-linejoin="round"/>
<path d="M16.2071 3.61136C16.2071 3.83685 16.1789 4.05529 16.1225 4.26669C16.0591 4.54855 15.9464 4.82337 15.7984 5.06295C15.4602 5.63372 14.9176 6.07764 14.2693 6.28199C13.9945 6.38065 13.6985 6.42999 13.3885 6.42999C12.6627 6.42999 12.0073 6.15515 11.5141 5.70417C11.3027 5.52096 11.1195 5.30254 10.9785 5.06295C10.7178 4.64016 10.5698 4.13985 10.5698 3.61136C10.5698 3.30131 10.6192 3.00535 10.7108 2.72349C10.8447 2.31479 11.0701 1.94839 11.3661 1.64539C11.8805 1.1169 12.5993 0.792738 13.3885 0.792738C14.22 0.792738 14.9739 1.15212 15.4813 1.72994C15.9323 2.23025 16.2071 2.89261 16.2071 3.61136Z" stroke="white" stroke-width="1.5" stroke-miterlimit="10" stroke-linecap="round" stroke-linejoin="round"/>
<path d="M14.4384 3.59726H12.3385" stroke="white" stroke-width="1.5" stroke-miterlimit="10" stroke-linecap="round" stroke-linejoin="round"/>
<path d="M13.3884 2.56866V4.67557" stroke="white" stroke-width="1.5" stroke-miterlimit="10" stroke-linecap="round" stroke-linejoin="round"/>
</svg>
