<svg width="12" height="12" viewBox="0 0 12 12" fill="none" xmlns="http://www.w3.org/2000/svg">
<path d="M1.77656 9.74525L4.29844 2.80307C4.32002 2.74366 4.35628 2.69068 4.40383 2.64904C4.45138 2.6074 4.50868 2.57845 4.57042 2.56489C4.63215 2.55132 4.69631 2.55359 4.75694 2.57146C4.81756 2.58934 4.87269 2.62224 4.91719 2.66713L9.33281 7.08276C9.3777 7.12726 9.4106 7.18238 9.42848 7.243C9.44635 7.30363 9.44862 7.36779 9.43505 7.42952C9.42149 7.49126 9.39254 7.54856 9.3509 7.59611C9.30926 7.64366 9.25628 7.67992 9.19687 7.7015L2.25469 10.2234C2.1879 10.2489 2.11515 10.2546 2.04522 10.2396C1.97529 10.2247 1.91117 10.1899 1.86061 10.1393C1.81005 10.0888 1.77521 10.0247 1.7603 9.95472C1.74538 9.88479 1.75103 9.81204 1.77656 9.74525Z" fill="#10A7FC" stroke="#10A7FC" stroke-linecap="round" stroke-linejoin="round"/>
<path d="M7.875 3.375C7.875 3.375 7.875 2.25 9 2.25C10.125 2.25 10.125 1.125 10.125 1.125" stroke="#10A7FC" stroke-linecap="round" stroke-linejoin="round"/>
<path d="M4.8 9.30019L2.7 7.2002" stroke="white" stroke-linecap="round" stroke-linejoin="round"/>
<path d="M6.75 0.75V1.875" stroke="#10A7FC" stroke-linecap="round" stroke-linejoin="round"/>
<path d="M10.125 5.25L10.875 6" stroke="#10A7FC" stroke-linecap="round" stroke-linejoin="round"/>
<path d="M10.125 3.75L11.25 3.375" stroke="#10A7FC" stroke-linecap="round" stroke-linejoin="round"/>
<path d="M3.60001 4.7251L7.27501 8.4001" stroke="white" stroke-linecap="round" stroke-linejoin="round"/>
</svg>
