<svg width="76" height="97" viewBox="0 0 76 97" fill="none" xmlns="http://www.w3.org/2000/svg">
<path fill-rule="evenodd" clip-rule="evenodd" d="M16.2984 5.84528C16.734 5.69686 17.1696 5.55004 17.606 5.40559C24.2381 3.20081 31.0092 1.34207 37.8754 0.0238087L38 0L38.1253 0.0238087C44.9908 1.34207 51.7626 3.20081 58.3948 5.40559C58.8312 5.55083 59.2668 5.69766 59.7015 5.84528L60.199 6.01432L60.1474 6.53735C59.6563 11.5064 60.9575 16.4073 63.698 20.5724C66.5234 24.8676 70.5983 28.0177 75.5271 29.4939L75.9999 29.6351V43.3011C75.9999 56.66 72.5787 68.7934 63.5893 78.9244C56.6088 86.7912 47.659 91.9959 38.4252 96.7761L38 96.9968L37.5747 96.7761C28.3409 91.9952 19.3911 86.7904 12.4098 78.9244C3.42042 68.7942 0 56.66 0 43.3011V29.6367L0.472872 29.4955C5.40159 28.0193 9.47658 24.8692 12.3019 20.574C15.0424 16.4088 16.3436 11.5072 15.8525 6.53894L15.8009 6.01592L16.2984 5.84528Z" fill="#666666"/>
</svg>
