<svg width="24" height="24" viewBox="0 0 24 24" fill="none" xmlns="http://www.w3.org/2000/svg">
<path d="M17.8 2.09951L7.87 4.58951C6.42 4.94951 4.95 6.41951 4.59 7.86951L2.1 17.7995C1.35 20.7995 3.19 22.6495 6.2 21.8995L16.13 19.4195C17.57 19.0595 19.05 17.5795 19.41 16.1395L21.9 6.19951C22.65 3.19951 20.8 1.34951 17.8 2.09951Z" stroke="#8D8C8C" stroke-width="1.5" stroke-linecap="round" stroke-linejoin="round"/>
<path d="M12 15.5C13.933 15.5 15.5 13.933 15.5 12C15.5 10.067 13.933 8.5 12 8.5C10.067 8.5 8.5 10.067 8.5 12C8.5 13.933 10.067 15.5 12 15.5Z" stroke="#8D8C8C" stroke-width="1.5" stroke-linecap="round" stroke-linejoin="round"/>
</svg>
