<svg width="35" height="43" viewBox="0 0 35 43" fill="none" xmlns="http://www.w3.org/2000/svg">
<path d="M26.8446 32.2536C26.2671 30.4663 24.9374 28.9537 23.1407 28.3431C22.4887 28.122 21.8357 27.904 21.1797 27.6891C21.1652 27.6839 21.1528 27.6736 21.1456 27.6601L20.4492 26.2695C20.442 26.254 20.4441 26.2406 20.4554 26.2282C21.0805 25.5773 21.502 24.7704 21.6684 23.8839C21.7066 23.6835 21.7386 23.4892 21.7665 23.3033C21.7686 23.2898 21.7799 23.2806 21.7923 23.2816C22.03 23.2857 22.2686 23.2857 22.5052 23.2816C22.8793 23.2754 23.1861 23.1504 23.4268 22.9076C23.5808 22.7516 23.6862 22.5698 23.743 22.36C23.7792 22.2288 23.7957 22.0511 23.7957 21.8248C23.7936 20.9921 23.7916 20.1873 23.7895 19.4093C23.7874 18.4309 23.5684 17.4421 23.1221 16.5681C22.5125 15.3737 21.6219 14.4604 20.4482 13.8291C19.7673 13.4634 19.0338 13.2319 18.2465 13.1359C18.0533 13.1121 17.8187 13.1059 17.6049 13.0873H17.3972C17.1616 13.1069 16.9271 13.1121 16.6956 13.1441C15.2513 13.3415 14.03 13.9459 13.034 14.9553C11.945 16.0576 11.3427 17.3946 11.2259 18.966C11.2084 19.2078 11.2001 19.4899 11.2032 19.8102C11.2094 20.4662 11.2084 21.0841 11.2012 21.6637C11.197 22.0036 11.2156 22.2422 11.2569 22.3776C11.3768 22.765 11.631 23.0398 12.0205 23.2C12.036 23.2072 12.0463 23.2216 12.0453 23.2392C12.0411 23.4965 12.0422 23.668 12.0473 23.7558C12.0907 24.4263 12.5908 24.9202 13.2624 24.9564C13.3977 24.9636 13.5258 24.9656 13.6467 24.9605C13.6643 24.9605 13.6767 24.9677 13.6839 24.9832C13.8967 25.443 14.1829 25.8583 14.5435 26.2313C14.5538 26.2416 14.5559 26.2571 14.5497 26.2705L13.8533 27.6612C13.8461 27.6757 13.8348 27.685 13.8193 27.6912C13.1591 27.9061 12.4988 28.1272 11.8376 28.3524C10.668 28.7522 9.6803 29.5519 8.98496 30.5644C8.25243 31.6317 7.87327 32.8167 7.84744 34.1185C7.84228 34.3685 7.97142 34.5184 8.23489 34.57H26.7537C27.011 34.5245 27.1422 34.3809 27.1453 34.1402C27.1566 33.5358 27.0554 32.9076 26.8446 32.2536ZM21.2696 19.3504C21.2685 19.3659 21.2603 19.3721 21.2458 19.37C20.8573 19.3204 20.5226 19.2647 20.2395 19.2016C19.228 18.9764 18.3012 18.528 17.4592 17.8554C17.2763 17.7087 17.1131 17.5413 16.9333 17.3884C16.8248 17.2965 16.6926 17.2768 16.5541 17.283C15.43 17.3419 14.5011 17.7923 13.7686 18.6354C13.7542 18.653 13.748 18.6499 13.75 18.6272C13.844 17.8141 14.2315 17.0505 14.8328 16.504C15.4775 15.9172 16.238 15.6175 17.1151 15.6062C17.3517 15.6031 17.5914 15.602 17.8352 15.6031C18.792 15.6082 19.6723 15.9699 20.3252 16.6569C21.0185 17.3874 21.3326 18.2852 21.2696 19.3504ZM22.9547 19.8122C22.9557 20.5417 22.9547 21.2721 22.9537 22.0025C22.9526 22.2319 22.7935 22.4168 22.561 22.4385C22.4505 22.4489 22.2366 22.4499 21.9184 22.4406C21.9029 22.4406 21.8957 22.4323 21.8977 22.4168C21.9277 22.1348 21.9587 21.8476 21.9886 21.5583C22.0475 20.9859 22.0713 20.4011 22.1044 19.8236C22.1054 19.8081 22.1126 19.8008 22.1281 19.8008H22.9433C22.9495 19.7998 22.9547 19.805 22.9547 19.8122ZM12.4916 22.4395C12.224 22.4333 12.0473 22.2536 12.0473 21.985C12.0463 21.2576 12.0463 20.5365 12.0473 19.8215C12.0473 19.807 12.0546 19.7998 12.069 19.7998H12.8842C12.8935 19.7998 12.9018 19.8071 12.9018 19.8174C12.9307 20.6842 12.9989 21.5531 13.1074 22.423C13.1084 22.4334 13.1012 22.4416 13.0908 22.4416C12.8801 22.4437 12.6796 22.4437 12.4916 22.4395ZM13.345 24.1236C13.1053 24.1061 12.9607 24.0028 12.91 23.8137C12.8822 23.7104 12.8749 23.5409 12.8894 23.3064C12.8904 23.2898 12.8987 23.2826 12.9152 23.2826H13.1983C13.2179 23.2826 13.2293 23.2919 13.2324 23.3105L13.3729 24.0947C13.376 24.1153 13.3667 24.1257 13.345 24.1236ZM12.8904 18.9371C12.8904 18.9526 12.8822 18.9609 12.8667 18.9609H12.0804C12.0721 18.9609 12.068 18.9568 12.069 18.9485C12.2829 16.159 14.6148 13.9696 17.4023 13.9314C18.5089 13.9159 19.5266 14.2062 20.4564 14.8013C21.8833 15.7146 22.7925 17.2572 22.9351 18.9361C22.9371 18.9526 22.9289 18.9599 22.9134 18.9599H22.1292C22.1209 18.9599 22.1168 18.9557 22.1157 18.9474C22.0816 17.8264 21.6849 16.8666 20.9245 16.0711C20.3283 15.4471 19.602 15.0431 18.7445 14.8581C18.4913 14.8044 18.2082 14.7735 17.8952 14.7673C17.4261 14.758 17.0345 14.7642 16.7194 14.789C16.1832 14.8313 15.6087 15.009 15.1283 15.2704C13.7707 16.0102 12.9276 17.3842 12.8904 18.9371ZM14.279 24.1215C14.2604 24.1215 14.249 24.1122 14.2439 24.0947C14.1829 23.8663 14.1292 23.6081 14.0848 23.3209C13.9298 22.3342 13.8182 21.268 13.7469 20.1222C13.7459 20.1056 13.7459 20.0902 13.749 20.0757C13.7521 20.0509 13.7614 20.0271 13.7779 20.0054C14.0352 19.6737 14.278 19.3029 14.5569 19.0167C15.0663 18.4949 15.7007 18.1994 16.4601 18.1292C16.4838 18.1271 16.5076 18.1353 16.5262 18.1519C17.5346 19.089 18.7114 19.713 20.0576 20.024C20.3128 20.0829 20.7013 20.148 21.222 20.2182C21.2365 20.2203 21.2427 20.2286 21.2427 20.242C21.1879 21.3867 21.0598 22.5232 20.8583 23.6483C20.7302 24.3695 20.4296 24.9967 19.9553 25.5298C19.2187 26.3584 18.2093 26.7448 17.0841 26.6156C16.0447 26.4968 15.1913 25.8759 14.6365 24.9843C14.6262 24.9677 14.6303 24.9595 14.6499 24.9595H15.4538C15.4693 24.9595 15.4796 24.9667 15.4858 24.9812C15.6821 25.4761 16.1253 25.7891 16.6574 25.7973C16.924 25.8015 17.1937 25.8015 17.4674 25.7973C17.9355 25.7911 18.294 25.6031 18.544 25.2332C18.887 24.7259 18.7992 24.043 18.3611 23.6297C18.1245 23.4066 17.8435 23.293 17.5181 23.2868C17.3238 23.2826 17.1316 23.2806 16.9426 23.2775C16.6977 23.2744 16.5076 23.2888 16.3722 23.3198C15.9579 23.4169 15.6604 23.6763 15.4816 24.0968C15.4744 24.1123 15.4631 24.1205 15.4455 24.1205L14.279 24.1215ZM16.6636 27.4329C16.6367 27.406 16.6419 27.3946 16.6801 27.4029C17.1792 27.498 17.6689 27.5093 18.1493 27.4349C18.1752 27.4308 18.1793 27.439 18.1607 27.4576L17.4664 28.1922C17.4519 28.2067 17.4385 28.2078 17.423 28.1933L16.6636 27.4329ZM16.8578 28.8359L15.555 30.2121C15.5447 30.2235 15.5354 30.2224 15.5281 30.2079C15.1707 29.5188 14.8628 28.8049 14.6076 28.0744C14.6014 28.0579 14.6024 28.0424 14.6107 28.0259L15.0901 27.0671C15.0942 27.0588 15.1045 27.0578 15.1107 27.064L16.8568 28.8101C16.8641 28.8183 16.864 28.8297 16.8578 28.8359ZM18.0532 28.7925L19.8179 26.9255C19.8252 26.9183 19.8365 26.9204 19.8407 26.9287L20.3903 28.029C20.3975 28.0425 20.3986 28.0569 20.3934 28.0713C20.1444 28.7925 19.8314 29.5302 19.4667 30.2152C19.4625 30.2214 19.4542 30.2224 19.4501 30.2173L18.0532 28.8204C18.046 28.8132 18.045 28.8008 18.0532 28.7925ZM16.2514 24.5606V24.5203C16.2514 24.3023 16.428 24.1257 16.646 24.1257H17.517C17.735 24.1257 17.9117 24.3023 17.9117 24.5203V24.5606C17.9117 24.7786 17.735 24.9553 17.517 24.9553H16.646C16.428 24.9553 16.2514 24.7786 16.2514 24.5606ZM16.7256 33.729H8.73288C8.71738 33.729 8.706 33.7156 8.70806 33.7011C8.84238 32.3983 9.34969 31.2835 10.2289 30.3567C10.7703 29.7875 11.4501 29.3649 12.1909 29.1169C12.7664 28.9248 13.3254 28.7388 13.8668 28.558C13.8781 28.5549 13.8895 28.56 13.8936 28.5714C14.2924 29.6728 14.8059 30.7266 15.4341 31.734C15.5839 31.9737 15.7348 32.2009 15.8887 32.4158C16.1832 32.8281 16.4653 33.262 16.7329 33.7156C16.737 33.7217 16.7328 33.729 16.7256 33.729ZM17.4912 33.3374C17.2401 32.9386 17.0087 32.5408 16.7277 32.1534C16.4642 31.7897 16.2142 31.4095 15.9786 31.0148C15.9714 31.0024 15.9724 30.9921 15.9827 30.9818L17.455 29.4248C17.4592 29.4207 17.4654 29.4207 17.4695 29.4248L19.0255 30.9808C19.0327 30.988 19.0337 30.9952 19.0286 31.0045C18.794 31.4012 18.5492 31.7752 18.294 32.1265C18.0109 32.515 17.7712 32.9365 17.5108 33.3395C17.5067 33.3457 17.4953 33.3457 17.4912 33.3374ZM26.2795 33.729H18.2754C18.2681 33.729 18.263 33.7207 18.2671 33.7145C18.544 33.2548 18.8302 32.8146 19.1257 32.3921C19.3375 32.0914 19.4925 31.859 19.5927 31.6937C19.8902 31.2029 20.1351 30.7659 20.3283 30.3815C20.6217 29.7978 20.8821 29.1934 21.1105 28.5683C21.1146 28.558 21.1249 28.5528 21.1352 28.5559C22.2872 28.9392 22.8679 29.1314 22.8772 29.1345C24.8206 29.8164 26.1162 31.6792 26.2929 33.7135C26.2919 33.7228 26.2867 33.729 26.2795 33.729Z" fill="#CCCCCC"/>
<path d="M22.1155 30.5357C22.3443 30.5357 22.5298 30.3502 22.5298 30.1214C22.5298 29.8926 22.3443 29.7071 22.1155 29.7071C21.8867 29.7071 21.7012 29.8926 21.7012 30.1214C21.7012 30.3502 21.8867 30.5357 22.1155 30.5357Z" fill="#CCCCCC"/>
<path d="M25.073 32.2169C25.0781 32.4101 24.9273 32.5929 24.7372 32.6239C24.3621 32.6859 24.2464 32.3274 24.0894 32.0774C23.9075 31.7912 23.6658 31.5257 23.363 31.2787C23.1636 31.1165 23.1058 30.8562 23.2762 30.6537C23.4229 30.4801 23.673 30.4594 23.8528 30.5979C24.2919 30.9357 24.6628 31.3717 24.9676 31.9049C25.0347 32.0247 25.0699 32.1291 25.073 32.2169Z" fill="#CCCCCC"/>
<path d="M17.5001 42.3603C7.85014 42.3603 0 34.5103 0 24.8605C0 15.2107 7.85014 7.36069 17.5001 7.36069C27.1501 7.36069 35.0002 15.2107 35.0002 24.8605C34.9992 34.5103 27.149 42.3603 17.5001 42.3603ZM17.5001 10.0252C9.31933 10.0252 2.66457 16.6799 2.66457 24.8605C2.66457 33.0411 9.31933 39.6958 17.5001 39.6958C25.6809 39.6958 32.3356 33.0411 32.3356 24.8605C32.3356 16.6809 25.6798 10.0252 17.5001 10.0252Z" fill="#CCCCCC"/>
<path d="M18.1398 0.63955C18.1398 0.992894 17.8535 1.27904 17.5002 1.27904C17.1468 1.27904 16.8607 0.992894 16.8607 0.63955C16.8607 0.286207 17.1468 0 17.5002 0C17.8535 0 18.1398 0.286207 18.1398 0.63955Z" fill="#CCCCCC"/>
<path d="M26.5832 3.31405L24.6822 9.01609C22.4928 8.02321 20.0576 7.47977 17.5035 7.47977C14.9412 7.47977 12.506 8.03148 10.3074 9.01609L8.41564 3.31405C8.40738 3.29752 8.41564 3.27994 8.4239 3.26341C8.44973 3.24688 8.46627 3.2293 8.4921 3.22104C8.50864 3.21277 8.52621 3.22103 8.54274 3.2293L13.0743 7.21737C13.1766 7.30209 13.3285 7.28555 13.3967 7.175L17.0882 1.6424C17.0882 1.63414 17.1047 1.63408 17.114 1.63408C17.3682 1.73636 17.6234 1.73642 17.8776 1.6424C17.8941 1.63414 17.9117 1.6424 17.9199 1.65066L21.6022 7.18326C21.6787 7.28554 21.8233 7.31036 21.9246 7.21737L26.4561 3.2293C26.4726 3.22103 26.4902 3.22104 26.5068 3.22104C26.5326 3.2293 26.5491 3.23758 26.5749 3.26341C26.5925 3.28098 26.5925 3.29752 26.5832 3.31405Z" fill="#CCCCCC"/>
<path d="M8.50758 2.35287C8.50758 2.70621 8.2214 2.99242 7.86805 2.99242C7.5147 2.99242 7.22852 2.70621 7.22852 2.35287C7.22852 1.99953 7.5147 1.71338 7.86805 1.71338C8.2214 1.71338 8.50758 1.99849 8.50758 2.35287Z" fill="#CCCCCC"/>
<path d="M27.7729 2.35287C27.7729 2.70621 27.4867 2.99242 27.1333 2.99242C26.78 2.99242 26.4938 2.70621 26.4938 2.35287C26.4938 1.99953 26.78 1.71338 27.1333 1.71338C27.4867 1.71338 27.7729 1.99849 27.7729 2.35287Z" fill="#CCCCCC"/>
<path d="M13.2172 3.20926C13.2172 3.44482 13.026 3.63592 12.7905 3.63592C12.5549 3.63592 12.3638 3.44482 12.3638 3.20926C12.3638 2.9737 12.5549 2.78253 12.7905 2.78253C13.026 2.78253 13.2172 2.9737 13.2172 3.20926Z" fill="#CCCCCC"/>
<path d="M22.6349 3.20926C22.6349 3.44482 22.4438 3.63592 22.2082 3.63592C21.9726 3.63592 21.7815 3.44482 21.7815 3.20926C21.7815 2.9737 21.9726 2.78253 22.2082 2.78253C22.4438 2.78253 22.6349 2.9737 22.6349 3.20926Z" fill="#CCCCCC"/>
<path d="M12.356 3.94158C12.605 4.10483 12.9759 4.10276 13.228 3.94158C13.2528 3.92609 13.2724 3.93024 13.2889 3.95401L14.1434 5.23513C14.1558 5.25372 14.1558 5.27126 14.1434 5.28986L13.1897 6.71873C13.1835 6.72803 13.1691 6.73012 13.1608 6.72289L11.4664 5.23204C11.4581 5.2248 11.4571 5.21344 11.4623 5.20517L12.295 3.95401C12.3105 3.93024 12.3312 3.92505 12.356 3.94158Z" fill="#CCCCCC"/>
<path d="M21.7737 3.9428C22.0309 4.11017 22.3905 4.09881 22.6467 3.9428C22.6705 3.92834 22.6911 3.93247 22.7077 3.95623L23.5331 5.19712C23.5424 5.21158 23.5404 5.23223 23.527 5.24359L21.8491 6.72001C21.8367 6.73137 21.817 6.72827 21.8077 6.71484L20.8562 5.28799C20.8459 5.27249 20.8459 5.25802 20.8562 5.24252L21.7137 3.95623C21.7282 3.9304 21.7489 3.92627 21.7737 3.9428Z" fill="#CCCCCC"/>
</svg>
