<svg width="16" height="16" viewBox="0 0 16 16" fill="none" xmlns="http://www.w3.org/2000/svg">
<path d="M13.6812 4.81885C14.0995 5.23627 14.4315 5.73212 14.658 6.278C14.8845 6.82389 15.001 7.40909 15.001 8.0001C15.001 8.5911 14.8845 9.17631 14.658 9.72219C14.4315 10.2681 14.0995 10.7639 13.6812 11.1813" stroke="#4BAC3C" stroke-width="1.5" stroke-linecap="round" stroke-linejoin="round"/>
<path d="M5 5.5V10.5" stroke="#4BAC3C" stroke-width="1.5" stroke-linecap="round" stroke-linejoin="round"/>
<path d="M11.9126 6.5874C12.0985 6.77264 12.2461 6.99277 12.3468 7.23516C12.4474 7.47755 12.4993 7.73743 12.4993 7.9999C12.4993 8.26237 12.4474 8.52225 12.3468 8.76465C12.2461 9.00704 12.0985 9.22717 11.9126 9.4124" stroke="#4BAC3C" stroke-width="1.5" stroke-linecap="round" stroke-linejoin="round"/>
<path d="M3 2.5L13 13.5" stroke="#4BAC3C" stroke-width="1.5" stroke-linecap="round" stroke-linejoin="round"/>
<path d="M9.5 9.6502V14.0002L5 10.5002H2C1.86739 10.5002 1.74021 10.4475 1.64645 10.3537C1.55268 10.26 1.5 10.1328 1.5 10.0002V6.0002C1.5 5.86759 1.55268 5.74041 1.64645 5.64664C1.74021 5.55287 1.86739 5.5002 2 5.5002H5L5.425 5.16895" stroke="#4BAC3C" stroke-width="1.5" stroke-linecap="round" stroke-linejoin="round"/>
<path d="M7.01245 3.9375L9.49995 2V6.675" stroke="#4BAC3C" stroke-width="1.5" stroke-linecap="round" stroke-linejoin="round"/>
</svg>
