<svg width="265" height="177" viewBox="0 0 265 177" fill="none" xmlns="http://www.w3.org/2000/svg">
<path d="M105.29 0.00127061C147.735 -0.176743 187.117 16.6445 192.433 49.5753C197.749 82.5062 169.146 131.605 136.493 154.787C103.91 178.214 67.1304 175.667 38.876 151.359C10.6216 127.052 -8.88664 80.8575 4.11386 49.1714C17.1144 17.4852 62.6983 0.120869 105.29 0.00127061Z" fill="#F5FFDC" fill-opacity="0.75"/>
<path d="M134.501 38.5551C160.492 30.8652 190.116 23.5494 215.234 33.7163C240.254 43.7148 260.538 71.3661 264.371 97.8131C268.062 124.205 255.213 149.617 233.523 163.14C211.646 176.721 180.784 178.355 146.236 174.266C111.787 170.346 73.6519 160.701 59.3247 140.957C45.1401 121.269 54.7193 91.5944 70.6167 72.6972C86.4702 53.913 108.697 46.1876 134.501 38.5551Z" fill="#DCFFDD" fill-opacity="0.4"/>
</svg>
