<svg width="34" height="42" viewBox="0 0 34 42" fill="none" xmlns="http://www.w3.org/2000/svg">
<path d="M26.3993 21.5601C26.3651 20.7709 25.8613 20.1193 25.1236 19.8482C24.419 19.5901 23.7376 19.3411 23.0792 19.1021C23.0551 19.093 23.0531 19.08 23.0721 19.064C23.6021 18.596 23.8992 18.0197 23.9634 17.3359C23.9895 17.0617 23.9664 16.7796 23.8941 16.4884C23.4806 14.8175 21.5516 14.0333 20.0882 14.927C19.9176 15.0314 19.6978 15.2051 19.4298 15.4471C19.0525 15.7885 18.667 16.1289 18.2746 16.4683C18.2626 16.4783 18.2566 16.4763 18.2546 16.4612C18.1622 15.8276 18.0699 15.2101 17.9786 14.6097C17.8661 13.8696 17.5289 13.2913 16.9669 12.8726C16.5584 12.5683 16.0826 12.3986 15.5406 12.3625H15.3911C14.8281 12.3806 14.3323 12.5532 13.9047 12.8786C13.152 13.4519 12.7434 14.4129 12.9191 15.3718C12.9221 15.3849 12.9091 15.3959 12.897 15.3909C12.3691 15.2031 11.8061 14.9973 11.2099 14.7754C10.9429 14.676 10.7201 14.6127 10.5394 14.5846C10.2905 14.5464 10.0436 14.5614 9.79771 14.6287C9.32198 14.7593 8.95061 15.0294 8.68464 15.4401C8.59231 15.5827 8.48392 15.8267 8.36147 16.1721C8.12662 16.8328 7.88875 17.4894 7.64787 18.1431C7.51037 18.5157 7.67698 18.8681 8.04532 19.0017C11.1346 20.1263 14.3935 21.3132 17.823 22.5633C17.8571 22.5753 17.8561 22.5814 17.82 22.5814C14.7327 22.5844 11.6364 22.5834 8.5311 22.5793C8.33438 22.5793 8.19186 22.5974 8.10253 22.6346C7.95901 22.6938 7.84761 22.8032 7.77033 22.9649C7.7352 23.0362 7.71814 23.223 7.71814 23.5242C7.71914 26.3528 7.72015 29.1814 7.72316 32.011C7.72416 32.4317 7.83054 32.7982 8.04232 33.1095C8.39561 33.6266 8.90043 33.9068 9.55782 33.9509H22.2883C22.4117 33.9289 22.5452 33.9269 22.6566 33.9008C22.8945 33.8435 23.0992 33.7561 23.2739 33.6386C23.846 33.25 24.132 32.6918 24.132 31.9638C24.133 29.7256 24.134 27.3669 24.134 24.8888C24.134 24.8697 24.143 24.8637 24.1601 24.8707C24.3046 24.9229 24.4522 24.9782 24.6037 25.0334C24.949 25.1589 25.3063 24.9972 25.4347 24.6488C25.7328 23.8375 26.0149 23.0603 26.2808 22.3183C26.3692 22.0662 26.4093 21.8132 26.3993 21.5601ZM14.0302 32.6647C14.0302 32.6797 14.0231 32.6878 14.0071 32.6878C12.5588 32.6868 11.1025 32.6868 9.63712 32.6878C9.24971 32.6888 8.98075 32.4006 8.98175 32.022C8.98376 29.3993 8.98373 26.6812 8.98273 23.8676C8.98273 23.8526 8.98975 23.8455 9.0038 23.8455H13.99C14.0171 23.8455 14.0302 23.8596 14.0302 23.8857V32.6647ZM16.5554 32.6757C16.5554 32.6817 16.5504 32.6878 16.5433 32.6878H15.3058C15.2998 32.6878 15.2948 32.6827 15.2948 32.6757V23.8576C15.2948 23.8516 15.2998 23.8455 15.3058 23.8455H16.5433C16.5493 23.8455 16.5554 23.8506 16.5554 23.8576V32.6757ZM18.933 17.5738C19.4529 17.117 19.9849 16.646 20.5309 16.161C20.9303 15.8066 21.4813 15.7182 21.9511 15.9371C22.209 16.0576 22.4027 16.2293 22.5312 16.4512C23.0591 17.3609 22.3886 18.4363 21.3619 18.4143C21.2254 18.4112 20.9865 18.346 20.6463 18.2195C20.0672 18.0036 19.4971 17.7958 18.937 17.5969C18.928 17.5919 18.925 17.5799 18.933 17.5738ZM15.5778 13.6427C16.1489 13.71 16.6286 14.1397 16.7179 14.7201C16.8324 15.4652 16.9398 16.1861 17.0401 16.882C17.0421 16.893 17.0321 16.9021 17.0211 16.8991C17.013 16.8971 17.005 16.895 16.997 16.892C16.3677 16.6581 15.7083 16.4171 15.0198 16.1681C14.6765 16.0445 14.4276 15.8257 14.274 15.5114C13.8234 14.5896 14.5551 13.5212 15.5778 13.6427ZM14.9716 20.1694C14.9686 20.1755 14.9625 20.1785 14.9565 20.1765L9.05299 18.0277C9.04195 18.0236 9.03593 18.0116 9.03994 17.9996C9.22964 17.4885 9.42234 16.9573 9.61905 16.404C9.68529 16.2192 9.75053 16.0938 9.81778 16.0255C9.98639 15.8538 10.1831 15.7935 10.4069 15.8437C10.4852 15.8618 10.5715 15.8879 10.6649 15.922C12.2798 16.5135 13.996 17.1391 15.8136 17.7988C15.8227 17.8018 15.8277 17.8128 15.8247 17.8219L14.9716 20.1694ZM17.3462 21.03C17.3432 21.038 17.3342 21.043 17.3262 21.039L16.171 20.6183C16.1629 20.6153 16.1579 20.6062 16.1619 20.5972L17.014 18.2536C17.017 18.2456 17.0271 18.2405 17.0341 18.2446L18.1903 18.6653C18.1984 18.6683 18.2034 18.6783 18.1994 18.6864L17.3462 21.03ZM22.8694 31.8072C22.8694 32.013 22.8654 32.1345 22.8594 32.1727C22.8022 32.4749 22.5362 32.6867 22.226 32.6867C20.7637 32.6877 19.3004 32.6877 17.837 32.6867C17.827 32.6867 17.821 32.6807 17.821 32.6707V23.8616C17.821 23.8525 17.828 23.8455 17.837 23.8455H21.3067C21.3318 23.8455 21.3559 23.8495 21.38 23.8586L22.8513 24.3958C22.8644 24.3998 22.8704 24.4088 22.8704 24.4229V31.8072H22.8694ZM25.0343 22.0662C24.8396 22.5814 24.6499 23.1005 24.4652 23.6256C24.4632 23.6316 24.4572 23.6347 24.4502 23.6327L18.5416 21.4799C18.5336 21.4768 18.5296 21.4678 18.5326 21.4607L19.3867 19.1141C19.3897 19.1061 19.3987 19.1011 19.4068 19.1051C21.1843 19.7557 22.8985 20.3803 24.5515 20.9798C24.7463 21.05 24.8727 21.1123 24.9289 21.1655C25.0794 21.3071 25.1497 21.4728 25.1417 21.6606C25.1367 21.755 25.1005 21.8895 25.0343 22.0662Z" fill="#CCCCCC"/>
<path d="M17 41.1684C7.62581 41.1684 0 33.5392 0 24.1607C0 14.7823 7.62581 7.15305 17 7.15305C26.3742 7.15305 34 14.7823 34 24.1607C33.999 33.5392 26.3732 41.1684 17 41.1684ZM17 9.74264C9.05301 9.74264 2.58842 16.2101 2.58842 24.1607C2.58842 32.1113 9.05301 38.5788 17 38.5788C24.947 38.5788 31.4116 32.1113 31.4116 24.1607C31.4116 16.2112 24.946 9.74264 17 9.74264Z" fill="#CCCCCC"/>
<path d="M17.6216 0.621566C17.6216 0.964973 17.3436 1.24307 17.0003 1.24307C16.6571 1.24307 16.3791 0.964973 16.3791 0.621566C16.3791 0.278158 16.6571 0 17.0003 0C17.3436 0 17.6216 0.278158 17.6216 0.621566Z" fill="#CCCCCC"/>
<path d="M25.8231 3.22153L23.9764 8.76322C21.8496 7.79827 19.484 7.27011 17.0029 7.27011C14.5138 7.27011 12.1482 7.8063 10.0124 8.76322L8.17474 3.22153C8.16671 3.20547 8.17473 3.18838 8.18276 3.17232C8.20785 3.15625 8.22392 3.13917 8.24901 3.13113C8.26507 3.1231 8.28214 3.13113 8.2982 3.13916L12.7002 7.01509C12.7996 7.09743 12.9472 7.08135 13.0134 6.97391L16.5995 1.59689C16.5995 1.58886 16.6155 1.5888 16.6246 1.5888C16.8715 1.68821 17.1194 1.68827 17.3663 1.59689C17.3823 1.58886 17.3994 1.59689 17.4074 1.60492L20.9845 6.98194C21.0587 7.08134 21.1993 7.10546 21.2976 7.01509L25.6997 3.13916C25.7157 3.13113 25.7328 3.13113 25.7489 3.13113C25.7739 3.13917 25.79 3.14722 25.8151 3.17232C25.8321 3.18939 25.8322 3.20547 25.8231 3.22153Z" fill="#CCCCCC"/>
<path d="M8.26422 2.28676C8.26422 2.63017 7.98621 2.90832 7.64296 2.90832C7.29971 2.90832 7.02171 2.63017 7.02171 2.28676C7.02171 1.94335 7.29971 1.66525 7.64296 1.66525C7.98621 1.66525 8.26422 1.94235 8.26422 2.28676Z" fill="#CCCCCC"/>
<path d="M26.978 2.28676C26.978 2.63017 26.7 2.90832 26.3567 2.90832C26.0135 2.90832 25.7355 2.63017 25.7355 2.28676C25.7355 1.94335 26.0135 1.66525 26.3567 1.66525C26.7 1.66525 26.978 1.94235 26.978 2.28676Z" fill="#CCCCCC"/>
<path d="M12.8386 3.11892C12.8386 3.34786 12.653 3.53359 12.4241 3.53359C12.1953 3.53359 12.0096 3.34786 12.0096 3.11892C12.0096 2.88999 12.1953 2.7042 12.4241 2.7042C12.653 2.7042 12.8386 2.88999 12.8386 3.11892Z" fill="#CCCCCC"/>
<path d="M21.9882 3.11892C21.9882 3.34786 21.8026 3.53359 21.5737 3.53359C21.3449 3.53359 21.1592 3.34786 21.1592 3.11892C21.1592 2.88999 21.3449 2.7042 21.5737 2.7042C21.8026 2.7042 21.9882 2.88999 21.9882 3.11892Z" fill="#CCCCCC"/>
<path d="M12.0027 3.8309C12.2445 3.98955 12.6048 3.98755 12.8497 3.8309C12.8738 3.81584 12.8929 3.81988 12.909 3.84298L13.739 5.08807C13.751 5.10614 13.751 5.12319 13.739 5.14127L12.8126 6.52995C12.8066 6.53899 12.7926 6.54103 12.7845 6.534L11.1385 5.08507C11.1305 5.07804 11.1295 5.06699 11.1345 5.05896L11.9434 3.84298C11.9585 3.81988 11.9786 3.81484 12.0027 3.8309Z" fill="#CCCCCC"/>
<path d="M21.1514 3.83211C21.4013 3.99478 21.7506 3.98373 21.9995 3.83211C22.0225 3.81806 22.0426 3.82207 22.0587 3.84517L22.8606 5.05116C22.8696 5.06522 22.8676 5.08528 22.8546 5.09633L21.2246 6.53122C21.2126 6.54227 21.1935 6.53925 21.1845 6.5262L20.2601 5.13947C20.2501 5.12441 20.2501 5.11035 20.2601 5.09529L21.0931 3.84517C21.1072 3.82006 21.1273 3.81605 21.1514 3.83211Z" fill="#CCCCCC"/>
</svg>
