<svg width="35" height="43" viewBox="0 0 35 43" fill="none" xmlns="http://www.w3.org/2000/svg">
<path d="M15.3854 15.6266C15.7171 15.4458 16.0632 15.5997 16.2233 15.9231C16.4331 16.3436 16.6356 16.7476 16.8309 17.135C16.8433 17.1608 16.836 17.1732 16.8071 17.1722C16.6583 17.166 16.4486 17.2032 16.3184 17.1278C15.8783 16.8726 15.4743 16.6411 15.1044 16.4335C15.0858 16.4231 15.0765 16.4077 15.0744 16.387C15.0507 16.0781 15.0868 15.7888 15.3854 15.6266Z" fill="url(#paint0_linear_530_8040)"/>
<path d="M18.7977 15.8878C19.0457 15.3908 19.7679 15.4673 19.9053 15.9901C19.9342 16.1016 19.9414 16.237 19.927 16.394C19.9259 16.4106 19.9156 16.4261 19.9012 16.4343C19.5054 16.6596 19.0973 16.892 18.6789 17.1328C18.6283 17.1617 18.5725 17.1751 18.5094 17.1731C18.3927 17.17 18.2832 17.1679 18.1809 17.1689C18.1695 17.1689 18.1623 17.1575 18.1675 17.1472C18.3813 16.7215 18.5911 16.3011 18.7977 15.8878Z" fill="url(#paint1_linear_530_8040)"/>
<path d="M15.8367 17.7783C15.8667 17.7948 15.8821 17.8206 15.8821 17.8547V19.5729C15.8821 19.5894 15.8739 19.5977 15.8574 19.5977H12.2743C12.2505 19.5977 12.2391 19.5863 12.2391 19.5626C12.2412 18.8796 12.2402 18.1502 12.236 17.3723C12.235 17.1863 12.2567 17.0354 12.3011 16.9187C12.4644 16.4878 12.9365 16.2709 13.3705 16.3969C13.4521 16.4207 13.6505 16.5251 13.9666 16.71C14.5783 17.0685 15.2023 17.4239 15.8367 17.7783Z" fill="url(#paint2_linear_530_8040)"/>
<path d="M21.4387 16.4852C21.9181 16.2114 22.5029 16.4119 22.7054 16.9202C22.7488 17.0287 22.7695 17.2043 22.7674 17.4491C22.7622 18.1589 22.7612 18.8626 22.7664 19.562C22.7664 19.5858 22.754 19.5981 22.7302 19.5981H19.1471C19.1306 19.5981 19.1223 19.5899 19.1223 19.5734V17.8397C19.1223 17.8211 19.1306 17.8066 19.1471 17.7973C19.8838 17.3758 20.6483 16.9377 21.4387 16.4852Z" fill="url(#paint3_linear_530_8040)"/>
<path d="M18.3113 19.5811C18.3113 19.5904 18.303 19.5987 18.2937 19.5987H16.7098C16.7005 19.5987 16.6923 19.5904 16.6923 19.5811V17.9973C16.6923 17.988 16.7005 17.9797 16.7098 17.9797H18.2937C18.303 17.9797 18.3113 17.988 18.3113 17.9973V19.5811Z" fill="url(#paint4_linear_530_8040)"/>
<path d="M14.0276 21.3584C13.2527 22.0051 12.1771 21.3976 12.2412 20.4192C12.2412 20.413 12.2463 20.4079 12.2525 20.4079H15.1217C15.1558 20.4079 15.1599 20.4192 15.1331 20.4409C14.787 20.7271 14.4181 21.0329 14.0276 21.3584Z" fill="url(#paint5_linear_530_8040)"/>
<path d="M14.886 22.4515C15.0286 22.0816 15.2073 21.7293 15.3592 21.3604C15.384 21.2995 15.4223 21.2489 15.4729 21.2065C15.7921 20.9451 16.1042 20.6858 16.41 20.4285C16.4255 20.4151 16.4451 20.4079 16.4647 20.4079H16.9844C17.0072 20.4079 17.0165 20.4192 17.0123 20.442L15.9967 26.1987C15.9946 26.2132 15.9874 26.2164 15.975 26.2071C14.8096 25.3123 14.3591 23.8225 14.886 22.4515Z" fill="url(#paint6_linear_530_8040)"/>
<path d="M20.2482 22.8667C20.5375 24.1303 20.0685 25.4114 19.0373 26.2018C19.0187 26.2163 19.0074 26.2111 19.0032 26.1884L17.9886 20.4429C17.9855 20.4202 17.9948 20.4088 18.0176 20.4088H18.5362C18.559 20.4088 18.5796 20.416 18.5972 20.4315C18.9009 20.6867 19.2099 20.944 19.525 21.2043C19.5777 21.2488 19.619 21.3025 19.6459 21.3676C19.8484 21.848 20.1346 22.3698 20.2482 22.8667Z" fill="url(#paint7_linear_530_8040)"/>
<path d="M22.7622 20.4336C22.7932 21.0804 22.3582 21.5908 21.7073 21.6197C21.3654 21.6352 21.1164 21.4843 20.8426 21.2519C20.5099 20.9698 20.1844 20.6991 19.8683 20.4398C19.8559 20.4295 19.8631 20.4088 19.8796 20.4088H22.7364C22.754 20.4088 22.7622 20.4171 22.7622 20.4336Z" fill="url(#paint8_linear_530_8040)"/>
<path d="M14.0512 22.282C14.0801 22.2707 14.0904 22.281 14.0801 22.3099C13.7929 23.1395 13.7867 23.9836 14.0615 24.8422C14.0646 24.8515 14.0574 24.8619 14.0481 24.8619H6.64633C6.63083 24.8619 6.62153 24.8432 6.6329 24.8308C7.25178 24.12 7.86755 23.4164 8.47713 22.7211C8.63315 22.5434 8.63418 22.3171 8.4761 22.1456C8.43064 22.0971 8.38518 22.0495 8.33662 22.0041C8.33042 21.9979 8.33456 21.9866 8.34282 21.9855L11.9063 21.8315C11.9249 21.8305 11.9404 21.8367 11.9548 21.8491C12.5675 22.4349 13.267 22.5786 14.0512 22.282Z" fill="url(#paint9_linear_530_8040)"/>
<path d="M17.4897 22.395C17.4969 22.3537 17.5042 22.3537 17.5124 22.395L17.9443 24.8416C17.9464 24.8519 17.9381 24.8623 17.9267 24.8623H17.0878C17.065 24.8623 17.0557 24.8508 17.0599 24.8291L17.4897 22.395Z" fill="url(#paint10_linear_530_8040)"/>
<path d="M20.9404 24.8382C21.051 24.4993 21.113 24.1532 21.1316 23.804C21.1326 23.774 21.146 23.7689 21.1688 23.7885L22.4199 24.831C22.4447 24.8516 22.4416 24.862 22.4086 24.862H20.958C20.9404 24.862 20.9353 24.8537 20.9404 24.8382Z" fill="url(#paint11_linear_530_8040)"/>
<path d="M7.32644 25.7024C7.10638 26.4969 6.56705 26.9122 5.79836 27.1189C5.7777 27.124 5.7684 27.1168 5.77046 27.0951C5.79939 26.594 5.91201 26.1271 6.10728 25.6942C6.11348 25.6787 6.12588 25.6704 6.14345 25.6704H7.30371C7.32438 25.6714 7.33161 25.6818 7.32644 25.7024Z" fill="url(#paint12_linear_530_8040)"/>
<path d="M16.6478 27.0604C16.6674 27.0294 16.6798 26.9932 16.687 26.9519C16.7614 26.5138 16.8348 26.0964 16.9071 25.7018C16.9102 25.6811 16.9226 25.6718 16.9432 25.6718H18.0601C18.0798 25.6718 18.0911 25.6811 18.0953 25.7007C18.1572 26.0499 18.2275 26.456 18.3081 26.9157C18.3628 27.2288 18.6511 27.3859 18.9373 27.2267C19.6512 26.83 20.1906 26.3196 20.5542 25.6966C20.5646 25.679 20.5821 25.6687 20.6028 25.6687C22.4749 25.6738 24.3471 25.6739 26.2202 25.6667C26.7048 25.6646 27.0375 25.6801 27.2193 25.7131C27.7111 25.803 28.1368 26.051 28.4974 26.456C28.5056 26.4653 28.4994 26.4818 28.486 26.4818C27.519 26.4818 26.556 26.4818 25.5983 26.4818C25.2893 26.4818 25.091 26.8124 25.248 27.081C25.2966 27.1626 25.3586 27.2474 25.435 27.3341C26.2481 28.2557 27.2607 28.7765 28.4736 28.8953C28.5966 28.9077 28.8425 28.9118 29.2103 28.9087C29.2299 28.9087 29.2392 28.918 29.2392 28.9376C29.2402 29.2672 29.2402 29.6123 29.2392 29.9749C29.2371 30.4254 29.0636 30.787 28.7195 31.0577C28.4178 31.2953 28.1027 31.3459 27.6967 31.3397C27.4043 31.3356 27.1067 31.3356 26.8061 31.3397C26.7937 31.3397 26.7823 31.3305 26.7802 31.317C26.6686 30.5515 26.3421 29.9119 25.8008 29.3974C24.5671 28.2227 22.6268 28.2093 21.3777 29.3685C20.8125 29.8934 20.4757 30.5432 20.3662 31.3191C20.3652 31.3295 20.3559 31.3377 20.3445 31.3377H13.4428C13.4325 31.3377 13.4232 31.3305 13.4222 31.3201C13.0564 28.8746 10.3247 27.6844 8.31305 29.1267C7.60531 29.634 7.17137 30.3572 7.00916 31.2964C7.00503 31.3181 6.9916 31.3284 6.9699 31.3274C6.44918 31.2954 6.01421 30.9255 5.83856 30.4502C5.78381 30.3015 5.75694 30.1051 5.75797 29.8654C5.76314 29.2197 5.76314 28.6009 5.75901 28.0099C5.75901 27.9965 5.76728 27.984 5.78071 27.9799C6.16092 27.8569 6.57936 27.7423 6.91101 27.5346C7.58878 27.111 8.00309 26.4993 8.15497 25.7007C8.15807 25.6811 8.17046 25.6718 8.19009 25.6718H14.4016C14.4202 25.6718 14.4367 25.6811 14.4471 25.6976C14.8386 26.3444 15.378 26.8527 16.064 27.2226C16.3068 27.3517 16.5011 27.298 16.6478 27.0604Z" fill="url(#paint13_linear_530_8040)"/>
<path d="M29.1451 28.0946C28.2059 28.1473 27.3143 27.889 26.5869 27.3176C26.5631 27.299 26.5662 27.2908 26.5962 27.2908H28.9374C28.9539 27.2908 28.9653 27.299 28.9705 27.3145C29.0542 27.5439 29.1203 27.7918 29.1709 28.0605C29.1761 28.0822 29.1668 28.0925 29.1451 28.0946Z" fill="url(#paint14_linear_530_8040)"/>
<path d="M10.214 32.5519C10.6608 32.5519 11.023 32.1897 11.023 31.7429C11.023 31.2961 10.6608 30.9339 10.214 30.9339C9.7672 30.9339 9.405 31.2961 9.405 31.7429C9.405 32.1897 9.7672 32.5519 10.214 32.5519Z" fill="url(#paint15_linear_530_8040)"/>
<path d="M10.214 29.3165C8.87399 29.3165 7.78708 30.4033 7.78708 31.7444C7.78708 33.0844 8.87399 34.1713 10.214 34.1713C11.5551 34.1713 12.642 33.0844 12.642 31.7444C12.642 30.4033 11.5551 29.3165 10.214 29.3165ZM10.214 33.3613C9.32033 33.3613 8.59606 32.6371 8.59606 31.7434C8.59606 30.8497 9.32033 30.1255 10.214 30.1255C11.1077 30.1255 11.832 30.8497 11.832 31.7434C11.832 32.6371 11.1077 33.3613 10.214 33.3613Z" fill="url(#paint16_linear_530_8040)"/>
<path d="M23.5734 32.5507C24.0196 32.5507 24.3814 32.189 24.3814 31.7428C24.3814 31.2966 24.0196 30.9349 23.5734 30.9349C23.1272 30.9349 22.7655 31.2966 22.7655 31.7428C22.7655 32.189 23.1272 32.5507 23.5734 32.5507Z" fill="url(#paint17_linear_530_8040)"/>
<path d="M23.573 29.3165C22.232 29.3165 21.1461 30.4033 21.1461 31.7444C21.1461 33.0844 22.233 34.1713 23.573 34.1713C24.9131 34.1713 26 33.0844 26 31.7444C26 30.4033 24.9131 29.3165 23.573 29.3165ZM23.573 33.3613C22.6793 33.3613 21.9551 32.6371 21.9551 31.7434C21.9551 30.8497 22.6793 30.1255 23.573 30.1255C24.4667 30.1255 25.191 30.8497 25.191 31.7434C25.191 32.6371 24.4667 33.3613 23.573 33.3613Z" fill="url(#paint18_linear_530_8040)"/>
<path d="M10.214 32.5519C10.6608 32.5519 11.023 32.1897 11.023 31.7429C11.023 31.2961 10.6608 30.9339 10.214 30.9339C9.7672 30.9339 9.405 31.2961 9.405 31.7429C9.405 32.1897 9.7672 32.5519 10.214 32.5519Z" fill="url(#paint19_linear_530_8040)"/>
<path d="M23.5734 32.5507C24.0196 32.5507 24.3814 32.189 24.3814 31.7428C24.3814 31.2966 24.0196 30.9349 23.5734 30.9349C23.1272 30.9349 22.7655 31.2966 22.7655 31.7428C22.7655 32.189 23.1272 32.5507 23.5734 32.5507Z" fill="url(#paint20_linear_530_8040)"/>
<path d="M10.214 32.5519C10.6608 32.5519 11.023 32.1897 11.023 31.7429C11.023 31.2961 10.6608 30.9339 10.214 30.9339C9.7672 30.9339 9.405 31.2961 9.405 31.7429C9.405 32.1897 9.7672 32.5519 10.214 32.5519Z" fill="url(#paint21_linear_530_8040)"/>
<path d="M23.5734 32.5507C24.0196 32.5507 24.3814 32.189 24.3814 31.7428C24.3814 31.2966 24.0196 30.9349 23.5734 30.9349C23.1272 30.9349 22.7655 31.2966 22.7655 31.7428C22.7655 32.189 23.1272 32.5507 23.5734 32.5507Z" fill="url(#paint22_linear_530_8040)"/>
<path d="M17.5001 42.3603C7.85015 42.3603 0 34.5103 0 24.8605C0 15.2107 7.85015 7.36069 17.5001 7.36069C27.1501 7.36069 35.0002 15.2107 35.0002 24.8605C35.0002 34.5103 27.1501 42.3603 17.5001 42.3603ZM17.5001 10.0252C9.31934 10.0252 2.66459 16.6799 2.66459 24.8605C2.66459 33.0411 9.31934 39.6958 17.5001 39.6958C25.6809 39.6958 32.3356 33.0411 32.3356 24.8605C32.3356 16.6809 25.6809 10.0252 17.5001 10.0252Z" fill="url(#paint23_linear_530_8040)"/>
<path d="M18.1393 0.63955C18.1393 0.992894 17.8531 1.27904 17.4997 1.27904C17.1464 1.27904 16.8602 0.992894 16.8602 0.63955C16.8602 0.286207 17.1464 0 17.4997 0C17.8531 0 18.1393 0.286207 18.1393 0.63955Z" fill="url(#paint24_linear_530_8040)"/>
<path d="M26.5837 3.31405L24.6826 9.01609C22.4933 8.02321 20.0581 7.47977 17.504 7.47977C14.9417 7.47977 12.5065 8.03148 10.3079 9.01609L8.41613 3.31405C8.40787 3.29752 8.41613 3.27994 8.4244 3.26341C8.45023 3.24688 8.46676 3.2293 8.49259 3.22104C8.50912 3.21277 8.52668 3.22103 8.54322 3.2293L13.0748 7.21737C13.1771 7.30209 13.3289 7.28555 13.3971 7.175L17.0887 1.6424C17.0887 1.63414 17.1052 1.63408 17.1145 1.63408C17.3687 1.73636 17.6239 1.73642 17.8781 1.6424C17.8946 1.63414 17.9121 1.6424 17.9204 1.65066L21.6027 7.18326C21.6791 7.28554 21.8238 7.31036 21.925 7.21737L26.4566 3.2293C26.4731 3.22103 26.4907 3.22104 26.5072 3.22104C26.5331 3.2293 26.5496 3.23758 26.5754 3.26341C26.5919 3.28098 26.5919 3.29752 26.5837 3.31405Z" fill="url(#paint25_linear_530_8040)"/>
<path d="M8.50809 2.35287C8.50809 2.70622 8.2219 2.99242 7.86855 2.99242C7.5152 2.99242 7.22901 2.70622 7.22901 2.35287C7.22901 1.99953 7.5152 1.71339 7.86855 1.71339C8.2219 1.71235 8.50809 1.9985 8.50809 2.35287Z" fill="url(#paint26_linear_530_8040)"/>
<path d="M27.7719 2.35287C27.7719 2.70622 27.4857 2.99242 27.1323 2.99242C26.779 2.99242 26.4928 2.70622 26.4928 2.35287C26.4928 1.99953 26.779 1.71339 27.1323 1.71339C27.4857 1.71235 27.7719 1.9985 27.7719 2.35287Z" fill="url(#paint27_linear_530_8040)"/>
<path d="M13.2172 3.20926C13.2172 3.44482 13.026 3.63592 12.7905 3.63592C12.5549 3.63592 12.3638 3.44482 12.3638 3.20926C12.3638 2.9737 12.5549 2.78253 12.7905 2.78253C13.026 2.78253 13.2172 2.9737 13.2172 3.20926Z" fill="url(#paint28_linear_530_8040)"/>
<path d="M22.6349 3.20926C22.6349 3.44482 22.4438 3.63592 22.2082 3.63592C21.9726 3.63592 21.7815 3.44482 21.7815 3.20926C21.7815 2.9737 21.9726 2.78253 22.2082 2.78253C22.4438 2.78253 22.6349 2.9737 22.6349 3.20926Z" fill="url(#paint29_linear_530_8040)"/>
<path d="M12.3555 3.94158C12.6045 4.10483 12.9754 4.10276 13.2275 3.94158C13.2523 3.92609 13.2729 3.93024 13.2884 3.95401L14.1429 5.23513C14.1553 5.25372 14.1553 5.27126 14.1429 5.28986L13.1893 6.71873C13.1831 6.72803 13.1686 6.73012 13.1603 6.72289L11.4659 5.23204C11.4576 5.2248 11.4566 5.21344 11.4618 5.20517L12.2945 3.95401C12.3111 3.93024 12.3307 3.92505 12.3555 3.94158Z" fill="url(#paint30_linear_530_8040)"/>
<path d="M21.7732 3.9428C22.0304 4.11017 22.39 4.09881 22.6462 3.9428C22.67 3.92834 22.6906 3.93247 22.7072 3.95623L23.5327 5.19712C23.542 5.21158 23.5399 5.23223 23.5265 5.24359L21.8486 6.72001C21.8362 6.73137 21.8166 6.72827 21.8073 6.71484L20.8557 5.28799C20.8454 5.27249 20.8454 5.25802 20.8557 5.24252L21.7132 3.95623C21.7287 3.9304 21.7484 3.92627 21.7732 3.9428Z" fill="url(#paint31_linear_530_8040)"/>
<defs>
<linearGradient id="paint0_linear_530_8040" x1="15.0687" y1="16.363" x2="16.8365" y2="16.363" gradientUnits="userSpaceOnUse">
<stop stop-color="#FFCA57"/>
<stop offset="0.2151" stop-color="#9C642C"/>
<stop offset="0.2516" stop-color="#A76F31"/>
<stop offset="0.379" stop-color="#C6903E"/>
<stop offset="0.5105" stop-color="#DFA949"/>
<stop offset="0.6459" stop-color="#F1BC51"/>
<stop offset="0.7877" stop-color="#FCC656"/>
<stop offset="0.9462" stop-color="#FFCA57"/>
</linearGradient>
<linearGradient id="paint1_linear_530_8040" x1="18.1656" y1="16.3631" x2="19.9336" y2="16.3631" gradientUnits="userSpaceOnUse">
<stop stop-color="#FFCA57"/>
<stop offset="0.2151" stop-color="#9C642C"/>
<stop offset="0.2516" stop-color="#A76F31"/>
<stop offset="0.379" stop-color="#C6903E"/>
<stop offset="0.5105" stop-color="#DFA949"/>
<stop offset="0.6459" stop-color="#F1BC51"/>
<stop offset="0.7877" stop-color="#FCC656"/>
<stop offset="0.9462" stop-color="#FFCA57"/>
</linearGradient>
<linearGradient id="paint2_linear_530_8040" x1="12.2346" y1="17.9801" x2="15.8821" y2="17.9801" gradientUnits="userSpaceOnUse">
<stop stop-color="#FFCA57"/>
<stop offset="0.2151" stop-color="#9C642C"/>
<stop offset="0.2516" stop-color="#A76F31"/>
<stop offset="0.379" stop-color="#C6903E"/>
<stop offset="0.5105" stop-color="#DFA949"/>
<stop offset="0.6459" stop-color="#F1BC51"/>
<stop offset="0.7877" stop-color="#FCC656"/>
<stop offset="0.9462" stop-color="#FFCA57"/>
</linearGradient>
<linearGradient id="paint3_linear_530_8040" x1="19.1208" y1="17.981" x2="22.7673" y2="17.981" gradientUnits="userSpaceOnUse">
<stop stop-color="#FFCA57"/>
<stop offset="0.2151" stop-color="#9C642C"/>
<stop offset="0.2516" stop-color="#A76F31"/>
<stop offset="0.379" stop-color="#C6903E"/>
<stop offset="0.5105" stop-color="#DFA949"/>
<stop offset="0.6459" stop-color="#F1BC51"/>
<stop offset="0.7877" stop-color="#FCC656"/>
<stop offset="0.9462" stop-color="#FFCA57"/>
</linearGradient>
<linearGradient id="paint4_linear_530_8040" x1="16.6918" y1="18.7891" x2="18.3112" y2="18.7891" gradientUnits="userSpaceOnUse">
<stop stop-color="#FFCA57"/>
<stop offset="0.2151" stop-color="#9C642C"/>
<stop offset="0.2516" stop-color="#A76F31"/>
<stop offset="0.379" stop-color="#C6903E"/>
<stop offset="0.5105" stop-color="#DFA949"/>
<stop offset="0.6459" stop-color="#F1BC51"/>
<stop offset="0.7877" stop-color="#FCC656"/>
<stop offset="0.9462" stop-color="#FFCA57"/>
</linearGradient>
<linearGradient id="paint5_linear_530_8040" x1="12.2385" y1="21.0177" x2="15.1507" y2="21.0177" gradientUnits="userSpaceOnUse">
<stop stop-color="#FFCA57"/>
<stop offset="0.2151" stop-color="#9C642C"/>
<stop offset="0.2516" stop-color="#A76F31"/>
<stop offset="0.379" stop-color="#C6903E"/>
<stop offset="0.5105" stop-color="#DFA949"/>
<stop offset="0.6459" stop-color="#F1BC51"/>
<stop offset="0.7877" stop-color="#FCC656"/>
<stop offset="0.9462" stop-color="#FFCA57"/>
</linearGradient>
<linearGradient id="paint6_linear_530_8040" x1="14.6675" y1="23.3108" x2="17.0134" y2="23.3108" gradientUnits="userSpaceOnUse">
<stop stop-color="#FFCA57"/>
<stop offset="0.2151" stop-color="#9C642C"/>
<stop offset="0.2516" stop-color="#A76F31"/>
<stop offset="0.379" stop-color="#C6903E"/>
<stop offset="0.5105" stop-color="#DFA949"/>
<stop offset="0.6459" stop-color="#F1BC51"/>
<stop offset="0.7877" stop-color="#FCC656"/>
<stop offset="0.9462" stop-color="#FFCA57"/>
</linearGradient>
<linearGradient id="paint7_linear_530_8040" x1="17.9889" y1="23.3087" x2="20.3324" y2="23.3087" gradientUnits="userSpaceOnUse">
<stop stop-color="#FFCA57"/>
<stop offset="0.2151" stop-color="#9C642C"/>
<stop offset="0.2516" stop-color="#A76F31"/>
<stop offset="0.379" stop-color="#C6903E"/>
<stop offset="0.5105" stop-color="#DFA949"/>
<stop offset="0.6459" stop-color="#F1BC51"/>
<stop offset="0.7877" stop-color="#FCC656"/>
<stop offset="0.9462" stop-color="#FFCA57"/>
</linearGradient>
<linearGradient id="paint8_linear_530_8040" x1="19.8622" y1="21.0145" x2="22.7642" y2="21.0145" gradientUnits="userSpaceOnUse">
<stop stop-color="#FFCA57"/>
<stop offset="0.2151" stop-color="#9C642C"/>
<stop offset="0.2516" stop-color="#A76F31"/>
<stop offset="0.379" stop-color="#C6903E"/>
<stop offset="0.5105" stop-color="#DFA949"/>
<stop offset="0.6459" stop-color="#F1BC51"/>
<stop offset="0.7877" stop-color="#FCC656"/>
<stop offset="0.9462" stop-color="#FFCA57"/>
</linearGradient>
<linearGradient id="paint9_linear_530_8040" x1="6.62763" y1="23.3469" x2="14.0843" y2="23.3469" gradientUnits="userSpaceOnUse">
<stop stop-color="#FFCA57"/>
<stop offset="0.2151" stop-color="#9C642C"/>
<stop offset="0.2516" stop-color="#A76F31"/>
<stop offset="0.379" stop-color="#C6903E"/>
<stop offset="0.5105" stop-color="#DFA949"/>
<stop offset="0.6459" stop-color="#F1BC51"/>
<stop offset="0.7877" stop-color="#FCC656"/>
<stop offset="0.9462" stop-color="#FFCA57"/>
</linearGradient>
<linearGradient id="paint10_linear_530_8040" x1="17.0596" y1="23.6129" x2="17.9444" y2="23.6129" gradientUnits="userSpaceOnUse">
<stop stop-color="#FFCA57"/>
<stop offset="0.2151" stop-color="#9C642C"/>
<stop offset="0.2516" stop-color="#A76F31"/>
<stop offset="0.379" stop-color="#C6903E"/>
<stop offset="0.5105" stop-color="#DFA949"/>
<stop offset="0.6459" stop-color="#F1BC51"/>
<stop offset="0.7877" stop-color="#FCC656"/>
<stop offset="0.9462" stop-color="#FFCA57"/>
</linearGradient>
<linearGradient id="paint11_linear_530_8040" x1="20.9384" y1="24.3191" x2="22.4354" y2="24.3191" gradientUnits="userSpaceOnUse">
<stop stop-color="#FFCA57"/>
<stop offset="0.2151" stop-color="#9C642C"/>
<stop offset="0.2516" stop-color="#A76F31"/>
<stop offset="0.379" stop-color="#C6903E"/>
<stop offset="0.5105" stop-color="#DFA949"/>
<stop offset="0.6459" stop-color="#F1BC51"/>
<stop offset="0.7877" stop-color="#FCC656"/>
<stop offset="0.9462" stop-color="#FFCA57"/>
</linearGradient>
<linearGradient id="paint12_linear_530_8040" x1="5.77015" y1="26.3962" x2="7.3281" y2="26.3962" gradientUnits="userSpaceOnUse">
<stop stop-color="#FFCA57"/>
<stop offset="0.2151" stop-color="#9C642C"/>
<stop offset="0.2516" stop-color="#A76F31"/>
<stop offset="0.379" stop-color="#C6903E"/>
<stop offset="0.5105" stop-color="#DFA949"/>
<stop offset="0.6459" stop-color="#F1BC51"/>
<stop offset="0.7877" stop-color="#FCC656"/>
<stop offset="0.9462" stop-color="#FFCA57"/>
</linearGradient>
<linearGradient id="paint13_linear_530_8040" x1="5.75849" y1="28.5034" x2="29.2418" y2="28.5034" gradientUnits="userSpaceOnUse">
<stop stop-color="#FFCA57"/>
<stop offset="0.2151" stop-color="#9C642C"/>
<stop offset="0.2516" stop-color="#A76F31"/>
<stop offset="0.379" stop-color="#C6903E"/>
<stop offset="0.5105" stop-color="#DFA949"/>
<stop offset="0.6459" stop-color="#F1BC51"/>
<stop offset="0.7877" stop-color="#FCC656"/>
<stop offset="0.9462" stop-color="#FFCA57"/>
</linearGradient>
<linearGradient id="paint14_linear_530_8040" x1="26.572" y1="27.6957" x2="29.1732" y2="27.6957" gradientUnits="userSpaceOnUse">
<stop stop-color="#FFCA57"/>
<stop offset="0.2151" stop-color="#9C642C"/>
<stop offset="0.2516" stop-color="#A76F31"/>
<stop offset="0.379" stop-color="#C6903E"/>
<stop offset="0.5105" stop-color="#DFA949"/>
<stop offset="0.6459" stop-color="#F1BC51"/>
<stop offset="0.7877" stop-color="#FCC656"/>
<stop offset="0.9462" stop-color="#FFCA57"/>
</linearGradient>
<linearGradient id="paint15_linear_530_8040" x1="9.40541" y1="31.743" x2="11.0229" y2="31.743" gradientUnits="userSpaceOnUse">
<stop stop-color="#FFCA57"/>
<stop offset="0.2151" stop-color="#9C642C"/>
<stop offset="0.2516" stop-color="#A76F31"/>
<stop offset="0.379" stop-color="#C6903E"/>
<stop offset="0.5105" stop-color="#DFA949"/>
<stop offset="0.6459" stop-color="#F1BC51"/>
<stop offset="0.7877" stop-color="#FCC656"/>
<stop offset="0.9462" stop-color="#FFCA57"/>
</linearGradient>
<linearGradient id="paint16_linear_530_8040" x1="7.78667" y1="31.7438" x2="12.6417" y2="31.7438" gradientUnits="userSpaceOnUse">
<stop stop-color="#FFCA57"/>
<stop offset="0.2151" stop-color="#9C642C"/>
<stop offset="0.2516" stop-color="#A76F31"/>
<stop offset="0.379" stop-color="#C6903E"/>
<stop offset="0.5105" stop-color="#DFA949"/>
<stop offset="0.6459" stop-color="#F1BC51"/>
<stop offset="0.7877" stop-color="#FCC656"/>
<stop offset="0.9462" stop-color="#FFCA57"/>
</linearGradient>
<linearGradient id="paint17_linear_530_8040" x1="22.7652" y1="31.7429" x2="24.3819" y2="31.7429" gradientUnits="userSpaceOnUse">
<stop stop-color="#FFCA57"/>
<stop offset="0.2151" stop-color="#9C642C"/>
<stop offset="0.2516" stop-color="#A76F31"/>
<stop offset="0.379" stop-color="#C6903E"/>
<stop offset="0.5105" stop-color="#DFA949"/>
<stop offset="0.6459" stop-color="#F1BC51"/>
<stop offset="0.7877" stop-color="#FCC656"/>
<stop offset="0.9462" stop-color="#FFCA57"/>
</linearGradient>
<linearGradient id="paint18_linear_530_8040" x1="21.146" y1="31.7438" x2="26.0003" y2="31.7438" gradientUnits="userSpaceOnUse">
<stop stop-color="#FFCA57"/>
<stop offset="0.2151" stop-color="#9C642C"/>
<stop offset="0.2516" stop-color="#A76F31"/>
<stop offset="0.379" stop-color="#C6903E"/>
<stop offset="0.5105" stop-color="#DFA949"/>
<stop offset="0.6459" stop-color="#F1BC51"/>
<stop offset="0.7877" stop-color="#FCC656"/>
<stop offset="0.9462" stop-color="#FFCA57"/>
</linearGradient>
<linearGradient id="paint19_linear_530_8040" x1="9.40541" y1="31.743" x2="11.0229" y2="31.743" gradientUnits="userSpaceOnUse">
<stop stop-color="#FFCA57"/>
<stop offset="0.2151" stop-color="#9C642C"/>
<stop offset="0.2516" stop-color="#A76F31"/>
<stop offset="0.379" stop-color="#C6903E"/>
<stop offset="0.5105" stop-color="#DFA949"/>
<stop offset="0.6459" stop-color="#F1BC51"/>
<stop offset="0.7877" stop-color="#FCC656"/>
<stop offset="0.9462" stop-color="#FFCA57"/>
</linearGradient>
<linearGradient id="paint20_linear_530_8040" x1="22.7652" y1="31.7429" x2="24.3819" y2="31.7429" gradientUnits="userSpaceOnUse">
<stop stop-color="#FFCA57"/>
<stop offset="0.2151" stop-color="#9C642C"/>
<stop offset="0.2516" stop-color="#A76F31"/>
<stop offset="0.379" stop-color="#C6903E"/>
<stop offset="0.5105" stop-color="#DFA949"/>
<stop offset="0.6459" stop-color="#F1BC51"/>
<stop offset="0.7877" stop-color="#FCC656"/>
<stop offset="0.9462" stop-color="#FFCA57"/>
</linearGradient>
<linearGradient id="paint21_linear_530_8040" x1="9.40541" y1="31.743" x2="11.0229" y2="31.743" gradientUnits="userSpaceOnUse">
<stop stop-color="#FFCA57"/>
<stop offset="0.2151" stop-color="#9C642C"/>
<stop offset="0.2516" stop-color="#A76F31"/>
<stop offset="0.379" stop-color="#C6903E"/>
<stop offset="0.5105" stop-color="#DFA949"/>
<stop offset="0.6459" stop-color="#F1BC51"/>
<stop offset="0.7877" stop-color="#FCC656"/>
<stop offset="0.9462" stop-color="#FFCA57"/>
</linearGradient>
<linearGradient id="paint22_linear_530_8040" x1="22.7652" y1="31.7429" x2="24.3819" y2="31.7429" gradientUnits="userSpaceOnUse">
<stop stop-color="#FFCA57"/>
<stop offset="0.2151" stop-color="#9C642C"/>
<stop offset="0.2516" stop-color="#A76F31"/>
<stop offset="0.379" stop-color="#C6903E"/>
<stop offset="0.5105" stop-color="#DFA949"/>
<stop offset="0.6459" stop-color="#F1BC51"/>
<stop offset="0.7877" stop-color="#FCC656"/>
<stop offset="0.9462" stop-color="#FFCA57"/>
</linearGradient>
<linearGradient id="paint23_linear_530_8040" x1="16.7538" y1="42.3446" x2="18.2463" y2="7.37701" gradientUnits="userSpaceOnUse">
<stop stop-color="#FFCA57"/>
<stop offset="0.2151" stop-color="#9C642C"/>
<stop offset="0.2516" stop-color="#A76F31"/>
<stop offset="0.379" stop-color="#C6903E"/>
<stop offset="0.5105" stop-color="#DFA949"/>
<stop offset="0.6459" stop-color="#F1BC51"/>
<stop offset="0.7877" stop-color="#FCC656"/>
<stop offset="0.9462" stop-color="#FFCA57"/>
</linearGradient>
<linearGradient id="paint24_linear_530_8040" x1="16.9453" y1="0.960105" x2="18.0541" y2="0.319822" gradientUnits="userSpaceOnUse">
<stop offset="0.0376" stop-color="#9C642C"/>
<stop offset="0.303" stop-color="#D7A146"/>
<stop offset="0.5" stop-color="#FFCA57"/>
<stop offset="1" stop-color="#9C642C"/>
</linearGradient>
<linearGradient id="paint25_linear_530_8040" x1="10.6228" y1="9.5615" x2="25.3156" y2="1.07846" gradientUnits="userSpaceOnUse">
<stop offset="0.0376" stop-color="#9C642C"/>
<stop offset="0.303" stop-color="#D7A146"/>
<stop offset="0.5" stop-color="#FFCA57"/>
<stop offset="1" stop-color="#9C642C"/>
</linearGradient>
<linearGradient id="paint26_linear_530_8040" x1="7.31342" y1="2.67277" x2="8.42221" y2="2.03259" gradientUnits="userSpaceOnUse">
<stop offset="0.0376" stop-color="#9C642C"/>
<stop offset="0.303" stop-color="#D7A146"/>
<stop offset="0.5" stop-color="#FFCA57"/>
<stop offset="1" stop-color="#9C642C"/>
</linearGradient>
<linearGradient id="paint27_linear_530_8040" x1="26.5776" y1="2.67277" x2="27.6864" y2="2.03259" gradientUnits="userSpaceOnUse">
<stop offset="0.0376" stop-color="#9C642C"/>
<stop offset="0.303" stop-color="#D7A146"/>
<stop offset="0.5" stop-color="#FFCA57"/>
<stop offset="1" stop-color="#9C642C"/>
</linearGradient>
<linearGradient id="paint28_linear_530_8040" x1="12.4208" y1="3.42247" x2="13.1595" y2="2.99596" gradientUnits="userSpaceOnUse">
<stop offset="0.0376" stop-color="#9C642C"/>
<stop offset="0.303" stop-color="#D7A146"/>
<stop offset="0.5" stop-color="#FFCA57"/>
<stop offset="1" stop-color="#9C642C"/>
</linearGradient>
<linearGradient id="paint29_linear_530_8040" x1="21.839" y1="3.42247" x2="22.5778" y2="2.99596" gradientUnits="userSpaceOnUse">
<stop offset="0.0376" stop-color="#9C642C"/>
<stop offset="0.303" stop-color="#D7A146"/>
<stop offset="0.5" stop-color="#FFCA57"/>
<stop offset="1" stop-color="#9C642C"/>
</linearGradient>
<linearGradient id="paint30_linear_530_8040" x1="11.8273" y1="5.86236" x2="13.835" y2="4.70321" gradientUnits="userSpaceOnUse">
<stop offset="0.0376" stop-color="#9C642C"/>
<stop offset="0.303" stop-color="#D7A146"/>
<stop offset="0.5" stop-color="#FFCA57"/>
<stop offset="1" stop-color="#9C642C"/>
</linearGradient>
<linearGradient id="paint31_linear_530_8040" x1="21.1062" y1="5.72236" x2="23.1539" y2="4.54019" gradientUnits="userSpaceOnUse">
<stop offset="0.0376" stop-color="#9C642C"/>
<stop offset="0.303" stop-color="#D7A146"/>
<stop offset="0.5" stop-color="#FFCA57"/>
<stop offset="1" stop-color="#9C642C"/>
</linearGradient>
</defs>
</svg>
