<svg width="31" height="21" viewBox="0 0 31 21" fill="none" xmlns="http://www.w3.org/2000/svg">
<path d="M17.4123 14.4075C17.2276 14.4075 17.043 14.4075 16.8583 14.4058C16.6753 14.4058 16.4938 14.4042 16.3124 14.4042C15.3955 14.4042 14.4787 14.4058 13.5618 14.4058C13.544 14.1791 13.5067 13.8745 13.429 13.5181C13.395 13.3626 13.361 13.2347 13.3367 13.1472C13.2265 12.76 13.0937 12.4247 12.9625 12.1461C12.6936 12.0651 12.3242 11.9096 11.9824 11.5969C11.0153 10.7092 11.1433 9.35014 11.1644 9.16224C11.6406 9.16386 12.1185 9.16386 12.5947 9.16548C12.6822 9.03588 12.7681 8.90629 12.8555 8.77832C12.9479 8.90791 13.0386 9.0375 13.1309 9.16548C13.3885 9.17034 13.6477 9.1752 13.9052 9.18006C13.9036 9.39388 13.9312 9.80858 14.1579 10.2589C14.3572 10.6542 14.6245 10.9036 14.7865 11.0332C16.1018 11.0316 17.4172 11.0284 18.7342 11.0251C18.8702 10.97 19.0144 10.9052 19.1634 10.8291C19.421 10.6963 19.6445 10.5553 19.8324 10.4193C19.8341 10.5197 19.8227 10.612 19.8033 10.6947C19.6008 11.6034 18.3826 11.9857 18.1753 12.0489C17.9955 12.3761 17.8011 12.794 17.6472 13.2962C17.5241 13.7093 17.4528 14.0851 17.4123 14.4075Z" fill="white"/>
<path d="M16.3108 14.3975C15.3939 14.3991 14.4771 14.4007 13.5618 14.4023V14.3975H16.3108Z" fill="white"/>
<path d="M14.2324 8.83517C15.6175 8.83355 17.0025 8.83355 18.3875 8.83355C18.5122 8.68938 18.637 8.54359 18.7617 8.39941C19.3643 8.70234 19.9669 9.00526 20.5695 9.30818C20.4707 9.51066 20.2261 9.9448 19.7239 10.2801C19.2736 10.5814 18.8362 10.6576 18.6143 10.6819C17.4155 10.6932 16.2168 10.7029 15.0197 10.7142C14.9177 10.664 14.456 10.4259 14.2486 9.86866C14.064 9.38107 14.1903 8.95666 14.2324 8.83517Z" fill="white"/>
<path d="M12.9074 3.40196C12.9122 5.10286 12.9155 6.80213 12.9187 8.50303C13.0645 8.6148 13.2103 8.72657 13.3561 8.83834C13.5391 8.83834 13.7222 8.83834 13.9052 8.83834C13.9781 8.72981 14.0494 8.61966 14.1223 8.51113C14.341 8.51113 14.5581 8.51274 14.7767 8.51274C14.7751 6.80537 14.7751 5.09962 14.7719 3.39387C14.699 3.27885 14.6261 3.16384 14.5532 3.04883C14.0818 3.05045 13.612 3.05045 13.1406 3.05207C13.0645 3.16708 12.9868 3.28371 12.9074 3.40196Z" fill="white"/>
<path d="M15.4344 2.50064C15.8718 2.50064 16.3092 2.49902 16.7449 2.49902C16.8535 2.60756 16.9636 2.71771 17.0722 2.82624C17.0705 4.7199 17.0705 6.61357 17.0705 8.50723C16.4145 8.50561 15.7584 8.50561 15.1024 8.50399C15.104 6.61195 15.1056 4.7199 15.1072 2.82624C15.2157 2.71933 15.3243 2.60918 15.4344 2.50064Z" fill="white"/>
<path d="M17.8383 2.82843C18.1656 2.82681 18.4944 2.82682 18.8216 2.8252C18.9723 2.96127 19.1229 3.09734 19.2736 3.23341C19.2444 4.72858 19.2169 6.22212 19.1893 7.71567C18.8816 7.98295 18.577 8.25186 18.2692 8.51914C17.9793 8.51428 17.6893 8.51104 17.3994 8.50618C17.3994 6.75831 17.3977 5.01044 17.3977 3.26095C17.5451 3.12002 17.6909 2.97423 17.8383 2.82843Z" fill="white"/>
<path d="M11.1741 3.69922C11.5386 3.69922 11.9014 3.69922 12.2643 3.69922C12.4084 3.84501 12.5542 3.9908 12.6984 4.13659C12.6984 5.5216 12.6984 6.90338 12.6984 8.28839C12.5559 8.43418 12.4117 8.57835 12.2675 8.72414C11.903 8.72576 11.5402 8.72576 11.1757 8.72576C11.0283 8.57673 10.8825 8.42932 10.7351 8.28029C10.7351 6.86936 10.7351 5.45843 10.7351 4.0475C10.8809 3.93248 11.0267 3.81747 11.1741 3.69922Z" fill="white"/>
<path d="M6.36461 16.481C7.36409 16.3044 8.3992 16.1376 9.46672 15.9869C10.5699 15.8314 11.6406 15.7002 12.6806 15.5933C14.5516 15.5933 16.4209 15.5933 18.2903 15.5933C19.3092 15.7067 20.3557 15.8428 21.4345 16.0015C22.528 16.1635 23.5858 16.3417 24.6063 16.5296C23.9438 16.2137 23.0528 15.8363 21.9691 15.5074C20.2439 14.9826 18.8816 14.7461 18.0214 14.7461C16.3853 14.7461 14.7508 14.7461 13.1163 14.7461C12.0019 14.8627 10.7076 15.0766 9.29501 15.4653C8.19671 15.7683 7.21506 16.123 6.36461 16.481Z" fill="white"/>
<path d="M19.2412 4.76939C19.3125 4.74671 19.5571 4.67706 19.8243 4.79045C19.9815 4.85686 20.0819 4.96054 20.1321 5.02047C20.1321 5.63604 20.1321 6.2516 20.1321 6.86878C21.9318 7.27861 23.2861 7.55724 23.7591 7.62041C23.8077 7.62689 23.9049 7.63823 23.9956 7.58477C24.3277 7.38877 24.1689 6.54804 24.0798 6.16736C24.0798 5.37037 24.0798 4.575 24.0798 3.77801C23.9275 3.66624 23.7769 3.55285 23.6246 3.43945C23.0236 3.66948 22.2995 3.8995 21.4685 4.07445C20.6424 4.24778 19.8924 4.32716 19.2541 4.35793C19.2493 4.49563 19.2444 4.63332 19.2412 4.76939Z" fill="white"/>
<path d="M19.2606 3.92155C20.2358 3.84379 21.4523 3.65427 22.7969 3.21527C23.67 2.93017 24.4265 2.59647 25.0631 2.26763C24.8298 2.88643 24.4978 4.00579 24.5804 5.42968C24.6614 6.84061 25.1117 7.90812 25.4114 8.49614C23.6149 8.13491 21.8201 7.77529 20.0236 7.41405C20.022 7.52259 20.022 7.63112 20.022 7.73965C22.1748 8.21752 24.326 8.69539 26.4789 9.17164C26.0804 8.49128 25.4033 7.12247 25.2834 5.25959C25.1716 3.4939 25.6155 2.11374 25.9071 1.38965C24.9853 1.95661 23.7461 2.59485 22.2024 3.07434C21.1105 3.41452 20.1094 3.59919 19.2639 3.69638C19.2639 3.7709 19.2622 3.84703 19.2606 3.92155Z" fill="white"/>
<path d="M25.2721 4.36834C25.4681 4.36672 25.6657 4.3651 25.8633 4.36348C25.6673 4.62429 25.4713 4.88509 25.2737 5.14751C25.2818 5.27063 25.2915 5.39698 25.3045 5.52819C25.3288 5.77118 25.3595 5.99958 25.3968 6.21827C25.8487 5.40832 26.2991 4.59837 26.751 3.79004C26.2667 3.82568 25.7823 3.85808 25.2964 3.89371C25.2883 4.05246 25.2785 4.20959 25.2721 4.36834Z" fill="white"/>
<path d="M23.9632 2.41729C23.9551 2.16459 23.9454 1.91188 23.9373 1.65918C23.0933 2.16459 22.2493 2.67162 21.4054 3.17702C22.11 2.89192 22.8147 2.6052 23.5193 2.3201C23.5485 2.40271 23.576 2.48533 23.6036 2.56632C23.7234 2.51611 23.8417 2.46751 23.9632 2.41729Z" fill="white"/>
<path d="M24.2872 2.263C24.2855 1.85316 24.2855 1.44333 24.2855 1.03512C23.6813 1.50975 22.9281 2.02973 22.0209 2.51732C21.0052 3.06323 20.0592 3.42933 19.2655 3.67717C19.2671 3.60913 19.2671 3.5411 19.2703 3.47144C20.103 3.12964 21.0538 2.67121 22.0614 2.05565C23.184 1.36881 24.1041 0.647959 24.8363 0C24.65 0.754873 24.4702 1.50813 24.2872 2.263Z" fill="white"/>
<path d="M10.6266 4.57172C10.6249 4.68025 10.6249 4.79041 10.6233 4.89894C8.91595 4.65271 7.20858 4.40487 5.50283 4.15865C5.79117 4.69159 6.14916 5.5064 6.30953 6.5561C6.53794 8.04154 6.2577 9.25161 6.05197 9.9109C6.73071 9.55291 7.5439 9.18357 8.48344 8.86445C9.25937 8.60041 9.98185 8.41574 10.6298 8.28615C10.6282 8.36228 10.6249 8.43842 10.6233 8.51617C9.90247 8.71542 9.1152 8.97298 8.28257 9.30992C7.10815 9.78455 6.09571 10.3126 5.2485 10.8213C5.50768 10.0583 5.92076 8.48701 5.56276 6.5561C5.31006 5.20024 4.77225 4.18456 4.37862 3.56738C6.46019 3.9027 8.54338 4.23802 10.6266 4.57172Z" fill="white"/>
<path d="M6.80197 3.81029C6.87487 3.81029 6.94776 3.81029 7.02228 3.81029C7.02228 3.70014 7.02066 3.58999 7.02066 3.48145C7.05468 3.45715 7.13243 3.41018 7.24259 3.40208C7.33006 3.3956 7.3981 3.41666 7.43535 3.43124C8.16917 3.74874 8.9046 4.06623 9.63842 4.38212C9.6368 4.3157 9.6368 4.24766 9.63518 4.18125C8.69078 3.76655 7.74637 3.35024 6.80035 2.93555C6.80197 3.22713 6.80197 3.51871 6.80197 3.81029Z" fill="white"/>
<path d="M5.28415 1.4209C5.3781 1.70762 5.51093 2.17091 5.56439 2.66822C5.59355 2.9355 5.60003 3.22547 5.60165 3.26272C5.60651 3.46035 5.60327 3.63044 5.59679 3.76489C5.85435 3.80701 6.10868 3.84751 6.36624 3.88962C6.36624 3.3745 6.36624 2.85775 6.36624 2.341C7.82253 2.97762 9.27882 3.61424 10.7351 4.25086C10.7351 4.18445 10.7351 4.11803 10.7351 4.05161C10.7934 4.00626 10.8501 3.95928 10.9084 3.91554C9.03259 3.08292 7.15837 2.25191 5.28415 1.4209Z" fill="white"/>
<path d="M5.48986 6.21387C5.35865 6.6156 5.17398 7.08213 4.91318 7.57782C4.69611 7.9909 4.46609 8.34403 4.25064 8.6421C4.73175 8.57892 5.21286 8.51574 5.69235 8.45257C5.69721 8.3246 5.70045 8.19662 5.70369 8.06865C5.53198 8.06865 5.36027 8.06865 5.18856 8.06865C5.34083 7.77221 5.4931 7.47253 5.64537 7.17609C5.64213 7.10967 5.63727 7.04002 5.63241 6.97036C5.6065 6.69012 5.55304 6.43579 5.48986 6.21387Z" fill="white"/>
<path d="M22.2024 6.04165C22.5056 6.04165 22.7515 5.79579 22.7515 5.4925C22.7515 5.18922 22.5056 4.94336 22.2024 4.94336C21.8991 4.94336 21.6532 5.18922 21.6532 5.4925C21.6532 5.79579 21.8991 6.04165 22.2024 6.04165Z" fill="white"/>
<path d="M19.0435 14.4107C18.8508 14.4107 18.6564 14.4091 18.462 14.4091H18.4069C18.138 14.4091 17.8691 14.4091 17.6002 14.4075C17.6018 14.4026 17.6018 14.3994 17.6018 14.3962C17.6634 14.0284 17.7476 13.6316 17.8675 13.2104C17.9339 12.9771 18.0052 12.7552 18.0797 12.5479C18.185 12.7827 18.3 13.0225 18.4231 13.2703C18.449 13.3205 18.4733 13.3708 18.4993 13.4226C18.5203 13.4647 18.543 13.5085 18.5641 13.5489C18.7196 13.8454 18.8751 14.1289 19.0322 14.3962C19.0387 14.401 19.0419 14.4075 19.0435 14.4107Z" fill="white"/>
<path d="M6.10381 4.56152C7.61517 4.80127 9.12816 5.04101 10.6395 5.28076C10.6363 5.91252 10.633 6.54428 10.6282 7.17604C10.565 7.17442 10.5018 7.17118 10.4387 7.16956C10.4273 6.59612 10.416 6.02267 10.403 5.44923C9.7421 5.38929 9.04392 5.30344 8.31335 5.18518C7.79174 5.10095 7.28957 5.00538 6.8117 4.90332C6.81656 4.9179 6.84086 5.01834 6.7793 5.11067C6.70803 5.2192 6.58329 5.22568 6.57196 5.22568C6.68373 5.61932 6.78902 6.08099 6.85382 6.60098C6.94615 7.33317 6.93643 7.98113 6.8927 8.5076C6.91375 8.50274 7.03525 8.47196 7.1535 8.54324C7.25555 8.60479 7.28957 8.70037 7.29767 8.72628C7.70264 8.54324 8.1627 8.36019 8.67296 8.1982C9.3922 7.96817 10.0564 7.82724 10.6363 7.73977C10.6379 7.81104 10.6411 7.8807 10.6428 7.95197C10.0612 8.08318 9.44566 8.24355 8.80256 8.43794C8.00557 8.67931 7.27175 8.94335 6.60273 9.21387C6.67887 8.42336 6.69345 7.41741 6.5104 6.27538C6.40997 5.63066 6.26256 5.05721 6.10381 4.56152Z" fill="white"/>
<path d="M18.9253 13.7526C19.0014 13.7542 19.0776 13.7542 19.1521 13.7542C19.2007 13.487 19.2703 13.1857 19.374 12.8601C19.4907 12.4956 19.6267 12.1765 19.7579 11.9092C19.515 12.1748 19.1813 12.6203 19.0144 13.2472C18.9658 13.427 18.9383 13.5987 18.9253 13.7526Z" fill="white"/>
<path d="M19.3141 11.8369C19.1116 12.1269 18.8589 12.5594 18.6791 13.128C18.6337 13.2738 18.5965 13.4163 18.5673 13.5508C18.4977 13.8764 18.4701 14.1663 18.462 14.398V14.4126C18.4442 14.4126 18.4264 14.4109 18.4069 14.4109C18.3632 14.4093 18.3195 14.4093 18.2757 14.4093V14.398C18.2644 14.1242 18.2838 13.7419 18.4118 13.311C18.4167 13.2981 18.4199 13.2851 18.4248 13.2721C18.6515 12.5399 19.076 12.0653 19.3141 11.8369Z" fill="white"/>
<path d="M11.6876 11.7451C11.9354 12.0885 12.2481 12.6101 12.4489 13.3035C12.5688 13.7182 12.6207 14.094 12.6385 14.4034C12.6952 14.405 12.7535 14.4082 12.8102 14.4099C12.8215 14.1264 12.8005 13.723 12.6595 13.2694C12.4149 12.4789 11.9403 11.9784 11.6876 11.7451Z" fill="white"/>
<path d="M11.869 13.7429C11.9257 13.7461 11.9808 13.7494 12.0391 13.7542C12.044 13.5469 12.0262 13.2391 11.9095 12.8908C11.7427 12.3967 11.4608 12.0695 11.2923 11.9043C11.4786 12.1781 11.7135 12.6073 11.8172 13.1727C11.8561 13.38 11.869 13.5712 11.869 13.7429Z" fill="white"/>
<path d="M19.4728 5.33984C19.5474 5.34146 19.6219 5.34147 19.6964 5.34147C19.6948 6.03316 19.6948 6.72486 19.6948 7.41655C19.6219 7.41493 19.5506 7.41493 19.4777 7.41331C19.4745 6.72324 19.4745 6.03154 19.4728 5.33984Z" fill="white"/>
<path d="M9.02287 6.26739C9.01154 6.32247 8.99696 6.37754 8.98562 6.43262C8.94188 6.40832 8.86089 6.3743 8.76693 6.3905C8.73453 6.39536 8.67136 6.40832 8.65354 6.45368C8.64544 6.4715 8.64544 6.49903 8.65678 6.52171C8.6827 6.56869 8.74263 6.55735 8.87708 6.60919C8.91272 6.62377 8.93054 6.63025 8.95322 6.64483C8.97104 6.65455 9.04555 6.69828 9.07633 6.79062C9.10225 6.86999 9.08119 6.93803 9.07309 6.96071C9.01801 7.11784 8.84469 7.15995 8.83173 7.16319C8.83497 7.20531 8.83983 7.24905 8.84307 7.29116C8.79771 7.29764 8.75235 7.30413 8.70699 7.3106C8.70537 7.26201 8.70376 7.21179 8.70214 7.16157C8.67136 7.16643 8.626 7.16967 8.57254 7.15995C8.51909 7.15023 8.47697 7.1308 8.44943 7.11784C8.46563 7.06114 8.48183 7.00444 8.49965 6.94775C8.53691 6.95909 8.58388 6.97366 8.64058 6.98338C8.76207 7.00606 8.79285 6.99149 8.80743 6.98501C8.84307 6.96719 8.87709 6.92507 8.87223 6.88781C8.86575 6.84245 8.80581 6.80682 8.77017 6.80196C8.53367 6.76956 8.40245 6.57193 8.43647 6.431C8.45915 6.33704 8.55796 6.26253 8.6746 6.23499C8.66974 6.19287 8.6665 6.14914 8.66326 6.10702C8.71348 6.10216 8.76207 6.09568 8.81229 6.09082C8.81553 6.13618 8.81715 6.18315 8.82039 6.23013C8.8868 6.24471 8.95484 6.25605 9.02287 6.26739Z" fill="white"/>
<path d="M24.7877 5.02832H21.8589V7.20708H24.7877V5.02832Z" fill="white"/>
<path d="M21.9432 5.82061C21.995 5.85139 22.0695 5.87893 22.1473 5.87893C22.2639 5.87893 22.332 5.81737 22.332 5.72828C22.332 5.64566 22.285 5.59869 22.1651 5.55333C22.0209 5.50149 21.9318 5.42698 21.9318 5.30225C21.9318 5.16455 22.0452 5.0625 22.2169 5.0625C22.3077 5.0625 22.3724 5.08356 22.4129 5.10624L22.3822 5.19857C22.353 5.18237 22.2947 5.15645 22.2137 5.15645C22.0938 5.15645 22.0468 5.22935 22.0468 5.28929C22.0468 5.3719 22.1003 5.4124 22.2218 5.45938C22.3708 5.51769 22.447 5.58897 22.447 5.71856C22.447 5.85463 22.3465 5.97288 22.1376 5.97288C22.0517 5.97288 21.9594 5.94859 21.9124 5.91619L21.9432 5.82061Z" fill="white"/>
<path d="M16.3108 14.3975C15.3939 14.3991 14.4771 14.4007 13.5618 14.4023V14.3975H16.3108Z" fill="white"/>
<path d="M2.79433 20.8929L3.30459 19.1256L2.01839 20.8929H1.68632L1.42389 19.1272L0.913623 20.8946H0L0.918483 17.752H2.06213L2.30512 19.3297L3.46658 17.752H4.61671L3.69823 20.8946H2.79433V20.8929Z" fill="white"/>
<path d="M7.43047 19.8484C7.3349 20.0541 7.21826 20.2339 7.07733 20.3878C6.9364 20.5417 6.77927 20.6648 6.60594 20.7556C6.43261 20.8463 6.24956 20.8916 6.06004 20.8916H5.58702C5.4137 20.8916 5.25171 20.8738 5.1043 20.8382C4.95526 20.8025 4.82729 20.7426 4.71876 20.6567C4.61023 20.5725 4.52437 20.4559 4.46444 20.3101C4.40288 20.1643 4.3721 19.9796 4.3721 19.7593C4.3721 19.7123 4.37372 19.6621 4.37858 19.6103C4.38182 19.5584 4.3883 19.505 4.3964 19.4499C4.4207 19.228 4.47901 19.0158 4.57135 18.8101C4.66368 18.6043 4.77708 18.4245 4.91153 18.2674C5.04598 18.1119 5.19501 17.9855 5.35862 17.8916C5.52223 17.796 5.68746 17.749 5.85431 17.749H6.48283C6.86188 17.749 7.15023 17.8316 7.34785 17.9952C7.54548 18.1589 7.6443 18.431 7.6443 18.8101C7.6443 18.87 7.64268 18.9299 7.63782 18.9931C7.63458 19.0563 7.6281 19.1211 7.62 19.1891C7.58922 19.424 7.52604 19.6427 7.43047 19.8484ZM5.27762 19.4094V19.4451C5.27762 19.5163 5.28896 19.5908 5.31002 19.667C5.33108 19.7447 5.36186 19.8144 5.40236 19.8776C5.44123 19.9407 5.48659 19.9926 5.53519 20.0315C5.58378 20.0703 5.63886 20.0914 5.6988 20.0914H6.00658C6.03898 20.0914 6.08433 20.0752 6.14265 20.0412C6.20259 20.0072 6.26252 19.9634 6.3257 19.9083C6.38887 19.8533 6.44881 19.7901 6.50713 19.7221C6.56382 19.6524 6.60756 19.5844 6.6351 19.518C6.66264 19.4661 6.68046 19.4224 6.68856 19.3867L6.70637 19.3268C6.71447 19.2879 6.71771 19.2701 6.71771 19.2733C6.71771 19.2409 6.71933 19.2086 6.72095 19.1762C6.72257 19.1421 6.72419 19.1081 6.72419 19.0725C6.72419 19.0093 6.71933 18.9461 6.70961 18.883C6.69989 18.8198 6.68046 18.7631 6.65292 18.7145C6.62538 18.6659 6.5865 18.6254 6.53791 18.5962C6.48769 18.5671 6.42451 18.5525 6.34514 18.5525H5.9596C5.91262 18.5525 5.85917 18.5687 5.79923 18.6027C5.73929 18.6367 5.68098 18.6805 5.62428 18.7355C5.56759 18.7906 5.51413 18.8538 5.46391 18.9218C5.4137 18.9915 5.37644 19.0595 5.3489 19.1259C5.3327 19.1729 5.31974 19.2183 5.30678 19.2588C5.29544 19.3009 5.28734 19.3365 5.28248 19.3689C5.28086 19.3722 5.27762 19.3867 5.27762 19.4094Z" fill="white"/>
<path d="M8.30846 17.749H9.45211L9.72425 19.5163L10.2394 17.749H11.14L10.2264 20.8916H9.07629L8.80901 19.1243L8.29874 20.8916H7.38512L8.30846 17.749Z" fill="white"/>
<path d="M12.4295 18.5509H11.1546V18.5444C11.1579 18.5282 11.1805 18.4845 11.2227 18.4132C11.2648 18.3419 11.315 18.2625 11.3733 18.1767C11.4332 18.0892 11.4932 18.005 11.5547 17.924C11.6163 17.843 11.6681 17.7847 11.7119 17.749H14.0899L12.1266 20.0914H13.4079C13.3836 20.1465 13.3463 20.2194 13.2945 20.3085C13.2427 20.3976 13.1876 20.485 13.1293 20.5725C13.0693 20.66 13.0126 20.7345 12.9576 20.7977C12.9025 20.8608 12.862 20.8932 12.8393 20.8932H10.4678L12.4295 18.5509Z" fill="white"/>
<path d="M16.8761 19.8484C16.7805 20.0541 16.6639 20.2339 16.523 20.3878C16.382 20.5417 16.2249 20.6648 16.0516 20.7556C15.8782 20.8463 15.6952 20.8916 15.5057 20.8916H15.031C14.8577 20.8916 14.6957 20.8738 14.5483 20.8382C14.3993 20.8025 14.2713 20.7426 14.1628 20.6567C14.0542 20.5725 13.9684 20.4559 13.9084 20.3101C13.8469 20.1643 13.8161 19.9796 13.8161 19.7593C13.8161 19.7123 13.8177 19.6621 13.8226 19.6103C13.8258 19.5584 13.8323 19.505 13.8404 19.4499C13.8647 19.228 13.923 19.0158 14.0154 18.8101C14.1077 18.6043 14.2211 18.4245 14.3555 18.2674C14.49 18.1119 14.639 17.9855 14.8026 17.8916C14.9662 17.796 15.1315 17.749 15.2983 17.749H15.9268C16.3059 17.749 16.5942 17.8316 16.7919 17.9952C16.9895 18.1589 17.0883 18.431 17.0883 18.8101C17.0883 18.87 17.0867 18.9299 17.0818 18.9931C17.0786 19.0563 17.0721 19.1211 17.064 19.1891C17.0349 19.424 16.9717 19.6427 16.8761 19.8484ZM14.7249 19.4094V19.4451C14.7249 19.5163 14.7362 19.5908 14.7573 19.667C14.7783 19.7447 14.8091 19.8144 14.8496 19.8776C14.8885 19.9407 14.9338 19.9926 14.9824 20.0315C15.031 20.0703 15.0861 20.0914 15.1461 20.0914H15.4538C15.4846 20.0914 15.5316 20.0752 15.5899 20.0412C15.6498 20.0072 15.7098 19.9634 15.773 19.9083C15.8361 19.8533 15.8961 19.7901 15.9544 19.7221C16.0111 19.6524 16.0548 19.5844 16.0824 19.518C16.1099 19.4661 16.1277 19.4224 16.1358 19.3867L16.1536 19.3268C16.1617 19.2879 16.165 19.2701 16.165 19.2733C16.165 19.2409 16.1666 19.2086 16.1682 19.1762C16.1698 19.1421 16.1714 19.1081 16.1714 19.0725C16.1714 19.0093 16.1666 18.9461 16.1569 18.883C16.1472 18.8198 16.1277 18.7631 16.1002 18.7145C16.0726 18.6659 16.0338 18.6254 15.9852 18.5962C15.9349 18.5671 15.8718 18.5525 15.7924 18.5525H15.4069C15.3599 18.5525 15.3064 18.5687 15.2465 18.6027C15.1866 18.6367 15.1282 18.6805 15.0715 18.7355C15.0148 18.7906 14.9614 18.8538 14.9112 18.9218C14.861 18.9915 14.8237 19.0595 14.7962 19.1259C14.78 19.1729 14.767 19.2183 14.754 19.2588C14.7427 19.3009 14.7346 19.3365 14.7297 19.3689C14.7265 19.3722 14.7249 19.3867 14.7249 19.4094Z" fill="white"/>
<path d="M18.2822 20.8916L19.2007 17.749H20.1078L19.4194 20.0914H20.9259C20.9291 20.0914 20.9113 20.1254 20.8692 20.1918C20.827 20.2599 20.7768 20.3376 20.7185 20.4267C20.6586 20.5158 20.597 20.6049 20.5322 20.694C20.4674 20.7831 20.4123 20.8495 20.3686 20.8932H18.2822V20.8916Z" fill="white"/>
<path d="M20.9145 20.8874C20.9178 20.8712 20.9421 20.8275 20.9858 20.7562C21.0295 20.6849 21.0814 20.6055 21.1397 20.5197C21.1996 20.4322 21.2596 20.348 21.3211 20.267C21.3827 20.186 21.4345 20.1277 21.4782 20.092H22.0468L22.4972 18.5499H21.6014V18.5434C21.6046 18.5272 21.6273 18.4835 21.6694 18.4122C21.7115 18.3409 21.7617 18.2616 21.82 18.1757C21.88 18.0882 21.9399 18.004 22.0015 17.923C22.063 17.842 22.1149 17.7837 22.1586 17.748H24.5366C24.5123 17.8031 24.4751 17.876 24.4232 17.9651C24.3714 18.0542 24.3163 18.1417 24.258 18.2292C24.1981 18.3166 24.1414 18.3911 24.0863 18.4543C24.0312 18.5175 23.9907 18.5499 23.968 18.5499H23.4043L22.954 20.092H23.8546C23.8303 20.1471 23.7931 20.22 23.7412 20.3091C23.6894 20.3982 23.6343 20.4857 23.576 20.5732C23.5161 20.6606 23.4594 20.7351 23.4043 20.7983C23.3492 20.8615 23.3087 20.8939 23.2861 20.8939H20.9145V20.8874Z" fill="white"/>
<path d="M27.0993 17.749H28.0777L26.393 20.5239C26.3768 20.5482 26.3541 20.579 26.325 20.6195C26.2958 20.6584 26.2634 20.6989 26.2294 20.741C26.1954 20.7831 26.1614 20.8187 26.129 20.8479C26.095 20.877 26.0674 20.8916 26.0431 20.8916H25.2607C25.2251 20.8916 25.1959 20.8706 25.1716 20.8268C25.1473 20.7831 25.1263 20.7296 25.1068 20.6665C25.0874 20.6033 25.0712 20.5369 25.0598 20.4672C25.0485 20.3976 25.0355 20.3392 25.0242 20.2923L24.7342 17.749H25.5588L25.7839 19.8662L27.0993 17.749Z" fill="white"/>
<path d="M31 17.749C30.9757 17.8041 30.9384 17.877 30.8866 17.9661C30.8348 18.0552 30.7797 18.1427 30.7214 18.2301C30.6614 18.3176 30.6047 18.3921 30.5497 18.4553C30.4946 18.5185 30.4541 18.5509 30.4314 18.5509H28.967L28.6997 19.4823L29.1501 18.9364H30.2467L29.5648 19.7366H28.622L28.5151 20.093H30.3358C30.3326 20.1011 30.3245 20.1173 30.3115 20.1432C30.3002 20.1692 30.2872 20.1951 30.2727 20.2226C30.2581 20.2501 30.2467 20.2761 30.2338 20.3004C30.2224 20.3247 30.2143 20.3376 30.2095 20.3425C30.1819 20.3895 30.1431 20.4445 30.0945 20.5077C30.0443 20.5709 29.9973 20.6308 29.9487 20.6891C29.9017 20.7458 29.8596 20.7944 29.824 20.8349C29.7883 20.8738 29.7689 20.8949 29.764 20.8949H27.3747L28.2931 17.7523H31V17.749Z" fill="white"/>
</svg>
