<svg width="88" height="110" viewBox="0 0 88 110" fill="none" xmlns="http://www.w3.org/2000/svg">
<path fill-rule="evenodd" clip-rule="evenodd" d="M0 30.5502V49.4121C0 85.5789 23.5238 99.2801 40.8331 108.234L43.9999 109.873L47.1667 108.234C64.476 99.2801 87.9998 85.5789 87.9998 49.4121V30.5502C82.4817 30.5502 77.7379 27.9925 74.7045 23.3823C71.6711 18.7713 71.1987 13.4017 73.3816 8.33238C71.078 7.4626 68.7108 6.62222 66.2936 5.81837C58.3743 3.18521 50.7924 1.23913 43.9999 0C37.2073 1.23913 29.6255 3.18521 21.7061 5.81837C19.2882 6.62222 16.9218 7.4626 14.6182 8.33238C16.8011 13.4017 16.3286 18.7713 13.2952 23.3823C10.2611 27.9925 5.51726 30.5502 0 30.5502ZM22.4939 12.5526C22.9894 17.5671 21.7522 22.5944 18.8347 27.029C15.8427 31.5765 11.5856 34.745 6.63135 36.2288V49.4121C6.63135 62.6383 10.0062 74.6181 18.8848 84.6242C25.8234 92.4434 34.7068 97.597 43.8792 102.343L43.9999 102.406L44.1206 102.343C53.293 97.5977 62.1763 92.4442 69.115 84.6242C77.9944 74.6181 81.3692 62.6383 81.3692 49.4121V36.2288C76.4149 34.745 72.1579 31.5765 69.1666 27.029C66.2484 22.5944 65.0112 17.5671 65.5067 12.5526C65.0723 12.4048 64.638 12.2587 64.2028 12.1141C57.6136 9.9226 50.8305 8.06073 44.0007 6.74931C37.1708 8.06073 30.3878 9.9234 23.7985 12.1141C23.3626 12.2579 22.9282 12.4048 22.4939 12.5526Z" fill="#B3B3B3"/>
</svg>
