<svg width="57" height="50" viewBox="0 0 57 50" fill="none" xmlns="http://www.w3.org/2000/svg">
<mask id="mask0_138_45788" style="mask-type:alpha" maskUnits="userSpaceOnUse" x="-58" y="-14" width="173" height="81">
<path d="M-57.7231 -4.76162C-57.7231 -9.36404 -53.9921 -13.095 -49.3897 -13.095H105.77C110.373 -13.095 114.104 -9.36403 114.104 -4.76162V66.6676H-57.7231V-4.76162Z" fill="#DFE39D"/>
</mask>
<g mask="url(#mask0_138_45788)">
</g>
<g clip-path="url(#clip0_138_45788)">
<path d="M54.0301 29.1674C53.8735 29.1674 53.7135 29.1384 53.5587 29.0789L48.2008 26.996C47.6071 26.7641 47.337 26.1508 47.5969 25.6227C47.8566 25.0963 48.5501 24.8567 49.1437 25.0872L54.5034 27.17C55.0971 27.4019 55.3688 28.0169 55.1073 28.5432C54.9146 28.9339 54.4827 29.1674 54.0301 29.1674Z" fill="#434A54"/>
<path d="M2.34924 29.1673C1.89752 29.1673 1.46651 28.9338 1.27302 28.5432C1.01237 28.0167 1.28337 27.4018 1.87781 27.1699L7.23586 25.0871C7.83029 24.8567 8.52284 25.0963 8.7835 25.6227C9.04416 26.1506 8.77315 26.764 8.1796 26.996L2.82077 29.0789C2.6676 29.1383 2.50671 29.1673 2.34924 29.1673Z" fill="#434A54"/>
<path d="M22.1337 18.7501C22.1337 19.9006 19.5045 20.8329 16.2604 20.8329C13.0171 20.8329 10.388 19.9006 10.388 18.7501C10.388 17.5996 13.0171 16.6657 16.2604 16.6657C19.5045 16.6657 22.1337 17.5996 22.1337 18.7501Z" fill="#FFCE54"/>
<path d="M16.2604 21.8748C14.5458 21.8748 12.9165 21.6307 11.6715 21.1896C9.53288 20.4312 9.21286 19.3357 9.21286 18.7498C9.21286 18.1638 9.53288 17.0682 11.6715 16.3083C12.9165 15.8673 14.5458 15.6247 16.2604 15.6247C17.975 15.6247 19.6053 15.8673 20.8501 16.3083C22.9888 17.0682 23.308 18.1638 23.308 18.7498C23.308 19.3357 22.9889 20.4313 20.8501 21.1896C19.6052 21.6307 17.9749 21.8748 16.2604 21.8748ZM11.5915 18.7498C11.8943 19.09 13.504 19.7904 16.2603 19.7904C19.0176 19.7904 20.6272 19.09 20.9301 18.7498C20.6272 18.408 19.0176 17.7076 16.2603 17.7076C13.504 17.7076 11.8943 18.408 11.5915 18.7498Z" fill="#F6BB42"/>
<path d="M33.8785 18.7501C33.8785 19.9006 31.2493 20.8329 28.0069 20.8329C24.7627 20.8329 22.1336 19.9006 22.1336 18.7501C22.1336 17.5996 24.7627 16.6657 28.0069 16.6657C31.2493 16.6657 33.8785 17.5996 33.8785 18.7501Z" fill="#FFCE54"/>
<path d="M28.0069 21.8748C26.2923 21.8748 24.662 21.6307 23.4171 21.1896C21.2785 20.4312 20.9592 19.3357 20.9592 18.7498C20.9592 18.1638 21.2784 17.0682 23.4171 16.3083C24.662 15.8673 26.2922 15.6247 28.0069 15.6247C29.7215 15.6247 31.3508 15.8673 32.5949 16.3083C34.7354 17.0682 35.0554 18.1638 35.0554 18.7498C35.0554 19.3357 34.7354 20.4313 32.5949 21.1896C31.3508 21.6307 29.7215 21.8748 28.0069 21.8748ZM23.3372 18.7498C23.64 19.09 25.2497 19.7904 28.0069 19.7904C30.7641 19.7904 32.3729 19.09 32.6757 18.7498C32.3729 18.408 30.7641 17.7076 28.0069 17.7076C25.2497 17.7076 23.64 18.408 23.3372 18.7498Z" fill="#F6BB42"/>
<path d="M45.6268 18.7501C45.6268 19.9006 42.9959 20.8329 39.7525 20.8329C36.5094 20.8329 33.8785 19.9006 33.8785 18.7501C33.8785 17.5996 36.5094 16.6657 39.7525 16.6657C42.9959 16.6657 45.6268 17.5996 45.6268 18.7501Z" fill="#FFCE54"/>
<path d="M39.7525 21.8748C38.0388 21.8748 36.4078 21.6307 35.1637 21.1896C33.025 20.4312 32.7049 19.3357 32.7049 18.7498C32.7049 18.1638 33.025 17.0682 35.1637 16.3083C36.4078 15.8673 38.0388 15.6247 39.7525 15.6247C41.4662 15.6247 43.0974 15.8673 44.3414 16.3083C46.4802 17.0682 46.8002 18.1638 46.8002 18.7498C46.8002 19.3357 46.4802 20.4313 44.3414 21.1896C43.0974 21.6307 41.4663 21.8748 39.7525 21.8748ZM35.0829 18.7498C35.3857 19.09 36.9961 19.7904 39.7525 19.7904C42.5089 19.7904 44.1194 19.09 44.4223 18.7498C44.1194 18.408 42.5089 17.7076 39.7525 17.7076C36.9961 17.7076 35.3857 18.408 35.0829 18.7498Z" fill="#F6BB42"/>
<path d="M39.7525 15.1485C39.7525 16.299 37.1235 17.2314 33.8785 17.2314C30.6367 17.2314 28.0069 16.299 28.0069 15.1485C28.0069 13.9981 30.6367 13.0657 33.8785 13.0657C37.1235 13.0657 39.7525 13.9981 39.7525 15.1485Z" fill="#FFCE54"/>
<path d="M33.8784 18.2738C32.1647 18.2738 30.5352 18.0313 29.2904 17.5887C27.1518 16.8302 26.8316 15.7347 26.8316 15.1487C26.8316 14.5628 27.1516 13.4672 29.2904 12.7089C30.5352 12.2664 32.1647 12.0237 33.8784 12.0237C35.5939 12.0237 37.2232 12.2663 38.469 12.7089C40.6077 13.4673 40.926 14.5628 40.926 15.1487C40.926 15.7347 40.6077 16.8303 38.469 17.5887C37.2232 18.0313 35.5939 18.2738 33.8784 18.2738ZM29.2105 15.1487C29.5133 15.489 31.122 16.191 33.8785 16.191C36.6366 16.191 38.2454 15.489 38.5482 15.1487C38.2454 14.8085 36.6366 14.1066 33.8785 14.1066C31.122 14.1066 29.5133 14.8085 29.2105 15.1487Z" fill="#F6BB42"/>
<path d="M28.0069 15.1485C28.0069 16.299 25.377 17.2314 22.1336 17.2314C18.8902 17.2314 16.2603 16.299 16.2603 15.1485C16.2603 13.9981 18.8902 13.0657 22.1336 13.0657C25.377 13.0657 28.0069 13.9981 28.0069 15.1485Z" fill="#FFCE54"/>
<path d="M22.1338 18.2738C20.4192 18.2738 18.7897 18.0313 17.5449 17.5887C15.4054 16.8302 15.0861 15.7347 15.0861 15.1487C15.0861 14.5628 15.4052 13.4672 17.5449 12.7089C18.7897 12.2664 20.4192 12.0237 22.1338 12.0237C23.8483 12.0237 25.4778 12.2663 26.7226 12.7089C28.8621 13.4673 29.1814 14.5628 29.1814 15.1487C29.1814 15.7347 28.8623 16.8303 26.7226 17.5887C25.4777 18.0313 23.8483 18.2738 22.1338 18.2738ZM17.4648 15.1487C17.7677 15.489 19.3764 16.191 22.1336 16.191C24.8909 16.191 26.4996 15.489 26.8024 15.1487C26.4996 14.8085 24.8909 14.1066 22.1336 14.1066C19.3764 14.1066 17.7677 14.8085 17.4648 15.1487Z" fill="#F6BB42"/>
<path d="M33.8785 11.5227C33.8785 12.6732 31.2493 13.6056 28.0069 13.6056C24.7627 13.6056 22.1336 12.6732 22.1336 11.5227C22.1336 10.3723 24.7627 9.43835 28.0069 9.43835C31.2493 9.43835 33.8785 10.3723 33.8785 11.5227Z" fill="#FFCE54"/>
<path d="M28.0069 14.6483C26.2923 14.6483 24.662 14.4043 23.4171 13.9633C21.2785 13.2048 20.9592 12.1093 20.9592 11.5233C20.9592 10.9374 21.2784 9.84184 23.4171 9.08195C24.662 8.64092 26.2922 8.39833 28.0069 8.39833C29.7215 8.39833 31.3508 8.64092 32.5949 9.08195C34.7354 9.84184 35.0554 10.9374 35.0554 11.5233C35.0554 12.1093 34.7354 13.2049 32.5949 13.9633C31.3508 14.4043 29.7215 14.6483 28.0069 14.6483ZM23.3372 11.5233C23.64 11.8636 25.2497 12.564 28.0069 12.564C30.7641 12.564 32.3729 11.8636 32.6757 11.5233C32.3729 11.1815 30.7641 10.4812 28.0069 10.4812C25.2497 10.4812 23.64 11.1815 23.3372 11.5233Z" fill="#F6BB42"/>
<path d="M54.0302 12.5C54.0302 13.0753 53.5053 13.5407 52.8568 13.5407C52.2081 13.5407 51.6834 13.0752 51.6834 12.5C51.6834 11.9248 52.2082 11.4578 52.8568 11.4578C53.5054 11.4578 54.0302 11.9247 54.0302 12.5Z" fill="#A0D468"/>
<path d="M32.8874 1.04056C32.8874 1.61587 32.3626 2.08278 31.7139 2.08278C31.0653 2.08278 30.5405 1.61587 30.5405 1.04056C30.5405 0.465347 31.0653 0 31.7139 0C32.3626 0 32.8874 0.465347 32.8874 1.04056Z" fill="#AC92EB"/>
<path d="M18.7931 6.25013C18.7931 6.82544 18.2675 7.29069 17.6187 7.29069C16.97 7.29069 16.4444 6.82534 16.4444 6.25013C16.4444 5.67491 16.9701 5.20791 17.6187 5.20791C18.2675 5.20791 18.7931 5.67482 18.7931 6.25013Z" fill="#48CFAD"/>
<path d="M48.1595 2.16391V1.12325C48.1595 0.548039 47.633 0.0811292 46.9826 0.0811292C46.3356 0.0811292 45.8092 0.548039 45.8092 1.12325V2.16391C45.1604 2.16391 44.6357 2.63082 44.6357 3.20613C44.6357 3.78144 45.1605 4.24835 45.8092 4.24835V5.28901C45.8092 5.86432 46.3356 6.33123 46.9826 6.33123C47.6329 6.33123 48.1595 5.86432 48.1595 5.28901V4.24835C48.8064 4.24835 49.3329 3.78144 49.3329 3.20613C49.3329 2.63082 48.8064 2.16391 48.1595 2.16391Z" fill="#FC6E51"/>
<path d="M5.87308 8.33266V7.29044C5.87308 6.71522 5.34659 6.24988 4.69797 6.24988C4.04925 6.24988 3.52353 6.71532 3.52353 7.29044V8.33266C2.87492 8.33266 2.3492 8.79957 2.3492 9.37488C2.3492 9.95019 2.87481 10.4155 3.52353 10.4155V11.4577C3.52353 12.033 4.04914 12.4999 4.69797 12.4999C5.34659 12.4999 5.87308 12.033 5.87308 11.4577V10.4155C6.5218 10.4155 7.04741 9.9501 7.04741 9.37488C7.04741 8.79967 6.52169 8.33266 5.87308 8.33266Z" fill="#ED5564"/>
<path d="M50.3534 30.2963C49.8079 26.5121 48.5587 23.6907 48.5037 23.5732C48.3281 23.1765 47.8946 22.9156 47.4128 22.9156H8.96678C8.48589 22.9156 8.05311 23.1765 7.87592 23.5732C7.82263 23.6907 6.57264 26.5121 6.0271 30.2963C5.70445 32.5364 5.69674 34.6527 6.00475 36.586C6.397 39.0458 7.30297 41.2171 8.69754 43.0406C12.2325 47.658 18.7906 50.0002 28.1902 50.0002C37.5898 50.0002 44.147 47.6581 47.6829 43.0406C49.0784 41.2171 49.9835 39.0458 50.3757 36.586C50.6837 34.6528 50.6751 32.5364 50.3534 30.2963Z" fill="#656D78"/>
<path opacity="0.1" d="M50.3534 30.2963C49.8079 26.5121 48.5587 23.6907 48.5037 23.5732C48.3281 23.1765 47.8946 22.9156 47.4128 22.9156H45.0642C45.5443 22.9156 45.9779 23.1765 46.1569 23.5732C46.2085 23.6907 47.4576 26.5121 48.0047 30.2963C48.3282 32.5364 48.3351 34.6527 48.0254 36.586C47.6348 39.0458 46.7282 41.2171 45.3344 43.0406C41.9481 47.4626 35.7884 49.7973 27.0159 49.9865C27.4023 49.9956 27.7936 50.0002 28.1903 50.0002C37.5899 50.0002 44.1472 47.6581 47.683 43.0406C49.0785 41.2171 49.9836 39.0458 50.3758 36.586C50.6837 34.6528 50.6751 32.5364 50.3534 30.2963Z" fill="white"/>
<path d="M48.1595 18.7496H8.2218C6.27927 18.7496 4.69804 20.1504 4.69804 21.8746C4.69804 23.5973 6.27927 24.9996 8.2218 24.9996H48.1595C50.1004 24.9996 51.6834 23.5973 51.6834 21.8746C51.6834 20.1504 50.1004 18.7496 48.1595 18.7496Z" fill="#434A54"/>
<path d="M29.361 34.3763H23.7485L23.6745 34.3839C21.0256 34.6845 19.4779 35.5665 19.0753 37.0069C18.7235 38.2642 19.1527 39.0989 19.576 39.578C20.2574 40.3518 21.3242 40.6752 22.1251 40.8111C22.1776 41.0475 22.2533 41.3115 22.3634 41.577C22.8977 42.871 24.0057 43.6141 25.4029 43.6141C25.4037 43.6141 25.4037 43.6141 25.4037 43.6141C25.7307 43.6141 26.0765 43.5729 26.4317 43.492C28.0414 43.1288 29.0246 41.7586 29.3542 39.4178L29.3637 39.3521L29.361 34.3763Z" fill="#8CC153"/>
<path d="M37.2938 36.975C36.8827 35.5467 35.3375 34.6754 32.6982 34.384L32.6259 34.3748L29.3619 34.3764V31.4787L29.3525 31.4131C29.0153 29.0648 28.0199 27.6915 26.3956 27.3344C26.0472 27.2581 25.7082 27.2183 25.3873 27.2183C24.5407 27.2183 23.7898 27.4885 23.216 27.9981C22.544 28.5947 22.2421 29.4094 22.1062 30.0382C21.307 30.1786 20.2436 30.5066 19.5666 31.2833C19.1468 31.7656 18.7217 32.6017 19.0822 33.8591C19.4927 35.2857 21.0387 36.1586 23.678 36.45L23.7512 36.4592L27.0143 36.4576V39.3537L27.0237 39.4193C27.3618 41.7692 28.3563 43.141 29.9797 43.4996C30.3289 43.5759 30.6679 43.6141 30.9879 43.6141C31.8345 43.6141 32.5864 43.3455 33.161 42.8344C33.8337 42.2392 34.1349 41.4244 34.2708 40.7958C35.0692 40.6554 36.1325 40.3259 36.8104 39.5506C37.2302 39.0685 37.6535 38.2307 37.2938 36.975Z" fill="#A0D468"/>
<path d="M36.8001 31.2547C36.1188 30.4826 35.052 30.1591 34.2502 30.0233C34.1986 29.7852 34.1229 29.5228 34.0128 29.2559C33.4794 27.9619 32.3713 27.2203 30.9741 27.2203C30.6472 27.2203 30.2996 27.2615 29.9444 27.3408C28.3347 27.704 27.3515 29.0758 27.0219 31.4164L27.0124 31.4805L27.0149 36.458H32.6275L32.7015 36.4488C35.3512 36.1498 36.898 35.2677 37.3023 33.8273C37.6535 32.5701 37.2233 31.7338 36.8001 31.2547Z" fill="#8CC153"/>
</g>
<defs>
<clipPath id="clip0_138_45788">
<rect width="56.3289" height="49.9545" fill="white" transform="scale(1.00092)"/>
</clipPath>
</defs>
</svg>
