<svg width="22" height="22" viewBox="0 0 22 22" fill="none" xmlns="http://www.w3.org/2000/svg">
<path d="M20.1391 16.8022C20.1391 17.1322 20.0657 17.4714 19.9099 17.8014C19.7541 18.1314 19.5524 18.4431 19.2866 18.7364C18.8374 19.2314 18.3424 19.5889 17.7833 19.818C17.2333 20.0472 16.6374 20.1664 15.9958 20.1664C15.0608 20.1664 14.0616 19.9464 13.0074 19.4972C11.9533 19.0481 10.8991 18.4431 9.85413 17.6822C8.79996 16.9122 7.8008 16.0597 6.84747 15.1156C5.90331 14.1622 5.05081 13.1631 4.28998 12.1181C3.53832 11.0731 2.93332 10.0281 2.49333 8.99226C2.05333 7.94727 1.83333 6.9481 1.83333 5.99477C1.83333 5.37144 1.94333 4.77561 2.16333 4.22562C2.38333 3.66645 2.73166 3.15312 3.21749 2.69479C3.80415 2.11729 4.44582 1.83313 5.12415 1.83313C5.38081 1.83313 5.63748 1.88813 5.86664 1.99813C6.10498 2.10812 6.31581 2.27312 6.48081 2.51146L8.60746 5.50894C8.77246 5.73811 8.89163 5.94894 8.97413 6.15061C9.05663 6.34311 9.10246 6.53561 9.10246 6.70977C9.10246 6.92977 9.0383 7.14977 8.90996 7.3606C8.7908 7.57143 8.61663 7.79143 8.39663 8.01143L7.69997 8.7356C7.59914 8.83643 7.5533 8.95559 7.5533 9.10226C7.5533 9.17559 7.56247 9.23976 7.5808 9.31309C7.6083 9.38643 7.6358 9.44143 7.65414 9.49643C7.81914 9.79892 8.1033 10.1931 8.50663 10.6698C8.91913 11.1464 9.35913 11.6322 9.83579 12.1181C10.3308 12.6039 10.8075 13.0531 11.2933 13.4656C11.7699 13.8689 12.1641 14.1439 12.4758 14.3089C12.5216 14.3272 12.5766 14.3547 12.6408 14.3822C12.7141 14.4097 12.7874 14.4189 12.8699 14.4189C13.0258 14.4189 13.1449 14.3639 13.2458 14.2631L13.9424 13.5756C14.1716 13.3464 14.3916 13.1722 14.6024 13.0622C14.8133 12.9339 15.0241 12.8697 15.2533 12.8697C15.4274 12.8697 15.6108 12.9064 15.8124 12.9889C16.0141 13.0714 16.2249 13.1906 16.4541 13.3464L19.4882 15.5006C19.7266 15.6656 19.8916 15.8581 19.9924 16.0872C20.0841 16.3164 20.1391 16.5456 20.1391 16.8022Z" stroke="white" stroke-width="1.5" stroke-miterlimit="10"/>
</svg>
