<svg width="63" height="45" viewBox="0 0 63 45" fill="none" xmlns="http://www.w3.org/2000/svg">
<path d="M47.6572 23.9756C47.6572 23.9756 53.4065 24.2086 53.7161 24.2743C54.0256 24.3399 53.0906 26.2428 51.7319 27.4014C50.9009 28.1011 49.8988 28.5673 48.8283 28.7523C48.6146 27.1219 48.2218 25.52 47.6572 23.9756Z" fill="url(#paint0_linear_387_44797)"/>
<path d="M47.4571 23.5753C47.4571 23.5753 52.3714 23.544 53.7114 24.2727C53.7114 24.2727 50.0823 25.1295 47.7698 24.2195L47.4571 23.5753Z" fill="#FF8B3E"/>
<g style="mix-blend-mode:multiply" opacity="0.3">
<path d="M53.6145 24.4752C53.6145 24.2828 51.3129 24.9755 50.8438 25.0615C50.3747 25.1475 50.4467 27.5914 50.6499 27.8634C50.8532 28.1355 53.5769 25.948 53.6145 24.4752Z" fill="#BE2F55"/>
</g>
<g style="mix-blend-mode:soft-light" opacity="0.5">
<path d="M47.8746 24.5803C47.8746 24.5803 48.869 25.4387 49.2427 26.6692C49.3509 27.031 49.3764 27.4124 49.3174 27.7853C49.2584 28.1582 49.1164 28.5131 48.9018 28.8238C48.6882 27.3812 48.3444 25.9609 47.8746 24.5803Z" fill="white"/>
</g>
<path d="M16.2077 23.9756C16.2077 23.9756 10.4585 24.2086 10.1489 24.2743C9.8393 24.3399 10.7743 26.2428 12.1331 27.4014C12.9653 28.1005 13.9685 28.5656 15.0397 28.7492C15.2527 27.12 15.6444 25.5191 16.2077 23.9756Z" fill="url(#paint1_linear_387_44797)"/>
<path d="M16.4077 23.5753C16.4077 23.5753 11.4934 23.544 10.1534 24.2727C10.1534 24.2727 13.7825 25.1295 16.095 24.2195L16.4077 23.5753Z" fill="#FF8B3E"/>
<g style="mix-blend-mode:multiply" opacity="0.3">
<path d="M10.2504 24.4752C10.2504 24.2828 12.552 24.9755 13.021 25.0615C13.4901 25.1475 13.4182 27.5914 13.2149 27.8634C13.0116 28.1355 10.2863 25.948 10.2504 24.4752Z" fill="#BE2F55"/>
</g>
<g style="mix-blend-mode:soft-light" opacity="0.5">
<path d="M15.9935 24.5803C15.9935 24.5803 14.9991 25.4387 14.6254 26.6692C14.5172 27.031 14.4916 27.4124 14.5506 27.7853C14.6096 28.1582 14.7517 28.5131 14.9662 28.8238C15.1798 27.3812 15.5236 25.9609 15.9935 24.5803Z" fill="white"/>
</g>
<mask id="mask0_387_44797" style="mask-type:luminance" maskUnits="userSpaceOnUse" x="10" y="23" width="44" height="6">
<path d="M51.7319 27.3977C50.9356 28.0656 49.9838 28.5221 48.9644 28.7251C48.9253 28.7892 48.8987 28.8236 48.8987 28.8236C48.8987 28.8236 48.8987 28.7924 48.8878 28.7392L48.8284 28.7486C48.6144 27.1192 48.2216 25.5184 47.6572 23.975L47.4571 23.5763C47.4571 23.5763 52.3714 23.545 53.7114 24.2736C54.0272 24.3393 53.0891 26.2422 51.7319 27.3977ZM10.1409 24.2705C9.82818 24.3362 10.7663 26.2391 12.1251 27.3977C12.9214 28.0656 13.8732 28.5221 14.8926 28.7251C14.9317 28.7892 14.9583 28.8236 14.9583 28.8236C14.9583 28.8236 14.9583 28.7924 14.9692 28.7392L15.0286 28.7486C15.2426 27.1192 15.6353 25.5184 16.1997 23.975L16.3999 23.5763C16.3999 23.5763 11.4934 23.545 10.1487 24.2736L10.1409 24.2705Z" fill="white"/>
</mask>
<g mask="url(#mask0_387_44797)">
<g style="mix-blend-mode:multiply" opacity="0.2">
<path fill-rule="evenodd" clip-rule="evenodd" d="M-0.977453 10.8791C-0.977453 10.8791 2.61876 9.53757 19.9556 9.62825C37.2925 9.71894 49.0803 11.1308 51.9354 14.05C54.7905 16.9692 51.5648 21.4317 36.9251 23.6191C22.2854 25.8065 1.04894 26.0176 1.04894 26.0176L0.981707 25.4657C0.981707 25.4657 25.0842 25.88 37.4895 23.2767C49.8949 20.6733 52.7469 15.2368 49.8934 13.348C47.0398 11.4592 16.5299 7.38452 -0.688196 11.8688L-0.977453 10.8791Z" fill="url(#paint2_linear_387_44797)"/>
<path fill-rule="evenodd" clip-rule="evenodd" d="M1.38028 27.8642C1.38028 27.8642 43.664 24.945 57.278 20.2167L57.07 21.1768C57.07 21.1768 28.3519 26.8197 1.38028 28.3692V27.8642Z" fill="url(#paint3_linear_387_44797)"/>
<path fill-rule="evenodd" clip-rule="evenodd" d="M1.80716 30.5908C1.80716 30.5908 44.5036 30.2312 56.3946 24.2911L56.2586 24.9166C56.2586 24.9166 42.288 30.203 1.86501 31.0145L1.80716 30.5908Z" fill="url(#paint4_linear_387_44797)"/>
<path fill-rule="evenodd" clip-rule="evenodd" d="M2.77655 38.4562C2.77655 38.4562 37.3503 28.4337 56.5525 32.7195L56.2069 34.3878C56.2069 34.3878 48.622 30.9964 27.3387 33.8015C6.05536 36.6065 3.93829 39.9948 3.93829 39.9948L2.95167 39.9807L2.77655 38.4562Z" fill="url(#paint5_linear_387_44797)"/>
<path fill-rule="evenodd" clip-rule="evenodd" d="M-0.0754611 14.5219C-0.0754611 14.5219 12.6254 10.1814 29.3291 10.8788C46.0327 11.5761 48.5235 14.8643 48.4813 16.8782C48.439 18.8921 34.4388 25.3887 0.725087 24.8743L0.768862 24.6022C0.768862 24.6022 19.1283 25.0713 33.3646 22.3554C47.601 19.6394 48.7283 16.4904 46.4017 14.3155C44.0751 12.1406 22.8653 8.38955 -0.0754611 14.5219Z" fill="url(#paint6_linear_387_44797)"/>
<path fill-rule="evenodd" clip-rule="evenodd" d="M32.0247 27.019C32.0247 27.019 40.3773 26.7063 46.3314 25.2162L32.0247 27.019Z" fill="url(#paint7_linear_387_44797)"/>
</g>
<path opacity="0.4" fill-rule="evenodd" clip-rule="evenodd" d="M1.38028 28.3647C1.38028 28.3647 17.8963 27.2921 32.8362 25.139C32.8362 25.139 23.1358 27.106 1.38028 28.3647Z" fill="#D9772F"/>
<path fill-rule="evenodd" clip-rule="evenodd" d="M18.9173 28.742L19.7272 28.3636H21.8693L18.9173 28.742Z" fill="#801B34"/>
<path fill-rule="evenodd" clip-rule="evenodd" d="M18.9173 28.742L20.3933 28.9077L21.8693 28.3636L18.9173 28.742Z" fill="#DC634F"/>
<path fill-rule="evenodd" clip-rule="evenodd" d="M50.7016 25.6244L51.3004 25.3383H51.6178L51.3004 25.7105L50.7016 25.6244Z" fill="#801B34"/>
<path fill-rule="evenodd" clip-rule="evenodd" d="M51.0221 25.6697L51.3989 25.5962L51.3004 25.7104L51.0221 25.6697Z" fill="#F2774F"/>
</g>
<path d="M39.7627 12.8951C44.0376 14.615 43.8953 8.25441 44.4535 7.57894C45.0117 6.90348 58.7867 3.22127 59.4638 3.11026C60.1408 2.99924 57.6766 12.4917 56.8948 13.7253C56.113 14.959 45.5448 17.7437 45.5448 17.7437C45.5448 17.7437 43.6435 14.9058 39.7627 12.8951Z" fill="url(#paint8_linear_387_44797)"/>
<path d="M39.4423 12.7238C39.4423 12.7238 42.8931 12.8036 43.2559 7.32794C43.2559 7.32794 53.0329 3.92092 54.8764 3.3893C56.7198 2.85769 59.4576 3.11099 59.4576 3.11099L44.7929 7.66411C44.7929 7.66411 44.2065 14.4234 40.2679 13.1116L39.4423 12.7238Z" fill="#FF8B3E"/>
<path d="M43.2559 7.32827L44.7929 7.66444C44.7929 7.66444 44.5912 14.7552 40.2679 13.1119L39.4423 12.7242C39.4423 12.7242 43.1996 12.3849 43.2559 7.32827Z" fill="url(#paint9_linear_387_44797)"/>
<path d="M42.6319 14.7542C42.6319 14.7542 45.8262 13.5581 46.0217 8.78138C46.0217 8.78138 57.4186 5.20706 57.7813 5.18517C58.1441 5.16328 56.8244 9.3771 56.8244 9.3771L56.2725 9.5616C56.2725 9.5616 57.4983 6.3297 57.2794 5.85594C57.0605 5.38218 46.4126 9.03937 46.4126 9.03937C46.4126 9.03937 46.4126 13.8161 42.9727 15.0419L42.6319 14.7542Z" fill="url(#paint10_linear_387_44797)"/>
<g style="mix-blend-mode:multiply" opacity="0.66">
<path d="M46.0156 8.88952C46.0156 8.88952 46.6645 8.9036 49.7526 7.91386C52.8406 6.92411 57.2562 5.31988 57.2562 5.31988C57.2562 5.31988 46.2768 8.59244 46.0156 8.88952Z" fill="#BE2F55"/>
</g>
<g style="mix-blend-mode:multiply" opacity="0.78">
<path d="M40.8386 13.551C41.6407 14.0201 42.6617 13.3196 43.7938 12.2798C44.9258 11.24 45.2401 14.4031 45.5215 15.8072C45.8029 17.2113 45.545 17.7445 45.545 17.7445C44.1812 16.1323 42.5968 14.7206 40.8386 13.551Z" fill="#BE2F55"/>
</g>
<path d="M23.6846 12.8951C19.4083 14.615 19.5521 8.25441 18.9939 7.57894C18.4357 6.90348 4.66067 3.22127 3.98364 3.11026C3.30661 2.99924 5.77237 12.4917 6.55415 13.7253C7.33594 14.959 17.9088 17.7422 17.9088 17.7422C17.9088 17.7422 19.8039 14.9058 23.6846 12.8951Z" fill="url(#paint11_linear_387_44797)"/>
<path d="M24.0052 12.7238C24.0052 12.7238 20.5544 12.8036 20.1901 7.32794C20.1901 7.32794 10.413 3.92092 8.56959 3.3893C6.72614 2.85769 3.98833 3.11099 3.98833 3.11099L18.6546 7.66411C18.6546 7.66411 19.241 14.4234 23.1796 13.1116L24.0052 12.7238Z" fill="#FF8B3E"/>
<path d="M20.1901 7.32827L18.6546 7.66444C18.6546 7.66444 18.8548 14.7552 23.1796 13.1119L24.0052 12.7242C24.0052 12.7242 20.2464 12.3849 20.1901 7.32827Z" fill="url(#paint12_linear_387_44797)"/>
<path d="M20.8154 14.7542C20.8154 14.7542 17.621 13.5581 17.4256 8.78138C17.4256 8.78138 6.02712 5.20706 5.66437 5.18517C5.30163 5.16328 6.62285 9.3771 6.62285 9.3771L7.17323 9.5616C7.17323 9.5616 5.94895 6.3297 6.16785 5.85594C6.38675 5.38218 17.0331 9.03937 17.0331 9.03937C17.0331 9.03937 17.0331 13.8161 20.473 15.0419L20.8154 14.7542Z" fill="url(#paint13_linear_387_44797)"/>
<g style="mix-blend-mode:multiply" opacity="0.66">
<path d="M17.4303 8.88952C17.4303 8.88952 16.783 8.9036 13.6933 7.91386C10.6037 6.92411 6.19758 5.31988 6.19758 5.31988C6.19758 5.31988 17.1707 8.59244 17.4303 8.88952Z" fill="#BE2F55"/>
</g>
<g style="mix-blend-mode:multiply" opacity="0.78">
<path d="M22.5244 13.5518C22.5244 13.5518 20.1259 13.3689 18.9282 12.0742C17.7305 10.7796 17.1348 15.4422 17.4209 16.5664C17.7071 17.6906 22.5244 13.5518 22.5244 13.5518Z" fill="#BE2F55"/>
</g>
<mask id="mask1_387_44797" style="mask-type:luminance" maskUnits="userSpaceOnUse" x="3" y="3" width="57" height="15">
<path d="M56.8886 13.7271C56.1068 14.956 45.5386 17.7454 45.5386 17.7454C44.1768 16.1337 42.5945 14.722 40.8385 13.5519C40.9199 13.5988 41.0072 13.6345 41.0981 13.6583C40.6837 13.3956 40.2412 13.1376 39.769 12.8921C39.8191 12.9124 39.866 12.9249 39.9145 12.9437L39.4454 12.7248C40.511 12.5597 41.4717 11.9895 42.1269 11.1331C42.6835 10.3325 43.1401 9.13485 43.2589 7.32892C43.2589 7.32892 53.036 3.9219 54.8794 3.39028C56.7229 2.85867 59.4607 3.11197 59.4607 3.11197C60.1283 2.99939 57.6704 12.4981 56.8886 13.7271ZM21.322 11.1612C20.7654 10.3623 20.3104 9.16299 20.19 7.35863C20.19 7.35863 10.413 3.9516 8.56953 3.41999C6.72608 2.88838 3.98827 3.14011 3.98827 3.14011C3.31749 3.0291 5.77699 12.5215 6.55878 13.7552C7.34056 14.9889 17.9087 17.7751 17.9087 17.7751C18.417 17.0701 18.9931 16.4166 19.6287 15.8238C20.9499 14.9279 22.3884 13.6958 22.5135 13.591C22.8825 13.3612 23.2702 13.136 23.6846 12.9203C23.633 12.9406 23.5876 12.9547 23.5376 12.9734L24.0067 12.7545C22.9401 12.5886 21.9786 12.0179 21.322 11.1612Z" fill="white"/>
</mask>
<g mask="url(#mask1_387_44797)">
<g style="mix-blend-mode:multiply" opacity="0.2">
<path fill-rule="evenodd" clip-rule="evenodd" d="M-14.1994 7.21589C-14.1994 7.21589 3.03587 4.46869 19.8114 5.00812C36.587 5.54756 43.6027 6.41534 65.3677 7.21745C87.1326 8.01956 90.0846 14.6819 90.0846 14.6819L88.9713 17.82C88.9713 17.82 81.3615 9.84581 58.982 7.81317C36.6026 5.78053 30.0231 6.46694 10.7755 6.2496C-8.47202 6.03226 -13.574 8.79822 -13.574 8.79822L-14.1994 7.21589Z" fill="url(#paint14_linear_387_44797)"/>
<path fill-rule="evenodd" clip-rule="evenodd" d="M-12.614 11.2136C-12.614 11.2136 -6.49571 9.53116 23.0042 9.63748C52.5041 9.7438 72.5585 11.5231 77.4165 15.1835C82.2745 18.8438 76.7911 24.4461 51.874 27.1917C26.9569 29.9373 -9.16786 30.2 -9.16786 30.2L-9.28356 29.5074C-9.28356 29.5074 31.7274 30.028 52.8324 26.7617C73.9375 23.4954 78.7877 16.6736 73.9407 14.3047C69.0936 11.9359 17.1752 6.82305 -12.1214 12.4488L-12.614 11.2136Z" fill="url(#paint15_linear_387_44797)"/>
<path fill-rule="evenodd" clip-rule="evenodd" d="M-9.38514 19.3474C-9.38514 19.3474 35.9584 10.2271 61.9012 17.4899C61.9012 17.4899 59.4746 23.458 38.8855 23.458C18.2963 23.458 21.8941 19.08 13.2616 18.0746C4.62916 17.0693 -8.87228 20.6373 -8.87228 20.6373L-9.38514 19.3474Z" fill="url(#paint16_linear_387_44797)"/>
<path fill-rule="evenodd" clip-rule="evenodd" d="M-11.0723 15.784C-11.0723 15.784 10.541 10.3381 38.962 11.2137C67.3831 12.0893 71.6204 16.2172 71.5484 18.7392C71.4765 21.2612 47.6539 29.4168 -9.71039 28.7711L-9.63534 28.4302C-9.63534 28.4302 21.6033 29.0228 45.8261 25.6158C70.049 22.2088 71.9675 18.2561 68.0101 15.5292C64.0527 12.8023 27.9561 8.08971 -11.0723 15.784Z" fill="url(#paint17_linear_387_44797)"/>
</g>
<path style="mix-blend-mode:multiply" opacity="0.2" fill-rule="evenodd" clip-rule="evenodd" d="M30.8315 16.5301C30.8315 16.5301 49.9883 14.0003 56.6429 18.2501C56.6429 18.2501 49.4505 22.1809 36.6777 21.643C23.9048 21.1052 17.072 17.4902 17.072 17.4902C17.072 17.4902 25.7233 21.6164 37.4157 21.1614C49.1081 20.7064 49.7147 15.5623 30.8315 16.5301Z" fill="url(#paint18_linear_387_44797)"/>
<path fill-rule="evenodd" clip-rule="evenodd" d="M6.53361 7.3886L7.04803 7.01959L8.97122 7.3886L8.45525 7.98432H7.18563L6.53361 7.3886Z" fill="#892334"/>
<path fill-rule="evenodd" clip-rule="evenodd" d="M11.512 8.35519L11.7512 8.21134L12.7816 8.51311L12.1233 8.76641L11.512 8.48809V8.35519Z" fill="#892334"/>
<path fill-rule="evenodd" clip-rule="evenodd" d="M6.53361 7.38884L7.17625 7.86729L8.24104 7.93921H8.49589L8.45525 7.98456L7.18563 8.03146L6.53361 7.38884Z" fill="#F2774F"/>
<path fill-rule="evenodd" clip-rule="evenodd" d="M11.512 8.48779L11.9451 8.6457H12.3813L12.7816 8.5128L12.2547 8.7661H12.1233L11.512 8.48779Z" fill="#F2774F"/>
<path fill-rule="evenodd" clip-rule="evenodd" d="M69.2361 9.63456L63.9199 8.76678L56.6337 8.73395C56.6337 8.73395 63.2147 8.92939 69.2361 9.63456Z" fill="#892334"/>
<path fill-rule="evenodd" clip-rule="evenodd" d="M6.63679 3.87866L9.90309 6.0317L7.75162 3.84583L6.63679 3.87866Z" fill="#B64034"/>
<path fill-rule="evenodd" clip-rule="evenodd" d="M7.10592 4.18772L7.51401 4.93824L9.90314 6.03117L7.10592 4.18772Z" fill="#F2774F"/>
</g>
<path d="M17.4741 11.6101C16.3265 11.324 8.22874 9.31789 7.42663 9.24128C7.30936 9.23033 7.18272 9.22251 7.04825 9.21939C6.73554 8.37818 5.99127 6.22984 6.16639 5.84989C6.38686 5.38082 17.0332 9.03489 17.0332 9.03489C17.0585 9.90973 17.207 10.7767 17.4741 11.6101ZM17.7368 12.3059C17.9917 13.4004 18.664 15.4643 20.1244 15.4127L20.4746 15.0359C19.0612 14.5324 18.2278 13.4301 17.7368 12.3059Z" fill="url(#paint19_linear_387_44797)"/>
<g style="mix-blend-mode:multiply" opacity="0.78">
<path d="M6.92628 6.71677C6.92628 6.71677 11.3043 9.3983 19.8226 15.1522L8.14274 10.3833C7.34016 9.33078 6.91203 8.04034 6.92628 6.71677Z" fill="#D9227A"/>
</g>
<g style="mix-blend-mode:screen" opacity="0.6">
<path d="M15.7933 8.61235C15.7933 8.61235 8.03951 6.89242 6.81055 5.86985C6.81055 5.86985 11.8859 7.17855 15.7933 8.61235Z" fill="white"/>
</g>
<path d="M56.2726 9.55437C56.2726 9.55437 57.4985 6.32247 57.2796 5.84871C57.0607 5.37494 46.4128 9.03214 46.4128 9.03214C46.4128 9.03214 46.4128 13.8088 42.9729 15.0347L45.1103 17.5364L56.2726 9.55437Z" fill="url(#paint20_linear_387_44797)"/>
<g style="mix-blend-mode:multiply" opacity="0.78">
<path d="M56.6854 6.87697C56.6854 6.87697 53.3206 9.39901 44.8023 15.153L55.469 10.5498C56.2729 9.49553 56.7011 8.20268 56.6854 6.87697Z" fill="#D9227A"/>
</g>
<g style="mix-blend-mode:screen" opacity="0.6">
<path d="M47.6526 8.61235C47.6526 8.61235 55.4079 6.89242 56.6369 5.86985C56.6306 5.86985 51.5599 7.17855 47.6526 8.61235Z" fill="white"/>
</g>
<path d="M44.2596 16.4055C44.2596 16.4055 46.5628 16.615 47.3602 12.5513C49.5117 11.7132 59.4669 9.23811 59.8047 9.40854C60.2487 9.63213 57.6251 20.0924 56.5775 21.3073C55.6565 22.3752 48.2593 23.4651 48.2593 23.4651L44.2596 16.4055Z" fill="url(#paint21_linear_387_44797)"/>
<path d="M59.8048 9.40849C59.8048 9.40849 57.6158 9.1286 56.4384 9.23962C55.5738 9.32249 46.2564 11.6428 46.2564 11.6428L47.3603 12.5513C47.3603 12.5513 57.2061 9.93854 59.8048 9.40849Z" fill="#FF8B3E"/>
<path d="M46.2563 11.644C46.2563 11.644 45.6574 15.9657 43.359 15.3559L44.2596 16.4066C44.2596 16.4066 47.1506 16.7006 47.3602 12.5524L46.2563 11.644Z" fill="url(#paint22_linear_387_44797)"/>
<path d="M45.1994 18.2627C45.1994 18.2627 49.027 17.3949 49.2818 13.8143C49.2818 13.8143 57.5688 11.9287 57.7939 12.1241C58.0191 12.3196 56.0083 18.86 55.569 19.5871C55.1296 20.3141 47.2695 21.443 47.2695 21.443L46.9256 21.0365C46.9256 21.0365 54.2196 20.0045 55.028 19.2352C55.8363 18.466 57.009 13.3828 57.009 12.9685C57.009 12.5541 50.3013 13.9582 50.0449 14.1661C49.7884 14.3741 48.8128 18.1017 45.5387 18.5238L45.1994 18.2627Z" fill="url(#paint23_linear_387_44797)"/>
<g style="mix-blend-mode:multiply" opacity="0.66">
<path d="M49.2818 13.8142C49.2818 13.8142 48.9331 14.2973 51.5318 13.7673C54.0554 13.2529 57.1481 12.7119 57.4218 12.5164C57.5738 12.416 57.701 12.2823 57.7939 12.1255C57.7939 12.1255 56.7557 12.2037 53.885 12.8041C50.9157 13.4249 49.2818 13.8142 49.2818 13.8142Z" fill="#BE2F55"/>
</g>
<path d="M47.2694 21.4435C47.2445 21.3896 47.2316 21.3309 47.2316 21.2715C47.2316 21.2121 47.2445 21.1535 47.2694 21.0995C47.357 20.9291 52.0883 20.2646 53.3017 19.9816C54.515 19.6986 55.1873 19.8377 55.1873 19.8377C55.1873 19.8377 53.6816 20.3834 51.1424 20.8118C48.5265 21.2528 47.2694 21.4435 47.2694 21.4435Z" fill="#FF8B3E"/>
<g style="mix-blend-mode:soft-light" opacity="0.79">
<path d="M48.3437 23.4503C48.3437 23.4503 54.598 21.871 55.8019 21.2018C57.0059 20.5326 58.1473 17.1553 58.1473 17.1553C58.1473 17.1553 57.3077 20.4904 56.5743 21.3066C55.841 22.1228 48.3437 23.4503 48.3437 23.4503Z" fill="white"/>
</g>
<path d="M49.8197 14.5978C50.1887 14.1069 57.0121 12.9686 57.0121 12.9686C57.0121 12.9686 56.5431 12.7731 53.4159 13.3751C50.2888 13.9771 49.9198 14.3774 49.8197 14.5978Z" fill="#FF8B3E"/>
<g style="mix-blend-mode:multiply" opacity="0.3">
<path d="M54.2165 21.8077C53.1721 21.9516 53.33 20.9665 53.6865 20.6226C54.043 20.2786 55.2501 19.8986 55.5628 19.5859C55.8755 19.2732 56.4665 17.3828 56.6338 17.1546C56.8011 16.9263 57.1373 18.8338 56.7605 19.9236C56.3836 21.0134 55.4377 21.6404 54.2165 21.8077Z" fill="#BE2F55"/>
</g>
<g style="mix-blend-mode:multiply" opacity="0.3">
<path d="M47.3602 12.5516C47.3602 12.5516 47.3383 14.5842 47.9466 15.0642C48.5548 15.5442 49.2662 13.9119 49.2662 13.9119C49.2662 13.9119 51.9681 12.4875 52.2621 11.9856C52.556 11.4836 50.9002 11.4164 47.3602 12.5516Z" fill="#BE2F55"/>
</g>
<path d="M19.6053 16.4055C19.6053 16.4055 17.3006 16.615 16.5048 12.5513C14.3533 11.7132 4.39805 9.23811 4.06031 9.40854C3.61626 9.63213 6.23993 20.0924 7.28752 21.3073C8.2069 22.3752 15.6057 23.4651 15.6057 23.4651L19.6053 16.4055Z" fill="url(#paint24_linear_387_44797)"/>
<path d="M17.6086 11.644L17.5116 11.7237L16.5047 12.5524C16.5047 12.5524 11.8875 11.3281 8.14273 10.3853C6.4228 9.95062 4.87799 9.57692 4.06025 9.40962L4.12435 9.40181C5.09314 9.27993 6.06867 9.21935 7.0451 9.22043C7.17957 9.22043 7.30621 9.23138 7.42348 9.24232C8.22559 9.31894 16.3233 11.325 17.471 11.6111L17.6086 11.644Z" fill="#FF8B3E"/>
<path d="M20.512 15.3549L19.613 16.4056C19.4821 16.4146 19.3507 16.4109 19.2205 16.3947C18.4247 16.3056 16.6735 15.7458 16.5124 12.5514L17.5194 11.7227L17.6163 11.643C17.6163 11.643 17.6523 11.9088 17.743 12.2997C17.9978 13.3942 18.6702 15.4581 20.1305 15.4065C20.2593 15.4046 20.3874 15.3873 20.512 15.3549Z" fill="url(#paint25_linear_387_44797)"/>
<path d="M18.6656 18.2627C18.6656 18.2627 14.838 17.3949 14.5831 13.8143C14.5831 13.8143 6.29617 11.9287 6.07102 12.1241C5.84586 12.3196 7.85661 18.86 8.29598 19.5871C8.73534 20.3141 16.6032 21.443 16.6032 21.443L16.9472 21.0365C16.9472 21.0365 9.65316 20.0045 8.84323 19.2352C8.0333 18.466 6.86375 13.3828 6.86375 12.9685C6.86375 12.5541 13.5715 13.9582 13.8279 14.1661C14.0843 14.3741 15.0397 18.1017 18.3232 18.5238L18.6656 18.2627Z" fill="url(#paint26_linear_387_44797)"/>
<g style="mix-blend-mode:multiply" opacity="0.66">
<path d="M14.5832 13.8142C14.5832 13.8142 14.9318 14.2973 12.3332 13.7673C9.80958 13.2529 6.71683 12.7119 6.44164 12.5164C6.29029 12.4157 6.16362 12.2821 6.07108 12.1255C6.07108 12.1255 7.10929 12.2037 9.98001 12.8041C12.9492 13.4249 14.5832 13.8142 14.5832 13.8142Z" fill="#BE2F55"/>
</g>
<path d="M16.6032 21.4435C16.6281 21.3896 16.641 21.3309 16.641 21.2715C16.641 21.2121 16.6281 21.1535 16.6032 21.0995C16.514 20.9291 11.7842 20.2646 10.5709 19.9816C9.35757 19.6986 8.68523 19.8377 8.68523 19.8377C8.68523 19.8377 10.1909 20.3834 12.7302 20.8118C15.3367 21.2528 16.6032 21.4435 16.6032 21.4435Z" fill="#FF8B3E"/>
<g style="mix-blend-mode:soft-light" opacity="0.79">
<path d="M15.5212 23.4503C15.5212 23.4503 9.26687 21.871 8.06135 21.2018C6.85584 20.5326 5.71599 17.1553 5.71599 17.1553C5.71599 17.1553 6.55563 20.4904 7.28895 21.3066C8.02226 22.1228 15.5212 23.4503 15.5212 23.4503Z" fill="white"/>
</g>
<g style="mix-blend-mode:multiply" opacity="0.3">
<path d="M9.64855 21.8077C10.6914 21.9516 10.5351 20.9665 10.1786 20.6225C9.8221 20.2785 8.61502 19.8986 8.3023 19.5859C7.98959 19.2732 7.39856 17.3828 7.2297 17.1545C7.06083 16.9262 6.72154 18.8369 7.09836 19.9314C7.47518 21.0259 8.4274 21.6404 9.64855 21.8077Z" fill="#BE2F55"/>
</g>
<g style="mix-blend-mode:multiply" opacity="0.3">
<path d="M16.5047 12.5516C16.5047 12.5516 16.5266 14.5842 15.9184 15.0642C15.3102 15.5442 14.5987 13.9119 14.5987 13.9119C14.5987 13.9119 11.8953 12.4875 11.6029 11.9856C11.3105 11.4836 12.9648 11.4164 16.5047 12.5516Z" fill="#BE2F55"/>
</g>
<mask id="mask2_387_44797" style="mask-type:luminance" maskUnits="userSpaceOnUse" x="4" y="9" width="56" height="15">
<path d="M58.1473 17.1638V17.156C58.1473 17.156 57.3076 20.4911 56.5743 21.3073C55.6534 22.3752 48.2561 23.465 48.2561 23.465L45.3979 18.4194L45.1962 18.263L45.2947 18.238L44.2565 16.4055L43.3559 15.3548C45.6543 15.9646 46.2532 11.6429 46.2532 11.6429C46.2532 11.6429 55.5705 9.32254 56.4352 9.23967C57.4937 9.1396 59.3762 9.35693 59.7359 9.39602C59.7581 9.39392 59.7805 9.39659 59.8015 9.40384C60.0846 9.54926 59.1433 13.7646 58.1473 17.1638ZM17.6086 11.6444C17.6086 11.6444 8.28967 9.3241 7.42658 9.24123C6.36804 9.14116 4.48394 9.3585 4.12588 9.39759C4.10368 9.39548 4.08129 9.39815 4.06021 9.40541C3.78033 9.54613 4.7216 13.7615 5.71759 17.1607V17.1529C5.71759 17.1529 6.55723 20.488 7.29055 21.3042C8.20993 22.3721 15.6087 23.4619 15.6087 23.4619L18.467 18.4163L18.6687 18.2599L18.5702 18.2349L19.6084 16.4024L20.509 15.3517C18.2074 15.9646 17.6086 11.6444 17.6086 11.6444Z" fill="white"/>
</mask>
<g mask="url(#mask2_387_44797)">
<g style="mix-blend-mode:multiply" opacity="0.2">
<path fill-rule="evenodd" clip-rule="evenodd" d="M2.01974 9.89882C2.01974 9.89882 13.7215 7.8224 25.1121 8.22893C36.5028 8.63546 41.2654 9.28903 56.0427 9.89882C70.82 10.5086 72.8245 15.5402 72.8245 15.5402L72.0693 17.9121C72.0693 17.9121 66.9095 11.883 51.7069 10.3444C36.5043 8.80589 32.045 9.32812 18.9767 9.16551C5.90835 9.00289 2.44661 11.0934 2.44661 11.0934L2.01974 9.89882Z" fill="url(#paint27_linear_387_44797)"/>
<path fill-rule="evenodd" clip-rule="evenodd" d="M3.09708 12.9205C3.09708 12.9205 7.25305 11.6446 27.2824 11.7291C47.3118 11.8135 60.9273 13.1535 64.2249 15.921C67.5225 18.6885 63.7981 22.9195 46.8834 24.9897C29.9686 27.0599 5.43775 27.2631 5.43775 27.2631L5.35957 26.7393C5.35957 26.7393 33.2052 27.1318 47.5353 24.6629C61.8655 22.194 65.1615 17.0405 61.8639 15.2502C58.5664 13.4599 23.3219 9.59478 3.43012 13.843L3.09708 12.9205Z" fill="url(#paint28_linear_387_44797)"/>
<path fill-rule="evenodd" clip-rule="evenodd" d="M5.2907 19.0666C5.2907 19.0666 36.0743 12.1743 53.6911 17.6593C53.6911 17.6593 52.0446 22.1703 38.0647 22.1703C24.0848 22.1703 26.5271 18.8586 20.6669 18.105C14.8066 17.3513 5.63938 20.0422 5.63938 20.0422L5.2907 19.0666Z" fill="url(#paint29_linear_387_44797)"/>
<path fill-rule="evenodd" clip-rule="evenodd" d="M5.82233 29.0231C5.82233 29.0231 54.6715 26.2556 70.3979 21.7728L70.1571 22.6828C70.1571 22.6828 36.9796 28.0334 5.82076 29.4985L5.82233 29.0231Z" fill="url(#paint30_linear_387_44797)"/>
<path fill-rule="evenodd" clip-rule="evenodd" d="M4.13998 16.3718C4.13998 16.3718 18.8141 12.258 38.1102 12.9194C57.4062 13.5808 60.2847 16.697 60.2363 18.6061C60.1878 20.5153 44.0126 26.6757 5.06406 26.1848L5.11566 25.9268C5.11566 25.9268 26.3255 26.374 42.7712 23.7972C59.2168 21.2204 60.5208 18.2356 57.8346 16.1748C55.1484 14.114 30.6441 10.5584 4.13998 16.3718Z" fill="url(#paint31_linear_387_44797)"/>
</g>
<path style="mix-blend-mode:multiply" opacity="0.2" fill-rule="evenodd" clip-rule="evenodd" d="M32.5938 16.9372C32.5938 16.9372 45.6011 15.0234 50.1198 18.2381C50.1198 18.2381 45.2352 21.2089 36.5637 20.8024C27.8921 20.3959 23.2514 17.6612 23.2514 17.6612C23.2514 17.6612 29.1258 20.7789 37.064 20.4365C45.0023 20.0941 45.4182 16.2039 32.5938 16.9372Z" fill="url(#paint32_linear_387_44797)"/>
<path fill-rule="evenodd" clip-rule="evenodd" d="M3.4833 14.5901L8.59618 16.2788L3.78508 15.4344L3.4833 14.5901Z" fill="#892334"/>
<path fill-rule="evenodd" clip-rule="evenodd" d="M30.1187 22.3259L34.5796 22.6824L40.898 22.0131L30.1187 22.3259Z" fill="#E6774F"/>
<path fill-rule="evenodd" clip-rule="evenodd" d="M30.1187 22.3266L33.8916 22.3485L40.898 22.0139L35.2222 21.6449L30.1187 22.3266Z" fill="#892334"/>
<path fill-rule="evenodd" clip-rule="evenodd" d="M57.1059 21.5867L60.2361 22.5264L57.5077 21.4944L57.1059 21.5867Z" fill="#892334"/>
<path fill-rule="evenodd" clip-rule="evenodd" d="M54.1273 4.8002L58.3974 6.12924L60.5614 8.22912L62.7598 9.47685L59.1871 7.84917L55.1264 6.23556L54.1273 4.8002Z" fill="#A73234"/>
<path fill-rule="evenodd" clip-rule="evenodd" d="M62.7598 9.47685L59.6452 7.84917L54.8513 5.83998L54.1273 4.8002L58.3974 6.12924L60.2362 7.91328L62.7598 9.47685Z" fill="#892334"/>
<path fill-rule="evenodd" clip-rule="evenodd" d="M56.9715 21.5462L59.0604 22.1732L56.1647 21.5759L56.9715 21.5462Z" fill="#DC634F"/>
<path fill-rule="evenodd" clip-rule="evenodd" d="M3.78508 15.4341L3.28317 15.6765L8.59618 16.2784L3.78508 15.4341Z" fill="#E6774F"/>
<path fill-rule="evenodd" clip-rule="evenodd" d="M5.57692 10.8672L6.07726 10.7531L6.63702 10.8094L6.28834 11.0033L5.57692 10.8672Z" fill="#892334"/>
<path fill-rule="evenodd" clip-rule="evenodd" d="M16.0981 10.0288L16.4484 9.74889L17.7539 10.0288L17.4037 10.4791H16.5406L16.0981 10.0288Z" fill="#892334"/>
<path fill-rule="evenodd" clip-rule="evenodd" d="M19.4786 10.759L19.6412 10.6495L20.3417 10.8778L19.8945 11.0686L19.4786 10.8591V10.759Z" fill="#892334"/>
<path fill-rule="evenodd" clip-rule="evenodd" d="M16.0981 10.0283L16.5359 10.3895L17.2583 10.4426H17.4303L17.4037 10.4786L16.5406 10.513L16.0981 10.0283Z" fill="#F2774F"/>
<path fill-rule="evenodd" clip-rule="evenodd" d="M19.4786 10.8586L19.7726 10.9774H20.0696L20.3417 10.8773L19.9836 11.0681H19.8945L19.4786 10.8586Z" fill="#F2774F"/>
<path fill-rule="evenodd" clip-rule="evenodd" d="M5.57692 10.8666L6.01003 11.0026L6.46502 11.0433L6.63702 10.8088L6.34307 10.926L5.57692 10.8666Z" fill="#F2774F"/>
<path fill-rule="evenodd" clip-rule="evenodd" d="M58.671 11.7249L55.0654 11.0682L50.1198 11.0432C50.1198 11.0432 54.5823 11.1917 58.671 11.7249Z" fill="#892334"/>
<path fill-rule="evenodd" clip-rule="evenodd" d="M4.38224 23.286L5.5768 25.6313L8.56479 26.2114L5.65186 26.2724L6.10685 28.3285L6.57592 33.2381C6.57592 33.2381 5.23751 26.0285 4.38224 23.286Z" fill="#982F34"/>
</g>
<path d="M49.1364 26.3418C49.0773 24.4696 48.7074 22.6202 48.0419 20.8693C47.6901 19.9398 47.2552 19.0439 46.7425 18.1925C45.2249 15.6545 43.0726 13.5555 40.4975 12.1019C37.9223 10.6483 35.013 9.89025 32.056 9.9024C29.0989 9.91455 26.196 10.6964 23.6329 12.1712C21.0697 13.6459 18.9348 15.7625 17.4381 18.3129C16.9466 19.1455 16.5281 20.0192 16.1872 20.924C15.5317 22.6585 15.1651 24.4887 15.1021 26.3418C15.0927 26.5373 15.0896 26.7311 15.0896 26.9281C15.068 29.1782 15.4926 31.4103 16.3387 33.4953C17.1849 35.5804 18.4358 37.4771 20.0193 39.0758C21.6028 40.6746 23.4874 41.9436 25.5643 42.8097C27.6411 43.6758 29.869 44.1217 32.1192 44.1217C34.3694 44.1217 36.5973 43.6758 38.6742 42.8097C40.751 41.9436 42.6356 40.6746 44.2191 39.0758C45.8026 37.4771 47.0536 35.5804 47.8997 33.4953C48.7459 31.4103 49.1704 29.1782 49.1489 26.9281C49.1489 26.7374 49.1457 26.5435 49.1364 26.3418ZM32.1169 39.9277C30.4106 39.9277 28.7211 39.5916 27.1448 38.9386C25.5685 38.2856 24.1362 37.3285 22.9298 36.1219C21.7234 34.9154 20.7664 33.483 20.1136 31.9066C19.4608 30.3302 19.125 28.6406 19.1252 26.9344C19.1252 26.7374 19.1252 26.5435 19.1392 26.3481C19.2947 23.0107 20.7299 19.8616 23.1466 17.5548C25.5634 15.248 28.7759 13.9609 32.1169 13.9609C35.4578 13.9609 38.6704 15.248 41.0871 17.5548C43.5039 19.8616 44.9391 23.0107 45.0945 26.3481C45.107 26.5435 45.1086 26.7374 45.1086 26.9344C45.1088 28.6406 44.7729 30.3302 44.1201 31.9066C43.4673 33.483 42.5104 34.9154 41.304 36.1219C40.0976 37.3285 38.6653 38.2856 37.089 38.9386C35.5126 39.5916 33.8231 39.9277 32.1169 39.9277Z" fill="#FF8B3E"/>
<path d="M31.8059 10.842C27.392 10.8418 23.1506 12.5557 19.976 15.6223C16.8015 18.689 14.9419 22.8686 14.7895 27.2798C14.942 31.6912 16.8016 35.8711 19.9763 38.9379C23.151 42.0047 27.3926 43.7189 31.8066 43.7189C36.2207 43.7189 40.4623 42.0047 43.637 38.9379C46.8117 35.8711 48.6713 31.6912 48.8238 27.2798C48.6714 22.8683 46.8116 18.6885 43.6367 15.6218C40.4618 12.5551 36.22 10.8414 31.8059 10.842ZM31.8059 13.7064C35.2519 13.7064 38.5568 15.0754 40.9935 17.5121C43.4302 19.9488 44.7991 23.2537 44.7991 26.6997C44.7991 26.8967 44.7991 27.0906 44.7835 27.2861C44.6281 30.6234 43.1929 33.7726 40.7761 36.0794C38.3594 38.3862 35.1468 39.6733 31.8059 39.6733C28.4649 39.6733 25.2524 38.3862 22.8356 36.0794C20.4189 33.7726 18.9837 30.6234 18.8282 27.2861C18.8173 27.0906 18.8142 26.8967 18.8142 26.6997C18.8139 24.9935 19.1498 23.3039 19.8026 21.7275C20.4554 20.1511 21.4124 18.7187 22.6188 17.5122C23.8252 16.3056 25.2575 15.3485 26.8338 14.6955C28.4101 14.0425 30.0996 13.7064 31.8059 13.7064Z" fill="url(#paint33_linear_387_44797)"/>
<path d="M48.8237 27.2801C48.6712 22.8686 46.8116 18.6888 43.6369 15.622C40.4623 12.5551 36.2207 10.841 31.8066 10.841C27.3925 10.841 23.151 12.5551 19.9763 15.622C16.8016 18.6888 14.942 22.8686 14.7895 27.2801C14.7801 27.474 14.7785 27.6694 14.7785 27.8664C14.7785 32.3828 16.5726 36.7141 19.7662 39.9076C22.9597 43.1012 27.2911 44.8953 31.8074 44.8953C36.3237 44.8953 40.6551 43.1012 43.8486 39.9076C47.0421 36.7141 48.8363 32.3828 48.8363 27.8664C48.8363 27.6757 48.8331 27.4802 48.8237 27.2801ZM18.8266 27.2801C18.9821 23.9427 20.4173 20.7936 22.834 18.4868C25.2508 16.18 28.4633 14.8929 31.8043 14.8929C35.1452 14.8929 38.3578 16.18 40.7745 18.4868C43.1913 20.7936 44.6264 23.9427 44.7819 27.2801C44.7944 27.474 44.7975 27.6694 44.7975 27.8664C44.7975 31.3125 43.4286 34.6173 40.9919 37.0541C38.5552 39.4908 35.2503 40.8597 31.8043 40.8597C28.3582 40.8597 25.0533 39.4908 22.6166 37.0541C20.1799 34.6173 18.811 31.3125 18.811 27.8664C18.8125 27.6757 18.8157 27.4802 18.8266 27.2801Z" fill="url(#paint34_linear_387_44797)"/>
<path d="M17.4303 18.3138C16.9388 19.1465 16.5203 20.0202 16.1795 20.925C14.2907 20.6373 9.48267 19.8524 8.83066 19.2363C8.02855 18.4733 6.85118 13.3839 6.84962 12.9695C6.84962 12.9695 13.6574 14.1031 14.0421 14.5972C14.4564 15.5135 15.3883 17.5946 17.4303 18.3138Z" fill="url(#paint35_linear_387_44797)"/>
<path d="M13.8185 14.1666C13.9116 14.3001 13.9868 14.4452 14.0421 14.5982C13.6621 14.1041 6.84962 12.9705 6.84962 12.9705C6.84962 12.7782 8.3053 12.9705 9.88607 13.2707L10.4443 13.3755L10.893 13.4646C12.3706 13.7601 13.7074 14.0775 13.8185 14.1666Z" fill="url(#paint36_linear_387_44797)"/>
<g style="mix-blend-mode:screen" opacity="0.6">
<path d="M14.0421 14.598C13.6621 14.1039 6.84962 12.9703 6.84962 12.9703C6.84962 12.9703 7.26709 12.7967 9.88607 13.2705L10.4443 13.3753L10.893 13.4644C13.5996 14.0163 13.9451 14.3885 14.0421 14.598Z" fill="white"/>
</g>
<g style="mix-blend-mode:multiply" opacity="0.78">
<path d="M16.6345 19.2778C16.6345 19.2778 13.1477 18.5429 11.3027 17.5923C9.45765 16.6416 7.65173 14.3088 7.65173 14.3088C7.65173 14.3088 8.75874 18.704 9.29661 19.0339C9.83448 19.3638 13.9482 20.2723 14.7894 20.3082C15.8058 20.3489 16.6345 19.2778 16.6345 19.2778Z" fill="#D9227A"/>
</g>
<path d="M57.0091 12.9695C57.0091 13.3839 55.8301 18.4733 55.028 19.2363C54.4167 19.8164 50.1075 20.5482 48.0342 20.8703C47.6824 19.9407 47.2475 19.0448 46.7348 18.1934C48.5689 17.3866 49.4273 15.4666 49.8198 14.5972C50.2013 14.1031 57.0091 12.9695 57.0091 12.9695Z" fill="url(#paint37_linear_387_44797)"/>
<path d="M50.0449 14.1666C49.9518 14.3001 49.8766 14.4452 49.8213 14.5982C50.2012 14.1041 57.0137 12.9705 57.0137 12.9705C57.0137 12.7782 55.5581 12.9705 53.9773 13.2707L53.4191 13.3755L52.9703 13.4646C51.4928 13.7601 50.1559 14.0775 50.0449 14.1666Z" fill="url(#paint38_linear_387_44797)"/>
<g style="mix-blend-mode:screen" opacity="0.6">
<path d="M49.8213 14.598C50.2012 14.1039 57.0137 12.9703 57.0137 12.9703C57.0137 12.9703 56.5963 12.7967 53.9773 13.2705L53.4191 13.3753L52.9703 13.4644C50.2638 14.0163 49.9167 14.3885 49.8213 14.598Z" fill="white"/>
</g>
<g style="mix-blend-mode:multiply" opacity="0.78">
<path d="M47.476 19.2778C47.476 19.2778 50.7157 18.5429 52.5623 17.5923C54.4089 16.6416 56.2133 14.3088 56.2133 14.3088C56.2133 14.3088 55.1047 18.704 54.5684 19.0339C54.0321 19.3638 49.9168 20.2723 49.0756 20.3082C48.0592 20.3489 47.476 19.2778 47.476 19.2778Z" fill="#D9227A"/>
</g>
<path style="mix-blend-mode:screen" d="M21.1643 7.84128C21.7353 4.79333 17.4718 1.43712 11.6416 0.344968C5.81137 -0.747182 0.622186 0.838308 0.0512285 3.88625C-0.519729 6.9342 3.74375 10.2904 9.57397 11.3826C15.4042 12.4747 20.5934 10.8892 21.1643 7.84128Z" fill="url(#paint39_radial_387_44797)"/>
<path style="mix-blend-mode:screen" d="M53.5015 12.3819C59.3195 11.2268 63.5465 7.82462 62.9425 4.78303C62.3386 1.74144 57.1326 0.212201 51.3145 1.36737C45.4965 2.52255 41.2696 5.92469 41.8735 8.96628C42.4774 12.0079 47.6834 13.5371 53.5015 12.3819Z" fill="url(#paint40_radial_387_44797)"/>
<path style="mix-blend-mode:screen" d="M16.394 16.1438C16.9927 12.9481 14.8131 9.85837 11.5258 9.24258C8.23845 8.62678 5.08829 10.7181 4.48967 13.9138C3.89104 17.1094 6.07065 20.1992 9.35794 20.815C12.6452 21.4308 15.7954 19.3394 16.394 16.1438Z" fill="url(#paint41_radial_387_44797)"/>
<path style="mix-blend-mode:screen" d="M59.1934 15.0429C59.792 11.8472 57.6124 8.75746 54.3251 8.14167C51.0378 7.52587 47.8877 9.61725 47.289 12.8129C46.6904 16.0085 48.87 19.0983 52.1573 19.7141C55.4446 20.3299 58.5948 18.2385 59.1934 15.0429Z" fill="url(#paint42_radial_387_44797)"/>
<defs>
<linearGradient id="paint0_linear_387_44797" x1="47.2878" y1="27.0052" x2="52.7926" y2="23.3902" gradientUnits="userSpaceOnUse">
<stop stop-color="#75213B"/>
<stop offset="1" stop-color="#C7512E"/>
</linearGradient>
<linearGradient id="paint1_linear_387_44797" x1="16.5573" y1="26.9806" x2="11.0525" y2="23.3656" gradientUnits="userSpaceOnUse">
<stop stop-color="#75213B"/>
<stop offset="1" stop-color="#C7512E"/>
</linearGradient>
<linearGradient id="paint2_linear_387_44797" x1="-0.977453" y1="17.4786" x2="52.8798" y2="17.4786" gradientUnits="userSpaceOnUse">
<stop stop-color="#C77CBD"/>
<stop offset="1" stop-color="#974577"/>
</linearGradient>
<linearGradient id="paint3_linear_387_44797" x1="1.38184" y1="23.9376" x2="57.2795" y2="23.9376" gradientUnits="userSpaceOnUse">
<stop stop-color="#C77CBD"/>
<stop offset="1" stop-color="#974577"/>
</linearGradient>
<linearGradient id="paint4_linear_387_44797" x1="1.80716" y1="27.288" x2="56.3946" y2="27.288" gradientUnits="userSpaceOnUse">
<stop stop-color="#C77CBD"/>
<stop offset="1" stop-color="#974577"/>
</linearGradient>
<linearGradient id="paint5_linear_387_44797" x1="2.77812" y1="35.4447" x2="56.5525" y2="35.4447" gradientUnits="userSpaceOnUse">
<stop stop-color="#C77CBD"/>
<stop offset="1" stop-color="#974577"/>
</linearGradient>
<linearGradient id="paint6_linear_387_44797" x1="-0.0754611" y1="17.5142" x2="48.4828" y2="17.5142" gradientUnits="userSpaceOnUse">
<stop stop-color="#C77CBD"/>
<stop offset="1" stop-color="#974577"/>
</linearGradient>
<linearGradient id="paint7_linear_387_44797" x1="32.0263" y1="25.7606" x2="46.3329" y2="25.7606" gradientUnits="userSpaceOnUse">
<stop stop-color="#C77CBD"/>
<stop offset="1" stop-color="#974577"/>
</linearGradient>
<linearGradient id="paint8_linear_387_44797" x1="49.668" y1="17.7453" x2="49.668" y2="3.11026" gradientUnits="userSpaceOnUse">
<stop stop-color="#8C2747"/>
<stop offset="1" stop-color="#D65731"/>
</linearGradient>
<linearGradient id="paint9_linear_387_44797" x1="42.1176" y1="13.359" x2="42.1176" y2="7.32827" gradientUnits="userSpaceOnUse">
<stop stop-color="#4F092A"/>
<stop offset="1" stop-color="#A13A1A"/>
</linearGradient>
<linearGradient id="paint10_linear_387_44797" x1="50.2386" y1="15.0357" x2="50.2386" y2="5.17891" gradientUnits="userSpaceOnUse">
<stop offset="0.61" stop-color="#8D1800"/>
<stop offset="0.65" stop-color="#952000"/>
<stop offset="0.74" stop-color="#A42E00"/>
<stop offset="0.84" stop-color="#AD3600"/>
<stop offset="1" stop-color="#B03900"/>
</linearGradient>
<linearGradient id="paint11_linear_387_44797" x1="13.7794" y1="17.7453" x2="13.7794" y2="3.11026" gradientUnits="userSpaceOnUse">
<stop stop-color="#8C2747"/>
<stop offset="1" stop-color="#D65731"/>
</linearGradient>
<linearGradient id="paint12_linear_387_44797" x1="21.3299" y1="13.359" x2="21.3299" y2="7.32827" gradientUnits="userSpaceOnUse">
<stop stop-color="#4F092A"/>
<stop offset="1" stop-color="#A13A1A"/>
</linearGradient>
<linearGradient id="paint13_linear_387_44797" x1="13.2086" y1="15.0357" x2="13.2086" y2="5.17891" gradientUnits="userSpaceOnUse">
<stop offset="0.61" stop-color="#8D1800"/>
<stop offset="0.65" stop-color="#952000"/>
<stop offset="0.74" stop-color="#A42E00"/>
<stop offset="0.84" stop-color="#AD3600"/>
<stop offset="1" stop-color="#B03900"/>
</linearGradient>
<linearGradient id="paint14_linear_387_44797" x1="-14.2009" y1="11.0546" x2="90.0815" y2="11.0546" gradientUnits="userSpaceOnUse">
<stop stop-color="#C77CBD"/>
<stop offset="1" stop-color="#974577"/>
</linearGradient>
<linearGradient id="paint15_linear_387_44797" x1="-12.614" y1="19.5735" x2="79.0238" y2="19.5735" gradientUnits="userSpaceOnUse">
<stop stop-color="#C77CBD"/>
<stop offset="1" stop-color="#974577"/>
</linearGradient>
<linearGradient id="paint16_linear_387_44797" x1="-9.38357" y1="18.7298" x2="61.9012" y2="18.7298" gradientUnits="userSpaceOnUse">
<stop stop-color="#C77CBD"/>
<stop offset="1" stop-color="#974577"/>
</linearGradient>
<linearGradient id="paint17_linear_387_44797" x1="-11.0785" y1="19.6191" x2="71.5406" y2="19.6191" gradientUnits="userSpaceOnUse">
<stop stop-color="#C77CBD"/>
<stop offset="1" stop-color="#974577"/>
</linearGradient>
<linearGradient id="paint18_linear_387_44797" x1="17.0689" y1="18.3991" x2="56.6413" y2="18.3991" gradientUnits="userSpaceOnUse">
<stop stop-color="#C77CBD"/>
<stop offset="1" stop-color="#974577"/>
</linearGradient>
<linearGradient id="paint19_linear_387_44797" x1="13.3072" y1="15.4127" x2="13.3072" y2="5.80611" gradientUnits="userSpaceOnUse">
<stop stop-color="#300099"/>
<stop offset="0.06" stop-color="#4A07A2"/>
<stop offset="0.18" stop-color="#7A13B3"/>
<stop offset="0.31" stop-color="#A31EC1"/>
<stop offset="0.44" stop-color="#C427CD"/>
<stop offset="0.57" stop-color="#DE2DD6"/>
<stop offset="0.7" stop-color="#F032DC"/>
<stop offset="0.84" stop-color="#FB35E0"/>
<stop offset="1" stop-color="#FF36E1"/>
</linearGradient>
<linearGradient id="paint20_linear_387_44797" x1="50.1387" y1="17.5317" x2="50.1387" y2="5.80493" gradientUnits="userSpaceOnUse">
<stop stop-color="#300099"/>
<stop offset="0.06" stop-color="#4A07A2"/>
<stop offset="0.18" stop-color="#7A13B3"/>
<stop offset="0.31" stop-color="#A31EC1"/>
<stop offset="0.44" stop-color="#C427CD"/>
<stop offset="0.57" stop-color="#DE2DD6"/>
<stop offset="0.7" stop-color="#F032DC"/>
<stop offset="0.84" stop-color="#FB35E0"/>
<stop offset="1" stop-color="#FF36E1"/>
</linearGradient>
<linearGradient id="paint21_linear_387_44797" x1="52.0572" y1="23.4651" x2="52.0572" y2="9.39916" gradientUnits="userSpaceOnUse">
<stop stop-color="#8C2747"/>
<stop offset="1" stop-color="#D65731"/>
</linearGradient>
<linearGradient id="paint22_linear_387_44797" x1="45.3588" y1="16.4097" x2="45.3588" y2="11.6424" gradientUnits="userSpaceOnUse">
<stop stop-color="#4F092A"/>
<stop offset="1" stop-color="#A13A1A"/>
</linearGradient>
<linearGradient id="paint23_linear_387_44797" x1="51.5052" y1="21.443" x2="51.5052" y2="12.1101" gradientUnits="userSpaceOnUse">
<stop stop-color="#4F092A"/>
<stop offset="1" stop-color="#A13A1A"/>
</linearGradient>
<linearGradient id="paint24_linear_387_44797" x1="11.8078" y1="23.4651" x2="11.8078" y2="9.39916" gradientUnits="userSpaceOnUse">
<stop stop-color="#8C2747"/>
<stop offset="1" stop-color="#D65731"/>
</linearGradient>
<linearGradient id="paint25_linear_387_44797" x1="18.5044" y1="16.4088" x2="18.5044" y2="11.643" gradientUnits="userSpaceOnUse">
<stop stop-color="#4F092A"/>
<stop offset="1" stop-color="#A13A1A"/>
</linearGradient>
<linearGradient id="paint26_linear_387_44797" x1="12.3581" y1="21.443" x2="12.3581" y2="12.1101" gradientUnits="userSpaceOnUse">
<stop stop-color="#4F092A"/>
<stop offset="1" stop-color="#A13A1A"/>
</linearGradient>
<linearGradient id="paint27_linear_387_44797" x1="2.01974" y1="12.7171" x2="72.8245" y2="12.7171" gradientUnits="userSpaceOnUse">
<stop stop-color="#C77CBD"/>
<stop offset="1" stop-color="#974577"/>
</linearGradient>
<linearGradient id="paint28_linear_387_44797" x1="3.09864" y1="19.1561" x2="65.3178" y2="19.1561" gradientUnits="userSpaceOnUse">
<stop stop-color="#C77CBD"/>
<stop offset="1" stop-color="#974577"/>
</linearGradient>
<linearGradient id="paint29_linear_387_44797" x1="5.2907" y1="18.5163" x2="53.6926" y2="18.5163" gradientUnits="userSpaceOnUse">
<stop stop-color="#C77CBD"/>
<stop offset="1" stop-color="#974577"/>
</linearGradient>
<linearGradient id="paint30_linear_387_44797" x1="5.82232" y1="25.2797" x2="70.3994" y2="25.2797" gradientUnits="userSpaceOnUse">
<stop stop-color="#C77CBD"/>
<stop offset="1" stop-color="#974577"/>
</linearGradient>
<linearGradient id="paint31_linear_387_44797" x1="4.13998" y1="19.1891" x2="60.2378" y2="19.1891" gradientUnits="userSpaceOnUse">
<stop stop-color="#C77CBD"/>
<stop offset="1" stop-color="#974577"/>
</linearGradient>
<linearGradient id="paint32_linear_387_44797" x1="23.2514" y1="18.2653" x2="50.1198" y2="18.2653" gradientUnits="userSpaceOnUse">
<stop stop-color="#C77CBD"/>
<stop offset="1" stop-color="#974577"/>
</linearGradient>
<linearGradient id="paint33_linear_387_44797" x1="31.8074" y1="43.7302" x2="31.8074" y2="10.842" gradientUnits="userSpaceOnUse">
<stop stop-color="#4F092A"/>
<stop offset="1" stop-color="#A13A1A"/>
</linearGradient>
<linearGradient id="paint34_linear_387_44797" x1="31.8074" y1="44.9031" x2="31.8074" y2="10.8422" gradientUnits="userSpaceOnUse">
<stop stop-color="#8C2747"/>
<stop offset="1" stop-color="#D65731"/>
</linearGradient>
<linearGradient id="paint35_linear_387_44797" x1="12.1423" y1="20.925" x2="12.1423" y2="12.9695" gradientUnits="userSpaceOnUse">
<stop stop-color="#300099"/>
<stop offset="0.06" stop-color="#4A07A2"/>
<stop offset="0.18" stop-color="#7A13B3"/>
<stop offset="0.31" stop-color="#A31EC1"/>
<stop offset="0.44" stop-color="#C427CD"/>
<stop offset="0.57" stop-color="#DE2DD6"/>
<stop offset="0.7" stop-color="#F032DC"/>
<stop offset="0.84" stop-color="#FB35E0"/>
<stop offset="1" stop-color="#FF36E1"/>
</linearGradient>
<linearGradient id="paint36_linear_387_44797" x1="10.449" y1="14.5982" x2="10.449" y2="12.8939" gradientUnits="userSpaceOnUse">
<stop stop-color="#300099"/>
<stop offset="0.06" stop-color="#4A07A2"/>
<stop offset="0.18" stop-color="#7A13B3"/>
<stop offset="0.31" stop-color="#A31EC1"/>
<stop offset="0.44" stop-color="#C427CD"/>
<stop offset="0.57" stop-color="#DE2DD6"/>
<stop offset="0.7" stop-color="#F032DC"/>
<stop offset="0.84" stop-color="#FB35E0"/>
<stop offset="1" stop-color="#FF36E1"/>
</linearGradient>
<linearGradient id="paint37_linear_387_44797" x1="51.8727" y1="20.8703" x2="51.8727" y2="12.9695" gradientUnits="userSpaceOnUse">
<stop stop-color="#300099"/>
<stop offset="0.06" stop-color="#4A07A2"/>
<stop offset="0.18" stop-color="#7A13B3"/>
<stop offset="0.31" stop-color="#A31EC1"/>
<stop offset="0.44" stop-color="#C427CD"/>
<stop offset="0.57" stop-color="#DE2DD6"/>
<stop offset="0.7" stop-color="#F032DC"/>
<stop offset="0.84" stop-color="#FB35E0"/>
<stop offset="1" stop-color="#FF36E1"/>
</linearGradient>
<linearGradient id="paint38_linear_387_44797" x1="53.4159" y1="14.5982" x2="53.4159" y2="12.8939" gradientUnits="userSpaceOnUse">
<stop stop-color="#300099"/>
<stop offset="0.06" stop-color="#4A07A2"/>
<stop offset="0.18" stop-color="#7A13B3"/>
<stop offset="0.31" stop-color="#A31EC1"/>
<stop offset="0.44" stop-color="#C427CD"/>
<stop offset="0.57" stop-color="#DE2DD6"/>
<stop offset="0.7" stop-color="#F032DC"/>
<stop offset="0.84" stop-color="#FB35E0"/>
<stop offset="1" stop-color="#FF36E1"/>
</linearGradient>
<radialGradient id="paint39_radial_387_44797" cx="0" cy="0" r="1" gradientUnits="userSpaceOnUse" gradientTransform="translate(11.2352 5.53727) rotate(10.61) scale(10.7531 5.60481)">
<stop stop-color="#B823A2"/>
<stop offset="0.12" stop-color="#A92095"/>
<stop offset="0.36" stop-color="#831973"/>
<stop offset="0.68" stop-color="#450D3D"/>
<stop offset="1"/>
</radialGradient>
<radialGradient id="paint40_radial_387_44797" cx="0" cy="0" r="1" gradientUnits="userSpaceOnUse" gradientTransform="translate(52.9426 6.33985) rotate(-11.23) scale(10.7531 5.60481)">
<stop stop-color="#B823A2"/>
<stop offset="0.12" stop-color="#A92095"/>
<stop offset="0.36" stop-color="#831973"/>
<stop offset="0.68" stop-color="#450D3D"/>
<stop offset="1"/>
</radialGradient>
<radialGradient id="paint41_radial_387_44797" cx="0" cy="0" r="1" gradientUnits="userSpaceOnUse" gradientTransform="translate(10.4558 14.6837) rotate(10.61) scale(6.05415 5.87903)">
<stop stop-color="#B823A2"/>
<stop offset="0.12" stop-color="#A92095"/>
<stop offset="0.36" stop-color="#831973"/>
<stop offset="0.68" stop-color="#450D3D"/>
<stop offset="1"/>
</radialGradient>
<radialGradient id="paint42_radial_387_44797" cx="0" cy="0" r="1" gradientUnits="userSpaceOnUse" gradientTransform="translate(53.2543 13.5875) rotate(10.61) scale(6.05415 5.87903)">
<stop stop-color="#B823A2"/>
<stop offset="0.12" stop-color="#A92095"/>
<stop offset="0.36" stop-color="#831973"/>
<stop offset="0.68" stop-color="#450D3D"/>
<stop offset="1"/>
</radialGradient>
</defs>
</svg>
