<svg width="17" height="16" viewBox="0 0 17 16" fill="none" xmlns="http://www.w3.org/2000/svg">
<path d="M8.00199 16C12.4214 16 16.004 12.4183 16.004 8C16.004 3.58172 12.4214 0 8.00199 0C3.58261 0 0 3.58172 0 8C0 12.4183 3.58261 16 8.00199 16Z" fill="#22A90A"/>
<path fill-rule="evenodd" clip-rule="evenodd" d="M7.05894 10.871C6.92915 10.9008 6.78741 10.8651 6.68631 10.764L3.83874 7.91641C3.6825 7.76016 3.6825 7.50683 3.83874 7.35058L4.08124 7.10809C4.23749 6.95184 4.49082 6.95184 4.64707 7.10809L6.9715 9.43252L11.0769 5.32715C11.2331 5.1709 11.4864 5.1709 11.6427 5.32715L11.8852 5.56964C12.0414 5.72589 12.0414 5.97922 11.8852 6.13547L7.25798 10.7627C7.20132 10.8193 7.13188 10.8555 7.05894 10.871Z" fill="white"/>
</svg>
