<svg width="31" height="39" viewBox="0 0 31 39" fill="none" xmlns="http://www.w3.org/2000/svg">
<path fill-rule="evenodd" clip-rule="evenodd" d="M0.0552576 10.7647V17.3993C0.0552576 30.1157 8.34403 34.97 14.4225 38.127L15.5276 38.6799L16.6328 38.127C22.7112 34.97 31 30.1433 31 17.3993V10.7647C30.0693 10.7777 29.1507 10.5523 28.3315 10.1101C27.5123 9.66786 26.8198 9.02342 26.3196 8.23799C25.7954 7.46785 25.477 6.57624 25.3948 5.6481C25.3126 4.71996 25.4693 3.78621 25.8499 2.93582C25.0431 2.62621 24.1921 2.33318 23.3577 2.04567C20.7883 1.18485 18.1629 0.50136 15.5 0C12.8389 0.501403 10.2153 1.1849 7.64777 2.04567C6.79679 2.33318 5.99002 2.59856 5.15009 2.93582C5.53049 3.78599 5.68752 4.7193 5.60628 5.64723C5.52505 6.57515 5.20825 7.46693 4.68591 8.23799C4.18486 9.02386 3.49133 9.66852 2.6712 10.1107C1.85106 10.553 0.931553 10.7781 0 10.7647H0.0552576ZM7.96827 4.42308C8.1425 6.22023 7.68738 8.02212 6.68075 9.52069C5.67738 11.0781 4.15379 12.2282 2.38164 12.7661V17.4104C2.38164 22.0712 3.56969 26.2897 6.69732 29.8171C9.14527 32.5815 12.2729 34.3895 15.5055 36.0592H15.5442H15.5884C18.821 34.4005 21.9487 32.5705 24.3911 29.8171C27.5242 26.2897 28.7123 22.0767 28.7123 17.4104V12.7661C26.9395 12.2296 25.4155 11.0791 24.4132 9.52069C23.4071 8.02169 22.9503 6.22067 23.1201 4.42308L22.6615 4.26827C20.3337 3.48052 17.956 2.84883 15.5442 2.37741C13.1328 2.85024 10.7552 3.4819 8.42691 4.26827L7.96827 4.42308Z" fill="#B3B3B3"/>
</svg>
