<svg width="72" height="93" viewBox="0 0 72 93" fill="none" xmlns="http://www.w3.org/2000/svg">
<path fill-rule="evenodd" clip-rule="evenodd" d="M0 29.0616V41.2654C0 54.1246 3.24793 65.8 11.9051 75.5562C18.5675 83.064 27.1961 88.1234 36 92.7028C44.8039 88.1234 53.4325 83.064 60.095 75.5562C68.7521 65.8 72.0001 54.1246 72.0001 41.2654V29.0616C67.0437 27.3439 62.9265 24.0395 60.0291 19.6362C57.2492 15.4107 55.8215 10.4179 56.0825 5.37438C55.9754 5.33867 55.8675 5.30297 55.7604 5.26648C49.29 3.11561 42.6958 1.29877 36 0C29.3035 1.29877 22.7101 3.11482 16.2396 5.26648C16.1318 5.30218 16.0247 5.33788 15.9176 5.37438C16.1794 10.4179 14.7517 15.4099 11.9709 19.6362C9.07437 24.0395 4.95636 27.3439 0 29.0616Z" fill="#9500AF"/>
</svg>
