<svg width="48" height="43" viewBox="0 0 48 43" fill="none" xmlns="http://www.w3.org/2000/svg">
<g clip-path="url(#clip0_139_46023)">
<path d="M39.0968 7.92193H34.0646L32.1054 9.9026L34.0646 11.8833H39.0968V7.92193Z" fill="#E68900"/>
<path d="M27.073 6.18524L29.0322 11.884H34.0645V7.92272L27.073 6.18524Z" fill="#FFAD00"/>
<path d="M34.0726 3.96097H29.0402L27.0811 5.94171L29.0402 7.92238H34.0726V3.96097Z" fill="#E68900"/>
<path d="M29.0322 6.18524H22.0408L24 11.884H29.0322V6.18524Z" fill="#FFCE2A"/>
<path d="M18.9678 7.92272L17.0086 9.90338L18.9678 11.884H24V6.18524L18.9678 7.92272Z" fill="#FDEB95"/>
<path d="M22.0489 2.22328L24.0081 7.92218H29.0403V3.96076L22.0489 2.22328Z" fill="#FFAD00"/>
<path d="M23.992 2.22328L18.9598 3.96076L17.0006 5.94151L18.9598 7.92218H23.992V2.22328Z" fill="#FFCE2A"/>
<path d="M29.0322 0H24L22.0408 1.98075L24 3.96133H29.0322V0Z" fill="#FFCE2A"/>
<path d="M23.9999 0H18.9678V3.96133H23.9999V0Z" fill="#FDEB95"/>
<path d="M18.96 3.96097H13.9278V7.9223H18.96V3.96097Z" fill="#FDEB95"/>
<path d="M18.9517 7.92193H13.9195L11.9603 9.9026L13.9195 11.8833H18.9517V7.92193Z" fill="#FFAD00"/>
<path d="M13.919 7.92193H8.88689V11.8833H13.919V7.92193Z" fill="#FFCE2A"/>
<path d="M42.2654 11.8839H22.0408L24 42.568C36.2167 42.568 46.1203 33.785 46.1203 22.9508C46.1203 18.8448 44.697 15.0342 42.2654 11.8839Z" fill="#303030"/>
<path d="M39.5981 22.9508C39.5981 30.5783 32.6008 36.7838 24 36.7838V11.8839H5.7346C3.30292 15.0342 1.8796 18.8449 1.8796 22.9508C1.8796 33.785 11.7833 42.568 24 42.568V39.39C34.2213 39.39 42.5369 32.0154 42.5369 22.9508H39.5981Z" fill="#4A4A4A"/>
<path d="M33.6762 22.9498C33.6762 21.5832 32.427 20.4754 30.886 20.4754C29.9014 20.4754 28.9623 20.6946 28.0991 21.0324L22.3966 24.6678L28.0991 28.3031C28.9624 28.6409 29.9014 28.8601 30.886 28.8601C32.427 28.8601 33.6762 27.7523 33.6762 26.3857C33.6762 25.7182 33.3777 25.1129 32.8932 24.6678C33.3777 24.2226 33.6762 23.6173 33.6762 22.9498Z" fill="#53B400"/>
<path d="M19.9007 21.0324C19.0375 20.6946 18.0985 20.4754 17.1138 20.4754C15.5729 20.4754 14.3236 21.5832 14.3236 22.9498C14.3236 23.6173 14.6221 24.2226 15.1066 24.6677C14.6222 25.1127 14.3236 25.7181 14.3236 26.3855C14.3236 27.7521 15.5729 28.86 17.1138 28.86C18.0985 28.86 19.0375 28.6407 19.9007 28.3029L22.7573 27.2271L23.9999 24.6678L22.3965 21.7172L19.9007 21.0324Z" fill="#6CD800"/>
<path d="M28.0992 21.0321C28.4801 20.2665 28.7273 19.4338 28.7273 18.5606C28.7273 17.194 27.4781 16.0862 25.9371 16.0862C25.1845 16.0862 24.5019 16.3509 24 16.7806L22.3966 20.3768L24 24.6674L28.0992 21.0321Z" fill="#6CD800"/>
<path d="M24 24.6678L22.3966 28.9583L24 32.5547C24.5018 32.9843 25.1844 33.2491 25.937 33.2491C27.478 33.2491 28.7272 32.1412 28.7272 30.7746C28.7272 29.9014 28.48 29.0687 28.0991 28.3031L24 24.6678Z" fill="#6CD800"/>
<path d="M23.9999 16.7806C23.498 16.351 22.8154 16.0862 22.0628 16.0862C20.5218 16.0862 19.2726 17.194 19.2726 18.5606C19.2726 19.4338 19.5198 20.2666 19.9007 21.0321L23.9999 24.6676V16.7806Z" fill="#93F340"/>
<path d="M24 24.6678L19.9007 28.3031C19.5198 29.0687 19.2726 29.9014 19.2726 30.7746C19.2726 32.1411 20.5218 33.249 22.0628 33.249C22.8154 33.249 23.498 32.9843 23.9999 32.5546L24 24.6678Z" fill="#93F340"/>
<path d="M45.5184 10.5804H24L22.0408 11.8835L24 13.1866H45.5184V10.5804Z" fill="#4A4A4A"/>
<path d="M24.0003 10.5814H2.48154V13.1876H24.0003V10.5814Z" fill="#707070"/>
</g>
<defs>
<clipPath id="clip0_139_46023">
<rect width="47.3961" height="42.0326" fill="white" transform="scale(1.01274)"/>
</clipPath>
</defs>
</svg>
