<svg width="15" height="15" viewBox="0 0 15 15" fill="none" xmlns="http://www.w3.org/2000/svg">
<path d="M2.4668 2.8127H12.5332C12.6241 2.81273 12.7131 2.8392 12.7892 2.88889C12.8654 2.93858 12.9254 3.00935 12.9621 3.09256C12.9987 3.17578 13.0103 3.26785 12.9956 3.35757C12.9808 3.44729 12.9403 3.53077 12.8789 3.59786L9.0293 7.83419C8.94918 7.91995 8.90512 8.03324 8.90625 8.15059V11.467C8.90697 11.5449 8.88801 11.6217 8.85114 11.6903C8.81426 11.759 8.76067 11.8172 8.69531 11.8596L6.82031 13.1076C6.74998 13.1539 6.66846 13.1805 6.58434 13.1844C6.50021 13.1883 6.41658 13.1695 6.34223 13.1299C6.26789 13.0904 6.20558 13.0315 6.16185 12.9595C6.11813 12.8876 6.0946 12.8051 6.09375 12.7209V8.15059C6.09488 8.03324 6.05082 7.91995 5.9707 7.83419L2.12109 3.59786C2.05972 3.53077 2.01918 3.44729 2.00442 3.35757C1.98965 3.26785 2.0013 3.17578 2.03794 3.09256C2.07458 3.00935 2.13463 2.93858 2.21077 2.88889C2.28692 2.8392 2.37587 2.81273 2.4668 2.8127V2.8127Z" stroke="white" stroke-width="1.5" stroke-linecap="round" stroke-linejoin="round"/>
</svg>
