<svg width="14" height="14" viewBox="0 0 14 14" fill="none" xmlns="http://www.w3.org/2000/svg">
<path d="M1.31249 3.28132H8.31249C8.77662 3.28132 9.22174 3.4657 9.54993 3.79388C9.87811 4.12207 10.0625 4.56719 10.0625 5.03132V10.2813C10.0625 10.3974 10.0164 10.5086 9.93435 10.5907C9.8523 10.6727 9.74102 10.7188 9.62499 10.7188H2.62499C2.16086 10.7188 1.71574 10.5344 1.38755 10.2063C1.05936 9.87807 0.874989 9.43295 0.874989 8.96882V3.71882C0.874989 3.60279 0.921083 3.49151 1.00313 3.40946C1.08518 3.32742 1.19646 3.28132 1.31249 3.28132V3.28132Z" stroke="white" stroke-width="0.724138" stroke-linecap="round" stroke-linejoin="round"/>
<path d="M10.0625 6.12527L13.125 4.37527V9.62527L10.0625 7.87527" fill="white"/>
<path d="M10.0625 6.12527L13.125 4.37527V9.62527L10.0625 7.87527" stroke="white" stroke-width="0.724138" stroke-linecap="round" stroke-linejoin="round"/>
</svg>
