<svg width="24" height="24" viewBox="0 0 24 24" fill="none" xmlns="http://www.w3.org/2000/svg">
<path d="M13.5 21H10.5" stroke="#14B050" stroke-width="1.5" stroke-linecap="round" stroke-linejoin="round"/>
<path d="M11.5312 1.85652C9.74999 3.28152 3.79687 8.98153 8.99999 18.0003H15C20.1 8.98153 14.2312 3.2909 12.4687 1.85652C12.3372 1.74669 12.1713 1.68652 12 1.68652C11.8287 1.68652 11.6628 1.74669 11.5312 1.85652Z" stroke="#14B050" stroke-width="1.5" stroke-linecap="round" stroke-linejoin="round"/>
<path d="M6.92813 10.4434L3.98438 13.9684C3.91022 14.0549 3.85789 14.1579 3.83179 14.2689C3.80569 14.3798 3.80658 14.4953 3.83438 14.6059L4.9875 19.8277C5.01533 19.9519 5.07427 20.0669 5.15878 20.1619C5.24328 20.257 5.35059 20.329 5.47059 20.3712C5.59059 20.4134 5.71936 20.4244 5.84477 20.4031C5.97018 20.3818 6.08812 20.329 6.1875 20.2496L9 17.9996" stroke="#14B050" stroke-width="1.5" stroke-linecap="round" stroke-linejoin="round"/>
<path d="M17.0156 10.3691L20.0156 13.9691C20.0898 14.0557 20.1421 14.1587 20.1682 14.2696C20.1943 14.3806 20.1934 14.4961 20.1656 14.6066L19.0125 19.8285C18.9847 19.9526 18.9257 20.0676 18.8412 20.1627C18.7567 20.2578 18.6494 20.3298 18.5294 20.372C18.4094 20.4142 18.2806 20.4252 18.1552 20.4039C18.0298 20.3826 17.9119 20.3298 17.8125 20.2504L15 18.0004" stroke="#14B050" stroke-width="1.5" stroke-linecap="round" stroke-linejoin="round"/>
<path d="M12 10.125C12.6213 10.125 13.125 9.62132 13.125 9C13.125 8.37868 12.6213 7.875 12 7.875C11.3787 7.875 10.875 8.37868 10.875 9C10.875 9.62132 11.3787 10.125 12 10.125Z" fill="#14B050"/>
</svg>
