<svg width="150" height="178" viewBox="0 0 150 178" fill="none" xmlns="http://www.w3.org/2000/svg">
<path d="M47.5292 61.5727L39.8486 65.635L34.2227 93.5343C32.3008 93.6739 27.1154 90.7729 22.6012 87.9109C18.5927 85.3706 12.168 77.9225 12.142 77.2226C12.142 77.2209 12.142 77.2209 12.142 77.2209C13.7195 75.6477 15.1262 74.8359 15.1262 74.8359C15.1262 74.8359 7.10311 64.3723 6.57234 63.0558C6.20028 62.1304 3.45537 57.01 3.12494 55.7534C3.1232 55.7534 3.1232 55.7516 3.1232 55.7516C2.98357 55.2182 12.3414 55.109 12.3414 55.109C12.3414 55.109 12.3397 55.109 12.3397 55.1072C12.2382 55.0318 9.98071 52.5392 8.95993 51.0311C6.82905 47.8863 -0.27043 32.4775 0.00796355 32.4775C19.0766 32.4775 39.2737 48.7874 40.2068 50.2991C40.4297 50.659 40.6648 51.0692 40.9111 51.5167C42.6135 54.6103 44.8892 59.4722 47.5292 61.5727Z" fill="url(#paint0_linear_516_95925)"/>
<path opacity="0.5" d="M47.5282 61.5734L39.8477 65.6357L34.2217 93.5349C30.593 93.7994 17.1972 85.6436 12.141 77.2224C12.1965 77.604 17.1954 80.4209 21.3913 79.5328C23.8899 79.0038 37.1158 69.3094 35.8981 68.4274C35.1479 67.8845 23.7641 69.8038 15.1252 74.8348C15.1252 74.8348 7.103 64.3712 6.57136 63.0547C6.1993 62.1293 3.45352 57.0089 3.12309 55.7523C3.54285 56.3611 5.25484 58.91 9.95285 62.0356C12.3847 63.654 21.0149 66.3269 25.7901 67.2028C28.8793 67.7692 39.7956 62.8994 38.8711 61.1753C38.4132 60.3219 33.6077 55.7514 12.3404 55.1079C12.3404 55.1079 12.3387 55.1079 12.3387 55.1061C12.2372 55.0307 9.97973 52.5382 8.95895 51.03C6.82807 47.8853 -0.253196 32.5753 0.00698559 32.4756C0.00698559 32.4756 3.92445 41.3018 14.4713 47.6485C15.9951 48.5652 40.2484 51.7065 40.2067 50.298C41.9638 53.147 44.5067 59.1684 47.5282 61.5734Z" fill="#8E3D9C"/>
<path opacity="0.5" d="M11.2619 46.3681C12.7154 47.9638 18.0049 54.9235 17.7274 54.9678C15.6841 55.2895 12.9192 54.6339 12.4058 54.2627C9.24631 51.9792 4.99408 44.0074 3.39483 40.1802C2.46598 37.9592 9.91585 44.8903 11.2619 46.3681Z" fill="#D42F55"/>
<path opacity="0.5" d="M11.7586 64.4305C12.3518 65.1156 16.2909 74.2417 15.1253 73.7743C13.9597 73.3077 7.01894 64.8563 5.27833 59.684C4.84296 58.3874 10.7309 63.2441 11.7586 64.4305Z" fill="#D42F55"/>
<path opacity="0.5" d="M13.7478 79.1462C13.8016 79.6206 21.0312 88.5394 33.2311 93.057C34.6785 93.5929 33.6231 88.046 32.4184 86.4624C29.7871 83.0037 13.5839 77.7013 13.7478 79.1462Z" fill="#D42F55"/>
<path d="M14.4727 47.6484C19.7275 49.1591 38.0121 50.9336 39.4735 50.5988C40.7068 50.3161 5.48169 40.2039 7.73399 42.5732C9.18927 44.1039 13.4849 47.3648 14.4727 47.6484Z" fill="white"/>
<path opacity="0.2" d="M40.3072 52.3713C35.7861 50.2986 13.6802 47.8668 13.7453 48.3438C13.8944 49.4383 18.1198 54.6141 18.7208 54.8716C19.6843 55.2853 26.2097 54.1137 45.1136 60.9762C45.803 61.2269 42.3591 53.3123 40.3072 52.3713Z" fill="#DA0553"/>
<path opacity="0.5" d="M47.5293 61.574L39.8488 65.6362L34.2228 93.535C32.3009 93.6746 27.1155 90.7736 22.6014 87.9117C22.6014 87.9117 21.5711 81.4792 21.3924 79.534C21.2137 77.5904 23.3923 71.093 23.3923 71.093C23.3923 71.093 19.6795 66.6066 19.7992 65.6596C20.2129 62.3796 29.2603 56.4814 29.2603 56.4814C29.2603 56.4814 44.8894 59.4735 47.5293 61.574Z" fill="#B839B6"/>
<path d="M102.471 61.5737L110.151 65.636L115.777 93.5353C117.699 93.6749 122.885 90.7739 127.399 87.9119C131.407 85.3716 137.832 77.9235 137.858 77.2236C137.858 77.2219 137.858 77.2219 137.858 77.2219C136.28 75.6486 134.874 74.8369 134.874 74.8369C134.874 74.8369 142.896 64.3733 143.428 63.0567C143.8 62.1314 146.545 57.011 146.875 55.7543C146.877 55.7543 146.877 55.7526 146.877 55.7526C147.016 55.2192 137.658 55.1099 137.658 55.1099C137.658 55.1099 137.66 55.1099 137.66 55.1082C137.762 55.0328 140.019 52.5402 141.04 51.032C143.171 47.8873 150.27 32.4785 149.992 32.4785C130.923 32.4785 110.726 48.7884 109.793 50.3001C109.57 50.66 109.335 51.0702 109.089 51.5177C107.386 54.6113 105.111 59.4732 102.471 61.5737Z" fill="url(#paint1_linear_516_95925)"/>
<path opacity="0.5" d="M102.472 61.5734L110.152 65.6357L115.777 93.5349C119.406 93.7994 132.803 85.6436 137.858 77.2224C137.803 77.604 132.804 80.4209 128.608 79.5328C126.109 79.0038 112.883 69.3094 114.101 68.4274C114.851 67.8845 126.235 69.8038 134.874 74.8348C134.874 74.8348 142.897 64.3712 143.428 63.0547C143.8 62.1293 146.546 57.0089 146.876 55.7523C146.456 56.3611 144.744 58.91 140.046 62.0356C137.614 63.654 128.985 66.3269 124.209 67.2028C121.12 67.7692 110.203 62.8994 111.128 61.1753C111.586 60.3219 116.392 55.7514 137.659 55.1079C137.659 55.1079 137.66 55.1079 137.66 55.1061C137.762 55.0307 140.019 52.5382 141.04 51.03C143.171 47.8853 150.252 32.5753 149.992 32.4756C149.992 32.4756 146.075 41.3018 135.528 47.6485C134.004 48.5652 109.751 51.7065 109.792 50.298C108.036 53.147 105.493 59.1684 102.472 61.5734Z" fill="#8E3D9C"/>
<path opacity="0.5" d="M138.738 46.3681C137.284 47.9638 131.995 54.9235 132.273 54.9678C134.317 55.2895 137.081 54.6339 137.595 54.2627C140.754 51.9792 145.007 44.0074 146.606 40.1802C147.534 37.9592 140.084 44.8903 138.738 46.3681Z" fill="#D42F55"/>
<path opacity="0.5" d="M138.242 64.4305C137.649 65.1156 133.71 74.2417 134.874 73.7743C136.04 73.3077 142.981 64.8563 144.721 59.684C145.158 58.3874 139.27 63.2441 138.242 64.4305Z" fill="#D42F55"/>
<path opacity="0.5" d="M136.252 79.1453C136.198 79.6196 128.93 86.2108 128.138 86.9219C126.99 87.9531 116.794 95.016 117.13 93.056C117.738 89.5124 118.66 85.2594 120.151 83.8926C121.26 82.8753 136.321 78.5304 136.252 79.1453Z" fill="#D42F55"/>
<path opacity="0.2" d="M135.528 47.6484C130.273 49.1591 111.989 50.9336 110.528 50.5988C109.295 50.3161 144.52 40.2039 142.268 42.5732C140.812 44.1039 136.516 47.3648 135.528 47.6484Z" fill="#DA0553"/>
<path opacity="0.2" d="M109.693 52.3713C114.214 50.2986 136.32 47.8668 136.255 48.3438C136.105 49.4383 131.88 54.6141 131.279 54.8716C130.316 55.2853 123.79 54.1137 104.886 60.9762C104.196 61.2269 107.641 53.3123 109.693 52.3713Z" fill="#DA0553"/>
<path opacity="0.5" d="M102.471 61.574L110.151 65.6362L115.777 93.535C117.699 93.6746 122.885 90.7736 127.399 87.9117C127.399 87.9117 128.429 81.4792 128.608 79.534C128.786 77.5904 126.608 71.093 126.608 71.093C126.608 71.093 130.32 66.6066 130.201 65.6596C129.787 62.3796 120.74 56.4814 120.74 56.4814C120.74 56.4814 105.111 59.4735 102.471 61.574Z" fill="#B839B6"/>
<path d="M121.752 169.883C112.518 170.085 103.651 158.947 103.651 158.947V155.528C103.095 155.474 102.572 155.393 102.084 155.286C96.6689 154.129 95.2708 150.161 95.2708 150.161V146.353C87.3804 139.621 74.8371 135.758 74.8371 135.758C62.1367 136.49 45.0715 153.321 45.0715 153.321L43.9917 157.726C38.5149 165.294 28.772 169.885 28.772 169.885L29.5629 158.319L29.9107 153.266L36.6 55.5449L115.418 56.3471C114.459 83.4953 119.332 142.462 121.116 162.812C121.511 167.277 121.752 169.883 121.752 169.883Z" fill="url(#paint2_linear_516_95925)"/>
<path d="M121.752 169.882C112.518 170.083 103.651 158.946 103.651 158.946V155.527C103.095 155.473 102.572 155.392 102.084 155.285C96.6689 154.128 95.2708 150.16 95.2708 150.16V146.353C87.3804 139.62 74.8371 135.757 74.8371 135.757C62.1367 136.489 45.0715 153.32 45.0715 153.32L43.9917 157.725C38.5149 165.293 28.772 169.884 28.772 169.884L29.5629 158.318C29.5629 158.318 37.8601 157.308 43.9908 147.423C43.9908 147.423 59.1455 132.276 74.0765 128.989C74.0765 128.989 88.18 135.188 95.5492 140.086V143.454C95.5492 143.454 97.4893 150.849 104.355 149.989V152.548C104.355 152.548 110.026 162.569 121.116 162.81C121.511 167.276 121.752 169.882 121.752 169.882Z" fill="url(#paint3_linear_516_95925)"/>
<path opacity="0.5" d="M121.753 169.884C121.753 169.884 113.866 111.949 111.567 110.796C109.265 109.643 103.652 155.529 103.652 155.529C103.096 155.474 102.572 155.394 102.085 155.287C102.085 155.287 100.306 121.102 98.1966 121.23C96.0839 121.359 95.2713 146.353 95.2713 146.353C87.3808 139.621 74.8375 135.758 74.8375 135.758C62.1372 136.49 45.0719 153.321 45.0719 153.321C42.8751 123.808 38.1389 124.167 37.4061 124.723C36.6741 125.28 29.9476 153.321 29.9476 153.321C29.9476 153.321 29.9363 153.303 29.9111 153.266L36.6004 55.5449L115.419 56.3463C114.251 89.4544 121.753 169.884 121.753 169.884Z" fill="#8E3D9C"/>
<path d="M93.9272 105.311C91.5795 113.045 90.1771 127.492 89.3038 139.898C89.0635 143.326 88.8615 146.597 88.6915 149.528V149.531C88.2813 156.616 88.054 161.718 87.8866 162.237C87.4053 163.719 76.6997 175.799 73.2584 177.283V177.362C73.2246 177.35 73.1899 177.336 73.156 177.323C73.1222 177.337 73.0858 177.35 73.0537 177.362V177.283C70.3678 176.126 63.2666 168.523 60.0412 164.531V164.529C59.1314 163.401 58.5304 162.562 58.4237 162.237C58.2555 161.718 58.0291 156.618 57.618 149.533C57.618 149.53 57.618 149.53 57.618 149.53C57.4003 145.766 57.1324 141.443 56.7924 136.95C55.9078 125.269 54.5488 112.438 52.3823 105.31L72.4709 107.97L73.156 108.061L85.2614 106.458L93.9272 105.311Z" fill="url(#paint4_linear_516_95925)"/>
<path d="M88.6916 149.531C88.2814 156.616 88.0542 161.718 87.8868 162.237C87.4054 163.719 76.6999 175.799 73.2585 177.283V177.361C73.2247 177.35 73.19 177.336 73.1562 177.323C73.1224 177.337 73.0859 177.35 73.0539 177.361V177.283C69.6099 175.799 58.9043 163.719 58.4239 162.237C58.2556 161.718 58.0293 156.618 57.6182 149.533C65.2996 164.052 73.1354 169.269 73.1354 169.269C73.1354 169.269 84.6354 159.964 88.6916 149.531Z" fill="url(#paint5_linear_516_95925)"/>
<path opacity="0.8" d="M93.9273 105.311C90.93 115.182 89.4765 135.981 88.6916 149.529V149.532C88.2814 156.617 88.0541 161.719 87.8868 162.238C87.4054 163.719 76.6998 175.8 73.2585 177.284C73.2585 177.284 71.4147 160.371 68.5241 148.234C67.3403 143.262 60.5712 137.518 60.3717 138.67C60.0456 140.553 58.8644 148.286 60.0422 164.529C59.1324 163.401 58.5314 162.562 58.4247 162.237C58.2565 161.718 58.0301 156.618 57.619 149.533C57.619 149.53 57.619 149.53 57.619 149.53C56.8367 135.982 55.3823 115.181 52.3833 105.311L72.4719 107.971C76.1127 111.56 77.359 113.08 77.359 126.987C77.359 136.426 79.9018 155.526 79.9018 155.526C85.9519 143.232 85.4376 112.753 85.2624 106.458L93.9273 105.311Z" fill="url(#paint6_linear_516_95925)"/>
<path d="M121.344 71.0871C117.608 85.1325 114.903 100.821 108.447 113.636C104.567 121.336 96.2397 127.6 89.7491 133.232C84.9834 137.367 80.1102 141.389 75.1043 145.23C63.7899 136.614 50.2761 127.08 42.3831 115.087C42.3831 115.087 42.3822 115.087 42.3805 115.087C42.0544 114.58 41.7673 114.096 41.5418 113.636C35.1509 100.64 32.3782 85.1238 28.6446 71.0871C28.3142 66.5564 29.0852 61.9061 30.0496 57.4891C60.0936 56.49 90.1471 56.4909 120.191 57.4978C121.029 61.9348 121.68 66.566 121.344 71.0871Z" fill="url(#paint7_linear_516_95925)"/>
<path opacity="0.7" d="M121.344 71.0863C117.607 85.1318 114.799 100.51 108.446 113.636C108.28 103.916 111.63 93.3232 113.71 83.9159C115.667 75.0619 117.821 66.2496 120.191 57.4971C121.029 61.934 121.68 66.5653 121.344 71.0863Z" fill="#D42F55"/>
<path opacity="0.3" d="M75.1055 145.228C74.6389 145.022 74.2487 133.363 77.076 129.947C80.7402 125.519 87.8674 122.13 93.2887 118.966C95.6867 117.566 107.694 111.257 108.275 113.023C108.794 114.598 103.877 120.232 101.88 122.303C98.3111 126.002 93.9253 129.524 90.0868 132.939C84.7452 137.691 75.1055 145.228 75.1055 145.228Z" fill="#B30053"/>
<path opacity="0.7" d="M42.3821 115.085C42.3821 115.085 42.3812 115.085 42.3795 115.085C42.0534 114.578 41.7663 114.094 41.5408 113.634C35.1499 100.638 32.3773 85.122 28.6437 71.0852C28.3132 66.5546 29.0842 61.9043 30.0486 57.4873C31.6436 57.4318 32.4414 57.4058 34.0363 57.3555C36.3025 76.4762 37.5193 96.4087 42.3821 115.085Z" fill="#D42F55"/>
<path d="M111.176 60.2537C108.106 57.5296 104.95 55.0414 101.583 52.6946C101.58 52.6929 101.579 52.692 101.576 52.6903C94.0395 47.8544 86.0571 43.9499 77.452 41.4184H77.4494C76.6984 41.1981 76.0262 41.0134 75.44 40.8624C75.3133 40.8286 75.25 40.8121 75.1226 40.7783C74.9968 40.8121 74.9335 40.8286 74.8077 40.8624C61.5012 44.3255 49.3126 51.1422 39.0623 60.2477C38.8992 60.3986 38.8169 60.474 38.6538 60.6249C38.6824 60.8496 38.6972 60.9623 38.7258 61.1869C38.796 61.735 38.8724 62.3239 38.9556 62.9466C39.6494 68.1676 40.4282 73.4232 41.3224 78.5983C42.9529 88.0385 44.324 99.2419 49.238 107.78C49.2466 107.795 49.2519 107.803 49.2605 107.817C49.2701 107.831 49.2753 107.838 49.2857 107.852C52.9976 112.575 58.7372 116.057 63.5618 119.42C65.3181 120.644 67.0786 121.817 68.7099 122.893C70.6535 124.176 72.6153 125.441 74.59 126.679C74.7964 126.809 74.8997 126.874 75.1052 127.003C75.3125 126.873 75.4157 126.809 75.623 126.679C75.7028 126.63 75.7825 126.578 75.8641 126.525C79.4632 124.219 83.1335 121.855 86.6529 119.418C91.4871 116.07 97.2206 112.587 100.933 107.85C100.942 107.836 100.947 107.829 100.957 107.815C100.966 107.8 100.971 107.792 100.979 107.778C105.893 99.2324 107.266 88.048 108.904 78.6C109.699 74.013 110.409 69.3679 111.039 64.7358C111.217 63.4297 111.375 62.2389 111.508 61.193C111.538 60.9684 111.552 60.8556 111.582 60.631C111.421 60.4801 111.34 60.4047 111.176 60.2537ZM104.468 78.0354C103.004 86.9006 101.765 97.1301 97.4782 105.263C93.8174 109.337 88.8844 112.465 84.4457 115.519C81.3929 117.619 78.2577 119.675 75.1061 121.668C71.9553 119.676 68.8218 117.619 65.7708 115.521C61.3329 112.468 56.4285 109.315 52.7409 105.266C48.4488 97.1153 47.2268 86.9249 45.762 78.0337C44.9181 72.9124 44.1827 67.7244 43.5565 62.5468C52.8033 54.7535 63.4387 48.8405 75.1217 45.6021C86.8029 48.8405 97.4366 54.7579 106.681 62.5511C106.044 67.7279 105.315 72.9159 104.468 78.0354Z" fill="url(#paint8_linear_516_95925)"/>
<path d="M106.68 62.5516C106.044 67.7283 105.314 72.9164 104.468 78.0359C103.003 86.9011 101.765 97.1306 97.4777 105.264C94.0876 110.282 89.2716 114.168 84.421 117.561C81.409 119.667 78.2495 121.719 75.1048 123.712C71.9618 121.719 68.8032 119.668 65.7929 117.563C60.9388 114.167 56.1341 110.284 52.7396 105.266C48.8741 97.9128 47.6834 88.8663 46.235 80.8397C46.2324 80.8371 46.2324 80.8371 46.2324 80.8371C46.0772 79.9343 45.9168 78.9985 45.7606 78.0333C44.9281 72.8973 44.1813 67.724 43.5552 62.5464C45.3582 60.942 47.2879 59.3861 49.2497 58.0141C56.0664 53.2467 63.5796 49.3162 71.5437 46.6927C72.9028 46.2452 74.1117 45.8809 75.1212 45.6025C79.0222 46.6979 82.8191 48.1159 86.4938 49.7221C93.8153 52.9214 100.529 57.3523 106.68 62.5516Z" fill="url(#paint9_linear_516_95925)"/>
<path opacity="0.5" d="M110.355 61.1048C108.881 61.6798 108.146 61.9694 106.681 62.5514C97.4365 54.7582 86.8029 48.8401 75.1216 45.6026C75.1224 44.1551 75.1225 43.431 75.1225 41.9835C76.0522 41.7563 76.517 41.6436 77.4493 41.4189C77.4493 41.4189 77.4502 41.4189 77.4519 41.4189C86.057 43.9496 94.0394 47.854 101.576 52.6907C101.579 52.6924 101.58 52.6933 101.583 52.695C104.526 55.4789 107.451 58.2819 110.355 61.1048Z" fill="url(#paint10_linear_516_95925)"/>
<path d="M111.041 64.7377C110.413 69.3724 109.701 74.0149 108.905 78.6019C107.267 88.05 105.895 99.2343 100.981 107.779C100.972 107.794 100.967 107.802 100.959 107.817C100.949 107.831 100.944 107.838 100.934 107.851C97.2223 112.588 91.4888 116.071 86.6546 119.42C83.1353 121.858 79.5118 124.232 75.8658 126.527C75.5623 126.186 75.4105 126.015 75.1069 125.673C75.1069 124.889 75.1069 124.498 75.1069 123.714C78.2517 121.722 81.4111 119.67 84.4232 117.563C89.2738 114.17 94.0898 110.283 97.4799 105.265C101.766 97.132 103.005 86.9026 104.47 78.0373C105.317 72.9178 106.046 67.7298 106.683 62.5531C108.147 61.9711 108.883 61.6814 110.357 61.1064C110.631 62.5591 110.767 63.2859 111.041 64.7377Z" fill="url(#paint11_linear_516_95925)"/>
<path d="M120.166 57.4689C119.433 56.6848 118.635 55.9164 117.851 55.1697C117.744 55.0683 117.633 54.9659 117.518 54.8593C113.933 51.5445 109.955 48.6322 105.917 45.8943C105.917 45.8943 104.574 45.5864 102.566 44.3054C100.62 43.0644 99.9674 42.3489 99.9284 42.3064C99.9284 42.3064 99.9276 42.3046 99.9258 42.3038C92.6546 38.4522 85.0755 35.1262 77.1886 32.9511C77.1279 32.9346 77.0646 32.9164 77.0013 32.8991C76.1045 32.6588 75.4939 32.4967 75.2494 32.4386C75.2251 32.4342 75.1999 32.4273 75.1756 32.4221C75.1583 32.4177 75.1436 32.4125 75.1262 32.4082C75.1262 32.4082 75.1193 32.4108 75.1063 32.4125C75.0941 32.4151 75.0716 32.4195 75.0473 32.4264C58.8571 36.4124 42.627 44.7807 30.885 56.6302C30.6049 56.9129 30.3256 57.1991 30.0498 57.4888C30.0593 57.5617 30.0645 57.5972 30.0741 57.6701C30.1305 58.1237 30.3005 59.4133 30.5719 61.3152C30.5745 61.3317 30.5754 61.3395 30.578 61.356C31.7748 69.7061 33.1676 78.0396 34.9039 86.2952C36.7026 94.8482 38.4372 104.534 43.0302 111.907C46.8853 118.096 54.911 122.728 60.8553 126.872C65.5229 130.127 70.2704 133.278 75.1054 136.279C79.9413 133.276 84.6896 130.125 89.359 126.869C95.2929 122.73 103.341 118.074 107.187 111.903C111.785 104.524 113.526 94.8569 115.324 86.2961C117.057 78.0414 118.46 69.7121 119.662 61.3638C119.665 61.3473 119.666 61.3395 119.668 61.323C119.941 59.422 120.112 58.1323 120.168 57.6787C120.177 57.6059 120.182 57.5703 120.192 57.4975C120.192 57.4975 120.183 57.4862 120.166 57.4689ZM107.799 78.4594C106.21 87.7427 104.907 98.79 100.084 107.193C96.3657 111.758 90.849 115.164 86.1024 118.445C82.5145 120.925 78.8216 123.338 75.1063 125.672C71.3874 123.347 67.6998 120.926 64.1136 118.447C59.4035 115.19 53.8278 111.75 50.1358 107.196C45.312 98.8004 44.0146 87.7349 42.4318 78.4577C41.4527 72.719 40.6097 66.9048 39.8829 61.1001C49.9858 52.1395 62.0157 45.4017 75.1227 41.9837C88.2307 45.4259 100.245 52.1343 110.356 61.1053C109.626 66.9091 108.781 72.7216 107.799 78.4594Z" fill="url(#paint12_linear_516_95925)"/>
<path d="M119.357 57.5352C118.379 54.2032 107.566 47.6659 101.622 44.0468C93.7051 39.2249 79.1081 32.4082 75.4239 32.9268C75.3467 32.939 75.0623 32.939 74.9842 32.9268C71.3001 32.4074 56.5009 38.4504 48.5836 43.2732C42.6402 46.8923 32.03 54.2032 31.0492 57.5352C30.2383 60.3009 31.9754 69.1764 32.821 69.1816C33.6102 69.1842 37.519 67.8512 39.6429 66.7654C40.1399 66.5131 39.2414 61.6807 39.8823 61.0997C51.8732 50.2095 64.1407 45.2141 73.7648 41.9836C74.9877 41.5734 75.3927 41.7052 75.8029 41.8622C83.3629 44.7432 98.5341 50.2095 110.526 61.0997C111.168 61.6807 110.269 66.5139 110.765 66.7654C112.887 67.8512 116.798 69.1842 117.587 69.1816C118.434 69.1773 120.171 60.3009 119.357 57.5352Z" fill="white"/>
<path opacity="0.3" d="M106.593 62.5516C105.957 67.7283 105.227 72.9164 104.381 78.0359C102.916 86.9011 101.677 97.1306 97.3905 105.264C94.0004 110.282 89.1853 114.169 84.3338 117.562C81.3226 119.668 78.1623 121.719 75.0175 123.712C75.0843 110.705 75.1407 97.6934 75.0254 84.6878C74.9091 71.6718 74.6516 58.6194 75.0331 45.6025C86.7153 48.8409 97.3489 54.7583 106.593 62.5516Z" fill="#E6006A"/>
<path opacity="0.8" d="M106.68 62.5511C106.044 67.7279 105.314 72.9159 104.468 78.0354C103.003 86.9006 101.765 97.1301 97.4777 105.263C94.0876 110.281 89.2716 114.168 84.421 117.56C81.409 119.667 78.2495 121.718 75.1048 123.711C71.9618 121.719 68.8032 119.668 65.7929 117.562C60.9388 114.167 56.1341 110.283 52.7396 105.265C48.8741 97.9123 47.6834 88.8658 46.235 80.8392C46.2324 80.8366 46.2324 80.8366 46.2324 80.8366C46.0772 79.9338 45.9168 78.998 45.7606 78.0328C44.9281 72.8968 44.1813 67.7235 43.5552 62.5459C45.3582 60.9415 47.2827 59.4125 49.2497 58.0136C49.2878 57.9945 49.3069 57.9849 49.3451 57.9658C47.451 59.4255 45.7242 61.2251 45.0755 63.153C43.6211 67.4755 47.4787 84.3638 48.6218 89.4972C50.156 96.3868 68.5994 86.5242 74.2895 86.2207C79.8557 85.9241 96.7935 99.0103 99.6234 93.8154C106.81 80.6216 101.658 59.1497 86.466 49.7207C86.466 49.7207 86.4755 49.7207 86.492 49.7207C93.8543 53.0207 100.529 57.3518 106.68 62.5511Z" fill="url(#paint13_linear_516_95925)"/>
<path opacity="0.5" d="M40.0927 62.6224C41.4838 63.7203 43.887 65.1842 43.887 65.1842C47.5833 57.6122 57.0504 54.0773 64.5116 52.4191C73.0741 50.5155 82.9411 55.2169 90.3484 59.3701C95.3699 62.1853 102.268 65.813 105.59 70.7459C107.121 69.6202 107.89 69.0591 109.438 67.9421C109.797 65.2068 109.981 63.8391 110.356 61.1047C92.7386 45.6215 75.1226 41.9834 75.1226 41.9834C75.1226 41.9834 54.7019 47.2086 39.8828 61.0995C39.9678 61.7083 40.0094 62.0127 40.0927 62.6224Z" fill="#D42F55"/>
<path opacity="0.8" d="M117.071 69.9005C115.648 69.1729 110.594 68.0828 109.802 70.1147C109.321 71.3497 108.092 78.4872 107.269 83.0343C105.667 91.8811 104.316 93.3936 103.231 98.1826C102.823 99.9822 110.472 99.8746 111.584 99.1045C112.44 98.5113 112.817 96.8184 114.187 90.2255C115.341 84.676 116.715 79.0882 117.511 73.4615C117.738 71.8519 117.989 70.3697 117.071 69.9005Z" fill="url(#paint14_linear_516_95925)"/>
<path opacity="0.8" d="M39.8825 68.1069C39.2581 67.6273 33.4656 69.0409 32.8151 70.1605C32.117 71.3626 33.7865 80.1114 34.7067 84.5197C36.5279 93.246 37.9346 98.3385 38.6545 99.5223C40.2416 102.134 48.054 102.392 47.3489 100.019C46.0913 95.7897 44.832 94.0786 43.5572 86.2204C42.7107 81.0073 41.0004 68.9663 39.8825 68.1069Z" fill="url(#paint15_linear_516_95925)"/>
<path opacity="0.3" d="M76.2078 143.375C75.6536 143.477 75.5816 137.025 75.8487 136.667C78.5277 133.073 89.5941 128.387 86.4711 135.293C85.5466 137.334 78.1782 143.009 76.2078 143.375Z" fill="#B30053"/>
<path d="M101.303 117.913C102.224 116.927 100.433 108.988 99.5982 109.507C98.3216 110.299 75.5661 125.644 75.1195 126.234C74.123 127.55 75.0006 135.22 75.4291 135.291C76.4212 135.456 98.3268 121.1 101.303 117.913Z" fill="white"/>
<path d="M63.8129 45.6022C65.1815 45.002 64.1425 35.9739 62.6551 36.4986C50.5003 40.7793 38.0654 50.3703 38.0958 50.7814C38.1374 51.3486 45.4996 55.0388 48.5663 53.6355C50.816 52.6052 57.8635 48.2117 63.8129 45.6022Z" fill="white"/>
<path opacity="0.8" d="M120.191 57.4962C120.182 57.569 120.176 57.6046 120.167 57.6774C119.965 59.1353 119.864 59.8638 119.667 61.3216C119.665 61.3381 119.664 61.3459 119.661 61.3624C121.12 54.6325 110.672 50.5278 105.21 46.5133C103.62 45.3442 101.908 44.1994 100.198 43.1492C93.0214 38.7418 84.7485 34.9571 76.2917 34.0178C69.9866 33.3171 57.3835 38.6126 49.6491 42.778C43.4048 46.1403 31.7851 54.3428 30.2361 58.8517C30.2335 58.8352 30.5735 61.3312 30.5709 61.3147C30.374 59.8569 30.2743 59.1275 30.0731 57.6696C30.0636 57.5968 30.0584 57.5612 30.0488 57.4884C30.3246 57.1987 30.6039 56.9073 30.884 56.6298C42.7118 44.9036 58.6254 36.3195 75.0463 32.4264C75.0706 32.4195 75.0931 32.4151 75.1053 32.4125C75.1174 32.4099 75.1252 32.4082 75.1252 32.4082C75.1426 32.4125 75.1573 32.4177 75.1747 32.4221C75.1998 32.4264 75.2241 32.4334 75.2484 32.4386C75.8381 32.5877 76.4244 32.7464 77.0003 32.8991C77.0636 32.9155 77.126 32.9338 77.1876 32.9511C85.072 35.1219 92.6536 38.4521 99.9248 42.3036L99.9274 42.3062C99.9665 42.3487 100.618 43.065 102.565 44.3052C104.573 45.5862 105.916 45.894 105.916 45.894C109.975 48.6424 113.906 51.5338 117.517 54.8589C117.632 54.9655 117.743 55.0687 117.85 55.1693C119.228 56.4711 120.02 57.308 120.165 57.4684C120.183 57.4866 120.191 57.4962 120.191 57.4962Z" fill="#D42F55"/>
<path d="M58.498 114.431C58.498 114.431 72.612 126.527 74.9866 126.527C77.2294 126.527 90.0867 115.733 90.0867 115.733C90.0788 115.723 76.7792 124.245 75.1705 124.46C71.8011 124.909 58.498 114.431 58.498 114.431Z" fill="white"/>
<path d="M107.481 80.3496C107.641 80.3852 100.082 107.191 100.082 107.191C99.9723 107.141 103.808 100.768 105.871 92.9534C106.824 89.3448 107.481 80.3496 107.481 80.3496Z" fill="white"/>
<path d="M42.6863 79.9824C42.5267 80.018 49.5499 106.131 49.5499 106.131C49.66 106.081 45.4832 98.3804 44.047 92.9557C43.0922 89.347 42.6863 79.9824 42.6863 79.9824Z" fill="white"/>
<path opacity="0.2" d="M67.1898 126.496C71.5834 126.709 68.7864 123.707 67.0432 122.571C65.3997 121.501 60.5265 119.864 60.2126 120.435C59.7139 121.344 64.2645 126.355 67.1898 126.496Z" fill="#EE9C50"/>
<path opacity="0.2" d="M68.1862 128.259C65.437 127.147 64.4743 126.762 65.7865 128.941C67.0987 131.118 69.9581 128.975 68.1862 128.259Z" fill="#EE9C50"/>
<path d="M53.0578 121.216C52.4126 122.35 55.8582 128.046 58.7046 125.037C59.199 124.514 53.5426 120.363 53.0578 121.216Z" fill="url(#paint16_linear_516_95925)"/>
<path opacity="0.5" d="M53.1464 121.613C52.9799 122.471 54.2322 124.772 55.0397 124.901C55.8471 125.03 57.501 123.597 55.8575 122.554C54.0249 121.39 53.2722 120.967 53.1464 121.613Z" fill="#D42F55"/>
<path d="M55.4375 125.498C57.7028 126.791 59.3645 126.161 59.1043 125.272C58.8441 124.383 58.1495 124.13 58.1495 124.13C58.1495 124.13 58.8294 124.659 58.4643 125.19C58.0974 125.72 55.4375 125.498 55.4375 125.498Z" fill="white"/>
<path d="M105.916 45.8935C105.671 46.1329 105.435 46.3488 105.21 46.5136C102.677 48.3539 99.6455 46.282 99.6255 43.3368C99.6212 42.6847 99.9282 42.3057 99.9282 42.3057C99.9672 42.3482 100.619 43.0645 102.566 44.3047C104.573 45.5856 105.916 45.8935 105.916 45.8935Z" fill="url(#paint17_linear_516_95925)"/>
<path opacity="0.5" d="M99.8062 42.5127C99.5425 43.3158 99.8131 45.7389 100.783 46.0954C101.752 46.4518 102.335 44.7598 102.071 44.3513C101.808 43.942 99.9441 42.093 99.8062 42.5127Z" fill="#D42F55"/>
<path d="M100.72 46.2881C100.72 46.2881 102.614 48.112 105.559 46.2266C105.559 46.2266 105.225 48.0183 103.139 48.0261C102.013 48.0296 100.72 46.2881 100.72 46.2881Z" fill="white"/>
<path opacity="0.2" d="M75.3175 33.6452C74.8986 36.1724 74.7433 40.5798 75.6791 41.4184C76.6149 42.2562 89.0334 46.6246 89.4072 46.6246C89.7818 46.6246 90.9084 38.5747 89.0325 37.4516C87.1583 36.3285 75.5759 32.085 75.3175 33.6452Z" fill="#DA0553"/>
<path d="M116.596 116.117C114.437 118.364 113.981 118.764 113.341 119.209C109.856 121.634 101.993 122.303 101.993 122.303L103.143 116.715L116.596 116.117Z" fill="url(#paint18_linear_516_95925)"/>
<path d="M110.147 105.986C116.242 108.507 117.32 115.56 116.597 116.118C111.11 120.346 103.145 116.716 103.145 116.716C103.145 116.716 100.473 108.835 101.56 107.195C102.524 105.74 110.147 105.986 110.147 105.986Z" fill="url(#paint19_linear_516_95925)"/>
<path opacity="0.5" d="M115.667 116.301C116.601 115.573 102.279 107.219 101.56 107.658C100.841 108.098 101.994 115.745 103.808 116.796C104.387 117.131 111.414 119.614 115.667 116.301Z" fill="#B839B6"/>
<path d="M116.363 115.622C116.854 115.269 116.695 110.323 111.583 106.851C109.43 105.389 101.822 106.648 101.994 106.828C102.166 107.009 115.877 115.973 116.363 115.622Z" fill="white"/>
<path d="M33.3452 116.116C35.5047 118.363 35.96 118.763 36.6001 119.208C40.0856 121.633 47.9483 122.302 47.9483 122.302L46.7983 116.714L33.3452 116.116Z" fill="url(#paint20_linear_516_95925)"/>
<path d="M39.7958 105.986C33.7007 108.507 32.6226 115.56 33.3459 116.118C38.8332 120.346 46.7982 116.716 46.7982 116.716C46.7982 116.716 49.4702 108.835 48.3827 107.195C47.4192 105.74 39.7958 105.986 39.7958 105.986Z" fill="url(#paint21_linear_516_95925)"/>
<path opacity="0.5" d="M34.2747 116.301C33.3407 115.573 47.6628 107.219 48.3817 107.658C49.1007 108.098 47.9481 115.745 46.1329 116.796C45.5562 117.131 38.5287 119.614 34.2747 116.301Z" fill="#B839B6"/>
<path d="M33.5777 115.622C33.0868 115.269 33.2473 110.323 38.3581 106.851C40.5115 105.389 48.1192 106.648 47.9475 106.828C47.7758 107.009 34.0651 115.973 33.5777 115.622Z" fill="white"/>
<path d="M130.391 64.2051C129.317 67.1312 129.061 67.6802 128.655 68.3445C126.438 71.9661 120.234 75.7413 120.234 75.7413L118.315 70.1623L130.391 64.2051Z" fill="url(#paint22_linear_516_95925)"/>
<path d="M120.412 57.522C127.006 57.3789 130.83 63.4029 130.392 64.2042C127.068 70.2811 118.315 70.1614 118.315 70.1614C118.315 70.1614 112.699 64.0195 113.035 62.0803C113.333 60.3632 120.412 57.522 120.412 57.522Z" fill="url(#paint23_linear_516_95925)"/>
<path opacity="0.2" d="M129.615 64.7469C130.177 63.7054 113.705 61.8156 113.224 62.5068C112.742 63.198 116.873 69.7371 118.956 69.9687C119.62 70.0433 127.052 69.4917 129.615 64.7469Z" fill="#DA0553"/>
<path d="M129.979 63.8453C130.286 63.3249 128.15 58.8603 122.075 57.7363C119.516 57.2628 113.056 61.4759 113.286 61.5722C113.515 61.6685 129.673 64.3622 129.979 63.8453Z" fill="white"/>
<path d="M20.1328 64.2051C21.2065 67.1312 21.4624 67.6802 21.8691 68.3445C24.0858 71.9661 29.6797 75.2019 29.6797 75.2019L32.2087 70.1614L20.1328 64.2051Z" fill="url(#paint24_linear_516_95925)"/>
<path d="M30.1128 57.522C23.5189 57.3789 19.6951 63.4029 20.1331 64.2042C23.4565 70.2811 32.2098 70.1614 32.2098 70.1614C32.2098 70.1614 37.8263 64.0195 37.4898 62.0803C37.1914 60.3632 30.1128 57.522 30.1128 57.522Z" fill="url(#paint25_linear_516_95925)"/>
<path opacity="0.2" d="M20.9101 64.7469C20.3481 63.7054 36.8201 61.8156 37.3015 62.5068C37.7828 63.198 33.652 69.7371 31.5688 69.9687C30.9053 70.0433 23.4728 69.4917 20.9101 64.7469Z" fill="#DA0553"/>
<path d="M20.5462 63.8453C20.2391 63.3249 22.3744 58.8603 28.4496 57.7363C31.0089 57.2628 37.4683 61.4759 37.2385 61.5722C37.0087 61.6685 20.8514 64.3622 20.5462 63.8453Z" fill="white"/>
<path d="M58.6465 110.123C58.094 110.123 57.6439 109.984 57.3074 109.711C55.3179 108.111 57.284 101.653 58.4531 93.758C58.5936 92.8084 52.952 92.4034 52.9789 91.9324C52.6545 91.4346 55.99 87.1408 55.4966 86.6768C50.8723 82.3317 45.758 78.3839 46.2575 76.0015C46.6747 74.0051 51.684 73.2167 60.3377 72.3711C61.7322 72.235 60.0454 66.8579 60.8658 65.8978C62.5414 65.2318 67.1553 67.1007 67.6323 66.1016C70.9097 59.2303 72.2774 55.0361 74.9755 55.0361C75.266 55.0361 75.5643 55.1168 75.8627 55.2764L75.9408 55.3171C78.3223 56.6735 79.7984 59.8798 82.3993 66.1016C82.7983 67.0565 86.6923 64.8545 87.6905 65.4165C89.0894 66.1016 87.7096 71.7111 88.6072 71.8438C95.7822 72.9045 102.387 73.5723 103.617 75.8038C103.713 75.9668 103.771 76.1681 103.779 76.3849C103.895 78.0414 101.035 80.5443 96.3112 84.467C94.0615 86.3342 96.4595 90.3271 96.3025 91.073C95.783 92.6445 91.2646 92.2767 91.7216 94.3339C93.3555 101.671 94.5637 107.888 92.7953 109.66C92.4943 109.962 92.0642 110.116 91.5178 110.116C89.1311 110.116 83.8225 107.193 78.4749 103.749C77.8886 103.372 76.4177 107.513 74.933 107.193C74.1212 107.512 72.4266 103.149 71.6729 103.661C66.4641 107.193 61.335 110.078 58.7115 110.121L58.6465 110.123Z" fill="url(#paint26_linear_516_95925)"/>
<path d="M95.714 90.8261L95.7105 90.8305C94.6889 92.5095 83.1143 92.0351 82.1342 93.2328C81.1768 94.4045 77.4822 105.668 75.0079 106.088C72.9941 106.432 68.5944 94.0801 67.9734 93.584L67.9674 93.5797C67.4132 93.1868 56.8386 93.3707 54.4163 91.7099L54.4145 91.7082C54.1691 91.5408 54.0078 91.3552 53.9506 91.1479C53.2862 88.8158 63.1497 81.2395 63.6163 80.3566C64.0846 79.472 59.7474 68.1179 61.6138 66.3912C63.161 64.9585 73.6983 72.2166 74.6679 72.175C75.6384 72.1316 85.3553 64.5743 87.5061 66.0998C87.6232 66.1831 87.7186 66.3088 87.7941 66.4736L87.7993 66.4805C88.9354 68.9132 86.0205 79.5458 86.0153 80.3237C86.0101 81.1562 96.0886 87.9382 95.7834 90.6336C95.7764 90.7013 95.7539 90.7663 95.714 90.8261Z" fill="url(#paint27_linear_516_95925)"/>
<path opacity="0.2" d="M75.1473 83.4914L63.6152 80.358C64.0835 79.4734 59.7463 68.1193 61.6126 66.3926L75.1473 83.4914Z" fill="#DA0553"/>
<path opacity="0.2" d="M86.0134 80.3246L75.1465 83.4918L87.5042 66.1016L87.7922 66.4753L87.7974 66.4823C88.9335 68.9141 86.0186 79.5475 86.0134 80.3246Z" fill="#DA0553"/>
<path opacity="0.2" d="M95.7134 90.8265L95.71 90.8309C94.6883 92.5099 83.1137 92.0355 82.1337 93.2332L75.147 83.4922L95.7819 90.634L95.7134 90.8265Z" fill="#DA0553"/>
<path opacity="0.2" d="M75.0078 106.089C72.994 106.434 68.5943 94.0814 67.9733 93.5853L67.9673 93.594C67.9673 93.5844 67.9673 93.581 67.9673 93.581L75.1474 83.4922L75.0078 106.089Z" fill="#DA0553"/>
<path opacity="0.2" d="M75.1476 83.4922L67.9736 93.5853L67.9675 93.594C67.9675 93.5844 67.9675 93.581 67.9675 93.581C67.4133 93.1881 56.8387 93.372 54.4164 91.7112L54.4147 91.7094L53.9507 91.1492L75.1476 83.4922Z" fill="#DA0553"/>
<path d="M75.1474 83.4921L61.6128 66.3924C63.16 64.9597 73.6973 72.2177 74.667 72.1761L75.1474 83.4921Z" fill="white"/>
<path d="M102.256 76.0813V76.0882C102.436 78.6345 89.817 86.832 89.6791 88.8371C89.5446 90.798 94.0961 105.508 91.7909 107.813C89.9167 109.691 75.9718 99.9122 74.9415 99.8532H74.9311C74.0491 99.8532 62.9845 107.995 59.1702 108.058H59.1667C58.7808 108.064 58.4703 107.989 58.2535 107.813C55.7965 105.843 60.5518 90.4017 60.3827 89.1164C60.2135 87.8276 47.0856 79.0586 47.7647 75.8263C48.3267 73.1456 64.9454 72.9149 65.941 72.143C66.9366 71.3677 71.5505 56.0586 74.9753 56.0586C75.1618 56.0586 75.3578 56.1202 75.5608 56.2381L75.5712 56.2416C78.6031 57.9649 83.5067 71.4197 84.0852 72.2471C84.7053 73.1326 100.48 72.7432 102.182 75.8272C102.229 75.9026 102.254 75.9885 102.256 76.0813Z" fill="url(#paint28_linear_516_95925)"/>
<path opacity="0.2" d="M74.956 83.7685L60.3841 89.116C60.215 87.8273 47.0871 79.0584 47.7662 75.8262L74.956 83.7685Z" fill="#DA0553"/>
<path opacity="0.2" d="M84.088 72.2459L74.9565 83.7683L74.9774 56.0586L75.5628 56.2381L75.5732 56.2416C78.6051 57.964 83.5087 71.4194 84.088 72.2459Z" fill="#DA0553"/>
<path opacity="0.2" d="M102.257 76.0812V76.0881C102.436 78.6343 89.8176 86.8317 89.6797 88.8368L74.9561 83.7685L102.184 75.8262L102.257 76.0812Z" fill="#DA0553"/>
<path opacity="0.2" d="M91.7919 107.813C89.9177 109.691 75.9728 99.9126 74.9425 99.8536V99.8675C74.9356 99.8571 74.9321 99.8536 74.9321 99.8536L74.9564 83.7695L91.7919 107.813Z" fill="#DA0553"/>
<path opacity="0.2" d="M74.9563 83.7695L74.9424 99.8536V99.8675C74.9355 99.8571 74.932 99.8536 74.932 99.8536C74.05 99.8536 62.9854 107.995 59.1711 108.058H59.1676L58.2544 107.813L74.9563 83.7695Z" fill="#DA0553"/>
<path d="M74.9564 83.7682L47.7666 75.8258C48.3286 73.1451 64.9472 72.9144 65.9429 72.1426L74.9564 83.7682Z" fill="white"/>
<path opacity="0.5" d="M47.7656 75.8274C43.1985 77.1682 55.8095 101.597 58.0496 100.406C60.2898 99.2156 73.1367 86.46 74.9562 83.7697C74.9562 83.7697 50.7897 74.9393 47.7656 75.8274Z" fill="#CF1E97"/>
<path opacity="0.5" d="M102.189 75.8274C106.756 77.1682 94.1453 101.597 91.9051 100.406C89.665 99.2156 76.8181 86.46 74.9985 83.7697C74.9985 83.7697 99.165 74.9393 102.189 75.8274Z" fill="#CF1E97"/>
<path opacity="0.3" d="M74.9763 56.0596C74.4222 56.1871 74.9416 99.8542 74.9416 99.8542C76.5287 100.449 90.1249 109.299 91.791 107.814C94.4448 105.448 89.3548 90.8146 89.6792 88.8381C90.0035 86.8625 103.062 78.1438 102.19 75.8273C100.996 72.6566 84.8207 72.961 84.0861 72.2472C82.7497 70.9472 77.9355 55.3814 74.9763 56.0596Z" fill="#DA0553"/>
<path opacity="0.5" d="M74.9559 83.7701C70.7783 89.6666 58.2549 106.403 58.2549 107.814C58.2549 109.814 91.1505 110.029 91.7922 107.814C92.4332 105.599 75.7391 82.6652 74.9559 83.7701Z" fill="#CF1E97"/>
<path opacity="0.5" d="M83.492 80.7878C86.3358 84.0904 82.8268 90.0311 81.8329 91.6927C80.839 93.3535 76.4896 96.48 74.9997 96.5624C73.5097 96.6447 69.7692 94.6249 68.4977 91.5583C67.2263 88.4917 66.2541 83.426 68.4977 81.8823C70.7422 80.3395 81.8815 78.918 83.492 80.7878Z" fill="#7E527C"/>
<path d="M81.8543 79.7123C85.1733 85.2982 81.3296 91.2311 76.1173 92.1556C70.9041 93.0801 64.8601 88.2452 66.8514 81.4901C68.8418 74.7342 78.9385 74.8053 81.8543 79.7123Z" fill="url(#paint29_linear_516_95925)"/>
<path d="M76.1172 92.1554C80.0511 91.4572 83.2045 87.9075 83.09 83.8063C82.5298 88.4938 79.1171 92.582 72.3021 90.9707C71.4704 90.7738 66.8513 88.6352 66.4688 83.7881C66.2711 89.303 71.5172 92.9714 76.1172 92.1554Z" fill="url(#paint30_linear_516_95925)"/>
<path opacity="0.5" d="M67.1343 80.7008C67.4239 81.3946 71.0465 77.8649 70.5704 77.126H70.5678C69.0813 77.8579 67.8385 79.0365 67.1343 80.7008Z" fill="url(#paint31_linear_516_95925)"/>
<path d="M68.3097 81.2254C66.0366 85.9198 73.1985 95.6036 79.7005 88.2484C86.9023 80.1014 73.2237 71.0776 68.3097 81.2254Z" fill="url(#paint32_linear_516_95925)"/>
<path d="M70.1834 81.1927C68.781 84.0095 69.8278 86.8715 72.3871 88.6242C75.3306 90.6397 78.9376 88.2565 80.1839 85.7874C81.9644 82.2603 78.5725 78.6031 76.4668 78.0038C74.361 77.4045 71.1851 79.1815 70.1834 81.1927Z" fill="url(#paint33_linear_516_95925)"/>
<path opacity="0.4" d="M69.6862 83.668C69.5838 84.1112 69.6862 86.5854 71.5664 87.8716C73.4467 89.1577 74.7744 89.3771 74.9175 89.1646C75.0606 88.9522 75.0554 87.2445 74.9678 87.157C74.8803 87.0694 73.412 86.353 72.7051 85.3782C71.9983 84.4034 71.7555 84.0626 71.5534 84.0435C71.3522 84.0236 69.7555 83.3662 69.6862 83.668Z" fill="#B82774"/>
<path d="M71.9425 83.9315C71.6779 85.0728 74.9458 87.1993 75.2442 87.1568C76.65 86.9556 78.3525 83.8473 78.382 82.837C78.4019 82.1545 75.7715 79.9525 74.9311 80.2161C74.0907 80.4806 72.148 83.0425 71.9425 83.9315Z" fill="white"/>
<path opacity="0.8" d="M75.2446 87.1564C74.8552 87.3194 74.9957 89.0886 75.1293 89.1042C76.6097 89.2811 78.1326 88.4538 79.6157 86.5233C80.8177 84.957 80.7188 82.8452 80.2028 82.1983C80.0137 81.9606 78.3902 82.5573 78.3833 82.8366C78.3373 84.5251 76.5238 86.6195 75.2446 87.1564Z" fill="#B82774"/>
<path opacity="0.75" d="M69.5782 83.279C69.5618 83.5444 71.5097 84.1827 71.6545 84.0196C71.8913 83.7525 74.8296 80.2922 74.8426 80.0779C74.8625 79.7328 74.9475 78.0538 74.4506 78.0303C74.2841 78.0225 72.1601 78.6539 70.88 80.1855C69.5999 81.7162 69.5999 82.9434 69.5782 83.279Z" fill="white"/>
<path d="M70.1836 81.1924C70.1836 81.1924 71.096 79.6452 72.6969 78.7598C72.6969 78.7598 73.5625 79.0234 72.8851 80.1153C72.2069 81.2072 70.1836 81.1924 70.1836 81.1924Z" fill="white"/>
<path d="M74.2589 86.6332C74.1991 86.7286 74.8252 87.9532 74.9978 87.9185C75.1704 87.8838 75.8287 86.9246 75.7471 86.9298C75.6656 86.9359 74.3899 86.4242 74.2589 86.6332Z" fill="white"/>
<path d="M78.1133 82.2792C77.8609 82.588 78.0829 83.659 78.2269 83.6946C78.3708 83.7301 79.0187 82.5143 78.9398 82.4379C78.86 82.3625 78.3457 81.9948 78.1133 82.2792Z" fill="white"/>
<path d="M72.7905 90.5561C72.7905 90.5561 76.3359 91.6437 79.7001 88.2492C82.7867 85.1341 81.5196 81.6659 81.3826 81.3242C81.3826 81.3242 83.673 85.4203 79.6628 89.1668C76.2145 92.3878 72.7905 90.5561 72.7905 90.5561Z" fill="#FFD2FF"/>
<path opacity="0.5" d="M71.5639 89.9164C69.6463 87.4829 67.2145 82.4858 70.5431 79.0419C73.8717 75.598 78.9018 78.845 80.3615 79.512C80.3615 79.512 77.2332 74.0318 70.8033 77.0576C68.3454 78.2137 67.7062 79.9499 67.9126 83.8734C68.1008 87.469 71.5639 89.9164 71.5639 89.9164Z" fill="#D42F55"/>
<path opacity="0.5" d="M75.3159 93.1295C81.8363 93.1295 87.1221 87.8438 87.1221 81.3235C87.1221 74.8033 81.8363 69.5176 75.3159 69.5176C68.7956 69.5176 63.5098 74.8033 63.5098 81.3235C63.5098 87.8438 68.7956 93.1295 75.3159 93.1295Z" fill="url(#paint34_radial_516_95925)"/>
<path d="M71.8492 36.677C70.8068 38.8295 74.0911 43.2699 77.0719 39.8971C80.3736 36.1619 74.1024 32.0242 71.8492 36.677Z" fill="url(#paint35_linear_516_95925)"/>
<path d="M72.7084 36.6619C72.0657 37.9532 72.5453 39.2663 73.7187 40.0694C75.0682 40.9938 76.7221 39.9002 77.2936 38.7685C78.1106 37.151 76.5547 35.4746 75.5894 35.1997C74.6233 34.9248 73.1672 35.7391 72.7084 36.6619Z" fill="url(#paint36_linear_516_95925)"/>
<path opacity="0.4" d="M72.4801 37.7972C72.4333 38.0001 72.4801 39.1345 73.3422 39.7251C74.2043 40.3148 74.8131 40.4154 74.879 40.3174C74.9449 40.2203 74.9423 39.4371 74.9015 39.3964C74.8616 39.3565 74.1886 39.0278 73.8643 38.5812C73.5399 38.1337 73.4289 37.9776 73.3361 37.9689C73.2442 37.9602 72.5113 37.6584 72.4801 37.7972Z" fill="#B82774"/>
<path d="M73.5153 37.9172C73.3939 38.441 74.8925 39.4158 75.0287 39.3959C75.6731 39.304 76.4536 37.8782 76.4675 37.4151C76.477 37.102 75.2707 36.0925 74.8847 36.2131C74.5005 36.3345 73.6098 37.5096 73.5153 37.9172Z" fill="white"/>
<path opacity="0.8" d="M75.0292 39.3968C74.8505 39.4714 74.9147 40.2831 74.9763 40.2901C75.6554 40.3707 76.3535 39.9917 77.0334 39.1063C77.585 38.3882 77.5391 37.4194 77.3032 37.1228C77.2164 37.0136 76.4723 37.2876 76.4688 37.4151C76.448 38.1904 75.6163 39.1505 75.0292 39.3968Z" fill="#B82774"/>
<path opacity="0.75" d="M72.4312 37.6186C72.4234 37.74 73.3167 38.0331 73.3835 37.9585C73.4919 37.8363 74.8396 36.2492 74.8457 36.1512C74.8552 35.9933 74.8943 35.2232 74.6662 35.2119C74.5898 35.2085 73.6159 35.4981 73.0288 36.1997C72.4408 36.9014 72.4407 37.4642 72.4312 37.6186Z" fill="white"/>
<path d="M72.709 36.6622C72.709 36.6622 73.1279 35.9528 73.8616 35.5469C73.8616 35.5469 74.2588 35.6674 73.9483 36.1687C73.6361 36.6691 72.709 36.6622 72.709 36.6622Z" fill="white"/>
<path d="M74.5761 39.156C74.5483 39.1993 74.8354 39.7613 74.9152 39.7457C74.9941 39.7301 75.2959 39.2895 75.2586 39.2921C75.2214 39.2947 74.6359 39.0597 74.5761 39.156Z" fill="white"/>
<path d="M76.3443 37.1588C76.2281 37.3002 76.3304 37.7919 76.3964 37.8084C76.4623 37.8249 76.7597 37.2672 76.7233 37.2325C76.6869 37.1978 76.451 37.0287 76.3443 37.1588Z" fill="white"/>
<path d="M73.9038 40.9546C73.9038 40.9546 75.53 41.4533 77.072 39.8966C78.4873 38.4682 77.9063 36.8777 77.843 36.7207C77.843 36.7207 78.8932 38.5992 77.0546 40.3172C75.4736 41.795 73.9038 40.9546 73.9038 40.9546Z" fill="#FFF7C4"/>
<path opacity="0.5" d="M73.3409 40.6614C72.4615 39.5453 71.7226 37.5809 73.249 36.0025C74.7754 34.4233 76.7051 35.5854 77.3746 35.8907C77.3746 35.8907 75.0685 32.7382 72.4051 34.6149C71.1025 35.5325 70.9707 37.0614 71.3644 38.1247C71.9386 39.6728 73.3409 40.6614 73.3409 40.6614Z" fill="#E54136"/>
<path d="M71.8487 129.645C70.8063 131.798 74.0906 136.238 77.0714 132.865C80.3731 129.129 74.1019 124.992 71.8487 129.645Z" fill="url(#paint37_linear_516_95925)"/>
<path d="M72.7084 129.63C72.0657 130.921 72.5453 132.234 73.7187 133.037C75.0682 133.962 76.7221 132.868 77.2936 131.736C78.1106 130.119 76.5547 128.442 75.5894 128.167C74.6233 127.893 73.1672 128.707 72.7084 129.63Z" fill="url(#paint38_linear_516_95925)"/>
<path opacity="0.4" d="M72.4806 130.765C72.4338 130.968 72.4806 132.103 73.3427 132.693C74.2047 133.283 74.8136 133.383 74.8795 133.285C74.9454 133.188 74.9428 132.405 74.902 132.364C74.8621 132.324 74.1891 131.996 73.8648 131.549C73.5404 131.101 73.4294 130.945 73.3366 130.937C73.2447 130.928 72.5118 130.626 72.4806 130.765Z" fill="#B82774"/>
<path d="M73.5148 130.886C73.3934 131.41 74.892 132.385 75.0282 132.365C75.6726 132.273 76.4531 130.847 76.467 130.384C76.4765 130.071 75.2702 129.061 74.8842 129.182C74.5 129.304 73.6093 130.478 73.5148 130.886Z" fill="white"/>
<path opacity="0.8" d="M75.0287 132.365C74.85 132.439 74.9142 133.251 74.9758 133.258C75.6549 133.338 76.353 132.96 77.033 132.074C77.5845 131.356 77.5386 130.387 77.3027 130.091C77.216 129.981 76.4718 130.255 76.4684 130.383C76.4475 131.158 75.6158 132.118 75.0287 132.365Z" fill="#B82774"/>
<path opacity="0.75" d="M72.4307 130.587C72.4229 130.709 73.3162 131.002 73.383 130.927C73.4914 130.805 74.8391 129.218 74.8452 129.12C74.8547 128.962 74.8938 128.192 74.6657 128.181C74.5894 128.177 73.6154 128.467 73.0283 129.169C72.4403 129.87 72.4403 130.433 72.4307 130.587Z" fill="white"/>
<path d="M72.7085 129.63C72.7085 129.63 73.1274 128.921 73.8611 128.515C73.8611 128.515 74.2583 128.635 73.9478 129.136C73.6356 129.637 72.7085 129.63 72.7085 129.63Z" fill="white"/>
<path d="M74.5761 132.125C74.5483 132.169 74.8354 132.73 74.9152 132.714C74.9941 132.699 75.2959 132.258 75.2586 132.261C75.2214 132.263 74.6359 132.028 74.5761 132.125Z" fill="white"/>
<path d="M76.3438 130.128C76.2276 130.269 76.33 130.761 76.3959 130.777C76.4618 130.794 76.7593 130.236 76.7228 130.201C76.6855 130.166 76.4505 129.998 76.3438 130.128Z" fill="white"/>
<path d="M73.9033 133.922C73.9033 133.922 75.5295 134.421 77.0715 132.864C78.4869 131.436 77.9058 129.845 77.8425 129.688C77.8425 129.688 78.8927 131.567 77.0541 133.285C75.4731 134.763 73.9033 133.922 73.9033 133.922Z" fill="#FFF7C4"/>
<path opacity="0.5" d="M73.3404 133.629C72.461 132.513 71.7221 130.549 73.2485 128.97C74.7749 127.391 76.7046 128.553 77.3741 128.858C77.3741 128.858 75.068 125.706 72.4047 127.583C71.102 128.5 70.9702 130.029 71.3639 131.092C71.9381 132.641 73.3404 133.629 73.3404 133.629Z" fill="#E54136"/>
<path d="M36.6983 54.1063C35.6559 56.2588 38.9402 60.6992 41.9211 57.3264C45.2228 53.5903 38.9506 49.4526 36.6983 54.1063Z" fill="url(#paint39_linear_516_95925)"/>
<path d="M37.557 54.0906C36.9144 55.3819 37.394 56.6949 38.5674 57.498C39.9168 58.4225 41.5707 57.3289 42.1423 56.1971C42.9592 54.5797 41.4033 52.9033 40.4381 52.6284C39.4728 52.3535 38.0167 53.1687 37.557 54.0906Z" fill="url(#paint40_linear_516_95925)"/>
<path opacity="0.4" d="M37.3302 55.2265C37.2834 55.4295 37.3302 56.5638 38.1923 57.1544C39.0543 57.7442 39.6632 57.8448 39.7291 57.7468C39.795 57.6497 39.7924 56.8665 39.7516 56.8258C39.7117 56.7859 39.0387 56.4572 38.7144 56.0105C38.39 55.563 38.279 55.4069 38.1862 55.3982C38.0943 55.3896 37.3614 55.0886 37.3302 55.2265Z" fill="#B82774"/>
<path d="M38.3649 55.3479C38.2435 55.8717 39.7421 56.8465 39.8783 56.8266C40.5227 56.7346 41.3032 55.3088 41.3171 54.8457C41.3266 54.5327 40.1203 53.5232 39.7343 53.6437C39.3492 53.766 38.4594 54.9403 38.3649 55.3479Z" fill="white"/>
<path opacity="0.8" d="M39.8778 56.8274C39.6992 56.902 39.7633 57.7138 39.8249 57.7207C40.504 57.8014 41.2021 57.4224 41.8821 56.5369C42.4337 55.8188 42.3877 54.8501 42.1518 54.5535C42.0651 54.4442 41.321 54.7183 41.3175 54.8458C41.2958 55.6202 40.465 56.5811 39.8778 56.8274Z" fill="#B82774"/>
<path opacity="0.75" d="M37.2798 55.0483C37.272 55.1697 38.1653 55.4628 38.2321 55.3882C38.3405 55.266 39.6883 53.6789 39.6935 53.5809C39.703 53.423 39.742 52.6529 39.5139 52.6416C39.4376 52.6382 38.4637 52.9278 37.8765 53.6294C37.2902 54.3319 37.2902 54.8948 37.2798 55.0483Z" fill="white"/>
<path d="M37.5566 54.0919C37.5566 54.0919 37.9755 53.3824 38.7092 52.9766C38.7092 52.9766 39.1064 53.0971 38.7951 53.5984C38.4846 54.0988 37.5566 54.0919 37.5566 54.0919Z" fill="white"/>
<path d="M39.4262 56.5863C39.3984 56.6297 39.6855 57.1917 39.7653 57.1761C39.8442 57.1605 40.146 56.7199 40.1087 56.7225C40.0715 56.7251 39.486 56.4909 39.4262 56.5863Z" fill="white"/>
<path d="M41.1934 54.59C41.0772 54.7314 41.1796 55.2231 41.2455 55.2396C41.3114 55.256 41.6089 54.6984 41.5724 54.6637C41.5351 54.6282 41.3001 54.459 41.1934 54.59Z" fill="white"/>
<path d="M38.7534 58.3853C38.7534 58.3853 40.3796 58.884 41.9216 57.3272C43.3369 55.8989 42.7559 54.3083 42.6926 54.1514C42.6926 54.1514 43.7428 56.0298 41.9042 57.7479C40.3232 59.2248 38.7534 58.3853 38.7534 58.3853Z" fill="#FFF7C4"/>
<path opacity="0.5" d="M38.1899 58.0921C37.3105 56.9759 36.5716 55.0116 38.098 53.4332C39.6244 51.8539 41.5541 53.016 42.2236 53.3213C42.2236 53.3213 39.9184 50.1688 37.2542 52.0456C35.9515 52.9631 35.8188 54.4921 36.2134 55.5554C36.7876 57.1025 38.1899 58.0921 38.1899 58.0921Z" fill="#E54136"/>
<path d="M107.69 54.1063C106.648 56.2588 109.932 60.6992 112.913 57.3264C116.215 53.5903 109.943 49.4526 107.69 54.1063Z" fill="url(#paint41_linear_516_95925)"/>
<path d="M108.55 54.0906C107.906 55.3819 108.387 56.6949 109.56 57.498C110.909 58.4225 112.563 57.3289 113.135 56.1971C113.952 54.5797 112.396 52.9033 111.431 52.6284C110.465 52.3535 109.008 53.1687 108.55 54.0906Z" fill="url(#paint42_linear_516_95925)"/>
<path opacity="0.4" d="M108.322 55.2265C108.275 55.4295 108.322 56.5638 109.184 57.1544C110.046 57.7442 110.655 57.8448 110.721 57.7468C110.787 57.6497 110.784 56.8665 110.744 56.8258C110.704 56.7859 110.03 56.4572 109.707 56.0105C109.383 55.563 109.272 55.4069 109.179 55.3982C109.086 55.3896 108.354 55.0886 108.322 55.2265Z" fill="#B82774"/>
<path d="M109.357 55.3479C109.235 55.8717 110.734 56.8465 110.87 56.8266C111.514 56.7346 112.295 55.3088 112.309 54.8457C112.318 54.5327 111.112 53.5232 110.726 53.6437C110.342 53.766 109.451 54.9403 109.357 55.3479Z" fill="white"/>
<path opacity="0.8" d="M110.87 56.8274C110.691 56.902 110.755 57.7138 110.817 57.7207C111.496 57.8014 112.194 57.4224 112.874 56.5369C113.425 55.8188 113.379 54.8501 113.143 54.5535C113.057 54.4442 112.313 54.7183 112.309 54.8458C112.288 55.6202 111.457 56.5811 110.87 56.8274Z" fill="#B82774"/>
<path opacity="0.75" d="M108.272 55.0483C108.264 55.1697 109.157 55.4628 109.224 55.3882C109.333 55.266 110.68 53.6789 110.686 53.5809C110.695 53.423 110.734 52.6529 110.506 52.6416C110.43 52.6382 109.456 52.9278 108.869 53.6294C108.282 54.3319 108.282 54.8948 108.272 55.0483Z" fill="white"/>
<path d="M108.549 54.0919C108.549 54.0919 108.967 53.3824 109.701 52.9766C109.701 52.9766 110.098 53.0971 109.788 53.5984C109.477 54.0988 108.549 54.0919 108.549 54.0919Z" fill="white"/>
<path d="M110.418 56.5863C110.39 56.6297 110.677 57.1917 110.757 57.1761C110.836 57.1605 111.138 56.7199 111.1 56.7225C111.063 56.7251 110.478 56.4909 110.418 56.5863Z" fill="white"/>
<path d="M112.186 54.59C112.069 54.7314 112.172 55.2231 112.238 55.2396C112.304 55.256 112.601 54.6984 112.565 54.6637C112.528 54.6282 112.292 54.459 112.186 54.59Z" fill="white"/>
<path d="M109.745 58.3853C109.745 58.3853 111.371 58.884 112.913 57.3272C114.329 55.8989 113.748 54.3083 113.684 54.1514C113.684 54.1514 114.735 56.0298 112.896 57.7479C111.315 59.2248 109.745 58.3853 109.745 58.3853Z" fill="#FFF7C4"/>
<path opacity="0.5" d="M109.182 58.0921C108.302 56.9759 107.563 55.0116 109.09 53.4332C110.616 51.8539 112.546 53.016 113.215 53.3213C113.215 53.3213 110.909 50.1688 108.246 52.0456C106.943 52.9631 106.811 54.4921 107.205 55.5554C107.779 57.1025 109.182 58.0921 109.182 58.0921Z" fill="#E54136"/>
<path opacity="0.3" d="M58.2896 38.0518C62.4498 45.3116 77.4311 49.5654 84.6052 49.7215C91.8529 49.8785 90.3768 38.0518 90.3768 38.0518H58.2896Z" fill="#DA0553"/>
<path d="M60.6362 16.2695C60.6362 16.2695 59.6631 18.651 60.049 19.5339C60.4349 20.4167 61.036 21.1704 60.2147 22.7974C60.2147 22.7974 61.5442 22.9708 61.036 18.8097C60.8426 17.2226 60.6362 16.2695 60.6362 16.2695Z" fill="url(#paint43_linear_516_95925)"/>
<path d="M75.1848 24.6293C74.9212 24.7013 74.6566 24.7707 74.3921 24.8444C70.1806 25.9839 65.9943 27.2094 61.8366 28.5302C60.0778 27.1704 58.234 25.9779 56.3347 24.8817C53.7519 23.3926 51.0669 22.0787 48.3428 20.7657C54.072 20.8281 59.8003 22.8714 60.2157 22.7968C61.2261 22.6138 61.3371 19.9964 60.5305 16.6948C60.0344 14.668 68.0454 19.1413 72.7131 22.5834C73.3436 23.0492 73.9134 23.4958 74.393 23.9043C74.6965 24.1636 74.9628 24.4047 75.1848 24.6293Z" fill="url(#paint44_linear_516_95925)"/>
<path d="M88.1479 16.2695C88.1479 16.2695 89.121 18.1549 88.7351 19.0378C88.3492 19.9207 87.7481 21.1704 88.5694 22.7974C88.5694 22.7974 87.2399 22.9708 87.7473 18.8097C87.9415 17.2226 88.1479 16.2695 88.1479 16.2695Z" fill="url(#paint45_linear_516_95925)"/>
<path d="M100.325 20.7653C98.1126 21.9812 95.9462 23.0583 93.8431 24.191C91.4589 25.4719 89.1546 26.8248 86.9465 28.5298C82.788 27.209 78.6043 25.9836 74.3928 24.844C74.1291 24.7694 73.8646 24.7 73.6001 24.6289C73.8221 24.4043 74.0892 24.1606 74.3928 23.9039C74.8932 23.4755 75.4959 23.0071 76.1603 22.5189C80.8401 19.0863 88.7461 14.6798 88.2526 16.6953C87.4461 19.996 87.558 22.6143 88.5701 22.7973C88.9829 22.871 94.5959 20.8277 100.325 20.7653Z" fill="url(#paint46_linear_516_95925)"/>
<path opacity="0.7" d="M93.8432 24.191C91.4591 25.4719 89.1547 26.8248 86.9466 28.5299C82.7881 27.209 78.6044 25.9836 74.3929 24.844C70.1814 25.9836 65.9951 27.209 61.8374 28.5299C60.0786 27.17 58.2348 25.9775 56.3354 24.8813C56.9512 24.5336 57.3614 24.3063 57.3614 24.3063C62.5043 23.2387 67.812 22.747 72.7139 22.5831C73.8881 22.5441 75.0399 22.5233 76.1613 22.5181C85.8495 22.4712 93.2205 23.5674 93.2205 23.5674L93.8432 24.191Z" fill="#D42F55"/>
<path d="M92.3038 30.7173C91.5007 31.7997 90.9525 32.5863 90.9525 32.5863C90.9525 32.5863 90.6438 37.6137 90.3767 38.0526C90.1096 38.4914 88.408 39.5365 87.676 39.9024C72.8804 47.2993 60.9892 39.9024 60.9892 39.9024C60.9892 39.9024 58.5565 38.4914 58.2894 38.0526C58.0223 37.6137 57.7135 32.5863 57.7135 32.5863C57.7118 32.5845 57.7109 32.5828 57.7101 32.5811C57.645 32.4874 56.7751 31.2143 55.567 29.6896L55.5662 29.687C53.2349 26.6542 48.3418 20.7656 48.3418 20.7656C48.471 20.3528 60.2408 26.5606 61.2624 26.2302C62.5312 25.8191 63.6439 17.7354 65.1478 13.9255C66.9309 9.40713 69.7374 2.55233 74.2472 0.0338242C74.2489 0.0199481 74.2489 0.0138761 74.2507 0C74.2749 0 74.3053 0.00261024 74.333 0.00868103C74.3643 0.00261024 74.3911 0 74.4189 0C74.4189 0.0138761 74.4189 0.0199481 74.4189 0.0338242C83.1636 5.27292 84.7281 24.4358 87.4219 25.8381C88.9249 26.6204 100.327 20.7656 100.327 20.7656C100.438 20.9954 94.8214 27.322 92.3038 30.7173Z" fill="url(#paint47_linear_516_95925)"/>
<path opacity="0.5" d="M92.3036 30.7181C91.4832 31.8031 90.9524 32.5871 90.9524 32.5871C79.4507 38.7229 69.5135 37.4133 57.7134 32.5871C57.7116 32.5853 57.7108 32.5836 57.7099 32.5819C57.6449 32.4882 56.775 31.2151 55.5669 29.6904C59.6934 33.3685 67.9992 36.4186 74.835 36.4186C80.5686 36.4195 86.7123 33.4318 92.3036 30.7181Z" fill="#D42F55"/>
<path opacity="0.5" d="M60.9902 39.9023C60.9868 39.9084 65.9363 43.1901 73.936 43.1884C82.0302 43.1875 87.677 39.9023 87.677 39.9023C87.6744 39.898 81.2063 42.3402 73.6004 42.3402C66.4211 42.3411 60.9902 39.9023 60.9902 39.9023Z" fill="#D42F55"/>
<path d="M88.6911 22.7699C88.6772 22.7421 94.8539 20.6546 100.326 20.7665C100.917 20.7787 89.6832 27.3412 87.404 26.2302C85.8534 25.4749 84.6045 19.0381 84.6045 19.0381C84.6123 19.0364 87.0988 24.6735 88.6521 24.9111C90.358 25.1713 96.4757 22.0449 96.4757 22.0449C96.1479 21.7934 88.6911 22.7699 88.6911 22.7699Z" fill="url(#paint48_linear_516_95925)"/>
<path d="M59.6809 22.7149C59.6939 22.6897 51.8434 20.3646 48.2503 20.6447C47.7689 20.682 59.0747 27.3746 61.2611 26.2299C62.8534 25.3964 63.8039 18.5156 63.8039 18.5156C63.7961 18.5139 61.5802 24.6124 60.0131 24.9108C58.2846 25.2395 52.2493 21.8285 52.2493 21.8285C52.31 21.6594 59.6809 22.7149 59.6809 22.7149Z" fill="url(#paint49_linear_516_95925)"/>
<path d="M81.038 8.64568C81.038 8.64568 77.3642 0 74.2507 0C71.341 0 67.3247 8.81913 67.3247 8.81913C67.3247 8.81913 71.6047 3.10824 74.334 2.91571C76.7944 2.74313 81.038 8.64568 81.038 8.64568Z" fill="url(#paint50_linear_516_95925)"/>
<path opacity="0.2" d="M74.4726 33.4691C72.7077 33.7301 63.5848 26.7834 63.8077 23.2563C64.1312 18.1334 68.6974 6.91197 74.0641 5.51655C78.6849 4.3154 83.5425 16.7839 84.1097 22.2494C84.6881 27.8276 76.9417 33.1048 74.4726 33.4691Z" fill="#D42F55"/>
<path d="M61.5727 39.4681C60.0507 36.9704 60.7055 34.7389 61.1287 34.4918C61.7627 34.1214 69.6618 36.5888 70.3755 37.2557C70.98 37.8203 74.1404 41.8114 72.1708 41.7932C69.9731 41.7732 62.1781 40.4619 61.5727 39.4681Z" fill="white"/>
<path opacity="0.5" d="M55.3177 25.2807C53.4643 24.5565 50.1964 22.417 50.1964 22.417C50.0663 22.5722 54.8927 29.225 57.5821 31.002C58.4901 31.6012 56.2977 25.6631 55.3177 25.2807Z" fill="#D42F55"/>
<path opacity="0.8" d="M80.6413 37.051C79.1583 38.619 79.8686 41.8643 80.1635 41.794C82.4713 41.2433 86.0357 40.3613 87.6766 38.7664C88.8145 37.6598 88.5326 34.3642 88.1519 34.4744C85.8337 35.1456 82.0975 35.5116 80.6413 37.051Z" fill="url(#paint51_linear_516_95925)"/>
<path opacity="0.8" d="M81.6572 34.6448C82.0752 35.2016 88.1322 32.6449 89.8399 31.1325C90.564 30.4907 91.8537 26.9592 91.1928 26.9367C90.532 26.9141 85.0447 26.6175 84.2009 27.6808C82.7014 29.5723 81.3649 34.2554 81.6572 34.6448Z" fill="url(#paint52_linear_516_95925)"/>
<path d="M90.5479 31.2717C90.6953 31.3715 98.3767 23.378 98.3784 23.0866C98.381 22.5333 93.2347 25.1585 92.6961 26.0647C91.2061 28.572 90.5479 31.2717 90.5479 31.2717Z" fill="white"/>
<path d="M90.5579 33.3349C89.767 33.6775 89.5328 33.4017 89.3663 34.0027C89.2006 34.6037 88.3169 39.5202 89.8389 38.0519C90.1867 37.7172 91.0384 33.1277 90.5579 33.3349Z" fill="white"/>
<path opacity="0.5" d="M57.8546 33.3691C57.7185 33.4385 57.983 37.2605 58.6248 38.035C59.2666 38.8094 61.1789 39.8137 61.0271 39.3523C60.427 37.5285 57.8546 33.3691 57.8546 33.3691Z" fill="#D42F55"/>
<path d="M58.4071 27.7199C57.7584 28.4778 57.8703 30.3936 59.6968 31.3207C61.5241 32.2469 69.7389 35.1323 69.5073 33.9164C69.2758 32.7005 65.3097 27.2299 64.3531 26.896C63.3965 26.5621 59.068 26.9489 58.4071 27.7199Z" fill="white"/>
<path d="M61.0362 35.5956C63.0206 40.7957 69.7315 38.4046 69.5121 37.7386C69.2927 37.0725 60.1525 33.2792 61.0362 35.5956Z" fill="white"/>
<path d="M73.0406 1.89007C69.4059 2.65499 68.6271 6.71028 69.0382 6.76145C69.4501 6.81261 74.9174 1.49547 73.0406 1.89007Z" fill="white"/>
<path d="M51.9031 22.2533C49.5095 22.1379 55.8093 25.1299 56.2759 25.0727C57.5829 24.9123 54.1181 22.3608 51.9031 22.2533Z" fill="white"/>
<path d="M97.811 22.3601C96.857 22.0037 95.2292 22.5483 94.1919 23.4789C93.6091 24.001 92.7947 24.9931 93.048 24.8795C93.3012 24.7668 98.3453 22.5596 97.811 22.3601Z" fill="white"/>
<path d="M82.0558 28.4213C81.0133 30.5739 84.2977 35.0142 87.2785 31.6414C90.581 27.9053 84.3089 23.7685 82.0558 28.4213Z" fill="url(#paint53_linear_516_95925)"/>
<path d="M82.9153 28.4057C82.2718 29.6971 82.7523 31.0101 83.9257 31.8132C85.2751 32.7377 86.929 31.6449 87.5006 30.5123C88.3175 28.8949 86.7616 27.2176 85.7964 26.9435C84.8311 26.6695 83.3741 27.4839 82.9153 28.4057Z" fill="url(#paint54_linear_516_95925)"/>
<path opacity="0.4" d="M82.6871 29.5409C82.6403 29.7439 82.6871 30.8782 83.5492 31.4688C84.4113 32.0586 85.0201 32.1592 85.086 32.062C85.1519 31.9649 85.1493 31.1817 85.1094 31.141C85.0695 31.1011 84.3957 30.7724 84.0722 30.3249C83.7478 29.8783 83.6368 29.7213 83.544 29.7126C83.4512 29.7048 82.7192 29.403 82.6871 29.5409Z" fill="#B82774"/>
<path d="M83.7218 29.6614C83.6004 30.1852 85.0991 31.16 85.2352 31.14C85.8796 31.0481 86.6602 29.6223 86.674 29.1592C86.6836 28.8461 85.4772 27.8367 85.0913 27.9572C84.707 28.0795 83.8164 29.2538 83.7218 29.6614Z" fill="white"/>
<path opacity="0.8" d="M85.2352 31.141C85.0566 31.2156 85.1208 32.0274 85.1823 32.0343C85.8614 32.115 86.5596 31.736 87.2395 30.8505C87.7911 30.1324 87.7451 29.1646 87.5092 28.868C87.4225 28.7587 86.6784 29.0327 86.6749 29.1602C86.6541 29.9338 85.8224 30.8947 85.2352 31.141Z" fill="#B82774"/>
<path opacity="0.75" d="M82.6373 29.3616C82.6295 29.4831 83.5227 29.7762 83.5895 29.7007C83.6979 29.5785 85.0457 27.9914 85.0509 27.8934C85.0604 27.7347 85.0994 26.9654 84.8714 26.9541C84.795 26.9507 83.8211 27.2403 83.2339 27.9419C82.6468 28.6436 82.6468 29.2081 82.6373 29.3616Z" fill="white"/>
<path d="M82.915 28.4053C82.915 28.4053 83.3331 27.6959 84.0668 27.29C84.0668 27.29 84.464 27.4106 84.1535 27.9119C83.843 28.4123 82.915 28.4053 82.915 28.4053Z" fill="white"/>
<path d="M84.7831 30.9008C84.7554 30.945 85.0433 31.5061 85.1222 31.4905C85.2012 31.4749 85.503 31.0343 85.4657 31.0378C85.4284 31.0396 84.843 30.8054 84.7831 30.9008Z" fill="white"/>
<path d="M86.5504 28.9031C86.4342 29.0445 86.5365 29.5362 86.6024 29.5527C86.6683 29.5692 86.9658 29.0115 86.9294 28.9768C86.893 28.9413 86.657 28.773 86.5504 28.9031Z" fill="white"/>
<path d="M84.1104 32.6988C84.1104 32.6988 85.7365 33.1975 87.2785 31.6407C88.6939 30.2124 88.1128 28.6218 88.0504 28.4648C88.0504 28.4648 89.1006 30.3433 87.262 32.0614C85.6801 33.5383 84.1104 32.6988 84.1104 32.6988Z" fill="#FFF7C4"/>
<path opacity="0.5" d="M83.5485 32.4056C82.669 31.2894 81.9301 29.3259 83.4565 27.7467C84.9829 26.1674 86.9126 27.3295 87.5821 27.6348C87.5821 27.6348 85.276 24.4823 82.6127 26.3591C81.31 27.2766 81.1782 28.8056 81.5719 29.8688C82.1452 31.4169 83.5485 32.4056 83.5485 32.4056Z" fill="#E54136"/>
<path d="M61.4757 28.495C60.4332 30.6475 63.7176 35.0878 66.6984 31.7151C70.001 27.9789 63.7289 23.8413 61.4757 28.495Z" fill="url(#paint55_linear_516_95925)"/>
<path d="M62.3347 28.4809C61.6912 29.7723 62.1717 31.0853 63.3451 31.8884C64.6946 32.8129 66.3485 31.7193 66.92 30.5875C67.737 28.9701 66.1811 27.2928 65.2158 27.0187C64.2505 26.7447 62.7944 27.559 62.3347 28.4809Z" fill="url(#paint56_linear_516_95925)"/>
<path opacity="0.4" d="M62.1066 29.6161C62.0597 29.819 62.1066 30.9534 62.9686 31.544C63.8307 32.1337 64.4395 32.2343 64.5055 32.1363C64.5714 32.0392 64.5688 31.2561 64.5289 31.2153C64.489 31.1754 63.8151 30.8467 63.4916 30.4001C63.1673 29.9526 63.0562 29.7965 62.9634 29.7878C62.8706 29.78 62.1387 29.4782 62.1066 29.6161Z" fill="#B82774"/>
<path d="M63.1427 29.7366C63.0213 30.2604 64.52 31.2352 64.6561 31.2152C65.3005 31.1233 66.0811 29.6975 66.0949 29.2344C66.1045 28.9213 64.8981 27.9119 64.5122 28.0324C64.1271 28.1547 63.2364 29.3289 63.1427 29.7366Z" fill="white"/>
<path opacity="0.8" d="M64.6557 31.2162C64.477 31.2908 64.5412 32.1026 64.6027 32.1095C65.2818 32.1902 65.98 31.8112 66.6599 30.9257C67.2115 30.2076 67.1655 29.2397 66.9296 28.9431C66.8429 28.8339 66.0988 29.1079 66.0953 29.2363C66.0736 30.009 65.2428 30.9699 64.6557 31.2162Z" fill="#B82774"/>
<path opacity="0.75" d="M62.0577 29.4369C62.0499 29.5583 62.9431 29.8515 63.0099 29.7769C63.1183 29.6546 64.4661 28.0675 64.4713 27.9695C64.4808 27.8117 64.5198 27.0416 64.2917 27.0303C64.2154 27.0268 63.2415 27.3165 62.6544 28.0181C62.0672 28.7197 62.0672 29.2834 62.0577 29.4369Z" fill="white"/>
<path d="M62.3345 28.4805C62.3345 28.4805 62.7525 27.7711 63.4862 27.3652C63.4862 27.3652 63.8834 27.4858 63.5729 27.9871C63.2625 28.4875 62.3345 28.4805 62.3345 28.4805Z" fill="white"/>
<path d="M64.204 30.975C64.1763 31.0184 64.4634 31.5804 64.5431 31.5648C64.6221 31.5491 64.9239 31.1086 64.8866 31.1112C64.8493 31.1138 64.2639 30.8796 64.204 30.975Z" fill="white"/>
<path d="M65.9708 28.9783C65.8546 29.1197 65.9569 29.6114 66.0228 29.6279C66.0887 29.6444 66.3862 29.0867 66.3498 29.052C66.3134 29.0165 66.0775 28.8482 65.9708 28.9783Z" fill="white"/>
<path d="M63.5312 32.774C63.5312 32.774 65.1574 33.2727 66.6994 31.7159C68.1148 30.2876 67.5337 28.697 67.4704 28.54C67.4704 28.54 68.5207 30.4185 66.6821 32.1366C65.101 33.6135 63.5312 32.774 63.5312 32.774Z" fill="#FFF7C4"/>
<path opacity="0.5" d="M62.9678 32.4808C62.0884 31.3646 61.3495 29.4003 62.8758 27.8219C64.4022 26.2426 66.3319 27.4047 67.0014 27.71C67.0014 27.71 64.6954 24.5575 62.032 26.4343C60.7293 27.3518 60.5967 28.8808 60.9913 29.944C61.5654 31.4921 62.9678 32.4808 62.9678 32.4808Z" fill="#E54136"/>
<path opacity="0.5" d="M82.5364 19.3058C86.3732 31.2185 76.1056 33.2201 74.6477 32.8966C67.3245 31.2722 66.1103 24.6837 66.3332 21.5954C66.5717 18.2842 81.9432 17.4638 82.5364 19.3058Z" fill="#7E527C"/>
<path d="M81.6355 16.8464C84.9555 22.4324 81.1117 28.3653 75.8985 29.2898C70.6854 30.2142 64.6414 25.3793 66.6326 18.6242C68.6239 11.8692 78.7206 11.9403 81.6355 16.8464Z" fill="url(#paint57_linear_516_95925)"/>
<path d="M75.8984 29.2892C79.8324 28.591 82.9858 25.0413 82.8713 20.9401C82.311 25.6276 78.8983 29.7158 72.0833 28.1045C71.2516 27.9076 66.6325 25.769 66.2501 20.9219C66.0523 26.4368 71.2984 30.1061 75.8984 29.2892Z" fill="url(#paint58_linear_516_95925)"/>
<path opacity="0.5" d="M66.9155 17.8326C67.2061 18.5265 70.8278 14.9967 70.3517 14.2578H70.3491C68.8626 14.9898 67.6198 16.1684 66.9155 17.8326Z" fill="url(#paint59_linear_516_95925)"/>
<path d="M68.092 18.3588C65.8189 23.0533 72.9808 32.7362 79.4827 25.381C86.6837 17.234 73.0051 8.21017 68.092 18.3588Z" fill="url(#paint60_linear_516_95925)"/>
<path d="M69.9656 18.3255C68.5632 21.1424 69.61 24.0043 72.1693 25.757C75.1129 27.7725 78.7198 25.3893 79.9661 22.9202C81.7466 19.3931 78.3547 15.7359 76.249 15.1366C74.1433 14.5373 70.9664 16.3143 69.9656 18.3255Z" fill="url(#paint61_linear_516_95925)"/>
<path opacity="0.4" d="M69.4679 20.8018C69.3656 21.245 69.4679 23.7192 71.3481 25.0054C73.2284 26.2915 74.5562 26.5109 74.6993 26.2985C74.8424 26.086 74.8372 24.3784 74.7496 24.2899C74.662 24.2023 73.1937 23.486 72.4869 22.5112C71.78 21.5364 71.5372 21.1955 71.3351 21.1765C71.1348 21.1574 69.5381 20.5 69.4679 20.8018Z" fill="#B82774"/>
<path d="M71.7252 21.0644C71.4607 22.2057 74.7285 24.3322 75.0269 24.2897C76.4327 24.0894 78.1352 20.9803 78.1647 19.9708C78.1846 19.2882 75.5542 17.0863 74.7138 17.3499C73.8725 17.6136 71.9307 20.1754 71.7252 21.0644Z" fill="white"/>
<path opacity="0.8" d="M75.0264 24.2892C74.637 24.4522 74.7775 26.2214 74.911 26.237C76.3914 26.4139 77.9144 25.5866 79.3965 23.6561C80.5994 22.0898 80.4997 19.978 79.9845 19.3311C79.7955 19.0934 78.1728 19.6901 78.165 19.9694C78.119 21.6579 76.3064 23.7523 75.0264 24.2892Z" fill="#B82774"/>
<path opacity="0.75" d="M69.3605 20.4119C69.344 20.6773 71.2919 21.3156 71.4367 21.1525C71.6735 20.8863 74.6127 17.4251 74.6248 17.2117C74.6447 16.8666 74.7297 15.1884 74.2328 15.1641C74.0663 15.1563 71.9423 15.7877 70.6622 17.3184C69.3813 18.8491 69.3813 20.0771 69.3605 20.4119Z" fill="white"/>
<path d="M69.9663 18.3262C69.9663 18.3262 70.8787 16.779 72.4788 15.8936C72.4788 15.8936 73.3452 16.1572 72.667 17.2491C71.9897 18.3409 69.9663 18.3262 69.9663 18.3262Z" fill="white"/>
<path d="M74.0401 23.766C73.9803 23.8614 74.6065 25.0859 74.7791 25.0512C74.9508 25.0165 75.6099 24.0573 75.5284 24.0626C75.4469 24.0695 74.1711 23.5569 74.0401 23.766Z" fill="white"/>
<path d="M77.8945 19.413C77.6421 19.7218 77.8641 20.7928 78.0081 20.8284C78.1521 20.8639 78.8008 19.648 78.721 19.5717C78.6412 19.4963 78.1269 19.1286 77.8945 19.413Z" fill="white"/>
<path d="M72.5728 27.6898C72.5728 27.6898 76.1182 28.7774 79.4823 25.3821C82.5689 22.2669 81.3018 18.7987 81.1648 18.457C81.1648 18.457 83.4553 22.5531 79.445 26.2996C75.9967 29.5215 72.5728 27.6898 72.5728 27.6898Z" fill="#FFD2FF"/>
<path opacity="0.5" d="M71.3456 27.0492C69.4281 24.6157 66.9962 19.6186 70.3248 16.1747C73.6534 12.7308 78.6836 15.9778 80.1432 16.6448C80.1432 16.6448 77.0149 11.1646 70.585 14.1904C68.1271 15.3465 67.488 17.0827 67.6944 21.0062C67.8835 24.6018 71.3456 27.0492 71.3456 27.0492Z" fill="#D42F55"/>
<defs>
<linearGradient id="paint0_linear_516_95925" x1="47.5289" y1="63.0072" x2="-0.00036262" y2="63.0072" gradientUnits="userSpaceOnUse">
<stop stop-color="#1B8BBF"/>
<stop offset="0.5714" stop-color="#F046ED"/>
<stop offset="0.994" stop-color="#F7C319"/>
</linearGradient>
<linearGradient id="paint1_linear_516_95925" x1="102.471" y1="63.0082" x2="150" y2="63.0082" gradientUnits="userSpaceOnUse">
<stop stop-color="#1B8BBF"/>
<stop offset="0.5714" stop-color="#F046ED"/>
<stop offset="0.994" stop-color="#F7C319"/>
</linearGradient>
<linearGradient id="paint2_linear_516_95925" x1="28.7723" y1="112.715" x2="121.752" y2="112.715" gradientUnits="userSpaceOnUse">
<stop stop-color="#DE0086"/>
<stop offset="1" stop-color="#FF003B"/>
</linearGradient>
<linearGradient id="paint3_linear_516_95925" x1="28.7723" y1="149.436" x2="121.752" y2="149.436" gradientUnits="userSpaceOnUse">
<stop stop-color="#FFA933"/>
<stop offset="0.7937" stop-color="#FFBD2B"/>
<stop offset="0.9009" stop-color="#E5942F"/>
<stop offset="1" stop-color="#CA6B34"/>
</linearGradient>
<linearGradient id="paint4_linear_516_95925" x1="73.155" y1="105.311" x2="73.155" y2="177.362" gradientUnits="userSpaceOnUse">
<stop stop-color="#DE0086"/>
<stop offset="1" stop-color="#FF003B"/>
</linearGradient>
<linearGradient id="paint5_linear_516_95925" x1="57.6187" y1="163.447" x2="88.6917" y2="163.447" gradientUnits="userSpaceOnUse">
<stop stop-color="#CA6B34"/>
<stop offset="0.065" stop-color="#CC6E34"/>
<stop offset="0.113" stop-color="#D27733"/>
<stop offset="0.1555" stop-color="#DC8731"/>
<stop offset="0.1948" stop-color="#EB9E2E"/>
<stop offset="0.2317" stop-color="#FEBB2B"/>
<stop offset="0.2341" stop-color="#FFBD2B"/>
<stop offset="0.6007" stop-color="#FFBA2C"/>
<stop offset="0.8709" stop-color="#FFB130"/>
<stop offset="1" stop-color="#FFA933"/>
</linearGradient>
<linearGradient id="paint6_linear_516_95925" x1="52.3826" y1="141.297" x2="93.9277" y2="141.297" gradientUnits="userSpaceOnUse">
<stop stop-color="#EE9C50"/>
<stop offset="0.073" stop-color="#E59255"/>
<stop offset="0.5069" stop-color="#B3586F"/>
<stop offset="0.8284" stop-color="#94357F"/>
<stop offset="1" stop-color="#882785"/>
</linearGradient>
<linearGradient id="paint7_linear_516_95925" x1="75.0002" y1="145.229" x2="75.0002" y2="56.7403" gradientUnits="userSpaceOnUse">
<stop stop-color="#4133A1"/>
<stop offset="1" stop-color="#D241B4"/>
</linearGradient>
<linearGradient id="paint8_linear_516_95925" x1="75.1193" y1="127.003" x2="75.1193" y2="40.7788" gradientUnits="userSpaceOnUse">
<stop stop-color="#4133A1"/>
<stop offset="1" stop-color="#D241B4"/>
</linearGradient>
<linearGradient id="paint9_linear_516_95925" x1="75.1182" y1="45.6024" x2="75.1182" y2="123.711" gradientUnits="userSpaceOnUse">
<stop stop-color="#4ABCC2"/>
<stop offset="1" stop-color="#FACB20"/>
</linearGradient>
<linearGradient id="paint10_linear_516_95925" x1="92.7385" y1="62.5515" x2="92.7385" y2="41.4192" gradientUnits="userSpaceOnUse">
<stop stop-color="#662D87"/>
<stop offset="1" stop-color="#D01C5C"/>
</linearGradient>
<linearGradient id="paint11_linear_516_95925" x1="93.0732" y1="126.527" x2="93.0732" y2="61.106" gradientUnits="userSpaceOnUse">
<stop stop-color="#F046ED"/>
<stop offset="0.994" stop-color="#F7C319"/>
</linearGradient>
<linearGradient id="paint12_linear_516_95925" x1="120.191" y1="84.3434" x2="30.0495" y2="84.3434" gradientUnits="userSpaceOnUse">
<stop stop-color="#1B8BBF"/>
<stop offset="0.5714" stop-color="#F046ED"/>
<stop offset="0.994" stop-color="#F7C319"/>
</linearGradient>
<linearGradient id="paint13_linear_516_95925" x1="43.5561" y1="86.7159" x2="106.68" y2="86.7159" gradientUnits="userSpaceOnUse">
<stop stop-color="#80AFFF"/>
<stop offset="0.133" stop-color="#94B9EF"/>
<stop offset="0.5387" stop-color="#CED6C2"/>
<stop offset="0.8395" stop-color="#F1E8A6"/>
<stop offset="1" stop-color="#FFEF9B"/>
</linearGradient>
<linearGradient id="paint14_linear_516_95925" x1="110.469" y1="68.9488" x2="110.469" y2="99.6319" gradientUnits="userSpaceOnUse">
<stop stop-color="#E42A7B"/>
<stop offset="1" stop-color="white"/>
</linearGradient>
<linearGradient id="paint15_linear_516_95925" x1="40.021" y1="68.011" x2="40.021" y2="101.651" gradientUnits="userSpaceOnUse">
<stop stop-color="#E42A7B"/>
<stop offset="1" stop-color="white"/>
</linearGradient>
<linearGradient id="paint16_linear_516_95925" x1="52.9792" y1="123.502" x2="58.7351" y2="123.502" gradientUnits="userSpaceOnUse">
<stop stop-color="#612152"/>
<stop offset="1" stop-color="#92205D"/>
</linearGradient>
<linearGradient id="paint17_linear_516_95925" x1="99.6255" y1="44.7572" x2="105.916" y2="44.7572" gradientUnits="userSpaceOnUse">
<stop stop-color="#612152"/>
<stop offset="1" stop-color="#92205D"/>
</linearGradient>
<linearGradient id="paint18_linear_516_95925" x1="109.295" y1="116.117" x2="109.295" y2="122.304" gradientUnits="userSpaceOnUse">
<stop stop-color="#4133A1"/>
<stop offset="1" stop-color="#4A34A2"/>
</linearGradient>
<linearGradient id="paint19_linear_516_95925" x1="109.047" y1="118.165" x2="109.047" y2="105.97" gradientUnits="userSpaceOnUse">
<stop stop-color="#1B8BBF"/>
<stop offset="1" stop-color="#F046ED"/>
</linearGradient>
<linearGradient id="paint20_linear_516_95925" x1="40.647" y1="116.116" x2="40.647" y2="122.303" gradientUnits="userSpaceOnUse">
<stop stop-color="#4133A1"/>
<stop offset="1" stop-color="#4A34A2"/>
</linearGradient>
<linearGradient id="paint21_linear_516_95925" x1="40.8955" y1="118.165" x2="40.8956" y2="105.97" gradientUnits="userSpaceOnUse">
<stop stop-color="#1B8BBF"/>
<stop offset="1" stop-color="#F046ED"/>
</linearGradient>
<linearGradient id="paint22_linear_516_95925" x1="120.728" y1="75.9486" x2="126.365" y2="62.5157" gradientUnits="userSpaceOnUse">
<stop stop-color="#4133A1"/>
<stop offset="1" stop-color="#4A34A2"/>
</linearGradient>
<linearGradient id="paint23_linear_516_95925" x1="121.723" y1="57.5199" x2="121.723" y2="70.1615" gradientUnits="userSpaceOnUse">
<stop stop-color="#1B8BBF"/>
<stop offset="1" stop-color="#F046ED"/>
</linearGradient>
<linearGradient id="paint24_linear_516_95925" x1="29.5131" y1="75.2729" x2="24.159" y2="62.5157" gradientUnits="userSpaceOnUse">
<stop stop-color="#4133A1"/>
<stop offset="1" stop-color="#4A34A2"/>
</linearGradient>
<linearGradient id="paint25_linear_516_95925" x1="28.8018" y1="57.52" x2="28.8016" y2="70.1615" gradientUnits="userSpaceOnUse">
<stop stop-color="#1B8BBF"/>
<stop offset="1" stop-color="#F046ED"/>
</linearGradient>
<linearGradient id="paint26_linear_516_95925" x1="46.224" y1="82.58" x2="103.782" y2="82.58" gradientUnits="userSpaceOnUse">
<stop stop-color="#4A5BAD"/>
<stop offset="1" stop-color="#9158BC"/>
</linearGradient>
<linearGradient id="paint27_linear_516_95925" x1="74.8534" y1="106.096" x2="74.8525" y2="65.8986" gradientUnits="userSpaceOnUse">
<stop stop-color="#1B8BBF"/>
<stop offset="0.994" stop-color="#F7C319"/>
</linearGradient>
<linearGradient id="paint28_linear_516_95925" x1="74.9995" y1="108.058" x2="74.9995" y2="56.0587" gradientUnits="userSpaceOnUse">
<stop stop-color="#F046ED"/>
<stop offset="0.994" stop-color="#F7C319"/>
</linearGradient>
<linearGradient id="paint29_linear_516_95925" x1="74.7771" y1="92.3097" x2="74.7771" y2="77.1716" gradientUnits="userSpaceOnUse">
<stop stop-color="#1B8BBF"/>
<stop offset="0.5714" stop-color="#F046ED"/>
<stop offset="0.994" stop-color="#F7C319"/>
</linearGradient>
<linearGradient id="paint30_linear_516_95925" x1="83.0927" y1="88.0286" x2="66.4629" y2="88.0286" gradientUnits="userSpaceOnUse">
<stop stop-color="#4A5BAD"/>
<stop offset="1" stop-color="#9158BC"/>
</linearGradient>
<linearGradient id="paint31_linear_516_95925" x1="70.6128" y1="78.9578" x2="67.134" y2="78.9578" gradientUnits="userSpaceOnUse">
<stop stop-color="#EBBD38"/>
<stop offset="1" stop-color="#FFF29E"/>
</linearGradient>
<linearGradient id="paint32_linear_516_95925" x1="81.753" y1="83.8166" x2="67.8796" y2="83.8166" gradientUnits="userSpaceOnUse">
<stop stop-color="#612152"/>
<stop offset="1" stop-color="#92205D"/>
</linearGradient>
<linearGradient id="paint33_linear_516_95925" x1="78.9137" y1="87.4966" x2="71.2324" y2="79.8152" gradientUnits="userSpaceOnUse">
<stop stop-color="#DE0086"/>
<stop offset="1" stop-color="#FF003B"/>
</linearGradient>
<radialGradient id="paint34_radial_516_95925" cx="0" cy="0" r="1" gradientUnits="userSpaceOnUse" gradientTransform="translate(75.3161 81.3232) scale(11.8064 11.8062)">
<stop offset="0.0952" stop-color="#B41E2D"/>
<stop offset="0.3436" stop-color="#7B141F"/>
<stop offset="0.6559" stop-color="#39090E"/>
<stop offset="0.8833" stop-color="#100304"/>
<stop offset="1"/>
</radialGradient>
<linearGradient id="paint35_linear_516_95925" x1="73.1513" y1="35.9595" x2="77.1147" y2="40.2323" gradientUnits="userSpaceOnUse">
<stop stop-color="#612152"/>
<stop offset="1" stop-color="#92205D"/>
</linearGradient>
<linearGradient id="paint36_linear_516_95925" x1="76.7113" y1="39.5522" x2="73.1891" y2="36.03" gradientUnits="userSpaceOnUse">
<stop stop-color="#DE0086"/>
<stop offset="1" stop-color="#FF003B"/>
</linearGradient>
<linearGradient id="paint37_linear_516_95925" x1="73.1508" y1="128.927" x2="77.1143" y2="133.2" gradientUnits="userSpaceOnUse">
<stop stop-color="#612152"/>
<stop offset="1" stop-color="#92205D"/>
</linearGradient>
<linearGradient id="paint38_linear_516_95925" x1="76.7112" y1="132.52" x2="73.1891" y2="128.998" gradientUnits="userSpaceOnUse">
<stop stop-color="#DE0086"/>
<stop offset="1" stop-color="#FF003B"/>
</linearGradient>
<linearGradient id="paint39_linear_516_95925" x1="38.0004" y1="53.3884" x2="41.9638" y2="57.6612" gradientUnits="userSpaceOnUse">
<stop stop-color="#612152"/>
<stop offset="1" stop-color="#92205D"/>
</linearGradient>
<linearGradient id="paint40_linear_516_95925" x1="41.5607" y1="56.9814" x2="38.0385" y2="53.4592" gradientUnits="userSpaceOnUse">
<stop stop-color="#DE0086"/>
<stop offset="1" stop-color="#FF003B"/>
</linearGradient>
<linearGradient id="paint41_linear_516_95925" x1="108.992" y1="53.3884" x2="112.956" y2="57.6612" gradientUnits="userSpaceOnUse">
<stop stop-color="#612152"/>
<stop offset="1" stop-color="#92205D"/>
</linearGradient>
<linearGradient id="paint42_linear_516_95925" x1="112.553" y1="56.9814" x2="109.03" y2="53.4592" gradientUnits="userSpaceOnUse">
<stop stop-color="#DE0086"/>
<stop offset="1" stop-color="#FF003B"/>
</linearGradient>
<linearGradient id="paint43_linear_516_95925" x1="59.9584" y1="19.5337" x2="61.1516" y2="19.5337" gradientUnits="userSpaceOnUse">
<stop stop-color="#4133A1"/>
<stop offset="1" stop-color="#4A34A2"/>
</linearGradient>
<linearGradient id="paint44_linear_516_95925" x1="61.7639" y1="28.5305" x2="61.7639" y2="16.1878" gradientUnits="userSpaceOnUse">
<stop stop-color="#4133A1"/>
<stop offset="1" stop-color="#D241B4"/>
</linearGradient>
<linearGradient id="paint45_linear_516_95925" x1="87.6324" y1="19.5337" x2="88.8257" y2="19.5337" gradientUnits="userSpaceOnUse">
<stop stop-color="#4133A1"/>
<stop offset="1" stop-color="#4A34A2"/>
</linearGradient>
<linearGradient id="paint46_linear_516_95925" x1="86.9625" y1="28.5301" x2="86.9625" y2="16.187" gradientUnits="userSpaceOnUse">
<stop stop-color="#4133A1"/>
<stop offset="1" stop-color="#D241B4"/>
</linearGradient>
<linearGradient id="paint47_linear_516_95925" x1="100.327" y1="21.5948" x2="48.3416" y2="21.5948" gradientUnits="userSpaceOnUse">
<stop stop-color="#1B8BBF"/>
<stop offset="0.5714" stop-color="#F046ED"/>
<stop offset="0.994" stop-color="#F7C319"/>
</linearGradient>
<linearGradient id="paint48_linear_516_95925" x1="92.4761" y1="26.3566" x2="92.4761" y2="19.0378" gradientUnits="userSpaceOnUse">
<stop stop-color="#C6AFFF"/>
<stop offset="1" stop-color="#FDBFFF"/>
</linearGradient>
<linearGradient id="paint49_linear_516_95925" x1="56.0197" y1="26.3621" x2="56.0197" y2="18.5161" gradientUnits="userSpaceOnUse">
<stop stop-color="#C6AFFF"/>
<stop offset="1" stop-color="#FDBFFF"/>
</linearGradient>
<linearGradient id="paint50_linear_516_95925" x1="74.1813" y1="8.81904" x2="74.1813" y2="0.000173463" gradientUnits="userSpaceOnUse">
<stop stop-color="#C6AFFF"/>
<stop offset="1" stop-color="#FDBFFF"/>
</linearGradient>
<linearGradient id="paint51_linear_516_95925" x1="88.4859" y1="38.1329" x2="79.7328" y2="38.1329" gradientUnits="userSpaceOnUse">
<stop stop-color="#E42A7B"/>
<stop offset="1" stop-color="white"/>
</linearGradient>
<linearGradient id="paint52_linear_516_95925" x1="91.376" y1="30.8022" x2="81.6168" y2="30.8022" gradientUnits="userSpaceOnUse">
<stop stop-color="#E42A7B"/>
<stop offset="1" stop-color="white"/>
</linearGradient>
<linearGradient id="paint53_linear_516_95925" x1="83.358" y1="27.7034" x2="87.3214" y2="31.9763" gradientUnits="userSpaceOnUse">
<stop stop-color="#612152"/>
<stop offset="1" stop-color="#92205D"/>
</linearGradient>
<linearGradient id="paint54_linear_516_95925" x1="86.9183" y1="31.2966" x2="83.3962" y2="27.7744" gradientUnits="userSpaceOnUse">
<stop stop-color="#DE0086"/>
<stop offset="1" stop-color="#FF003B"/>
</linearGradient>
<linearGradient id="paint55_linear_516_95925" x1="62.7783" y1="27.7771" x2="66.7418" y2="32.0498" gradientUnits="userSpaceOnUse">
<stop stop-color="#612152"/>
<stop offset="1" stop-color="#92205D"/>
</linearGradient>
<linearGradient id="paint56_linear_516_95925" x1="66.3381" y1="31.3719" x2="62.816" y2="27.8497" gradientUnits="userSpaceOnUse">
<stop stop-color="#DE0086"/>
<stop offset="1" stop-color="#FF003B"/>
</linearGradient>
<linearGradient id="paint57_linear_516_95925" x1="74.5588" y1="29.4439" x2="74.5588" y2="14.3059" gradientUnits="userSpaceOnUse">
<stop stop-color="#1B8BBF"/>
<stop offset="0.5714" stop-color="#F046ED"/>
<stop offset="0.994" stop-color="#F7C319"/>
</linearGradient>
<linearGradient id="paint58_linear_516_95925" x1="82.8744" y1="25.1625" x2="66.2447" y2="25.1625" gradientUnits="userSpaceOnUse">
<stop stop-color="#4A5BAD"/>
<stop offset="1" stop-color="#9158BC"/>
</linearGradient>
<linearGradient id="paint59_linear_516_95925" x1="70.3946" y1="16.0898" x2="66.9157" y2="16.0898" gradientUnits="userSpaceOnUse">
<stop stop-color="#EBBD38"/>
<stop offset="1" stop-color="#FFF29E"/>
</linearGradient>
<linearGradient id="paint60_linear_516_95925" x1="81.5348" y1="20.9492" x2="67.6615" y2="20.9492" gradientUnits="userSpaceOnUse">
<stop stop-color="#612152"/>
<stop offset="1" stop-color="#92205D"/>
</linearGradient>
<linearGradient id="paint61_linear_516_95925" x1="78.6955" y1="24.6296" x2="71.0141" y2="16.948" gradientUnits="userSpaceOnUse">
<stop stop-color="#DE0086"/>
<stop offset="1" stop-color="#FF003B"/>
</linearGradient>
</defs>
</svg>
