<svg width="27" height="35" viewBox="0 0 27 35" fill="none" xmlns="http://www.w3.org/2000/svg">
<path fill-rule="evenodd" clip-rule="evenodd" d="M5.76861 2.09477L6.23077 1.93878C8.58531 1.13443 10.9904 0.486759 13.4304 0H13.5195C15.9606 0.480154 18.3675 1.12037 20.7247 1.91649L21.1868 2.07248L21.365 2.12819V2.31762C21.1946 4.0849 21.6413 5.85668 22.629 7.33169C23.6085 8.85533 25.0992 9.97936 26.833 10.5017L27 10.5518V15.4099C27 20.1566 25.7861 24.4687 22.59 28.0677C20.1122 30.8533 16.9328 32.714 13.6476 34.4133L13.4972 34.4912L13.3469 34.4133C10.0672 32.7419 6.88781 30.8644 4.40998 28.0677C1.21386 24.4687 0 20.1566 0 15.4099V10.5518L0.167046 10.5017C1.89924 9.97628 3.38893 8.85298 4.371 7.33169C5.35978 5.8573 5.80471 4.08448 5.62941 2.31762V2.12819L5.80759 2.07248L5.76861 2.09477Z" fill="#666666"/>
</svg>
