<svg width="16" height="16" viewBox="0 0 16 16" fill="none" xmlns="http://www.w3.org/2000/svg">
<path d="M9.50789 10.665H6.17456" stroke="white" stroke-width="1.5" stroke-miterlimit="10" stroke-linecap="round" stroke-linejoin="round"/>
<path d="M8.43997 1.67843L8.41997 1.7251L6.48664 6.21176H4.58664C4.13331 6.21176 3.69997 6.3051 3.30664 6.47176L4.47331 3.6851L4.49997 3.61843L4.54664 3.51176C4.55997 3.47176 4.57331 3.43176 4.59331 3.39843C5.46664 1.37843 6.45331 0.918432 8.43997 1.67843Z" stroke="white" stroke-width="1.5" stroke-linecap="round" stroke-linejoin="round"/>
<path d="M12.0332 6.34538C11.7332 6.25204 11.4132 6.21204 11.0932 6.21204H6.48657L8.41991 1.72538L8.43991 1.67871C8.53991 1.71204 8.63324 1.75871 8.73324 1.79871L10.2066 2.41871C11.0266 2.75871 11.5999 3.11204 11.9466 3.53871C12.0132 3.61871 12.0666 3.69204 12.1132 3.77871C12.1732 3.87204 12.2199 3.96538 12.2466 4.06538C12.2732 4.12538 12.2932 4.18538 12.3066 4.23871C12.4866 4.79871 12.3799 5.48538 12.0332 6.34538Z" stroke="white" stroke-width="1.5" stroke-linecap="round" stroke-linejoin="round"/>
<path d="M14.3477 9.46525V10.7652C14.3477 10.8986 14.3411 11.0319 14.3344 11.1652C14.2077 13.4919 12.9077 14.6652 10.4411 14.6652H5.24106C5.08106 14.6652 4.92106 14.6519 4.76773 14.6319C2.64773 14.4919 1.5144 13.3586 1.3744 11.2386C1.3544 11.0852 1.34106 10.9252 1.34106 10.7652V9.46525C1.34106 8.12525 2.1544 6.97191 3.3144 6.47191C3.7144 6.30525 4.14106 6.21191 4.5944 6.21191H11.1011C11.4277 6.21191 11.7477 6.25858 12.0411 6.34525C13.3677 6.75191 14.3477 7.99191 14.3477 9.46525Z" stroke="white" stroke-width="1.5" stroke-linecap="round" stroke-linejoin="round"/>
<path d="M4.47325 3.68555L3.30659 6.47221C2.14659 6.97221 1.33325 8.12555 1.33325 9.46555V7.51221C1.33325 5.61888 2.67992 4.03888 4.47325 3.68555Z" stroke="white" stroke-width="1.5" stroke-linecap="round" stroke-linejoin="round"/>
<path d="M14.3457 7.5121V9.46543C14.3457 7.99876 13.3724 6.7521 12.0391 6.3521C12.3857 5.48543 12.4857 4.80543 12.3191 4.23876C12.3057 4.17876 12.2857 4.11876 12.2591 4.06543C13.4991 4.70543 14.3457 6.01876 14.3457 7.5121Z" stroke="white" stroke-width="1.5" stroke-linecap="round" stroke-linejoin="round"/>
</svg>
